<svg width="3929" height="4017" viewBox="0 0 3929 4017" fill="none" xmlns="http://www.w3.org/2000/svg">
<g clip-path="url(#clip0_30_3)">
<g filter="url(#filter0_dd_30_3)">
<path d="M3873.33 1498.22V1518.72H3899.42L3893.25 1493.37L3873.33 1498.22ZM3801.61 1267.1L3820.78 1259.82L3820.78 1259.82L3801.61 1267.1ZM3085.04 1498.22L3066.12 1506.1L3071.37 1518.72H3085.04V1498.22ZM2957.55 1267.1L2974.31 1255.31L2974.31 1255.31L2957.55 1267.1ZM2893.59 1184.04L2909.28 1170.84L2909.28 1170.84L2893.59 1184.04ZM2745.64 1035.98L2758.85 1020.3L2758.85 1020.3L2745.64 1035.98ZM2662.47 971.854L2650.67 988.614L2650.67 988.614L2662.47 971.854ZM2567.11 911.114L2577.31 893.329L2577.31 893.329L2567.11 911.114ZM2515.78 883.305L2525.11 865.05L2525.11 865.05L2515.78 883.305ZM2431.35 844.197L2423.46 863.116L2423.46 863.116L2431.35 844.197ZM2322.69 804.865L2316.64 824.454L2316.64 824.454L2322.69 804.865ZM2200.24 774.015L2196.28 794.129L2196.28 794.129L2200.24 774.015ZM2013.46 752.1L2014.28 731.616L2014.28 731.616L2013.46 752.1ZM1969.12 751.139L1969.2 730.639L1969.19 730.639L1969.12 751.139ZM1916.19 752.074L1915.39 731.59L1915.39 731.59L1916.19 752.074ZM1738 772.233L1741.81 792.378L1741.81 792.378L1738 772.233ZM1606.31 804.865L1600.27 785.276L1600.27 785.276L1606.31 804.865ZM1506.89 840.387L1499.15 821.402L1499.15 821.402L1506.89 840.387ZM1423.94 877.898L1433.08 896.245L1433.08 896.245L1423.94 877.898ZM1353.55 915.935L1343.22 898.231L1343.22 898.231L1353.55 915.935ZM1275.77 965.346L1264.14 948.465L1264.14 948.466L1275.77 965.346ZM1183 1035.98L1169.82 1020.28L1169.82 1020.28L1183 1035.98ZM1044.65 1172.18L1029.15 1158.76L1029.15 1158.76L1044.65 1172.18ZM970.364 1267.1L953.611 1255.29L953.611 1255.29L970.364 1267.1ZM842.792 1498.22L861.722 1506.09L861.722 1506.09L842.792 1498.22ZM813.534 1576.19L832.967 1582.71L832.967 1582.71L813.534 1576.19ZM773.181 1729.34L753.055 1725.44L748.329 1749.84L773.181 1749.84L773.181 1729.34ZM1401.82 1729.34L1401.82 1749.84L1416.18 1749.84L1421.09 1736.35L1401.82 1729.34ZM1485.83 1498.33L1505.1 1505.34L1505.1 1505.34L1485.83 1498.33ZM1506.85 1440.54L1487.58 1433.54L1487.58 1433.54L1506.85 1440.54ZM1569.89 1267.19L1550.62 1260.18L1550.62 1260.18L1569.89 1267.19ZM1653.95 1036.05L1673.21 1043.05L1673.21 1043.05L1653.95 1036.05ZM1726.09 837.667L1721.86 817.607L1710.72 819.955L1706.82 830.661L1726.09 837.667ZM1738 835.224L1733.99 815.12L1733.99 815.12L1738 835.224ZM1748.3 833.218L1744.47 813.079L1744.47 813.079L1748.3 833.218ZM1963.96 813L1963.97 792.5L1963.96 792.5L1963.96 813ZM1965 813L1965.03 792.5L1965.02 792.5L1965.01 792.5L1965 813ZM1965.99 813.002L1966.03 792.502L1966.02 792.502L1965.99 813.002ZM1969.16 813.011L1969.25 792.511L1969.24 792.511L1969.16 813.011ZM2189.33 835.108L2185.33 855.214L2185.33 855.214L2189.33 835.108ZM2200.31 837.349L2196.11 857.415L2196.12 857.415L2200.31 837.349ZM2213.11 840.104L2232.38 833.098L2228.53 822.52L2217.54 820.088L2213.11 840.104ZM2284.37 1036.05L2265.1 1043.05L2265.1 1043.05L2284.37 1036.05ZM2368.43 1267.19L2387.69 1260.18L2387.69 1260.18L2368.43 1267.19ZM2431.47 1440.55L2450.73 1433.54L2450.73 1433.54L2431.47 1440.55ZM2452.48 1498.33L2433.22 1505.34L2433.22 1505.34L2452.48 1498.33ZM2536.49 1729.34L2517.23 1736.35L2522.13 1749.84L2536.49 1749.84L2536.49 1729.34ZM3155.1 1729.34L3155.1 1749.84L3155.1 1749.84L3155.1 1729.34ZM3915.07 1729.34L3935.43 1726.91L3933.27 1708.84L3915.07 1708.84L3915.07 1729.34ZM3929 1960.46L3949.5 1960.42L3949.5 1960.42L3929 1960.46ZM3916.02 2191.58L3895.65 2189.23L3895.65 2189.23L3916.02 2191.58ZM3875.28 2422.69L3855.34 2417.93L3855.34 2417.93L3875.28 2422.69ZM3804.66 2653.81L3823.86 2661.01L3823.86 2661.01L3804.66 2653.81ZM3700.47 2884.93L3718.58 2894.55L3718.58 2894.55L3700.47 2884.93ZM3556.28 3116.05L3572.88 3128.07L3572.88 3128.07L3556.28 3116.05ZM3360.03 3347.16L3345.47 3332.73L3345.47 3332.73L3360.03 3347.16ZM3124.71 3549.97L3112.59 3533.43L3112.59 3533.43L3124.71 3549.97ZM2893.59 3695.85L2903.3 3713.9L2903.3 3713.9L2893.59 3695.85ZM2662.47 3801.39L2655.19 3782.23L2655.19 3782.23L2662.47 3801.39ZM2431.35 3873.19L2426.5 3853.27L2426.5 3853.27L2431.35 3873.19ZM2200.24 3915L2197.8 3894.65L2197.8 3894.65L2200.24 3915ZM1964.5 3929L1964.5 3908.5H1964.5V3929ZM1738 3916.03L1735.65 3936.39L1735.65 3936.39L1738 3916.03ZM1506.88 3875.19L1511.66 3855.25L1511.66 3855.25L1506.88 3875.19ZM1275.77 3804.37L1268.56 3823.56L1268.56 3823.56L1275.77 3804.37ZM1044.65 3699.88L1054.29 3681.78L1054.29 3681.78L1044.65 3699.88ZM813.534 3555.3L801.484 3571.88L801.484 3571.88L813.534 3555.3ZM570.99 3347.16L585.551 3332.73L585.551 3332.73L570.99 3347.16ZM374.634 3116.04L391.227 3104.01L391.227 3104.01L374.634 3116.04ZM230.192 2884.93L212.098 2894.56L212.098 2894.56L230.192 2884.93ZM125.661 2653.81L106.475 2661.03L106.475 2661.03L125.661 2653.81ZM54.6337 2422.69V2402.19H28.6114L34.7033 2427.49L54.6337 2422.69ZM841.78 2422.69L860.754 2414.93L855.543 2402.19H841.78V2422.69ZM947.506 2624.82L930.306 2635.97L930.306 2635.97L947.506 2624.82ZM966.904 2653.81L950.03 2665.45L950.03 2665.45L966.904 2653.81ZM1033.66 2741.81L1017.91 2754.92L1017.91 2754.92L1033.66 2741.81ZM1044.65 2754.82L1029.08 2768.15L1029.08 2768.15L1044.65 2754.82ZM1174.24 2884.93L1187.63 2869.41L1187.63 2869.41L1174.24 2884.93ZM1275.77 2963.53L1287.44 2946.67L1287.44 2946.67L1275.77 2963.53ZM1310.77 2986.86L1321.84 2969.6L1321.84 2969.6L1310.77 2986.86ZM1353.55 3013.06L1363.89 2995.36L1363.89 2995.36L1353.55 3013.06ZM1389.85 3033.43L1399.57 3015.38L1399.57 3015.38L1389.85 3033.43ZM1506.88 3088.61L1514.62 3069.63L1514.62 3069.63L1506.88 3088.61ZM1581.09 3116.04L1587.56 3096.59L1587.56 3096.59L1581.09 3116.04ZM1738 3156.76L1734.2 3176.91L1734.2 3176.91L1738 3156.76ZM1969.12 3177.86L1969.04 3157.36L1969.04 3157.36L1969.12 3177.86ZM2200.24 3154.98L2204.2 3175.1L2204.2 3175.1L2200.24 3154.98ZM2347.91 3116.05L2354.38 3135.5L2354.38 3135.5L2347.91 3116.05ZM2431.35 3084.8L2423.46 3065.88L2423.46 3065.88L2431.35 3084.8ZM2546.86 3029.24L2556.72 3047.21L2556.72 3047.21L2546.86 3029.24ZM2567.11 3017.88L2577.31 3035.67L2577.31 3035.67L2567.11 3017.88ZM2625.69 2982.06L2636.87 2999.24L2636.87 2999.24L2625.69 2982.06ZM2662.47 2957.14L2650.67 2940.38L2650.67 2940.38L2662.47 2957.14ZM2755.15 2884.93L2741.78 2869.38L2741.78 2869.38L2755.15 2884.93ZM2893.59 2744.96L2877.9 2731.77L2877.9 2731.77L2893.59 2744.96ZM2902.03 2734.81L2917.86 2747.83L2917.86 2747.83L2902.03 2734.81ZM2963.19 2653.81L2946.33 2642.15L2946.33 2642.15L2963.19 2653.81ZM2988.32 2615.97L2971.04 2604.95L2971.04 2604.95L2988.32 2615.97ZM3088.37 2422.69L3107.35 2430.44L3107.35 2430.44L3088.37 2422.69ZM3124.71 2320.82L3144.3 2326.83L3144.3 2326.83L3124.71 2320.82ZM3156.65 2191.58L3176.8 2195.39L3181.4 2171.08H3156.65V2191.58ZM2704.59 2191.58V2171.08H2675.31L2685.32 2198.59L2704.59 2191.58ZM2704.65 2191.75L2723.92 2184.75L2723.91 2184.74L2704.65 2191.75ZM2788.71 2422.89L2807.97 2415.89L2807.97 2415.89L2788.71 2422.89ZM2872.76 2654.03L2853.5 2661.04L2853.5 2661.04L2872.76 2654.03ZM2875 2660.18L2891.25 2672.67L2898.11 2663.75L2894.26 2653.17L2875 2660.18ZM2662.62 2872.46L2675.11 2888.72L2675.11 2888.72L2662.62 2872.46ZM2645.74 2885.17L2633.56 2868.68L2633.55 2868.69L2645.74 2885.17ZM2644.34 2886.21L2656.5 2902.72L2656.5 2902.71L2644.34 2886.21ZM2523.25 2964.21L2503.99 2971.22L2512.22 2993.86L2533.25 2982.11L2523.25 2964.21ZM2494.51 2885.17L2475.24 2892.18L2475.24 2892.18L2494.51 2885.17ZM2431.47 2711.82L2450.73 2704.81L2450.73 2704.81L2431.47 2711.82ZM2410.45 2654.03L2391.19 2661.04L2391.19 2661.04L2410.45 2654.03ZM2326.4 2422.89L2345.66 2415.89L2345.66 2415.89L2326.4 2422.89ZM2242.34 2191.75L2223.08 2198.76L2223.08 2198.76L2242.34 2191.75ZM2200.31 2076.18L2219.58 2069.17L2219.58 2069.17L2200.31 2076.18ZM2158.29 1960.61L2139.02 1967.62L2139.02 1967.62L2158.29 1960.61ZM2074.23 1729.47L2093.49 1722.47L2093.49 1722.47L2074.23 1729.47ZM1990.17 1498.33L1970.91 1505.34L1970.91 1505.34L1990.17 1498.33ZM1969.16 1440.54L1988.42 1433.54L1969.16 1380.56L1949.89 1433.54L1969.16 1440.54ZM1948.14 1498.33L1967.41 1505.34L1967.41 1505.34L1948.14 1498.33ZM1864.09 1729.47L1883.35 1736.48L1883.35 1736.48L1864.09 1729.47ZM1780.03 1960.61L1799.3 1967.62L1799.3 1967.62L1780.03 1960.61ZM1738 2076.18L1718.74 2069.17L1718.74 2069.17L1738 2076.18ZM1695.97 2191.75L1715.24 2198.76L1715.24 2198.76L1695.97 2191.75ZM1611.92 2422.89L1592.65 2415.89L1592.65 2415.89L1611.92 2422.89ZM1527.86 2654.03L1508.6 2647.03L1508.6 2647.03L1527.86 2654.03ZM1506.85 2711.82L1526.11 2718.82L1526.11 2718.82L1506.85 2711.82ZM1443.81 2885.17L1463.07 2892.18L1463.07 2892.18L1443.81 2885.17ZM1413.32 2969L1403.48 2986.98L1424.42 2998.45L1432.59 2976.01L1413.32 2969ZM1282.17 2885.17L1269.99 2901.66L1269.99 2901.66L1282.17 2885.17ZM1275.69 2880.35L1263.39 2896.75L1263.4 2896.75L1275.69 2880.35ZM1060 2669.3L1040.73 2662.3L1036.84 2673L1043.87 2681.96L1060 2669.3ZM1065.55 2654.03L1046.29 2647.03L1046.29 2647.03L1065.55 2654.03ZM1149.61 2422.89L1130.34 2415.89L1130.34 2415.89L1149.61 2422.89ZM1233.66 2191.75L1252.93 2198.76L1252.93 2198.76L1233.66 2191.75ZM1233.73 2191.58L1252.99 2198.58L1263 2171.08H1233.73V2191.58ZM13.4455 2191.58L-6.91535 2193.96L-4.79397 2212.08H13.4455V2191.58ZM6.29946 2118.96L-14.1356 2120.59L-14.1356 2120.59L6.29946 2118.96ZM0.000646845 1960.46L-20.4994 1960.46L0.000646845 1960.46ZM13.4593 1729.34L-6.90118 1726.95L-6.90118 1726.95L13.4593 1729.34ZM54.7473 1498.22L34.8204 1493.41L34.8204 1493.41L54.7473 1498.22ZM126.055 1267.1L145.23 1274.35L145.23 1274.35L126.055 1267.1ZM231.172 1035.98L249.24 1045.67L249.24 1045.67L231.172 1035.98ZM376.694 804.865L393.239 816.97L393.239 816.97L376.694 804.865ZM575.008 573.748L589.487 588.261L589.487 588.261L575.008 573.748ZM813.534 370.9L801.536 354.278L801.536 354.278L813.534 370.9ZM1044.65 227.312L1035.07 209.191L1035.07 209.191L1044.65 227.312ZM1275.77 123.604L1268.6 104.396L1268.6 104.396L1275.77 123.604ZM1506.89 53.3496L1511.62 73.2943L1511.62 73.2943L1506.89 53.3496ZM1738 12.8577L1740.33 33.2251L1740.33 33.2251L1738 12.8577ZM1964.5 -0.000863746L1964.5 -20.5009L1964.5 -0.000863746ZM1969.12 0.00450876L1969.17 -20.4954L1969.16 -20.4954L1969.12 0.00450876ZM2200.24 13.9977L2202.67 -6.35721L2202.67 -6.35721L2200.24 13.9977ZM2431.35 55.8086L2426.5 75.7255L2426.5 75.7255L2431.35 55.8086ZM2662.47 127.605L2669.76 108.443L2669.76 108.443L2662.47 127.605ZM2893.59 233.155L2883.88 251.21L2883.88 251.21L2893.59 233.155ZM3124.71 379.034L3136.83 362.5L3136.83 362.5L3124.71 379.034ZM3351.97 573.749L3366.45 559.236L3366.45 559.236L3351.97 573.749ZM3550.38 804.865L3533.85 816.979L3533.85 816.979L3550.38 804.865ZM3696.15 1035.98L3678.09 1045.69L3678.09 1045.69L3696.15 1035.98ZM3893.25 1493.37C3873.81 1413.52 3849.54 1335.56 3820.78 1259.82L3782.45 1274.38C3810.62 1348.55 3834.38 1424.88 3853.41 1503.07L3893.25 1493.37ZM3085.04 1518.72H3873.33V1477.72H3085.04V1518.72ZM2940.78 1278.9C2990.39 1349.4 3032.55 1425.52 3066.12 1506.1L3103.96 1490.34C3069.23 1406.97 3025.62 1328.23 2974.31 1255.31L2940.78 1278.9ZM2877.9 1197.23C2900 1223.51 2920.98 1250.76 2940.78 1278.9L2974.31 1255.31C2953.84 1226.2 2932.13 1198.02 2909.28 1170.84L2877.9 1197.23ZM2732.44 1051.66C2784.99 1095.92 2833.68 1144.64 2877.9 1197.23L2909.28 1170.84C2863.55 1116.46 2813.2 1066.08 2758.85 1020.3L2732.44 1051.66ZM2650.67 988.614C2678.85 1008.46 2706.13 1029.51 2732.44 1051.66L2758.85 1020.3C2731.64 997.387 2703.42 975.626 2674.28 955.095L2650.67 988.614ZM2556.92 928.898C2589.14 947.372 2620.42 967.307 2650.67 988.614L2674.28 955.095C2643 933.059 2610.64 912.439 2577.31 893.329L2556.92 928.898ZM2506.45 901.561C2523.52 910.279 2540.34 919.395 2556.92 928.898L2577.31 893.329C2560.16 883.499 2542.76 874.068 2525.11 865.05L2506.45 901.561ZM2423.46 863.116C2451.69 874.893 2479.37 887.724 2506.45 901.561L2525.11 865.05C2497.09 850.736 2468.45 837.462 2439.25 825.277L2423.46 863.116ZM2316.64 824.454C2353.02 835.678 2388.66 848.596 2423.46 863.116L2439.25 825.277C2403.24 810.255 2366.37 796.889 2328.73 785.276L2316.64 824.454ZM2196.28 794.129C2237.19 802.184 2277.35 812.331 2316.64 824.454L2328.73 785.276C2288.07 772.733 2246.52 762.235 2204.2 753.901L2196.28 794.129ZM2012.65 772.584C2075.23 775.067 2136.56 782.37 2196.28 794.129L2204.2 753.901C2142.41 741.736 2078.98 734.184 2014.28 731.616L2012.65 772.584ZM1969.04 771.639C1983.64 771.693 1998.18 772.01 2012.65 772.584L2014.28 731.616C1999.32 731.022 1984.29 730.695 1969.2 730.639L1969.04 771.639ZM1964.5 771.63C1966.01 771.63 1967.53 771.633 1969.04 771.639L1969.19 730.639C1967.63 730.633 1966.07 730.63 1964.5 730.63V771.63ZM1916.99 772.559C1932.75 771.942 1948.59 771.63 1964.5 771.63V730.63C1948.05 730.63 1931.68 730.952 1915.39 731.59L1916.99 772.559ZM1741.81 792.378C1798.86 781.605 1857.36 774.894 1916.99 772.559L1915.39 731.59C1853.73 734.004 1793.23 740.944 1734.2 752.089L1741.81 792.378ZM1612.36 824.454C1654.55 811.436 1697.75 800.695 1741.81 792.378L1734.2 752.089C1688.62 760.695 1643.93 771.807 1600.27 785.276L1612.36 824.454ZM1514.62 859.371C1546.53 846.366 1579.14 834.704 1612.36 824.454L1600.27 785.276C1565.9 795.881 1532.17 807.948 1499.15 821.402L1514.62 859.371ZM1433.08 896.245C1459.71 882.971 1486.91 870.665 1514.62 859.371L1499.15 821.402C1470.47 833.087 1442.34 845.819 1414.79 859.551L1433.08 896.245ZM1363.89 933.638C1386.49 920.44 1409.57 907.966 1433.08 896.245L1414.79 859.551C1390.46 871.676 1366.6 884.58 1343.22 898.231L1363.89 933.638ZM1287.4 982.227C1312.23 965.117 1337.74 948.905 1363.89 933.638L1343.22 898.231C1316.19 914.015 1289.81 930.776 1264.14 948.465L1287.4 982.227ZM1196.18 1051.69C1225.42 1027.15 1255.86 1003.96 1287.4 982.227L1264.14 948.466C1231.53 970.936 1200.05 994.907 1169.82 1020.28L1196.18 1051.69ZM1060.15 1185.6C1101.82 1137.47 1147.32 1092.69 1196.18 1051.69L1169.82 1020.28C1119.31 1062.67 1072.26 1108.98 1029.15 1158.76L1060.15 1185.6ZM987.116 1278.92C1009.91 1246.59 1034.3 1215.45 1060.15 1185.6L1029.15 1158.76C1002.42 1189.64 977.197 1221.85 953.611 1255.29L987.116 1278.92ZM861.722 1506.09C895.231 1425.47 937.413 1349.38 987.116 1278.92L953.611 1255.29C902.194 1328.18 858.543 1406.91 823.862 1490.35L861.722 1506.09ZM832.967 1582.71C841.687 1556.75 851.284 1531.2 861.722 1506.09L823.862 1490.35C813.059 1516.34 803.126 1542.79 794.101 1569.66L832.967 1582.71ZM793.307 1733.24C803.276 1681.76 816.574 1631.52 832.967 1582.71L794.101 1569.66C777.134 1620.17 763.372 1672.17 753.055 1725.44L793.307 1733.24ZM1401.82 1708.84L773.181 1708.84L773.181 1749.84L1401.82 1749.84L1401.82 1708.84ZM1421.09 1736.35L1505.1 1505.34L1466.57 1491.32L1382.56 1722.34L1421.09 1736.35ZM1505.1 1505.34L1526.11 1447.55L1487.58 1433.54L1466.57 1491.32L1505.1 1505.34ZM1526.11 1447.55L1589.16 1274.19L1550.62 1260.18L1487.58 1433.54L1526.11 1447.55ZM1589.16 1274.19L1673.21 1043.05L1634.68 1029.04L1550.62 1260.18L1589.16 1274.19ZM1673.21 1043.05L1745.35 844.673L1706.82 830.661L1634.68 1029.04L1673.21 1043.05ZM1730.32 857.726C1734.21 856.907 1738.11 856.107 1742.01 855.327L1733.99 815.12C1729.94 815.928 1725.9 816.757 1721.86 817.607L1730.32 857.726ZM1742.01 855.327C1745.38 854.656 1748.75 853.999 1752.13 853.358L1744.47 813.079C1740.97 813.744 1737.48 814.424 1733.99 815.12L1742.01 855.327ZM1752.12 853.358C1820.72 840.324 1891.53 833.5 1963.96 833.5L1963.96 792.5C1888.95 792.5 1815.58 799.567 1744.47 813.079L1752.12 853.358ZM1963.95 833.5L1965 833.5L1965.01 792.5L1963.97 792.5L1963.95 833.5ZM1964.98 833.5L1965.97 833.502L1966.02 792.502L1965.03 792.5L1964.98 833.5ZM1965.96 833.501C1966.99 833.503 1968.03 833.507 1969.07 833.511L1969.24 792.511C1968.18 792.507 1967.11 792.504 1966.03 792.502L1965.96 833.501ZM1969.07 833.511C2043.07 833.839 2115.37 841.292 2185.33 855.214L2193.33 815.002C2120.81 800.571 2045.89 792.852 1969.25 792.511L1969.07 833.511ZM2185.33 855.214C2188.93 855.93 2192.53 856.664 2196.11 857.415L2204.51 817.284C2200.79 816.506 2197.06 815.745 2193.33 815.002L2185.33 855.214ZM2196.12 857.415C2200.31 858.293 2204.5 859.195 2208.68 860.12L2217.54 820.088C2213.21 819.129 2208.86 818.194 2204.51 817.284L2196.12 857.415ZM2193.85 847.11L2265.1 1043.05L2303.63 1029.04L2232.38 833.098L2193.85 847.11ZM2265.1 1043.05L2349.16 1274.19L2387.69 1260.18L2303.63 1029.04L2265.1 1043.05ZM2349.16 1274.19L2412.2 1447.55L2450.73 1433.54L2387.69 1260.18L2349.16 1274.19ZM2412.2 1447.55L2433.22 1505.34L2471.75 1491.32L2450.73 1433.54L2412.2 1447.55ZM2433.22 1505.34L2517.23 1736.35L2555.76 1722.33L2471.75 1491.32L2433.22 1505.34ZM3155.1 1708.84L2536.49 1708.84L2536.49 1749.84L3155.1 1749.84L3155.1 1708.84ZM3915.07 1708.84L3155.1 1708.84L3155.1 1749.84L3915.07 1749.84L3915.07 1708.84ZM3949.5 1960.42C3949.34 1881.42 3944.56 1803.5 3935.43 1726.91L3894.71 1731.77C3903.66 1806.78 3908.34 1883.1 3908.5 1960.5L3949.5 1960.42ZM3949.5 1964.5C3949.5 1963.14 3949.5 1961.78 3949.5 1960.42L3908.5 1960.5C3908.5 1961.83 3908.5 1963.16 3908.5 1964.5H3949.5ZM3936.38 2193.92C3945.05 2118.64 3949.5 2042.09 3949.5 1964.5H3908.5C3908.5 2040.52 3904.14 2115.51 3895.65 2189.23L3936.38 2193.92ZM3895.22 2427.46C3913.43 2351.22 3927.25 2273.28 3936.38 2193.92L3895.65 2189.23C3886.71 2266.96 3873.18 2343.28 3855.34 2417.93L3895.22 2427.46ZM3823.86 2661.01C3852.25 2585.25 3876.15 2507.29 3895.22 2427.46L3855.34 2417.93C3836.67 2496.1 3813.27 2572.43 3785.47 2646.62L3823.86 2661.01ZM3718.58 2894.55C3758.48 2819.44 3793.71 2741.46 3823.86 2661.01L3785.47 2646.62C3755.94 2725.4 3721.45 2801.76 3682.37 2875.31L3718.58 2894.55ZM3572.88 3128.07C3626.61 3053.93 3675.34 2975.92 3718.58 2894.55L3682.37 2875.31C3640.03 2955 3592.3 3031.4 3539.68 3104.02L3572.88 3128.07ZM3374.59 3361.59C3446.48 3289.04 3512.8 3210.97 3572.88 3128.07L3539.68 3104.02C3480.84 3185.21 3415.88 3261.67 3345.47 3332.73L3374.59 3361.59ZM3136.83 3566.5C3221.42 3504.49 3300.93 3435.94 3374.59 3361.59L3345.47 3332.73C3273.31 3405.55 3195.44 3472.7 3112.59 3533.43L3136.83 3566.5ZM2903.3 3713.9C2984.72 3670.12 3062.73 3620.82 3136.83 3566.5L3112.59 3533.43C3040.01 3586.63 2963.61 3634.91 2883.88 3677.79L2903.3 3713.9ZM2669.76 3820.56C2750.24 3789.96 2828.22 3754.27 2903.3 3713.9L2883.88 3677.79C2810.36 3717.33 2734 3752.27 2655.19 3782.23L2669.76 3820.56ZM2436.21 3893.11C2516.06 3873.64 2594.02 3849.35 2669.76 3820.56L2655.19 3782.23C2581.02 3810.43 2504.69 3834.22 2426.5 3853.27L2436.21 3893.11ZM2202.67 3935.36C2282.05 3925.86 2359.99 3911.69 2436.21 3893.11L2426.5 3853.27C2351.87 3871.47 2275.54 3885.35 2197.8 3894.65L2202.67 3935.36ZM1964.5 3949.5C2045.09 3949.5 2124.58 3944.7 2202.67 3935.36L2197.8 3894.65C2121.32 3903.79 2043.46 3908.5 1964.5 3908.5L1964.5 3949.5ZM1735.65 3936.39C1810.75 3945.05 1887.11 3949.5 1964.5 3949.5V3908.5C1888.68 3908.5 1813.89 3904.14 1740.35 3895.66L1735.65 3936.39ZM1502.11 3895.12C1578.35 3913.39 1656.29 3927.24 1735.65 3936.39L1740.35 3895.66C1662.63 3886.7 1586.31 3873.14 1511.66 3855.25L1502.11 3895.12ZM1268.56 3823.56C1344.32 3852.03 1422.28 3876 1502.11 3895.12L1511.66 3855.25C1433.5 3836.53 1357.16 3813.06 1282.98 3785.18L1268.56 3823.56ZM1035.01 3717.97C1110.12 3757.99 1188.1 3793.31 1268.56 3823.56L1282.98 3785.18C1204.2 3755.57 1127.84 3720.97 1054.29 3681.78L1035.01 3717.97ZM801.484 3571.88C875.63 3625.75 953.637 3674.61 1035.01 3717.97L1054.29 3681.78C974.602 3639.33 898.205 3591.47 825.583 3538.71L801.484 3571.88ZM556.428 3361.59C632.224 3438.08 714.179 3508.45 801.484 3571.88L825.583 3538.71C740.072 3476.59 659.797 3407.66 585.551 3332.73L556.428 3361.59ZM358.041 3128.08C418.172 3210.97 484.53 3289.03 556.428 3361.59L585.551 3332.73C515.125 3261.66 450.125 3185.19 391.227 3104.01L358.041 3128.08ZM212.098 2894.56C255.432 2975.93 304.244 3053.93 358.041 3128.08L391.227 3104.01C338.534 3031.38 290.726 2954.97 248.286 2875.29L212.098 2894.56ZM106.475 2661.03C136.754 2741.47 172.092 2819.45 212.098 2894.56L248.286 2875.29C209.104 2801.73 174.498 2725.36 144.847 2646.59L106.475 2661.03ZM34.7033 2427.49C53.9225 2507.31 77.9548 2585.26 106.475 2661.03L144.847 2646.59C116.918 2572.39 93.3844 2496.05 74.564 2417.89L34.7033 2427.49ZM841.78 2402.19H54.6337V2443.19H841.78V2402.19ZM964.705 2613.66C924.179 2551.18 889.287 2484.68 860.754 2414.93L822.806 2430.46C852.316 2502.59 888.4 2571.36 930.306 2635.97L964.705 2613.66ZM983.778 2642.17C977.289 2632.76 970.93 2623.26 964.705 2613.66L930.306 2635.97C936.744 2645.9 943.32 2655.73 950.03 2665.45L983.778 2642.17ZM1049.42 2728.69C1026.28 2700.9 1004.37 2672.03 983.778 2642.17L950.03 2665.45C971.327 2696.32 993.981 2726.18 1017.91 2754.92L1049.42 2728.69ZM1060.22 2741.49C1056.59 2737.25 1052.99 2732.98 1049.42 2728.69L1017.91 2754.92C1021.6 2759.36 1025.32 2763.77 1029.08 2768.15L1060.22 2741.49ZM1187.63 2869.41C1142.04 2830.07 1099.44 2787.29 1060.22 2741.49L1029.08 2768.15C1069.64 2815.52 1113.69 2859.76 1160.85 2900.45L1187.63 2869.41ZM1287.44 2946.67C1252.8 2922.69 1219.49 2896.89 1187.63 2869.41L1160.85 2900.45C1193.8 2928.88 1228.26 2955.57 1264.1 2980.38L1287.44 2946.67ZM1321.84 2969.6C1310.23 2962.16 1298.76 2954.51 1287.44 2946.67L1264.1 2980.38C1275.82 2988.49 1287.69 2996.41 1299.69 3004.11L1321.84 2969.6ZM1363.89 2995.36C1349.68 2987.06 1335.66 2978.48 1321.84 2969.6L1299.69 3004.11C1314 3013.29 1328.51 3022.18 1343.22 3030.77L1363.89 2995.36ZM1399.57 3015.38C1387.56 3008.91 1375.66 3002.23 1363.89 2995.36L1343.22 3030.77C1355.39 3037.87 1367.7 3044.78 1380.13 3051.48L1399.57 3015.38ZM1514.62 3069.63C1475.18 3053.55 1436.78 3035.43 1399.57 3015.38L1380.13 3051.48C1418.62 3072.21 1458.34 3090.97 1499.15 3107.6L1514.62 3069.63ZM1587.56 3096.59C1562.88 3088.38 1538.56 3079.38 1514.62 3069.63L1499.15 3107.6C1523.91 3117.69 1549.08 3127 1574.62 3135.5L1587.56 3096.59ZM1741.81 3136.62C1689.08 3126.67 1637.59 3113.24 1587.56 3096.59L1574.62 3135.5C1626.37 3152.72 1679.65 3166.61 1734.2 3176.91L1741.81 3136.62ZM1964.5 3157.37C1888.38 3157.37 1813.94 3150.24 1741.81 3136.62L1734.2 3176.91C1808.82 3191 1885.81 3198.37 1964.5 3198.37V3157.37ZM1969.04 3157.36C1967.53 3157.37 1966.02 3157.37 1964.5 3157.37V3198.37C1966.06 3198.37 1967.63 3198.36 1969.2 3198.36L1969.04 3157.36ZM2196.28 3134.87C2122.75 3149.35 2046.78 3157.07 1969.04 3157.36L1969.2 3198.36C2049.56 3198.06 2128.12 3190.08 2204.2 3175.1L2196.28 3134.87ZM2341.44 3096.59C2294.29 3112.28 2245.83 3125.11 2196.28 3134.87L2204.2 3175.1C2255.47 3165 2305.6 3151.73 2354.38 3135.5L2341.44 3096.59ZM2423.46 3065.88C2396.6 3077.09 2369.25 3087.34 2341.44 3096.59L2354.38 3135.5C2383.16 3125.92 2411.46 3115.31 2439.25 3103.72L2423.46 3065.88ZM2537.01 3011.26C2500.29 3031.39 2462.4 3049.64 2423.46 3065.88L2439.25 3103.72C2479.53 3086.91 2518.73 3068.03 2556.72 3047.21L2537.01 3011.26ZM2556.92 3000.1C2550.32 3003.88 2543.68 3007.6 2537.01 3011.26L2556.72 3047.21C2563.62 3043.43 2570.49 3039.58 2577.31 3035.67L2556.92 3000.1ZM2614.5 2964.88C2595.67 2977.15 2576.47 2988.89 2556.92 3000.1L2577.31 3035.67C2597.53 3024.08 2617.39 3011.93 2636.87 2999.24L2614.5 2964.88ZM2650.67 2940.38C2638.77 2948.76 2626.71 2956.93 2614.5 2964.88L2636.87 2999.24C2649.5 2991.02 2661.97 2982.57 2674.28 2973.9L2650.67 2940.38ZM2741.78 2869.38C2712.6 2894.47 2682.2 2918.17 2650.67 2940.38L2674.28 2973.9C2706.89 2950.93 2738.34 2926.42 2768.51 2900.47L2741.78 2869.38ZM2877.9 2731.77C2836.31 2781.23 2790.78 2827.26 2741.78 2869.38L2768.51 2900.47C2819.18 2856.91 2866.27 2809.3 2909.28 2758.15L2877.9 2731.77ZM2886.2 2721.79C2883.45 2725.13 2880.68 2728.46 2877.9 2731.77L2909.28 2758.15C2912.16 2754.73 2915.02 2751.29 2917.86 2747.83L2886.2 2721.79ZM2946.33 2642.15C2927.38 2669.55 2907.32 2696.12 2886.2 2721.79L2917.86 2747.83C2939.7 2721.28 2960.45 2693.81 2980.05 2665.47L2946.33 2642.15ZM2971.04 2604.95C2963.03 2617.51 2954.79 2629.91 2946.33 2642.15L2980.05 2665.47C2988.8 2652.82 2997.32 2639.99 3005.61 2626.99L2971.04 2604.95ZM3069.39 2414.95C3042.24 2481.49 3009.24 2545.04 2971.04 2604.95L3005.61 2626.99C3045.12 2565.02 3079.26 2499.29 3107.35 2430.44L3069.39 2414.95ZM3105.11 2314.81C3094.66 2348.86 3082.73 2382.27 3069.39 2414.95L3107.35 2430.44C3121.15 2396.63 3133.5 2362.06 3144.3 2326.83L3105.11 2314.81ZM3136.51 2187.76C3128.33 2230.98 3117.82 2273.37 3105.11 2314.81L3144.3 2326.83C3157.45 2283.96 3168.33 2240.1 3176.8 2195.39L3136.51 2187.76ZM2704.59 2212.08H3156.65V2171.08H2704.59V2212.08ZM2685.32 2198.59L2685.39 2198.77L2723.91 2184.74L2723.85 2184.56L2685.32 2198.59ZM2685.39 2198.76L2769.44 2429.9L2807.97 2415.89L2723.92 2184.75L2685.39 2198.76ZM2769.44 2429.9L2853.5 2661.04L2892.03 2647.03L2807.97 2415.89L2769.44 2429.9ZM2853.5 2661.04L2855.73 2667.18L2894.26 2653.17L2892.03 2647.03L2853.5 2661.04ZM2858.74 2647.69C2798.6 2725.95 2728.43 2796.09 2650.14 2856.2L2675.11 2888.72C2756.23 2826.44 2828.94 2753.76 2891.25 2672.67L2858.74 2647.69ZM2650.14 2856.2C2644.65 2860.41 2639.13 2864.57 2633.56 2868.68L2657.93 2901.66C2663.7 2897.4 2669.42 2893.08 2675.11 2888.72L2650.14 2856.2ZM2633.55 2868.69C2633.1 2869.03 2632.64 2869.36 2632.18 2869.71L2656.5 2902.71C2656.97 2902.37 2657.45 2902.01 2657.93 2901.65L2633.55 2868.69ZM2632.18 2869.71C2594.28 2897.63 2554.56 2923.23 2513.25 2946.31L2533.25 2982.11C2576.07 2958.18 2617.22 2931.65 2656.5 2902.72L2632.18 2869.71ZM2542.52 2957.2L2513.78 2878.17L2475.24 2892.18L2503.99 2971.22L2542.52 2957.2ZM2513.78 2878.17L2450.73 2704.81L2412.2 2718.82L2475.24 2892.18L2513.78 2878.17ZM2450.73 2704.81L2429.72 2647.03L2391.19 2661.04L2412.2 2718.82L2450.73 2704.81ZM2429.72 2647.03L2345.66 2415.89L2307.13 2429.9L2391.19 2661.04L2429.72 2647.03ZM2345.66 2415.89L2261.61 2184.75L2223.08 2198.76L2307.13 2429.9L2345.66 2415.89ZM2261.61 2184.75L2219.58 2069.17L2181.05 2083.19L2223.08 2198.76L2261.61 2184.75ZM2219.58 2069.17L2177.55 1953.61L2139.02 1967.62L2181.05 2083.19L2219.58 2069.17ZM2177.55 1953.61L2093.49 1722.47L2054.96 1736.48L2139.02 1967.62L2177.55 1953.61ZM2093.49 1722.47L2009.44 1491.32L1970.91 1505.34L2054.96 1736.48L2093.49 1722.47ZM2009.44 1491.32L1988.42 1433.54L1949.89 1447.55L1970.91 1505.34L2009.44 1491.32ZM1949.89 1433.54L1928.88 1491.32L1967.41 1505.34L1988.42 1447.55L1949.89 1433.54ZM1928.88 1491.32L1844.82 1722.47L1883.35 1736.48L1967.41 1505.34L1928.88 1491.32ZM1844.82 1722.47L1760.76 1953.61L1799.3 1967.62L1883.35 1736.48L1844.82 1722.47ZM1760.76 1953.61L1718.74 2069.17L1757.27 2083.19L1799.3 1967.62L1760.76 1953.61ZM1718.74 2069.17L1676.71 2184.75L1715.24 2198.76L1757.27 2083.19L1718.74 2069.17ZM1676.71 2184.75L1592.65 2415.89L1631.18 2429.9L1715.24 2198.76L1676.71 2184.75ZM1592.65 2415.89L1508.6 2647.03L1547.13 2661.04L1631.18 2429.9L1592.65 2415.89ZM1508.6 2647.03L1487.58 2704.81L1526.11 2718.82L1547.13 2661.04L1508.6 2647.03ZM1487.58 2704.81L1424.54 2878.17L1463.07 2892.18L1526.11 2718.82L1487.58 2704.81ZM1424.54 2878.17L1394.06 2961.99L1432.59 2976.01L1463.07 2892.18L1424.54 2878.17ZM1423.16 2951.02C1378.29 2926.45 1335.26 2898.92 1294.35 2868.69L1269.99 2901.66C1312.38 2932.99 1356.97 2961.52 1403.48 2986.98L1423.16 2951.02ZM1294.35 2868.69C1292.23 2867.11 1290.11 2865.53 1287.99 2863.95L1263.4 2896.75C1265.59 2898.39 1267.78 2900.03 1269.99 2901.66L1294.35 2868.69ZM1287.99 2863.95C1208.61 2804.42 1137.34 2734.67 1076.13 2656.65L1043.87 2681.96C1107.29 2762.8 1181.14 2835.07 1263.39 2896.75L1287.99 2863.95ZM1079.27 2676.31L1084.82 2661.04L1046.29 2647.03L1040.73 2662.3L1079.27 2676.31ZM1084.82 2661.04L1168.87 2429.9L1130.34 2415.89L1046.29 2647.03L1084.82 2661.04ZM1168.87 2429.9L1252.93 2198.76L1214.4 2184.75L1130.34 2415.89L1168.87 2429.9ZM1252.93 2198.76L1252.99 2198.58L1214.46 2184.57L1214.4 2184.75L1252.93 2198.76ZM13.4455 2212.08H1233.73V2171.08H13.4455V2212.08ZM-14.1356 2120.59C-12.1738 2145.17 -9.76432 2169.63 -6.91535 2193.96L33.8064 2189.19C31.0161 2165.36 28.6561 2141.4 26.7345 2117.32L-14.1356 2120.59ZM-20.4994 1960.46C-20.4994 2014.35 -18.3514 2067.75 -14.1356 2120.59L26.7345 2117.32C22.6051 2065.57 20.5006 2013.26 20.5006 1960.46L-20.4994 1960.46ZM-6.90118 1726.95C-15.8822 1803.53 -20.4993 1881.45 -20.4994 1960.46L20.5006 1960.46C20.5007 1883.05 25.0243 1806.72 33.8197 1731.73L-6.90118 1726.95ZM34.8204 1493.41C16.4119 1569.62 2.41018 1647.56 -6.90118 1726.95L33.8197 1731.73C42.9387 1653.98 56.6499 1577.65 74.6743 1503.03L34.8204 1493.41ZM106.88 1259.85C78.2401 1335.58 54.111 1413.54 34.8204 1493.41L74.6743 1503.03C93.5624 1424.84 117.188 1348.5 145.23 1274.35L106.88 1259.85ZM213.104 1026.3C172.862 1101.37 137.323 1179.35 106.88 1259.85L145.23 1274.35C175.037 1195.53 209.835 1119.18 249.24 1045.67L213.104 1026.3ZM360.15 792.76C305.936 866.856 256.754 944.865 213.104 1026.3L249.24 1045.67C291.983 965.928 340.145 889.535 393.239 816.97L360.15 792.76ZM560.529 559.236C487.895 631.703 420.867 709.776 360.15 792.76L393.239 816.97C452.702 735.7 518.347 659.237 589.487 588.261L560.529 559.236ZM801.536 354.278C715.784 416.171 635.194 484.742 560.529 559.236L589.487 588.261C662.615 515.3 741.547 448.14 825.531 387.523L801.536 354.278ZM1035.07 209.191C953.692 252.235 875.684 300.76 801.536 354.278L825.531 387.523C898.151 335.108 974.548 287.585 1054.24 245.433L1035.07 209.191ZM1268.6 104.396C1188.15 134.401 1110.17 169.461 1035.07 209.191L1054.24 245.433C1127.79 206.525 1204.15 172.193 1282.93 142.812L1268.6 104.396ZM1502.15 33.4048C1422.32 52.3713 1344.36 76.1425 1268.6 104.396L1282.93 142.812C1357.12 115.145 1433.45 91.8674 1511.62 73.2943L1502.15 33.4048ZM1735.67 -7.50969C1656.32 1.56027 1578.38 15.2914 1502.15 33.4048L1511.62 73.2943C1586.28 55.5567 1662.6 42.1087 1740.33 33.2251L1735.67 -7.50969ZM1964.5 -20.5009C1887.12 -20.5009 1810.76 -16.092 1735.67 -7.50969L1740.33 33.2251C1813.88 24.8192 1888.68 20.4991 1964.5 20.4991L1964.5 -20.5009ZM1969.16 -20.4954C1967.61 -20.4989 1966.06 -20.5009 1964.5 -20.5009L1964.5 20.4991C1966.02 20.4991 1967.55 20.5011 1969.07 20.5045L1969.16 -20.4954ZM2202.67 -6.35721C2126.08 -15.5165 2048.16 -20.3134 1969.17 -20.4954L1969.07 20.5045C2046.47 20.6828 2122.8 25.3825 2197.8 34.3527L2202.67 -6.35721ZM2436.21 35.8917C2359.99 17.3129 2282.05 3.13554 2202.67 -6.35721L2197.8 34.3527C2275.54 43.6495 2351.87 57.5333 2426.5 75.7255L2436.21 35.8917ZM2669.76 108.443C2594.02 79.6479 2516.06 55.355 2436.21 35.8917L2426.5 75.7255C2504.69 94.7837 2581.02 118.571 2655.19 146.767L2669.76 108.443ZM2903.3 215.1C2828.22 174.726 2750.24 139.043 2669.76 108.443L2655.19 146.767C2734 176.73 2810.36 211.672 2883.88 251.21L2903.3 215.1ZM3136.83 362.5C3062.73 308.184 2984.72 258.884 2903.3 215.1L2883.88 251.21C2963.61 294.087 3040.01 342.37 3112.59 395.568L3136.83 362.5ZM3366.45 559.236C3295.08 488.034 3218.32 422.234 3136.83 362.5L3112.59 395.568C3192.4 454.072 3267.59 518.521 3337.49 588.262L3366.45 559.236ZM3566.92 792.752C3506.15 709.783 3439.09 631.711 3366.45 559.236L3337.49 588.261C3408.64 659.249 3474.33 735.717 3533.85 816.979L3566.92 792.752ZM3714.21 1026.28C3670.46 944.863 3621.2 866.854 3566.92 792.752L3533.85 816.979C3587.01 889.556 3635.25 965.955 3678.09 1045.69L3714.21 1026.28ZM3820.78 1259.82C3790.21 1179.34 3754.55 1101.36 3714.21 1026.28L3678.09 1045.69C3717.6 1119.21 3752.51 1195.57 3782.45 1274.38L3820.78 1259.82Z" fill="#76ABAE"/>
</g>
</g>
<defs>
<filter id="filter0_dd_30_3" x="-116.5" y="-84.501" width="4162" height="4098" filterUnits="userSpaceOnUse" color-interpolation-filters="sRGB">
<feFlood flood-opacity="0" result="BackgroundImageFix"/>
<feColorMatrix in="SourceAlpha" type="matrix" values="0 0 0 0 0 0 0 0 0 0 0 0 0 0 0 0 0 0 127 0" result="hardAlpha"/>
<feOffset dx="32"/>
<feGaussianBlur stdDeviation="32"/>
<feComposite in2="hardAlpha" operator="out"/>
<feColorMatrix type="matrix" values="0 0 0 0 0.034539 0 0 0 0 0.034539 0 0 0 0 0.034539 0 0 0 0.5 0"/>
<feBlend mode="normal" in2="BackgroundImageFix" result="effect1_dropShadow_30_3"/>
<feColorMatrix in="SourceAlpha" type="matrix" values="0 0 0 0 0 0 0 0 0 0 0 0 0 0 0 0 0 0 127 0" result="hardAlpha"/>
<feOffset dx="-32"/>
<feGaussianBlur stdDeviation="32"/>
<feComposite in2="hardAlpha" operator="out"/>
<feColorMatrix type="matrix" values="0 0 0 0 0 0 0 0 0 0 0 0 0 0 0 0 0 0 0.5 0"/>
<feBlend mode="normal" in2="effect1_dropShadow_30_3" result="effect2_dropShadow_30_3"/>
<feBlend mode="normal" in="SourceGraphic" in2="effect2_dropShadow_30_3" result="shape"/>
</filter>
<clipPath id="clip0_30_3">
<rect width="3929" height="4017" fill="white"/>
</clipPath>
</defs>
</svg>
