<svg width="4000" height="4000" viewBox="0 0 4000 4000" fill="none" xmlns="http://www.w3.org/2000/svg">
<g clip-path="url(#clip0_7_2)">
<path d="M1820.78 2126.92C1837.78 2164.67 1859.13 2199.27 1884.18 2230.57C2044.03 2430.62 2353.28 2494.67 2631.98 2369.07C2715.98 2331.22 2788.88 2279.92 2848.58 2219.72C3005.58 2061.52 3071.13 1842.27 3005.83 1646.77C3000.73 1631.32 2994.78 1616.07 2987.98 1600.97C2865.08 1328.17 2515.03 1218.52 2198.23 1349.62C2191.03 1352.57 2183.93 1355.67 2176.78 1358.87C1854.48 1504.07 1695.08 1847.97 1820.78 2126.92Z" fill="#6BA14F"/>
<path d="M2971.54 2063.65C2978.98 2063.65 2985.43 2058.13 2986.4 2050.56C2986.93 2046.44 2998.73 1950.95 2965.95 1893.14C2965.26 1865.6 2956.25 1718.87 2844.11 1639.75C2846.64 1604.85 2846.59 1484.8 2736.4 1422.83C2734.34 1403.19 2725.8 1355.48 2690.57 1318.16C2684.88 1312.14 2675.39 1311.86 2669.36 1317.55C2663.34 1323.23 2663.07 1332.73 2668.75 1338.75C2705.18 1377.34 2707.04 1431.96 2707.06 1432.5C2707.2 1437.97 2710.31 1442.97 2715.18 1445.48C2833.2 1506.29 2814.35 1639.24 2813.49 1644.87C2812.6 1650.69 2815.19 1656.52 2820.13 1659.73C2935.23 1734.69 2936.01 1895.65 2936.01 1897.26C2936 1900.07 2936.77 1902.84 2938.25 1905.23C2968.11 1953.48 2956.76 2045.82 2956.64 2046.75C2955.6 2054.96 2961.41 2062.47 2969.62 2063.52C2970.27 2063.61 2970.91 2063.65 2971.54 2063.65Z" fill="#000072"/>
<path d="M1648.16 2528.94C1677.46 2545.83 1727.47 2424.5 1679.51 2410.88C1640.7 2399.86 1620.65 2513.08 1648.16 2528.94Z" fill="white"/>
<path d="M846.859 1346.08C813.151 1323.91 766.043 1372.27 763.104 1409.87C760.165 1447.47 773.39 1487.15 804.982 1485.68C836.574 1484.21 902.695 1382.82 846.859 1346.08Z" fill="white"/>
<path d="M619.594 2076.37C590.523 2058.33 565.717 2109.68 585.308 2142C604.9 2174.33 640.165 2186.08 653.879 2161.59C667.593 2137.1 648.002 2094 619.594 2076.37Z" fill="white"/>
<path d="M1791.78 2186.57C1798.23 2200.82 1805.08 2214.77 1812.38 2228.32C1961.13 2505.22 2283.33 2632.07 2556.68 2515.87C2560.33 2514.37 2563.93 2512.77 2567.53 2511.17C2698.68 2452.07 2795.23 2346.42 2848.58 2219.72C2876.93 2152.37 2893.08 2079.12 2895.73 2003.77V2003.67C2899.08 1908.27 2880.83 1809.47 2838.28 1715.07C2720.13 1452.92 2452.83 1308.52 2198.23 1349.62C2152.23 1357.02 2106.68 1370.52 2062.48 1390.42C1773.53 1520.67 1652.28 1877.12 1791.78 2186.57Z" fill="#EBD457"/>
<g opacity="0.2">
<path d="M1812.38 2244.7C1961.13 2521.6 2283.33 2648.45 2556.68 2532.25C2560.33 2530.75 2563.93 2529.15 2567.53 2527.55C2698.68 2468.45 2795.23 2362.8 2848.58 2236.1C3005.58 2077.9 3071.13 1858.65 3005.83 1663.15C2970.03 1699.3 2916.88 1726.75 2838.28 1731.45C2838.28 1731.45 2638.03 2034.45 2147.23 2203.65C2059.88 2233.75 1971.13 2246.45 1884.18 2246.95C1860.08 2247.1 1836.13 2246.35 1812.38 2244.7Z" fill="#000072"/>
</g>
<path d="M2344.8 2574.05C2419.22 2574.05 2492.94 2559.27 2562.57 2529.68C2566.01 2528.24 2569.54 2526.68 2573.07 2525.12L2573.6 2524.89C2773.45 2434.83 2902.59 2235.37 2910.71 2004.31C2910.72 2004.13 2910.72 2003.96 2910.72 2003.78C2914.26 1904.21 2893.93 1802.09 2851.93 1708.89C2709.29 1392.38 2352.39 1243.39 2056.32 1376.76C1760.27 1510.19 1635.45 1876.25 1778.09 2192.76C1846.19 2343.86 1964.92 2461.98 2112.43 2525.33C2188 2557.8 2266.78 2574.05 2344.8 2574.05ZM2284.4 1357.86C2505.31 1357.86 2722.42 1494.51 2824.58 1721.21C2864.69 1810.23 2884.11 1907.73 2880.73 2003.16C2880.72 2003.33 2880.72 2003.51 2880.72 2003.69C2873.01 2222.83 2750.64 2412.21 2561.37 2497.49L2560.93 2497.68C2557.6 2499.16 2554.26 2500.64 2550.92 2502.03C2485.06 2530.02 2415.99 2543.28 2347.22 2543.28C2125.76 2543.3 1907.04 2405.88 1805.44 2180.43H1805.44C1669.6 1879.01 1787.68 1530.75 2068.65 1404.11C2138.31 1372.73 2211.58 1357.86 2284.4 1357.86Z" fill="#000072"/>
<path d="M2337.44 2448.7C2438.32 2448.7 2540.98 2426.53 2638.14 2382.75C2967.47 2234.34 3130.53 1880.89 3001.64 1594.83C2872.73 1308.77 2499.93 1196.78 2170.6 1345.18C1841.27 1493.58 1678.21 1847.04 1807.1 2133.09C1869.72 2272.04 1990.91 2374.45 2148.36 2421.45C2209.4 2439.67 2273.06 2448.7 2337.44 2448.7ZM2471.04 1309.55C2690.24 1309.55 2889.03 1417.95 2974.28 1607.16C3096.39 1878.13 2940.06 2213.79 2625.81 2355.39C2473.22 2424.15 2306.7 2437.39 2156.94 2392.7C2007.96 2348.23 1893.44 2251.66 1834.46 2120.77C1712.35 1849.79 1868.68 1514.13 2182.93 1372.53C2277.76 1329.8 2376.31 1309.55 2471.04 1309.55Z" fill="#000072"/>
<path d="M1002.61 1547.39C1002.61 1547.39 1023.19 1626.74 1087.84 1629.68C1152.49 1632.61 1187.76 1597.35 1208.33 1547.39C1228.9 1497.43 1237.35 1465.03 1274.27 1470.94C1311.19 1476.86 1319.64 1518 1274.27 1597.35C1228.9 1676.7 1199.51 1723.88 1243.59 1728.21C1287.68 1732.53 1255.14 1685.51 1305.21 1662C1355.27 1638.49 1361.14 1638.49 1378.78 1565.02C1396.41 1491.55 1502.2 1518.22 1490.45 1581.29C1478.69 1644.37 1390.53 1680.36 1422.86 1728.49C1455.18 1776.61 1514.13 1725.24 1518.45 1815.58C1522.78 1905.92 1414.04 2130.15 1425.8 2259.02C1437.55 2387.88 1440.49 2316.24 1499.27 2331.49C1558.04 2346.74 1555.53 2455.47 1518.58 2508.37C1481.63 2561.27 1475.75 2606.22 1499.27 2639.58C1522.78 2672.94 1522.78 2640.61 1569.8 2614.16C1616.82 2587.71 1640.33 2651.84 1619.76 2718.22C1599.18 2784.61 1652.08 2957.77 1769.63 2972.58C1887.18 2987.39 2226.47 3060.86 2226.47 3060.86C2226.47 3060.86 1543.94 3401.1 1199.51 3093.18C855.076 2785.27 785.143 2382 796.898 2167.47C808.655 1952.94 914.45 1685.51 1002.61 1547.39Z" fill="#3BB0FF"/>
<path d="M1616.91 3007.79C1567.24 2997.9 1513.66 2979.2 1480.02 2939.96C1450.52 2900.54 1447.07 2851.95 1439.39 2802.62C1436.73 2784.74 1434.52 2766.76 1428.77 2747.29C1425.24 2736.07 1420.02 2723.88 1410.18 2715.93C1399.74 2707.48 1385.9 2705.55 1373.47 2705.77C1360.28 2707.12 1351.69 2706.66 1346.6 2692.69C1340.79 2679.21 1339.27 2664.8 1342.84 2650.97C1345.24 2642.29 1348.59 2633.54 1350.33 2624.61C1354.79 2604.77 1353.98 2582.25 1346.86 2562.97C1343.84 2553.89 1339.19 2545.79 1334.97 2537.37C1328.61 2523.76 1327.11 2507.79 1328.92 2492.84C1332.34 2469.35 1316.92 2441.17 1292.59 2435.21C1282 2432.16 1273.02 2431.63 1268.37 2429.63C1263.06 2427.5 1261.48 2424.34 1259.64 2418.5C1255.86 2403.28 1257.3 2384.71 1257.51 2368.3C1257.56 2365.38 1255.23 2362.96 1252.3 2362.91C1250.06 2362.88 1248.11 2364.25 1247.31 2366.21C1243.83 2374.74 1240.97 2383.54 1238.86 2392.74C1233.57 2412.82 1233.74 2443.23 1256.29 2453.99C1273.81 2463.53 1286.34 2458.34 1295.52 2473.06C1301.09 2481.84 1297.16 2494.35 1297.26 2504.53C1296.86 2522.71 1300.81 2541.21 1309.49 2557.44C1322.13 2579.43 1323.21 2605.25 1314.78 2629.02C1309.36 2643.61 1306.15 2659.2 1307.63 2674.88C1310.05 2704.45 1325.69 2737.97 1358.73 2740.47C1368.24 2741.57 1379.57 2738.29 1388.1 2742.56C1389.68 2743.54 1390.95 2745.83 1392.01 2747.86C1400.18 2765.83 1401.9 2786.26 1405.36 2807.47C1411.91 2851.32 1417.4 2901.28 1440.86 2942.65C1476.76 3001.28 1548.14 3027.15 1612.81 3037.51C1632.43 3039.66 1636.58 3011.11 1616.91 3007.79Z" fill="white"/>
<path d="M1250.88 2780.72C1247.03 2764.87 1240.75 2750.82 1235.43 2736.29C1219.86 2694.04 1204.48 2649.67 1201.77 2604.67C1199.42 2571.07 1212.5 2541.56 1212.83 2506.82C1213.58 2461.28 1181.75 2440.54 1139.31 2440.97L1154.58 2469.11C1174.29 2440.32 1193.79 2409.65 1194.36 2373.36C1193.21 2359.99 1190.11 2348.29 1183.15 2336.06C1179.42 2329.48 1173.25 2323.28 1166.5 2319.18C1156.4 2311.98 1150.26 2300.41 1149.65 2288.03C1144.11 2228.73 1152.13 2168.71 1177.47 2114.55C1184.54 2098.15 1183.5 2077.8 1177.34 2061.23C1165.65 2025.56 1123.49 2022.78 1096.66 2042.42C1085.4 2050.09 1076.58 2060.62 1070.29 2072.22C1064 2083.87 1060.48 2096.67 1059.02 2109.45C1058.5 2114.01 1061.77 2118.12 1066.33 2118.65C1070.79 2119.16 1074.83 2116.03 1075.49 2111.62C1078.4 2090.41 1089.05 2069.66 1107.16 2058.16C1123.67 2046.78 1150.89 2045.71 1156.95 2067.83C1161.05 2081.01 1161.92 2093.46 1156.08 2106.28C1148.94 2122.58 1140.56 2139.48 1135.53 2157C1122.46 2200.05 1118.48 2245.35 1120.9 2290.09C1121.42 2312.14 1133.26 2333.61 1151.56 2345.92C1157.96 2350.88 1159.94 2359.87 1161.73 2368.13C1163.23 2375.99 1161.6 2382.95 1159.19 2390.98C1152.67 2410.27 1140.01 2430.54 1126.89 2447.71C1116.82 2459.57 1126.74 2478.11 1142.16 2475.85C1156.92 2474.77 1177.08 2477.5 1181.62 2493.86C1187.55 2514.96 1183.01 2534.33 1180.67 2557.51C1176.54 2589.15 1180.83 2623.33 1190.79 2653.35C1199.91 2683.31 1211.79 2712.42 1225.04 2740.67C1231.43 2754.73 1238.76 2768.64 1243.24 2782.63C1243.8 2784.79 1246.1 2786.11 1248.25 2785.4C1250.23 2784.77 1251.36 2782.71 1250.88 2780.72Z" fill="white"/>
<path d="M1016.33 2275.23C993.64 2263.13 959.512 2297.76 960.491 2341.84C961.47 2385.92 971.266 2397.67 994.777 2393.76C1018.29 2389.84 1046.7 2374.16 1040.82 2338.9C1034.94 2303.63 1031.02 2283.06 1016.33 2275.23Z" fill="white"/>
<path d="M1323.92 2217.43C1304.46 2194.81 1275.55 2228.21 1274.27 2252.7C1272.98 2277.19 1286.7 2302.65 1305.31 2298.74C1323.92 2294.82 1360.16 2259.55 1323.92 2217.43Z" fill="white"/>
<path d="M1157.16 1757.51C1124.57 1741.35 1090.78 1789.84 1104 1844.21C1117.23 1898.57 1177.47 1873.59 1186.29 1835.39C1195.1 1797.19 1177.52 1767.61 1157.16 1757.51Z" fill="white"/>
<path d="M1016.33 2275.23C993.64 2263.13 959.512 2297.76 960.491 2341.84C961.47 2385.92 971.266 2397.67 994.777 2393.76C1018.29 2389.84 1046.7 2374.16 1040.82 2338.9C1034.94 2303.63 1031.02 2283.06 1016.33 2275.23Z" fill="white"/>
<path d="M1323.92 2217.43C1304.46 2194.81 1275.55 2228.21 1274.27 2252.7C1272.98 2277.19 1286.7 2302.65 1305.31 2298.74C1323.92 2294.82 1360.16 2259.55 1323.92 2217.43Z" fill="white"/>
<path d="M1157.16 1757.51C1124.57 1741.35 1090.78 1789.84 1104 1844.21C1117.23 1898.57 1177.47 1873.59 1186.29 1835.39C1195.1 1797.19 1177.52 1767.61 1157.16 1757.51Z" fill="white"/>
<path d="M2250.18 2820.82C2260.1 2820.82 2270.66 2818.85 2281.14 2814.71C2316.04 2800.92 2335.04 2769.02 2324.4 2742.1C2313.76 2715.18 2278.08 2704.9 2243.19 2718.69C2227.44 2724.92 2214.22 2735.29 2205.96 2747.89C2196.77 2761.92 2194.57 2777.74 2199.93 2791.3C2207.38 2810.13 2227.07 2820.82 2250.18 2820.82ZM2274.02 2742.62C2285.38 2742.62 2294.04 2746.91 2296.5 2753.13C2300.26 2762.64 2290.34 2778.81 2270.11 2786.81C2249.88 2794.8 2231.59 2789.78 2227.83 2780.27C2227.83 2780.27 2227.83 2780.27 2227.83 2780.27C2225.47 2774.29 2228.83 2767.72 2231.05 2764.33C2235.87 2756.97 2244.32 2750.5 2254.22 2746.59C2261.23 2743.82 2268 2742.62 2274.02 2742.62Z" fill="#39005E"/>
<path d="M2736.1 2644.27C2742.83 2644.27 2749.79 2642.93 2756.46 2640.29C2766.88 2636.17 2775.67 2629.25 2781.21 2620.79C2787.72 2610.85 2789.23 2599.5 2785.33 2589.65C2781.43 2579.79 2772.58 2572.53 2761.03 2569.73C2751.21 2567.36 2740.05 2568.31 2729.64 2572.42C2719.22 2576.54 2710.43 2583.46 2704.88 2591.92C2698.37 2601.86 2696.87 2613.21 2700.77 2623.07C2704.66 2632.92 2713.52 2640.18 2725.07 2642.99C2728.6 2643.84 2732.31 2644.27 2736.1 2644.27ZM2749.98 2598.44C2751.39 2598.44 2752.73 2598.59 2753.96 2598.88C2756.25 2599.44 2757.3 2600.35 2757.43 2600.67C2757.56 2601 2757.41 2602.38 2756.12 2604.35C2753.97 2607.63 2750.08 2610.56 2745.43 2612.39C2740.79 2614.22 2735.94 2614.76 2732.14 2613.83C2729.85 2613.28 2728.8 2612.37 2728.67 2612.04C2728.54 2611.72 2728.69 2610.33 2729.98 2608.37C2732.12 2605.09 2736.02 2602.16 2740.66 2600.32C2743.81 2599.08 2747.04 2598.44 2749.98 2598.44Z" fill="#39005E"/>
<path d="M2035.02 2857.83C2041.75 2857.83 2048.72 2856.49 2055.39 2853.86C2079.09 2844.48 2091.77 2822.23 2084.25 2803.21C2076.73 2784.18 2052.27 2776.61 2028.56 2785.98C2004.85 2795.36 1992.17 2817.6 1999.69 2836.63C2003.59 2846.49 2012.44 2853.75 2023.99 2856.55C2027.53 2857.41 2031.24 2857.83 2035.02 2857.83ZM2048.93 2811.99C2053.2 2811.99 2055.99 2813.31 2056.35 2814.24C2056.93 2815.69 2053.48 2822.35 2044.35 2825.96C2039.71 2827.8 2034.86 2828.32 2031.06 2827.4C2028.78 2826.84 2027.72 2825.94 2027.59 2825.61C2027 2824.1 2030.3 2817.55 2039.59 2813.88C2043.12 2812.49 2046.31 2811.99 2048.93 2811.99Z" fill="#39005E"/>
<path d="M1342.08 1958.82C1343.38 1974.97 1346.63 1991.17 1352.08 2007.07C1369.48 2058.12 1409.23 2105.37 1480.18 2134.02C1662.33 2207.47 1829.88 2066.42 1829.88 2066.42C1847.18 2137.82 1875.53 2197.67 1904.38 2244.77C1907.88 2250.47 1911.38 2255.97 1914.88 2261.32C1921.18 2270.87 1927.43 2279.87 1933.53 2288.17C1968.38 2335.87 1998.68 2363.32 2004.28 2368.27C2004.53 2368.47 2004.68 2368.67 2004.83 2368.77C2005.08 2368.97 2005.23 2369.12 2005.23 2369.12C1989.23 2389.62 1975.48 2409.62 1963.88 2429.02C1903.98 2528.42 1897.48 2613.32 1909.48 2677.77C1925.38 2763.27 1973.88 2812.87 1973.88 2812.87L2305.98 2648.27C2305.98 2648.27 2264.83 2592.47 2255.98 2557.17C2247.18 2521.92 2288.33 2460.22 2288.33 2460.22C2356.68 2460.22 2436.03 2440.92 2440.93 2439.67H2441.13C2464.63 2504.27 2520.48 2571.92 2520.48 2571.92L2595.43 2543.87L2881.98 2436.72C2801.28 2301.27 2720.58 2242.17 2717.48 2239.87C2717.43 2239.82 2717.38 2239.82 2717.38 2239.82L2717.43 2239.72C2800.03 2087.52 2752.83 1900.07 2738.88 1853.17C2736.78 1846.02 2735.43 1842.12 2735.43 1842.12C2735.43 1842.12 2956.58 1829.27 3061.23 1681.42C3107.98 1615.32 3105.63 1541.17 3072.23 1487.32C3065.38 1476.27 3057.23 1466.07 3047.93 1457.07C3025.83 1435.42 2997.23 1420.07 2964.23 1414.17C2849.63 1393.82 2799.18 1503.47 2675.83 1543.32C2648.03 1552.32 2621.38 1558.37 2595.63 1562.27C2539.78 1570.87 2487.98 1569.37 2437.18 1565.97C2434.83 1565.82 2432.43 1565.62 2430.08 1565.47C2315.03 1557.27 2203.88 1541.07 2059.33 1610.87C2014.53 1632.52 1982.73 1653.52 1958.78 1673.32C1893.33 1727.52 1886.88 1772.57 1835.73 1796.27C1819.38 1803.82 1801.73 1809.82 1783.18 1814.47C1763.73 1819.32 1743.33 1822.72 1722.48 1824.97C1720.88 1825.12 1719.23 1825.32 1717.63 1825.47C1625.08 1834.52 1524.68 1820.92 1462.28 1809.37C1458.18 1808.62 1454.28 1807.87 1450.58 1807.12C1412.23 1799.67 1374.03 1820.02 1358.63 1855.92C1358.38 1856.47 1358.18 1857.02 1357.93 1857.57C1357.03 1859.67 1356.18 1861.77 1355.38 1863.97V1864.02C1352.43 1871.67 1349.93 1879.67 1347.88 1887.87C1342.23 1910.32 1339.98 1934.47 1342.08 1958.82Z" fill="#B7E925"/>
<g opacity="0.6">
<path d="M2437.18 1565.97L2493.73 1610.72C2493.73 1610.72 2642.83 1645.02 2826.78 1514.27C2906.78 1457.42 2984.03 1444.77 3047.93 1457.07C3025.83 1435.42 2997.23 1420.07 2964.23 1414.17C2849.63 1393.82 2799.18 1503.47 2675.83 1543.32C2648.03 1552.32 2621.38 1558.37 2595.63 1562.27C2539.78 1570.87 2487.98 1569.37 2437.18 1565.97Z" fill="white"/>
</g>
<g opacity="0.6">
<path d="M1357.93 1857.57C1378.08 1842.62 1407.53 1828.47 1442.78 1834.62C1510.68 1846.42 1637.13 1901.42 1784.98 1814.97L1783.18 1814.47C1763.73 1819.32 1743.33 1822.72 1722.48 1824.97C1720.88 1825.12 1719.23 1825.32 1717.63 1825.47C1625.08 1834.52 1524.68 1820.92 1462.28 1809.37C1458.18 1808.62 1454.28 1807.87 1450.58 1807.12C1412.23 1799.67 1374.03 1820.02 1358.63 1855.92C1358.38 1856.47 1358.18 1857.02 1357.93 1857.57Z" fill="white"/>
</g>
<g opacity="0.2">
<path d="M1909.48 2677.77C1925.38 2763.27 1973.88 2812.87 1973.88 2812.87L2305.98 2648.27C2305.98 2648.27 2264.83 2592.47 2255.98 2557.17C2247.18 2521.92 2288.33 2460.22 2288.33 2460.22L2004.28 2368.27C2004.28 2368.27 2004.28 2368.27 2004.33 2368.32C2004.43 2368.42 2004.58 2368.52 2004.83 2368.77C2004.93 2368.82 2005.03 2368.87 2005.13 2369.02C2005.18 2369.07 2005.23 2369.12 2005.23 2369.12C1989.23 2389.62 1975.48 2409.62 1963.88 2429.02C1984.15 2443.75 2015.6 2464.61 2052.5 2482.11C2102.41 2505.77 2111.29 2573.26 2068.58 2608.29C2030.37 2639.64 1977.85 2668.79 1909.48 2677.77Z" fill="#39005E"/>
</g>
<g opacity="0.2">
<path d="M2493.73 1696.05C2493.73 1696.05 2516.73 1881.85 2738.88 1869.55C2736.78 1862.4 2735.43 1858.5 2735.43 1858.5C2735.43 1858.5 2956.58 1845.65 3061.23 1697.8C3107.98 1631.7 3105.63 1557.55 3072.23 1503.7C3058.28 1537.35 3033.43 1569.55 2989.28 1574.2C2946.77 1578.63 2916.21 1575.7 2895.33 1571.03C2877.28 1567 2861.82 1584.5 2868.56 1601.73C2883.88 1640.88 2921.11 1692.48 3011.43 1701.11C3011.43 1701.11 2952.91 1721.66 2886.31 1672.03C2867.58 1658.07 2841.36 1661.21 2827.04 1679.67C2807.15 1705.3 2772.6 1733.93 2717.38 1744.6C2535.51 1779.77 2493.73 1696.05 2493.73 1696.05Z" fill="#000072"/>
</g>
<path d="M1829.88 2064.62C1841.68 2131.07 1872.08 2192.82 1904.33 2242.97C1948.98 2312.27 1997.03 2359.47 2004.28 2366.47C2004.53 2366.67 2004.68 2366.82 2004.83 2366.97C2005.03 2367.17 2005.18 2367.32 2005.18 2367.32C2101.18 2446.67 2288.28 2458.42 2288.28 2458.42L2440.88 2437.87L2441.13 2437.82C2450.03 2435.42 2458.68 2432.82 2467.08 2430.02C2651.48 2369.72 2717.38 2238.02 2717.38 2238.02L2717.43 2237.92C2754.53 2169.52 2768.88 2102.77 2771.48 2044.12C2772.13 2030.17 2772.08 2016.62 2771.53 2003.67C2768.53 1931.47 2749.53 1876.22 2740.18 1853.12L2739.53 1851.62L2738.83 1849.87L2736.08 1843.57L2735.43 1842.12L2735.03 1841.27C2444.08 1889.77 2457.33 1581.27 2457.33 1581.27C2457.33 1581.27 2447.63 1574.12 2430.08 1563.62C2314.98 1555.47 2203.88 1539.27 2059.33 1609.07C1891.98 1689.92 1905.58 1762.07 1835.73 1794.47C1835.73 1794.47 1824.13 1836.72 1820.48 1902.87C1817.93 1947.72 1819.08 2003.52 1829.88 2064.62Z" fill="#EDED7B"/>
<g opacity="0.2">
<path d="M1829.88 2081C1841.68 2147.45 1872.08 2209.2 1904.33 2259.35C1948.98 2328.65 1997.03 2375.85 2004.28 2382.85C2004.53 2383.05 2004.68 2383.2 2004.83 2383.35C2005.03 2383.55 2005.18 2383.7 2005.18 2383.7C2101.18 2463.05 2288.28 2474.8 2288.28 2474.8L2440.88 2454.25L2441.13 2454.2C2450.03 2451.8 2458.68 2449.2 2467.08 2446.4C2651.48 2386.1 2717.38 2254.4 2717.38 2254.4L2717.43 2254.3C2754.53 2185.9 2768.88 2119.15 2771.48 2060.5C2772.13 2046.55 2772.08 2033 2771.53 2020.05C2653.08 1949.7 2421.43 1946.45 2372.13 2145.65C2322.83 2344.95 2132.13 2407.1 1999.98 2315.5C1867.83 2223.95 1820.48 1919.25 1820.48 1919.25C1817.93 1964.1 1819.08 2019.9 1829.88 2081Z" fill="#000072"/>
</g>
<path d="M1885.74 2227.18C1888.2 2227.18 1890.68 2226.57 1892.98 2225.31C1900.17 2221.34 1902.83 2212.33 1898.95 2205.09C1875.49 2161.31 1857.6 2115.19 1845.78 2068.02C1843.8 2060.13 1835.88 2055.29 1827.95 2057.03C1820.01 2058.82 1814.94 2066.6 1816.52 2074.58C1825.8 2121.54 1844.7 2170.32 1872.69 2219.58C1875.45 2224.44 1880.52 2227.18 1885.74 2227.18Z" fill="#39005E"/>
<path d="M1973.9 2826.05C1976.15 2826.05 1978.43 2825.54 1980.55 2824.49L2312.62 2659.92C2316.59 2657.95 2319.49 2654.32 2320.54 2650.01C2321.58 2645.7 2320.66 2641.15 2318.03 2637.58C2307.07 2622.7 2277.18 2578.27 2270.55 2551.73C2265.8 2532.77 2282.63 2496.21 2296.6 2473.32C2349.99 2472.22 2406.94 2460.93 2431.9 2455.39C2457.86 2517.46 2506.73 2576.98 2508.93 2579.65C2513.01 2584.57 2519.76 2586.39 2525.75 2584.14L2887.21 2448.96C2891.38 2447.4 2894.63 2444.07 2896.11 2439.88C2897.58 2435.69 2897.12 2431.05 2894.84 2427.23C2828.48 2315.82 2761.99 2254.95 2736.48 2233.94C2823.58 2063.12 2776.99 1906.1 2756.45 1853.23C2863.72 1835.93 2999.01 1793.09 3073.43 1688.31C3113.96 1631.28 3123.12 1564.14 3098.56 1504.12C3075.59 1448.01 3026.36 1408.19 2966.87 1397.61C2892.96 1384.44 2843.66 1420.62 2791.45 1458.89C2756.09 1484.82 2719.52 1511.63 2671.22 1527.24C2571.26 1559.55 2488.82 1553.18 2401.53 1546.45C2296.81 1538.38 2188.55 1530.03 2052.81 1595.58C1948.42 1646 1911.13 1694.66 1883.89 1730.2C1866.36 1753.07 1853.7 1769.6 1829.43 1780.85C1723 1830.18 1555.41 1809.53 1464.98 1792.82L1461.55 1792.17C1458.76 1791.64 1456.06 1791.13 1453.46 1790.62C1408.59 1781.92 1362.91 1806.1 1344.84 1848.19C1343.6 1851.08 1342.4 1853.99 1341.29 1857C1341.23 1857.16 1341.18 1857.32 1341.13 1857.48C1338.06 1865.59 1335.44 1873.98 1333.33 1882.43C1322.63 1924.88 1324.24 1970.22 1337.89 2010.07C1352.44 2052.85 1387.96 2111.17 1474.57 2146.1C1629.34 2208.53 1771.36 2125.16 1821.06 2090.11C1864.1 2243.3 1954 2339.46 1984.95 2369.1C1882.85 2505.51 1880.72 2619.45 1897.43 2691.74C1916.17 2772.78 1961.26 2819.58 1963.17 2821.53C1966.06 2824.49 1969.95 2826.05 1973.9 2826.05ZM2283.66 2640.78L1977.68 2792.43C1965.11 2776.65 1938.72 2738.52 1926.32 2683.48C1904.16 2585.2 1934.68 2481.92 2017.02 2376.54C2021.98 2370.19 2021.05 2361.06 2014.9 2355.86C2013.67 2354.81 1889.67 2247.65 1844.47 2061.1C1843.25 2056.05 1839.5 2051.99 1834.56 2050.37C1829.63 2048.75 1824.2 2049.81 1820.23 2053.15C1818.63 2054.5 1657.21 2187.41 1485.79 2118.28C1425.58 2094 1384.26 2053.24 1366.29 2000.41C1366.28 2000.4 1366.28 2000.39 1366.28 2000.38C1354.49 1965.95 1353.12 1926.66 1362.43 1889.74C1364.31 1882.19 1366.66 1874.74 1369.4 1867.55C1369.49 1867.29 1369.59 1867.03 1369.67 1866.77C1370.52 1864.49 1371.44 1862.27 1372.4 1860.05C1384.95 1830.82 1416.59 1814.01 1447.69 1820.06C1450.31 1820.58 1453.1 1821.11 1455.96 1821.65L1459.45 1822.31C1553.47 1839.68 1728.08 1860.9 1842.05 1808.07C1873.01 1793.72 1889.09 1772.74 1907.71 1748.45C1934.52 1713.46 1967.9 1669.91 2065.85 1622.59C2194.32 1560.57 2293.85 1568.25 2399.22 1576.37C2485.57 1583.03 2574.86 1589.92 2680.44 1555.79C2733.36 1538.69 2773.65 1509.15 2809.19 1483.09C2860.12 1445.75 2900.35 1416.27 2961.62 1427.14C3010.93 1435.92 3051.74 1468.95 3070.79 1515.49C3091.38 1565.8 3083.43 1622.45 3048.98 1670.94C2976.21 1773.4 2836.97 1812.04 2732.98 1826.41C2728.21 1827.07 2724.04 1829.98 2721.78 1834.23C2719.53 1838.49 2719.45 1843.57 2721.57 1847.89C2722.47 1849.72 2810.62 2034.73 2704.25 2230.78C2703.05 2232.99 2702.39 2235.49 2702.39 2238.02C2702.39 2243.23 2705.04 2247.81 2709.06 2250.5C2719.02 2257.91 2787.6 2311.26 2859.71 2427.22L2525.48 2552.21C2510.32 2532.55 2472.88 2481.25 2455.23 2432.71C2452.61 2425.5 2444.96 2421.41 2437.5 2423.29C2436.7 2423.49 2356.12 2443.41 2288.31 2443.41C2283.3 2443.41 2278.61 2445.92 2275.83 2450.09C2271.25 2456.97 2231.3 2518.5 2241.44 2559.01C2248.06 2585.49 2270.35 2621.08 2283.66 2640.78Z" fill="#000072"/>
<path d="M1891.83 2043.13C1895.47 2039.31 1899.38 2035.81 1903.19 2032.1C1906.94 2028.3 1911.13 2025.13 1915.16 2021.68L1921.31 2016.63L1927.66 2011.88C1944.63 1999.16 1962.74 1988.06 1981.39 1978.15C1990.2 1973.45 1999.14 1969.03 2008.17 1964.82C2001.56 1937.97 1996.6 1910.77 1993.26 1883.44C1990.18 1857.59 1988.53 1831.62 1988.51 1805.67C1988.57 1792.69 1988.87 1779.73 1989.89 1766.8C1990.84 1753.87 1992.08 1740.96 1994.45 1728.21C2001.27 1779.39 2010.24 1829.33 2021.49 1878.54C2027.11 1902.92 2033.34 1927.08 2040.32 1950.95C2059.36 1943.36 2078.71 1936.65 2098.22 1930.7C2138.35 1918.47 2179.28 1909.42 2220.58 1903.18C2261.9 1897.16 2303.64 1893.43 2345.68 1895.32C2305.8 1908.43 2266.16 1919.78 2226.66 1931.18C2187.16 1942.52 2147.85 1953.75 2108.89 1965.67C2089.39 1971.65 2069.95 1977.75 2050.64 1984.15C2054.9 1997.1 2059.39 2009.96 2064.18 2022.69C2072.8 2046.11 2082.49 2069.11 2093.27 2091.56C2098.34 2102.97 2104.44 2113.81 2109.95 2125.02C2115.79 2135.17 2121.2 2145.65 2127.37 2155.65C2135.86 2152.64 2144.41 2149.82 2153.01 2147.2C2186.3 2137.06 2220.31 2129.76 2254.63 2125.03C2288.97 2120.52 2323.69 2118.09 2358.66 2120.95C2325.84 2133.09 2293.23 2143.14 2260.71 2153.04L2163.68 2182.17C2158.18 2183.86 2152.7 2185.56 2147.22 2187.26C2168.55 2219.21 2192.79 2249.51 2219.12 2279.15C2182.73 2256.95 2149.99 2228.17 2122 2195.21C2103.93 2201 2085.95 2206.98 2068.13 2213.41C2052.33 2218.98 2036.68 2224.98 2021.16 2231.53L2015.27 2233.93L2009.5 2236.52C2005.64 2238.24 2001.68 2239.88 1997.85 2241.73C1990.04 2245.25 1982.47 2249.22 1974.51 2253.03C1977.18 2249.56 1980.06 2246.28 1982.89 2242.86C1985.82 2239.58 1988.99 2236.58 1992.08 2233.39C1995.11 2230.13 1998.53 2227.41 2001.81 2224.45C2005.1 2221.48 2008.54 2218.73 2012.03 2216.05C2025.93 2205.15 2040.85 2195.66 2056.24 2187.22C2070.26 2179.52 2084.67 2172.68 2099.33 2166.52C2093.34 2158.3 2087.8 2149.76 2082.12 2141.3C2075.29 2130.09 2068.37 2118.88 2062.32 2107.22C2055.9 2095.74 2050.52 2083.76 2044.8 2071.93C2039.7 2059.84 2034.42 2047.81 2029.94 2035.49C2025.03 2022.42 2020.61 2009.2 2016.61 1995.86C2008.81 1998.63 2001.02 2001.42 1993.27 2004.34C1974.22 2011.38 1955.39 2019 1936.79 2027.36L1929.75 2030.43L1922.85 2033.76C1918.24 2035.97 1913.51 2038.06 1908.96 2040.44C1899.68 2044.96 1890.71 2050.04 1881.36 2054.97C1884.72 2050.94 1888.31 2047.11 1891.83 2043.13Z" fill="#B0AE64"/>
<path d="M1355.38 1862.16V1862.2C1472.5 1881.31 1462.62 1809.91 1462.26 1807.58C1458.19 1806.8 1454.26 1806.07 1450.55 1805.34C1412.24 1797.88 1374.03 1818.23 1358.62 1854.11C1357.48 1856.76 1356.38 1859.42 1355.38 1862.16Z" fill="white"/>
<path d="M1352.09 2005.24C1354.37 2004.42 1429.16 1975.94 1426.28 1943.16C1423.35 1909.84 1347.88 1886.07 1347.88 1886.07C1338.46 1923.42 1338.46 1965.47 1352.09 2005.24Z" fill="white"/>
<path d="M1391.62 1880.43C1421.76 1880.43 1444.51 1872.95 1459.49 1858.05C1481.25 1836.42 1477.57 1808.37 1477.08 1805.25C1476.09 1798.99 1471.29 1794.03 1465.07 1792.84L1461.55 1792.17C1458.76 1791.64 1456.06 1791.13 1453.46 1790.62C1408.59 1781.92 1362.91 1806.11 1344.84 1848.2C1343.6 1851.08 1342.4 1853.99 1341.29 1857C1340.69 1858.65 1340.38 1860.4 1340.38 1862.16V1862.2C1340.38 1869.56 1345.71 1875.82 1352.96 1877.01C1366.96 1879.29 1379.86 1880.43 1391.62 1880.43ZM1447.02 1819.93C1446.06 1825.15 1443.69 1831.55 1438.17 1836.95C1427.11 1847.78 1406.44 1852.15 1377.84 1849.88C1392.57 1827.23 1419.94 1814.97 1447.02 1819.93Z" fill="#000072"/>
<path d="M1352.09 2020.24C1353.8 2020.24 1355.51 2019.95 1357.16 2019.36C1366.17 2016.12 1445.14 1986.45 1441.22 1941.85C1437.6 1900.63 1366.59 1876.23 1352.39 1871.76C1348.45 1870.52 1344.17 1870.96 1340.57 1872.97C1336.96 1874.98 1334.35 1878.4 1333.34 1882.4C1322.62 1924.89 1324.24 1970.24 1337.9 2010.11C1339.2 2013.9 1341.97 2017.02 1345.59 2018.76C1347.64 2019.74 1349.86 2020.24 1352.09 2020.24ZM1359.02 1906.07C1383.76 1916.18 1410.24 1932.02 1411.34 1944.48C1412.33 1955.76 1386.15 1973.53 1361.76 1984.94C1355.59 1959.7 1354.65 1932.56 1359.02 1906.07Z" fill="#000072"/>
<path d="M2295.37 2471.95C2317.02 2471.95 2338.6 2470.43 2360.66 2467.46C2360.87 2467.44 2361.09 2467.4 2361.3 2467.36L2443.57 2452.64C2443.88 2452.58 2444.18 2452.52 2444.48 2452.45C2444.62 2452.41 2444.95 2452.33 2445.08 2452.29C2653.4 2395.38 2727.73 2250.85 2730.8 2244.73C2828.57 2064.6 2773.34 1895.14 2754.09 1847.5L2748.6 1834.88C2745.73 1828.8 2739.15 1825.4 2732.56 1826.48C2653.81 1839.61 2591.58 1826.58 2547.61 1787.76C2467.73 1717.23 2472.26 1583.25 2472.32 1581.9C2472.52 1576.92 2470.24 1572.16 2466.23 1569.2C2465.81 1568.89 2455.74 1561.49 2437.78 1550.75C2435.76 1549.54 2433.49 1548.83 2431.14 1548.66C2421.26 1547.96 2411.4 1547.2 2401.55 1546.44C2296.83 1538.38 2188.54 1530.02 2052.8 1595.57C1948.43 1646.01 1911.12 1694.67 1883.89 1730.21C1866.35 1753.08 1853.68 1769.61 1829.42 1780.86C1825.5 1782.69 1822.52 1786.22 1821.3 1790.37C1821.3 1790.37 1821.01 1791.36 1820.59 1793.26C1817.43 1805.69 1789.53 1922.64 1815.1 2067.2C1815.53 2069.73 1816.02 2072.26 1816.56 2074.8C1816.6 2074.97 1816.64 2075.15 1816.68 2075.32C1829.1 2124.88 1847.89 2173.31 1872.51 2219.26C1872.96 2220.1 1873.32 2220.74 1873.67 2221.31C1879.37 2231.27 1885.46 2241.29 1891.77 2251.09C1895.83 2257.39 1899.96 2263.58 1904.03 2269.49C1943.59 2327.02 1982.77 2366.51 1993.84 2377.24C1994.05 2377.45 1994.26 2377.64 1994.48 2377.83C1994.59 2377.93 1994.69 2378.03 1994.79 2378.12C1995.08 2378.42 1995.22 2378.52 1995.67 2378.89C2025.45 2403.5 2066.17 2424.22 2116.7 2440.48C2182.95 2461.8 2239.38 2471.95 2295.37 2471.95ZM2356.34 2437.77C2282.05 2447.74 2213.11 2439.99 2125.89 2411.93C2079.19 2396.9 2041.93 2378.1 2015.13 2356.04C2015.06 2355.98 2014.99 2355.92 2014.92 2355.86C2014.75 2355.7 2014.56 2355.52 2014.35 2355.34C2003.3 2344.59 1966.31 2307.1 1928.74 2252.47C1924.82 2246.79 1920.87 2240.87 1916.98 2234.84C1910.91 2225.4 1905.04 2215.74 1899.56 2206.13C1899.38 2205.83 1899.2 2205.53 1899 2205.24C1875.54 2161.39 1857.67 2115.36 1845.85 2068.29C1845.41 2066.22 1845.02 2064.16 1844.67 2062.1C1844.66 2062.07 1844.66 2062.04 1844.65 2062.01C1822.06 1934.31 1842.87 1829.79 1848.66 1804.79C1875.39 1790.6 1890.45 1770.95 1907.7 1748.45C1934.52 1713.46 1967.9 1669.91 2065.86 1622.57C2194.31 1560.55 2293.86 1568.22 2399.25 1576.35C2407.96 1577.02 2416.68 1577.69 2425.42 1578.33C2432.65 1582.72 2438.32 1586.41 2442.22 1589.03C2442.33 1621.75 2448.43 1740.08 2527.62 1810.12C2576.45 1853.32 2643.12 1869.34 2725.92 1857.84L2726.25 1858.68C2744.29 1903.31 2795.94 2061.83 2704.25 2230.77C2704.17 2230.91 2704.09 2231.06 2704.02 2231.21C2703.28 2232.67 2632.08 2369.9 2437.69 2423.21L2356.34 2437.77ZM1995.47 2378.69C1995.48 2378.7 1995.48 2378.7 1995.49 2378.7C1995.48 2378.7 1995.48 2378.7 1995.47 2378.69ZM1994.86 2378.14C1994.86 2378.15 1994.87 2378.16 1994.88 2378.16C1994.87 2378.16 1994.86 2378.15 1994.86 2378.14Z" fill="#000072"/>
<path d="M2702.75 1927.01C2754.2 1927.01 2789.45 1913.71 2792.41 1912.55C2811.22 1905.2 2820.52 1883.99 2813.16 1865.18C2805.82 1846.37 2784.59 1837.07 2765.79 1844.43C2761.45 1846.05 2653.23 1885.2 2546.48 1792.15C2460.03 1716.79 2503.8 1578.77 2504.25 1577.39C2510.5 1558.22 2500.09 1537.56 2480.94 1531.25C2461.77 1524.95 2441.17 1535.28 2434.81 1554.4C2432.31 1561.92 2375.01 1739.71 2498.42 1847.29C2571.87 1911.31 2646.87 1927.01 2702.75 1927.01Z" fill="#F7E483"/>
<path d="M2702.75 1942.02C2756.7 1942.02 2793.82 1928.11 2797.87 1926.52C2810.7 1921.51 2820.81 1911.81 2826.34 1899.19C2831.87 1886.57 2832.15 1872.56 2827.13 1859.73C2822.12 1846.89 2812.41 1836.79 2799.79 1831.25C2787.17 1825.73 2773.16 1825.45 2760.33 1830.46C2756.34 1831.95 2656.2 1867.89 2556.34 1780.84C2477.94 1712.51 2518.11 1583.29 2518.52 1582C2527.31 1555.06 2512.57 1525.88 2485.64 1517.01C2458.69 1508.15 2429.51 1522.8 2420.58 1549.67C2417.95 1557.57 2357.7 1744.52 2488.56 1858.59C2567.67 1927.54 2648.7 1942.02 2702.75 1942.02ZM2779.16 1856.92C2782.1 1856.92 2785 1857.53 2787.75 1858.73C2793.03 1861.04 2797.1 1865.28 2799.19 1870.64C2801.29 1876.01 2801.17 1881.87 2798.86 1887.15C2796.55 1892.42 2792.32 1896.48 2786.95 1898.58C2785.54 1899.13 2752.03 1912.02 2702.75 1912.02C2653.83 1912.02 2580.38 1898.82 2508.28 1835.98C2392.3 1734.88 2446.67 1566.27 2449.05 1559.14C2452.78 1547.91 2464.99 1541.8 2476.25 1545.5C2487.51 1549.21 2493.67 1561.43 2489.99 1572.73C2489.5 1574.22 2442.85 1721.72 2536.63 1803.46C2649.81 1902.11 2766.14 1860.31 2771.04 1858.48C2773.71 1857.44 2776.45 1856.92 2779.16 1856.92Z" fill="#000072"/>
<g opacity="0.2">
<path d="M1717.63 1825.47C1848.08 1869.22 2021.08 1869.22 2197.53 1815.27C2370.23 1762.47 2511.28 1668.67 2595.63 1562.27C2537.18 1571.27 2483.18 1569.22 2430.08 1565.47C2315.03 1557.27 2203.88 1541.07 2059.33 1610.87C1892.03 1691.72 1905.58 1763.92 1835.73 1796.27C1800.98 1812.37 1760.13 1821.32 1717.63 1825.47Z" fill="#39005E"/>
</g>
<path d="M2838.34 1488.05C2788.66 1563.3 2837.45 1681.37 2928.08 1694.88C2956.91 1699.53 2986.06 1696.22 3011.43 1684.72C2957.03 1683.13 2901.49 1670.4 2869.72 1624.49C2841.57 1585.46 2831.42 1535.63 2838.34 1488.05Z" fill="#000072"/>
<path d="M3078.19 1529.4C3078.19 1529.4 3044.98 1535.71 3025.69 1514.28C3006.41 1492.86 3032.12 1450.73 3051.94 1461.08C3071.77 1471.43 3082.48 1499.52 3078.19 1529.4Z" fill="white"/>
<path d="M3007.65 1481.62C3007.65 1481.62 2956.59 1488.4 2941.35 1463.93C2930.64 1446.73 2961.57 1402.94 2981.4 1413.29C3001.22 1423.64 3011.93 1451.73 3007.65 1481.62Z" fill="white"/>
<path d="M2919.06 1493.98C2919.06 1493.98 2868.01 1500.76 2852.76 1476.29C2842.05 1459.1 2872.99 1415.31 2892.81 1425.66C2912.63 1436.01 2923.34 1464.1 2919.06 1493.98Z" fill="white"/>
<path d="M3067.06 1545.24C3074.94 1545.24 3080.39 1544.25 3080.99 1544.14C3087.29 1542.94 3092.13 1537.88 3093.04 1531.53C3098.3 1494.86 3084.58 1461.2 3058.89 1447.78C3044.74 1440.4 3027.91 1445.53 3016.03 1460.86C3002.55 1478.24 2997.71 1505.62 3014.54 1524.32C3030.44 1541.99 3052.76 1545.24 3067.06 1545.24ZM3045.27 1474.52C3056.65 1480.66 3063.81 1496.75 3064.11 1515.21C3055.67 1514.84 3044.36 1512.6 3036.84 1504.25C3031.69 1498.53 3034.59 1489.36 3035.61 1486.68C3038.54 1478.94 3043.45 1475.03 3045.27 1474.52Z" fill="#000072"/>
<path d="M2992.06 1497.54C3000.97 1497.54 3007.68 1496.74 3009.62 1496.48C3016.28 1495.6 3021.54 1490.39 3022.49 1483.74C3027.44 1449.26 3016.43 1424.71 2989.78 1410.8C2971.88 1401.45 2950.93 1411.24 2938.11 1425.07C2924.07 1440.21 2920.34 1458.58 2928.62 1471.86C2942.22 1493.7 2972.47 1497.54 2992.06 1497.54ZM2993.67 1467.53C2977.82 1467.58 2959.46 1464.64 2954.08 1456C2953.89 1454.42 2957.08 1446.92 2964.85 1441.22C2970.12 1437.36 2974.49 1436.65 2975.89 1437.39C2985.17 1442.23 2993.48 1449.39 2993.67 1467.53Z" fill="#000072"/>
<path d="M2903.49 1509.9C2912.4 1509.9 2919.09 1509.11 2921.04 1508.85C2927.7 1507.97 2932.95 1502.76 2933.91 1496.11C2939.17 1459.43 2925.44 1425.78 2899.75 1412.36C2885.8 1405.06 2868.82 1410.02 2854.36 1425.62C2839.25 1441.92 2829.48 1467.29 2840.03 1484.23C2853.64 1506.06 2883.89 1509.9 2903.49 1509.9ZM2904.98 1479.9C2889.27 1479.91 2870.87 1476.98 2865.5 1468.36C2865.09 1466.86 2866.47 1458.78 2873.31 1449.69C2879.16 1441.89 2884.52 1439.29 2886.15 1439.1C2897.54 1445.26 2904.7 1461.4 2904.98 1479.9Z" fill="#000072"/>
<path d="M2467.09 2445.02C2468.65 2445.02 2470.22 2444.78 2471.75 2444.28C2659.95 2382.74 2727.98 2250.34 2730.79 2244.73C2750.91 2207.67 2765.94 2168.12 2775.26 2127.55C2788.09 2071.77 2753.45 2015.96 2698.05 2003.15L2697.39 2003C2626.19 1986.82 2556.39 1997.95 2500.66 2034.3C2448.51 2068.32 2412.83 2122.95 2400.2 2188.13C2384.3 2270.03 2400.9 2355.73 2446.93 2429.43C2447.28 2429.99 2447.58 2430.46 2447.81 2430.84C2448.59 2432.54 2449.68 2434.11 2451.08 2435.45L2456.7 2440.85C2459.54 2443.57 2463.28 2445.02 2467.09 2445.02ZM2634.17 2025.75C2652.63 2025.75 2671.53 2027.89 2690.55 2032.22L2691.41 2032.41C2730.59 2041.47 2755.15 2081.14 2746.03 2120.83C2737.31 2158.75 2723.25 2195.74 2704.24 2230.77C2704.15 2230.92 2704.08 2231.07 2704 2231.22C2703.34 2232.53 2640.45 2353.83 2471.79 2412.6C2447.46 2373.31 2410.32 2293.46 2429.65 2193.84C2440.89 2135.87 2471.11 2089.4 2517.05 2059.43C2551.16 2037.18 2591.49 2025.75 2634.17 2025.75Z" fill="#000072"/>
<path d="M2415.13 2331.97C2417.43 2394.37 2441.13 2437.82 2441.13 2437.82C2464.63 2502.47 2520.48 2570.07 2520.48 2570.07L2881.98 2434.92C2801.28 2299.47 2720.58 2240.37 2717.48 2238.07C2717.43 2238.02 2717.38 2238.02 2717.38 2238.02C2717.38 2238.02 2717.38 2237.97 2717.43 2237.92C2718.48 2234.87 2750.68 2142.07 2690.93 2110.47C2684.03 2106.82 2675.98 2103.52 2667.13 2100.82C2598.38 2079.62 2479.18 2093.22 2428.78 2239.12C2417.28 2272.42 2414.08 2304.07 2415.13 2331.97Z" fill="#B7E925"/>
<g opacity="0.2">
<path d="M2415.04 2328.02C2417.34 2390.42 2441.04 2433.87 2441.04 2433.87C2464.54 2498.52 2520.39 2566.12 2520.39 2566.12L2881.89 2430.97C2801.19 2295.52 2720.49 2236.42 2717.39 2234.11C2717.34 2234.07 2717.29 2234.07 2717.29 2234.07C2717.29 2234.07 2717.29 2234.02 2717.34 2233.97C2718.39 2230.92 2750.59 2138.12 2690.84 2106.52C2683.94 2102.87 2675.89 2099.57 2667.04 2096.87C2671.39 2119.02 2672.34 2181.67 2554.19 2210.22C2554.19 2210.22 2664.19 2231.42 2664.89 2303.72C2665.59 2375.97 2477.39 2472.82 2415.04 2328.02Z" fill="#000072"/>
</g>
<path d="M2520.5 2585.09C2522.26 2585.09 2524.04 2584.78 2525.75 2584.14L2887.21 2448.96C2891.38 2447.4 2894.63 2444.08 2896.11 2439.88C2897.58 2435.69 2897.12 2431.05 2894.84 2427.24C2826.91 2313.19 2758.85 2252.1 2734.74 2232.51C2742.55 2203.8 2756.49 2128.18 2697.93 2097.22C2663.99 2079.25 2602.2 2067 2539.8 2091.62C2499.69 2107.44 2445.41 2145.03 2414.61 2234.22C2377.39 2341.88 2421.49 2432.6 2427.4 2443.95C2451.69 2509.95 2506.59 2576.81 2508.93 2579.65C2511.84 2583.16 2516.11 2585.09 2520.5 2585.09ZM2859.71 2427.22L2525.48 2552.21C2510.32 2532.55 2472.88 2481.25 2455.23 2432.72C2454.98 2432.02 2454.68 2431.34 2454.32 2430.69C2453.86 2429.83 2408.45 2343.84 2442.97 2244.02C2464.4 2181.95 2501.69 2138.9 2550.81 2119.52C2600.34 2099.98 2653.34 2107.56 2683.9 2123.73C2730.52 2148.38 2705.52 2226.29 2703.37 2232.7C2702.73 2234.39 2702.39 2236.2 2702.39 2238.02C2702.39 2243.23 2705.04 2247.81 2709.06 2250.5C2719.02 2257.9 2787.6 2311.26 2859.71 2427.22Z" fill="#000072"/>
<path d="M2725.18 2225.21C2698.55 2212.46 2669.73 2205.57 2640.3 2205.66C2630.65 2205.57 2621.01 2206.97 2611.61 2208.72C2607.91 2209.41 2605.46 2212.97 2606.15 2216.67C2606.78 2220.02 2609.75 2222.34 2613.06 2222.24C2647.11 2220.42 2681.54 2232.08 2709.59 2250.84C2727.46 2262.67 2743.94 2235.68 2725.18 2225.21Z" fill="#000072"/>
<path d="M2654.42 1491.16C2660.31 1491.16 2665.89 1487.67 2668.28 1481.9C2669.02 1480.13 2685.92 1440.96 2719.44 1446.91C2724.73 1447.86 2730.1 1445.89 2733.54 1441.78C2735.11 1439.98 2774.71 1395.92 2850.16 1441.66C2857.24 1445.97 2866.47 1443.7 2870.77 1436.61C2875.06 1429.53 2872.8 1420.31 2865.71 1416.01C2786.25 1367.83 2734.09 1401.52 2716.83 1416.43C2675.44 1413.7 2649.02 1449.81 2640.55 1470.46C2637.4 1478.12 2641.07 1486.89 2648.73 1490.03C2650.59 1490.8 2652.52 1491.16 2654.42 1491.16Z" fill="#000072"/>
<path d="M1266.93 3128.02C1296.93 3138.12 1328.33 3146.52 1360.83 3153.32C1719.18 3228.52 2215.53 3112.92 2551.23 3010.07C3081.33 2722.12 3446.43 2434.07 3420.38 2314.27V2314.22C3419.48 2310.17 3418.13 2306.32 3416.33 2302.67C3352.73 2172.57 2736.68 2343.17 2040.43 2683.62C1736.88 2832.07 1468.18 2988.22 1266.93 3128.02Z" fill="#8C8AFF"/>
<g opacity="0.6">
<path d="M1266.93 3128.02C1281.78 3133.02 1297.03 3137.62 1312.53 3141.82C1509.98 3007.57 1766.68 2859.77 2054.78 2718.87C2725.83 2390.72 3322.38 2220.37 3421.63 2324.97C3421.53 2321.27 3421.13 2317.72 3420.38 2314.27V2314.22C3419.48 2310.17 3418.13 2306.32 3416.33 2302.67C3352.73 2172.57 2736.68 2343.17 2040.43 2683.62C1736.88 2832.07 1468.18 2988.22 1266.93 3128.02Z" fill="white"/>
</g>
<g opacity="0.2">
<path d="M1561.6 3138.43C1871.52 3203.46 2300.78 3103.49 2591.1 3014.54C3136.32 2704.05 3286.07 2527.36 3327.2 2453.73C3338.56 2433.4 3324.23 2408.34 3300.96 2407.26C3115.34 2398.65 2680.27 2539.94 2201.28 2774.16C1953.2 2895.5 1732.06 3022.76 1561.6 3138.43Z" fill="#000072"/>
</g>
<path d="M1619.87 3192.69C1928.3 3192.69 2279.24 3109.11 2555.61 3024.43C2556.57 3024.14 2557.5 3023.75 2558.38 3023.27C3040.95 2761.13 3497.56 2434.61 3429.79 2296.07C3385.85 2206.18 3150.94 2249.8 2961.61 2302.23C2700.88 2374.43 2371.38 2505.1 2033.82 2670.17C1741.91 2812.91 1466.52 2971.14 1258.36 3115.71C1253.71 3118.94 1251.27 3124.53 1252.07 3130.14C1252.87 3135.75 1256.76 3140.44 1262.13 3142.24C1368.05 3177.92 1490.22 3192.69 1619.87 3192.69ZM2545.38 2996.19C2167.76 3111.78 1650.73 3225.28 1300.77 3122.95C1504.48 2983.99 1768.11 2833.5 2046.99 2697.12C2382.95 2532.84 2710.61 2402.86 2969.62 2331.14C3214.45 2263.34 3376.4 2255.17 3402.84 2309.25C3444.24 2393.9 3157.77 2663.37 2545.38 2996.19Z" fill="#000072"/>
<path d="M1664.48 2975.25C2075.54 2742.58 2507.41 2541.06 2958.87 2400.72C3071.6 2367.48 3185.83 2337.03 3302.64 2324.66C3341.17 2320.78 3380.13 2319.58 3416.9 2324.97C3425.21 2326.49 3433.23 2320.77 3434.43 2312.39C3435.65 2304.13 3429.86 2296.44 3421.58 2295.34C3380.07 2289.8 3339.51 2291.86 3299.67 2296.3C3024.22 2334.46 2762.95 2438.96 2507.38 2543.77C2216.6 2667.5 1933.59 2809.51 1661.36 2969.9C1659.89 2970.77 1659.4 2972.67 1660.27 2974.14C1661.13 2975.6 1663.01 2976.09 1664.48 2975.25Z" fill="#000072"/>
<path d="M3216.08 2606.36C3216.08 2606.36 2936.9 2848.29 2823.03 2749.35C2786.54 2717.64 2755.59 2815.44 2685.06 2811.05C2614.53 2806.65 2665.96 2743.47 2593.96 2743.47C2521.96 2743.47 2535.18 2793.43 2485.22 2797.84C2435.26 2802.24 2430.86 2775.8 2392.65 2797.84C2354.45 2819.88 2345.63 2863.96 2278.04 2883.06C2210.45 2902.16 2163.43 2863.96 2116.41 2883.06C2069.39 2902.16 1978.29 2996.2 1910.69 3003.55C1843.1 3010.9 1813.71 2972.69 1778.45 2984.45C1743.18 2996.2 1712.33 3091.71 1663.84 3099.06C1615.35 3106.41 1461.06 3052.04 1427.27 3071.14C1393.47 3090.24 1430.21 3113.75 1412.57 3119.63C1394.94 3125.51 1262.7 3085.84 1245.06 3030C1227.43 2974.16 1231.84 2941.84 1190.7 2933.02C1149.55 2924.2 1130.45 2922.73 1137.8 2856.61C1145.14 2790.49 1183.35 2652.37 1123.1 2633.27C1062.86 2614.16 1046.7 2670 1051.1 2703.8C1055.51 2737.59 1052.57 2775.8 1024.65 2772.86C996.736 2769.92 984.981 2737.59 984.981 2706.74C984.981 2675.88 987.92 2650.9 964.409 2612.69C940.899 2574.49 1008.49 2521.59 986.45 2474.57C964.409 2427.55 898.287 2470.16 893.879 2412.86C889.471 2355.55 923.267 2294.72 901.226 2259.02C879.185 2223.31 863.022 2193.92 929.144 2160.12C995.266 2126.33 996.736 2058.74 971.756 2036.69C946.777 2014.65 887.701 2041.1 881.974 1998.49C876.246 1955.88 874.777 1917.67 946.777 1857.43C1018.78 1797.18 992.328 1767.8 962.94 1741.35C933.552 1714.9 939.43 1663.47 998.205 1622.33C1056.98 1581.18 1124.51 1508.42 1127.51 1459.23C1129.96 1419.06 1105.47 1437.67 1109.39 1402.41C1113.31 1367.14 1225.96 1294.57 1238.7 1248.08C1251.43 1201.59 1200.49 1168.29 1152.49 1189.84C1104.49 1211.39 1027.1 1243.72 1012.41 1322.08C997.715 1400.45 1021.22 1395.55 989.878 1425.92C958.531 1456.29 905.633 1439.63 897.796 1583.63C889.959 1727.63 860.572 1755.06 826.286 1750.16C792 1745.27 798.858 1676.7 816.49 1636.53C834.122 1596.37 805.715 1559.14 762.613 1568.94C719.511 1578.74 685.225 1645.84 696.98 1711.96C706.082 1763.16 756.735 1810.9 764.572 1889.27C772.409 1967.63 744.001 1984.29 717.551 1983.31C691.102 1982.33 661.714 2008.78 686.204 2076.37C710.694 2143.96 727.102 2152.04 721.469 2216.45C717.536 2261.42 684.245 2285.02 667.592 2325.18C650.939 2365.35 681.551 2437.84 726.367 2452.53C765.815 2465.46 803.755 2562.24 776.326 2587.71C748.897 2613.18 737.387 2587.71 721.469 2607.31C699.629 2634.19 710.694 2723.88 825.306 2733.67C825.306 2733.67 855.673 2728.78 860.571 2837.51C865.469 2946.24 924.231 2869.28 952.824 2929.09C967.346 2959.47 911.51 3029.27 974.203 3081.43C1001.65 3104.27 1061.39 3104.94 1115.26 3134.33C1169.14 3163.71 1166.2 3214.65 1230.86 3215.63C1295.51 3216.61 1313.14 3206.82 1327.83 3230.33C1342.53 3253.84 1305.3 3294 1391.51 3319.47C1477.71 3344.94 1734.36 3308.69 1734.36 3308.69C1734.36 3308.69 1748.08 3377.27 1814.69 3378.25C1881.3 3379.23 1904.68 3358.18 2006.94 3334.16C2140.41 3302.82 2097.79 3354.74 2147.75 3354.74C2197.71 3354.74 2230.04 3284.2 2273.14 3280.29C2273.14 3280.29 2247.67 3349.84 2299.59 3371.39C2351.51 3392.94 2541.55 3211.72 2541.55 3211.72C2541.55 3211.72 2534.69 3264.61 2568 3264.61C2601.3 3264.61 2841.3 3006 2841.3 3006C2841.3 3006 2838.36 3047.14 2883.43 3043.23C2928.49 3039.31 3216.08 2606.36 3216.08 2606.36Z" fill="white"/>
<path d="M2895.95 1981.24C2897.6 1981.24 2899.28 1980.97 2900.93 1980.39C2902.96 1979.68 2948.96 1962.9 2963.96 1907.64C2980.88 1897.94 3020.18 1867.02 3044.71 1780.58C3046.97 1772.61 3042.34 1764.32 3034.37 1762.06C3026.39 1759.77 3018.11 1764.42 3015.85 1772.4C2989.38 1865.67 2946.35 1883.06 2945.92 1883.22C2940.9 1884.94 2937.41 1889.08 2936.32 1894.27C2926.99 1938.94 2891.33 1951.96 2890.97 1952.09C2883.16 1954.84 2879.05 1963.4 2881.8 1971.21C2883.97 1977.39 2889.76 1981.24 2895.95 1981.24Z" fill="#000072"/>
<path d="M2828.14 2121.52C2845.13 2121.52 2859.35 2118.73 2869.85 2115.65C2887.96 2110.35 2901.34 2095.44 2904.77 2076.74L2905.01 2075.4C2907.8 2059.89 2903.24 2044.32 2892.48 2032.73C2881.77 2021.19 2866.65 2015.51 2851.03 2017.14C2837.17 2018.58 2822.82 2018.15 2808.41 2015.86C2808.41 2015.86 2808.41 2015.86 2808.41 2015.86C2795.29 2013.78 2782.14 2016.98 2771.4 2024.88C2760.58 2032.84 2753.54 2044.55 2751.6 2057.86L2751.14 2060.97C2747.44 2086.34 2763.51 2110.21 2788.52 2116.52C2802.89 2120.14 2816.2 2121.52 2828.14 2121.52ZM2856.2 2046.87C2861.62 2046.87 2866.74 2049.1 2870.49 2053.14C2874.77 2057.75 2876.59 2063.94 2875.47 2070.13L2875.26 2071.3C2873.89 2078.82 2868.59 2084.76 2861.42 2086.86C2847.11 2091.06 2824.11 2094.55 2795.85 2087.42C2785.82 2084.9 2779.36 2075.39 2780.83 2065.31L2781.29 2062.2C2782.06 2056.89 2784.86 2052.22 2789.18 2049.05C2793.4 2045.94 2798.56 2044.68 2803.7 2045.49C2820.7 2048.19 2837.67 2048.7 2854.14 2046.98C2854.83 2046.91 2855.52 2046.87 2856.2 2046.87Z" fill="#000072"/>
<path d="M1905.01 2361.25C1906.21 2361.25 1907.41 2361.2 1908.63 2361.09C1922 2359.9 1933.9 2352.2 1940.47 2340.49L1949.33 2324.71C1957.41 2310.31 1956.04 2292.62 1945.83 2279.65L1927.84 2256.8C1919.2 2245.83 1905.76 2240.1 1891.85 2241.49C1877.96 2242.87 1865.9 2251.14 1859.6 2263.6L1850.97 2280.68C1843.69 2295.08 1845.61 2312.43 1855.87 2324.88L1873.63 2346.44C1881.4 2355.87 1892.92 2361.25 1905.01 2361.25ZM1895.88 2271.29C1897.99 2271.29 1901.53 2271.88 1904.26 2275.35L1922.25 2298.21C1924.93 2301.61 1925.29 2306.25 1923.17 2310.02L1914.31 2325.8C1911.83 2330.23 1907.65 2331.06 1905.96 2331.21C1904.28 2331.33 1900.01 2331.28 1896.79 2327.36L1879.02 2305.8C1876.33 2302.53 1875.83 2297.99 1877.74 2294.22L1886.37 2277.14C1888.75 2272.43 1893.08 2271.51 1894.83 2271.34C1895.11 2271.31 1895.47 2271.29 1895.88 2271.29Z" fill="#000072"/>
<g opacity="0.2">
<path d="M1334.68 1958.82C1335.98 1974.97 1339.23 1991.17 1344.68 2007.07C1362.08 2058.12 1401.83 2105.37 1472.78 2134.02C1654.93 2207.47 1822.48 2066.42 1822.48 2066.42C1822.93 2068.17 1823.33 2069.92 1823.83 2071.67C1823.33 2069.32 1822.88 2066.97 1822.48 2064.62C1797.78 1925.02 1823.68 1812.87 1827.83 1796.52C1794.48 1811.87 1755.63 1820.62 1715.08 1824.97C1726.13 1849.67 1750.58 1916.32 1726.48 1979.27C1699.53 2049.72 1447.48 2069.42 1334.68 1958.82Z" fill="#000072"/>
</g>
<path d="M1822.53 758.67C1362.61 973.2 1389.06 1416.96 1544.82 1640.3C1693.67 1853.76 2048.68 1823.62 2308.9 1696.14C2599.84 1553.61 2693.1 1392.92 2673.31 1228.87C2652.74 1058.43 2549.88 1040.79 2461.71 890.915C2340.18 684.302 2029.81 661.986 1822.53 758.67Z" fill="#B7E925"/>
<path d="M2641.53 1120.47C2603.83 1048.42 2541.68 1009.82 2482.63 923.772C2483.73 925.572 2484.83 927.422 2485.93 929.272C2539.63 1020.62 2598.83 1062.87 2641.53 1120.47Z" fill="#B7EA29"/>
<g opacity="0.6">
<path d="M1544.83 1640.32C1411.83 1407.72 1411.88 999.871 1846.73 797.021C1861.48 790.121 1876.78 783.871 1892.48 778.221C1892.53 778.921 1892.68 779.621 1892.88 780.271C1897.53 796.571 1930.03 801.621 1965.48 791.521C1998.33 782.121 2022.18 762.971 2021.68 747.271C2191.68 725.121 2375.68 770.621 2471.28 906.521C2468.08 901.471 2464.88 896.271 2461.73 890.921C2340.18 684.321 2029.83 661.971 1822.53 758.671C1362.63 973.221 1389.08 1416.97 1544.83 1640.32Z" fill="white"/>
</g>
<path d="M2471.28 906.521C2474.88 912.271 2478.58 917.871 2482.28 923.221C2478.78 917.521 2475.08 911.921 2471.28 906.521Z" fill="#B7EA29"/>
<g opacity="0.2">
<path d="M2439.31 867.893C2341.12 894.423 2138.24 988.963 2126.39 1052.94C2126.39 1052.94 2045.08 1042.16 2001.28 1108.54C2001.28 1108.54 1797.25 1126.41 1617.98 1311.55L1462.23 1466.16L1496.92 1603.63C1502.93 1627.44 1530.7 1638.14 1551.14 1624.52C1563.13 1616.52 1569.12 1602.08 1566.29 1587.94L1547.45 1493.75L1647.37 1402.65C1647.37 1402.65 1729 1590.73 1955.61 1493.75C2182.22 1396.77 2044.1 1167.55 2044.1 1167.55C2044.1 1167.55 2069.98 1102.86 2136.82 1107.14C2136.82 1107.14 2229.24 1323.3 2455.53 1217.51C2629.92 1135.97 2554.72 968.914 2511.05 896.579C2496.25 872.05 2466.97 860.42 2439.31 867.893Z" fill="#39005E"/>
</g>
<g opacity="0.2">
<path d="M1544.83 1640.32C1693.68 1853.77 2048.68 1823.62 2308.88 1696.12C2599.83 1553.62 2693.08 1392.92 2673.33 1228.87C2666.98 1176.27 2652.78 1138.22 2633.58 1106.32C2634.13 1109.97 2634.63 1113.72 2635.08 1117.57C2653.68 1271.42 2566.23 1422.07 2293.38 1555.77C2049.33 1675.32 1716.43 1703.57 1576.83 1503.37C1500.38 1393.77 1457.18 1227.52 1495.13 1065.12C1399.43 1269.12 1446.23 1498.92 1544.83 1640.32Z" fill="#000072"/>
</g>
<path d="M1901.71 1809.76C2037.86 1809.76 2185.89 1771.3 2315.5 1707.8C2456.35 1638.8 2558.71 1561.35 2619.75 1477.6C2676.05 1400.35 2699.08 1315.45 2688.2 1225.27C2674.87 1114.87 2628.34 1065.49 2574.45 1008.32C2541.48 973.334 2507.38 937.157 2474.64 881.498C2416.52 782.689 2310.7 716.259 2176.68 694.442C2056.16 674.833 1924.77 692.621 1816.19 743.265C1571.17 857.552 1480.55 1027.29 1447.67 1149.56C1393.89 1349.55 1456.23 1537.69 1532.51 1647.07C1612.49 1761.77 1749.69 1809.76 1901.71 1809.76ZM2078.7 716.566C2229.15 716.566 2375.97 772.928 2448.78 896.712C2483.24 955.276 2520.1 994.388 2552.62 1028.9C2604.94 1084.41 2646.27 1128.26 2658.41 1228.86C2679.7 1405.19 2563.21 1553.04 2302.3 1680.86C2168.49 1746.41 2016.62 1782.3 1885.44 1779.27C1781.51 1776.88 1640.19 1749.03 1557.12 1629.92C1484.71 1526.07 1425.54 1347.4 1476.64 1157.35C1521.42 990.838 1643.22 857.054 1828.87 770.452C1904.38 735.233 1992.15 716.566 2078.7 716.566Z" fill="#000072"/>
<path d="M2430.82 818.667C2332.64 845.188 2129.73 939.738 2117.88 1003.72C2117.88 1003.72 2036.57 992.941 1992.77 1059.32C1992.77 1059.32 1788.74 1077.19 1609.47 1262.33L1475.92 1394.9C1462.16 1408.56 1456.63 1428.47 1461.37 1447.28L1488.41 1554.41C1494.42 1578.22 1522.19 1588.92 1542.63 1575.3C1554.62 1567.3 1560.6 1552.86 1557.78 1538.72L1538.94 1444.53L1638.86 1353.43C1638.86 1353.43 1720.49 1541.51 1947.1 1444.53C2173.71 1347.55 2035.59 1118.33 2035.59 1118.33C2035.59 1118.33 2064.98 1047.8 2141.39 1074.25C2141.39 1074.25 2220.73 1274.08 2447.02 1168.29C2621.43 1086.74 2546.19 919.658 2502.53 847.335C2487.73 822.823 2458.47 811.2 2430.82 818.667Z" fill="white"/>
<path d="M1522.88 1596.26C1532.74 1596.26 1542.54 1593.39 1550.95 1587.78C1568.07 1576.37 1576.52 1555.96 1572.49 1535.79L1555.31 1449.91L1634.91 1377.33C1656.61 1412.53 1715.69 1487.27 1825.8 1487.28C1862.4 1487.28 1904.61 1479.03 1953 1458.32C2020.81 1429.31 2064.45 1385.89 2082.72 1329.29C2111.8 1239.13 2066.98 1144.72 2052.57 1117.92C2060.62 1103.83 2083.93 1073.54 2130.44 1086.53C2140.4 1107.55 2175.7 1171.36 2248.21 1200.14C2307.83 1223.79 2376.86 1217.65 2453.37 1181.88C2511.71 1154.6 2548.96 1115.54 2564.09 1065.77C2589.69 981.585 2544.55 887.923 2515.37 839.583C2497.24 809.568 2460.87 795.013 2426.91 804.183C2341.52 827.254 2141.33 914.486 2107.36 988.06C2081.75 987.586 2022.72 992.855 1984.34 1045.17C1945.75 1050.17 1763.12 1082.07 1598.69 1251.89L1460.62 1388.96C1446.1 1403.37 1440.19 1424.64 1445.19 1444.48L1473.87 1558.08C1477.88 1573.98 1489.41 1587 1504.72 1592.89C1510.59 1595.15 1516.75 1596.26 1522.88 1596.26ZM1638.85 1338.45C1635.15 1338.45 1631.53 1339.81 1628.75 1342.35L1528.83 1433.45C1524.95 1437 1523.2 1442.32 1524.23 1447.47L1543.07 1541.67C1544.71 1549.88 1541.27 1558.18 1534.31 1562.82C1528.68 1566.57 1521.83 1567.32 1515.5 1564.9C1509.19 1562.46 1504.61 1557.3 1502.96 1550.74L1474.28 1437.13C1471.86 1427.53 1474.72 1417.23 1481.75 1410.25L1620.04 1272.97C1793.17 1094.16 1992.11 1074.44 1994.09 1074.26C1998.64 1073.85 2002.78 1071.39 2005.29 1067.58C2043.21 1010.11 2113 1018.22 2115.95 1018.6C2123.83 1019.58 2131.18 1014.27 2132.63 1006.45C2142.15 955.041 2327.66 862.072 2434.74 833.146C2455.83 827.453 2478.44 836.466 2489.69 855.089C2516.29 899.152 2557.6 983.985 2535.39 1057.04C2522.84 1098.33 2490.97 1131.18 2440.67 1154.7C2372.07 1186.76 2311.15 1192.71 2259.58 1172.37C2186.03 1143.36 2155.62 1069.43 2155.32 1068.68C2153.7 1064.65 2150.4 1061.49 2146.3 1060.07C2075.31 1035.52 2033.78 1083.66 2021.75 1112.55C2019.91 1116.96 2020.28 1121.98 2022.75 1126.07C2023.35 1127.08 2083.6 1229.14 2054.12 1320.22C2038.61 1368.13 2000.62 1405.31 1941.2 1430.74C1731.51 1520.46 1655.73 1354.53 1652.6 1347.43C1650.66 1343 1646.7 1339.77 1641.97 1338.77C1640.93 1338.55 1639.89 1338.45 1638.85 1338.45Z" fill="#000072"/>
<path d="M1690.73 1317.72C1714.53 1368.92 1776.48 1452.12 1915.08 1390.67C1918.88 1388.97 1922.58 1387.22 1926.13 1385.42C1957.58 1369.82 1978.83 1351.22 1992.43 1331.27C1999.23 1321.42 2004.13 1311.27 2007.48 1300.97C2012.28 1286.47 2014.03 1271.72 2013.68 1257.22C2012.78 1220.12 1998.13 1184.72 1984.68 1159.77C1972.93 1137.97 1947.38 1127.52 1923.88 1135.22C1901.88 1142.47 1872.18 1153.42 1839.63 1168.87C1824.88 1175.82 1809.53 1183.72 1794.03 1192.62C1782.83 1199.02 1771.53 1205.97 1760.33 1213.47C1740.43 1226.72 1720.83 1241.67 1702.53 1258.47C1699.43 1261.32 1696.78 1264.47 1694.53 1267.87C1684.78 1282.47 1683.08 1301.32 1690.73 1317.72Z" fill="#75BBDE"/>
<path d="M2200.58 1053.52C2225.03 1100.42 2282.68 1168.72 2399.48 1121.12C2405.33 1118.77 2411.33 1116.12 2417.48 1113.12C2443.33 1100.62 2461.78 1086.42 2474.48 1071.42C2482.53 1062.02 2488.28 1052.32 2492.18 1042.42C2497.93 1028.07 2499.73 1013.37 2498.88 999.022C2496.93 965.272 2480.33 933.322 2465.58 911.222C2453.03 892.472 2430.43 887.572 2408.23 891.522C2387.28 895.272 2361.43 902.872 2333.38 914.972C2318.43 921.422 2302.88 929.172 2287.13 938.322C2276.13 944.672 2265.03 951.722 2253.98 959.472C2240.43 968.972 2226.93 979.572 2213.78 991.272C2205.38 998.722 2199.53 1008.17 2196.83 1018.27C2193.68 1029.82 2194.63 1042.22 2200.58 1053.52Z" fill="#75BBDE"/>
<path d="M2287.13 938.321L2492.18 1042.42C2497.93 1028.07 2499.73 1013.37 2498.88 999.021L2333.38 914.971C2318.43 921.422 2302.88 929.171 2287.13 938.321Z" fill="url(#paint0_linear_7_2)"/>
<path d="M2196.83 1018.27L2399.48 1121.12C2405.33 1118.77 2411.33 1116.12 2417.48 1113.12C2443.33 1100.62 2461.78 1086.42 2474.48 1071.42L2253.98 959.472C2240.43 968.972 2226.93 979.572 2213.78 991.272C2205.38 998.721 2199.53 1008.17 2196.83 1018.27Z" fill="url(#paint1_linear_7_2)"/>
<path d="M1794.03 1192.62L2007.48 1300.97C2012.28 1286.47 2014.03 1271.72 2013.68 1257.22L1839.63 1168.87C1824.88 1175.82 1809.53 1183.72 1794.03 1192.62Z" fill="url(#paint2_linear_7_2)"/>
<path d="M1694.53 1267.87L1926.13 1385.42C1957.58 1369.82 1978.83 1351.22 1992.43 1331.27L1760.33 1213.47C1740.43 1226.72 1720.83 1241.67 1702.53 1258.47C1699.43 1261.32 1696.78 1264.47 1694.53 1267.87Z" fill="url(#paint3_linear_7_2)"/>
<path d="M1824.66 1427.41C1852.24 1427.41 1884.21 1420.76 1921.18 1404.37C1973.45 1381.2 2007.12 1348.51 2021.25 1307.2C2040.49 1250.95 2019.17 1192.11 1997.9 1152.65C1982.63 1124.33 1949.53 1111.02 1919.17 1121C1867.45 1138 1769.21 1177.03 1692.38 1247.43C1671.04 1266.97 1664.92 1297.77 1677.13 1324.06C1693.75 1359.83 1736.81 1427.41 1824.66 1427.41ZM1939.65 1147.71C1952.6 1147.71 1964.98 1154.82 1971.49 1166.88C1989.92 1201.08 2008.6 1251.49 1992.86 1297.49C1981.55 1330.57 1953.34 1357.3 1909.02 1376.95C1789.61 1429.87 1731.8 1370.54 1704.34 1311.43C1697.66 1297.05 1700.99 1280.21 1712.64 1269.55C1785.33 1202.95 1879.11 1165.74 1928.54 1149.49C1932.21 1148.29 1935.95 1147.71 1939.65 1147.71Z" fill="#000072"/>
<path d="M2325.84 1152.18C2353.76 1152.19 2386.31 1144.9 2424.04 1126.62C2470.99 1103.88 2499.94 1073.45 2510.08 1036.2C2523.71 986.16 2500.18 936.082 2478.04 902.889C2461.77 878.485 2431.09 867.982 2403.44 877.328C2358.7 892.44 2273.37 925.805 2204.58 979.437C2180.01 998.587 2172.73 1032.67 2187.27 1060.49C2204.07 1092.64 2246.01 1152.18 2325.84 1152.18ZM2424.03 903.944C2435.43 903.944 2446.46 909.603 2453.08 919.53C2471.77 947.548 2491.8 989.164 2481.14 1028.32C2473.38 1056.84 2449.77 1080.82 2410.96 1099.62C2299.25 1153.75 2242.12 1100.66 2213.86 1046.59C2206.04 1031.63 2209.89 1013.34 2223.03 1003.1C2288.33 952.187 2370.11 920.253 2413.05 905.746H2413.05C2416.65 904.53 2420.36 903.944 2424.03 903.944Z" fill="#000072"/>
<path d="M2196.41 1445.84C2221.66 1445.84 2248.22 1439.22 2272.98 1425.38C2340.07 1387.87 2368.93 1311.34 2337.3 1254.77C2333.27 1247.54 2324.13 1244.94 2316.89 1249C2309.66 1253.04 2307.07 1262.18 2311.12 1269.41C2334.67 1311.54 2310.99 1369.76 2258.34 1399.2C2205.69 1428.62 2143.69 1418.29 2120.14 1376.17C2116.1 1368.93 2106.97 1366.33 2099.73 1370.39C2092.5 1374.43 2089.91 1383.57 2093.95 1390.81C2113.91 1426.49 2153.24 1445.84 2196.41 1445.84Z" fill="#000072"/>
<path d="M2375.81 1265.5C2354.66 1230.49 2298.89 1230.02 2284.86 1271.26C2282.68 1276.75 2288.54 1282.58 2293.98 1280.5C2301.05 1278.11 2307.13 1274.01 2313.83 1272.19C2331.32 1265.61 2348.06 1273.02 2364.89 1279.05C2372.89 1282.01 2380.35 1272.59 2375.81 1265.5Z" fill="#000072"/>
<path d="M2136.67 1351.33C2096.86 1341.94 2057.51 1381.47 2077.16 1420.35C2079.57 1425.74 2087.83 1425.63 2090.15 1420.28C2093.38 1413.56 2094.7 1406.35 2098.09 1400.29C2105.62 1383.19 2122.63 1376.41 2138.72 1368.61C2146.43 1364.96 2144.91 1353.03 2136.67 1351.33Z" fill="#000072"/>
<path d="M2794.84 887.83C2773.95 853.658 2763.65 812.637 2768.06 769.722C2778.75 665.559 2871.86 589.789 2976.03 600.483C3080.19 611.178 3155.96 704.288 3145.27 808.451C3134.57 912.614 3041.46 988.384 2937.3 977.689C2908.32 974.714 2881.56 965.347 2858.23 951.155L2770.49 970.832L2794.84 887.83Z" fill="white"/>
<g opacity="0.5">
<path d="M2972.3 636.758C2875 626.768 2787.36 692.237 2767.52 785.81C2767.5 779.126 2767.78 772.383 2768.48 765.584C2779.18 661.421 2872.29 585.651 2976.45 596.346C3080.61 607.04 3156.38 700.15 3145.69 804.313C3144.99 811.141 3143.91 817.839 3142.52 824.407C3142.16 728.714 3069.64 646.751 2972.3 636.758Z" fill="white"/>
</g>
<path d="M2957.05 995.379C3004.29 995.379 3049.72 979.3 3086.86 949.08C3129.59 914.3 3156.23 864.964 3161.85 810.154C3173.47 697.014 3090.87 595.511 2977.73 583.894C2864.57 572.268 2763.09 654.875 2751.47 768.015C2747.08 810.793 2755.83 852.82 2776.81 890.051L2754.49 966.14C2752.83 971.804 2754.28 977.927 2758.32 982.239C2762.36 986.546 2768.37 988.391 2774.14 987.107L2855.47 968.865C2880.17 982.81 2907.1 991.35 2935.6 994.275C2942.77 995.013 2949.93 995.379 2957.05 995.379ZM2956.53 616.156C2962.41 616.156 2968.35 616.459 2974.32 617.069C3069.17 626.815 3138.41 711.903 3128.67 806.747C3123.96 852.694 3101.63 894.057 3065.8 923.207C3029.98 952.362 2984.95 965.795 2939 961.103C2913.18 958.452 2888.92 950.312 2866.9 936.909C2863.21 934.663 2858.79 933.945 2854.58 934.883L2794.46 948.369L2810.84 892.524C2812.16 888.012 2811.52 883.149 2809.06 879.135C2789.19 846.62 2780.75 809.374 2784.65 771.425C2793.77 682.552 2869.05 616.156 2956.53 616.156Z" fill="#000072"/>
<g opacity="0.3">
<path d="M2793.77 886.009C2845.7 929.933 2917.24 949.169 2988.29 931.487C3067.08 911.878 3125.13 851.881 3146.01 779.066C3146.51 788.721 3146.28 798.535 3145.26 808.451C3134.57 912.614 3041.46 988.384 2937.3 977.689C2908.32 974.714 2881.56 965.347 2858.23 951.155L2770.49 970.832L2794.84 887.829C2794.47 887.23 2794.13 886.613 2793.77 886.009Z" fill="#000072"/>
</g>
<path d="M2896.04 735.848C2912.44 719.44 2939.05 722.38 2955.45 738.788L2958.01 741.342L2960.56 738.788C2976.97 722.38 3003.57 719.44 3019.98 735.848C3036.39 752.256 3036.39 778.858 3019.98 795.266L3017.43 797.82L2965.84 849.406C2961.51 853.732 2954.5 853.732 2950.18 849.406L2898.59 797.82L2896.04 795.266C2879.63 778.858 2879.63 752.255 2896.04 735.848Z" fill="#FF0068"/>
</g>
<defs>
<linearGradient id="paint0_linear_7_2" x1="2269.35" y1="803.263" x2="2516.85" y2="1134.33" gradientUnits="userSpaceOnUse">
<stop stop-color="white"/>
<stop offset="1" stop-color="white"/>
</linearGradient>
<linearGradient id="paint1_linear_7_2" x1="2196.03" y1="858.075" x2="2443.53" y2="1189.15" gradientUnits="userSpaceOnUse">
<stop stop-color="white"/>
<stop offset="1" stop-color="white"/>
</linearGradient>
<linearGradient id="paint2_linear_7_2" x1="1832.68" y1="1129.71" x2="2080.17" y2="1460.78" gradientUnits="userSpaceOnUse">
<stop stop-color="white"/>
<stop offset="1" stop-color="white"/>
</linearGradient>
<linearGradient id="paint3_linear_7_2" x1="1758.15" y1="1185.42" x2="2005.64" y2="1516.49" gradientUnits="userSpaceOnUse">
<stop stop-color="white"/>
<stop offset="1" stop-color="white"/>
</linearGradient>
<clipPath id="clip0_7_2">
<rect width="4000" height="4000" fill="white" transform="matrix(-1 0 0 1 4000 0)"/>
</clipPath>
</defs>
</svg>
