<svg width="4000" height="4000" viewBox="0 0 4000 4000" fill="none" xmlns="http://www.w3.org/2000/svg">
<g clip-path="url(#clip0_16_582)">
<path d="M0 4000V2000V0H4000V4000H0Z" fill="#FFDCB6"/>
<path d="M2051.36 870.811C2077.84 861.622 2119.46 850.271 2143.25 845.946C2173.52 840.541 2212.98 838.919 2275.68 840C2345.95 841.622 2374.6 844.865 2410.82 854.054C2436.22 860.541 2477.3 875.135 2502.71 885.946C2528.11 896.757 2567.03 917.838 2589.19 932.433C2611.36 947.027 2648.11 977.298 2670.82 1000C2692.98 1022.16 2724.33 1060 2740.55 1083.78C2756.76 1107.57 2778.38 1146.49 2789.73 1170.27C2800.55 1194.05 2815.68 1234.05 2823.79 1259.46C2831.36 1284.87 2841.63 1329.73 2846.49 1359.46C2852.98 1401.08 2854.6 1435.14 2852.44 1505.41C2850.28 1560.54 2845.95 1610.27 2841.09 1629.73C2836.76 1647.57 2832.44 1665.95 2832.44 1670.27C2832.44 1675.68 2842.71 1680.54 2865.95 1685.41C2884.87 1689.73 2921.09 1700 2947.03 1708.65C2973.52 1717.3 3012.44 1732.97 3033.52 1743.78C3055.14 1754.59 3087.57 1773.51 3105.41 1785.95C3123.25 1797.84 3156.76 1825.95 3180 1848.65C3203.25 1870.81 3236.76 1909.73 3254.06 1935.14C3270.82 1960.54 3292.98 1996.76 3302.71 2016.22C3312.44 2035.68 3328.11 2075.68 3338.38 2105.41C3348.11 2135.14 3360.55 2180 3365.95 2205.41C3373.52 2242.16 3375.68 2275.68 3375.68 2372.97C3375.68 2475.68 3373.52 2504.32 3363.79 2556.76C3356.76 2590.81 3345.41 2638.38 3338.38 2662.16C3326.49 2701.08 3325.95 2708.65 3330.82 2737.84C3335.68 2764.32 3335.14 2776.76 3327.57 2808.11C3322.71 2829.19 3312.98 2853.51 3305.95 2862.16C3299.46 2870.81 3286.49 2883.78 3277.84 2889.73C3269.19 2896.22 3251.36 2904.32 3237.84 2908.11C3224.33 2911.35 3202.71 2912.97 3189.19 2910.81C3165.41 2907.57 3164.33 2908.11 3130.82 2940C3110.28 2960.54 3083.79 2979.46 3060.55 2990.27C3030.28 3004.86 3017.84 3007.57 2983.79 3007.57C2950.82 3008.11 2937.84 3005.41 2913.52 2993.51C2897.3 2985.95 2875.68 2970.81 2848.65 2940.54L2744.33 2948.65L2736.76 2970.27C2732.44 2982.16 2724.33 2998.38 2718.38 3006.49C2712.98 3015.14 2697.84 3027.03 2662.17 3045.95L2075.68 3043.78C1752.98 3042.7 1367.57 3041.62 1218.92 3041.08C976.221 3040.54 945.951 3039.46 924.329 3031.35C910.816 3025.95 889.194 3012.43 876.221 3001.62C863.248 2990.27 847.032 2970.81 840.005 2957.84C832.978 2945.41 822.707 2934.05 817.302 2932.97C812.437 2931.35 795.68 2921.08 781.086 2909.19C765.951 2897.84 746.491 2876.76 736.761 2861.62C723.248 2840.54 698.924 2763.24 621.086 2494.59C545.41 2233.51 522.167 2147.03 522.707 2124.32C522.707 2108.11 526.491 2087.03 530.816 2078.38C535.14 2069.73 546.491 2055.68 556.221 2047.57C565.41 2038.92 582.167 2029.73 592.978 2027.03C607.032 2022.7 796.761 2021.62 1183.79 2022.7C1497.3 2023.78 1760 2026.49 1767.57 2029.19C1777.3 2032.97 1769.73 2022.16 1740.55 1991.35C1717.84 1968.11 1689.19 1931.89 1676.76 1910.81C1664.33 1889.73 1647.03 1852.43 1637.84 1827.03C1628.65 1801.62 1617.3 1756.76 1612.44 1727.03C1605.95 1685.41 1604.87 1647.57 1607.57 1559.46C1609.19 1496.76 1614.6 1420.54 1619.46 1389.19C1623.79 1357.84 1636.76 1305.95 1647.57 1272.97C1658.92 1238.92 1678.38 1194.59 1693.52 1170.27C1707.57 1146.49 1729.73 1113.51 1742.17 1097.3C1754.6 1081.08 1782.71 1049.19 1805.41 1027.03C1827.57 1004.32 1862.71 973.514 1883.79 958.379C1904.87 942.703 1940 920.541 1962.17 908.649C1984.33 897.298 2024.87 880 2051.36 870.811Z" fill="#16297C"/>
<path d="M1437.84 2949.73C1855.68 2949.19 2000.54 2947.03 2010.81 2942.16C2018.38 2938.92 2025.95 2935.68 2028.11 2935.68C2030.81 2935.14 2033.51 2938.92 2035.13 2943.24C2037.3 2949.73 2050.81 2951.35 2186.49 2950.81L2195.68 2974.05C2201.08 2987.03 2205.4 2998.92 2205.4 3001.62C2205.4 3003.78 1922.7 3004.86 948.648 3002.7L927.027 2990.81C915.135 2984.86 899.459 2972.97 878.378 2951.35L1437.84 2949.73Z" fill="#97A1BA"/>
<path d="M2136.76 2842.16C2135.68 2836.22 2140 2830.27 2147.57 2827.03H2147.03C2154.05 2824.32 2165.4 2822.7 2172.97 2823.24C2183.24 2824.32 2187.03 2827.57 2187.57 2839.46C2189.19 2853.51 2188.65 2854.05 2163.78 2852.97C2143.78 2851.89 2137.84 2849.19 2136.76 2842.16Z" fill="#D9E0E9"/>
<path d="M2074.6 2852.43C2074.06 2839.46 2075.68 2827.03 2078.38 2825.41C2081.09 2823.24 2100 2821.62 2121.09 2822.16C2150.27 2822.16 2156.76 2823.78 2147.03 2827.57C2140 2830.27 2135.68 2836.22 2136.76 2841.62C2137.84 2849.19 2143.79 2851.89 2189.19 2854.05V2951.35H2113.52C2050.82 2951.35 2037.3 2949.73 2033.52 2943.24C2030.82 2937.3 2035.14 2929.19 2046.49 2917.3C2056.22 2907.57 2066.49 2894.59 2069.73 2887.57C2072.98 2881.08 2075.14 2864.86 2074.6 2852.43Z" fill="#B8C2CC"/>
<path d="M2118.92 2821.62C2098.38 2821.62 2097.3 2820.54 2097.3 2805.41C2097.3 2790.27 2098.38 2789.19 2118.92 2789.19C2139.46 2789.19 2140.54 2790.27 2140.54 2805.41C2140.54 2820.54 2139.46 2821.62 2118.92 2821.62Z" fill="#081764"/>
<path d="M3062.16 2827.57C3081.62 2817.84 3104.32 2801.08 3118.92 2785.41C3137.29 2764.32 3144.86 2759.46 3152.43 2763.24C3157.83 2765.41 3167.02 2767.57 3172.97 2767.57C3182.7 2767.57 3183.24 2770.27 3180.54 2788.11C3178.37 2798.92 3171.89 2818.92 3165.94 2832.43C3160 2845.95 3147.56 2867.57 3138.37 2881.08C3129.73 2894.59 3112.43 2914.59 3100.54 2925.95C3088.1 2936.76 3066.48 2952.43 3051.35 2960.54C3029.19 2972.43 3017.29 2975.13 2983.78 2975.13C2948.65 2975.13 2940 2972.97 2920.54 2960.54C2907.56 2952.43 2891.35 2939.46 2883.78 2931.35C2876.21 2922.7 2868.65 2910.81 2867.56 2904.32C2865.94 2896.22 2869.19 2887.57 2876.75 2879.46C2883.78 2872.97 2895.67 2858.92 2903.78 2848.65C2916.75 2831.89 2920 2830.27 2929.73 2836.76C2936.21 2840.54 2958.37 2843.24 2984.86 2843.24C3023.24 2842.7 3034.59 2840.54 3062.16 2827.57Z" fill="#95C52E"/>
<path d="M3210.27 2800C3212.98 2786.49 3217.3 2766.49 3218.92 2755.68V2755.14C3221.09 2741.08 3224.87 2735.14 3231.36 2735.14C3236.22 2735.14 3253.52 2739.46 3269.19 2744.32C3295.14 2752.97 3297.3 2755.68 3297.3 2770.27C3297.3 2778.92 3294.6 2795.68 3291.9 2806.49C3288.65 2817.84 3280 2834.59 3271.9 2844.32C3263.25 2853.51 3248.65 2864.32 3239.46 2868.65C3229.73 2872.43 3215.14 2875.68 3207.03 2875.68C3198.38 2875.68 3190.27 2874.59 3188.11 2872.97C3185.41 2871.35 3188.65 2860 3194.06 2847.03C3200 2834.59 3207.03 2813.51 3210.27 2800Z" fill="#61B5E3"/>
<path d="M2844.86 2777.84C2852.97 2761.62 2859.46 2742.7 2859.46 2735.14C2859.46 2722.7 2861.62 2721.62 2883.78 2721.62C2906.48 2721.62 2908.1 2722.7 2908.1 2736.22C2908.1 2744.86 2902.7 2765.41 2896.75 2782.16C2888.1 2805.41 2876.21 2822.16 2851.89 2846.49C2824.86 2873.51 2812.43 2881.62 2783.78 2890.81C2764.32 2896.76 2746.48 2900 2744.32 2898.38C2742.16 2896.22 2741.08 2884.86 2741.62 2873.51C2743.24 2853.51 2744.32 2851.89 2767.56 2845.41C2781.08 2841.62 2800.54 2831.35 2810.81 2822.7C2821.08 2814.05 2836.21 2794.05 2844.86 2777.84Z" fill="#D9E0E9"/>
<path d="M2084.87 2776.22C2087.57 2775.13 2097.84 2760.54 2108.11 2743.24L2127.03 2711.89L2157.84 2746.49C2174.6 2765.41 2188.65 2782.7 2189.19 2785.41C2189.19 2787.57 2164.87 2789.19 2135.14 2789.19C2102.7 2789.19 2081.08 2787.03 2081.08 2783.78C2081.08 2781.08 2082.7 2777.3 2084.87 2776.22Z" fill="#FFDCB6"/>
<path d="M3145.95 2715.14C3145.95 2711.35 3150.81 2696.22 3157.3 2681.08C3163.78 2666.49 3170.81 2654.05 3173.51 2654.05C3176.22 2654.05 3179.46 2657.3 3180.54 2660.54C3181.62 2664.32 3184.86 2682.7 3191.89 2735.14H3175.68C3167.03 2735.14 3156.22 2732.43 3152.43 2728.65C3148.65 2724.86 3145.95 2718.38 3145.95 2715.14Z" fill="#FEFEFE"/>
<path d="M2440 2707.03C2447.02 2685.95 2452.97 2678.38 2471.35 2668.65C2488.1 2658.92 2495.67 2657.3 2501.08 2661.62C2505.4 2664.87 2509.73 2675.14 2511.35 2683.78C2512.97 2692.43 2511.89 2709.73 2508.64 2721.62C2505.94 2733.51 2495.67 2753.51 2487.02 2765.95C2477.83 2778.38 2458.91 2795.14 2444.86 2803.24C2428.1 2812.97 2410.81 2818.38 2396.21 2818.38C2383.78 2818.92 2371.89 2817.3 2369.19 2815.14C2367.02 2812.97 2371.89 2805.41 2381.08 2798.92C2389.73 2791.89 2402.16 2780.54 2409.19 2772.97C2416.21 2765.41 2423.78 2753.51 2426.48 2745.95C2429.19 2738.38 2435.13 2721.08 2440 2707.03Z" fill="#16297C"/>
<path d="M2751.35 2783.78C2748.11 2783.78 2745.95 2752.97 2745.95 2702.7C2745.95 2641.62 2747.57 2621.62 2752.43 2621.62C2756.22 2621.62 2767.03 2626.49 2775.68 2632.43C2784.32 2638.38 2797.3 2649.73 2804.32 2658.38C2810.81 2666.49 2816.22 2676.22 2816.22 2680C2816.22 2683.24 2809.19 2700.54 2800.54 2717.84C2791.89 2734.59 2778.92 2756.76 2770.81 2765.95C2763.24 2775.68 2754.59 2783.78 2751.35 2783.78Z" fill="#95C52E"/>
<path d="M2358.38 2674.59C2368.65 2660.54 2387.57 2645.41 2405.4 2636.22C2421.62 2628.11 2440 2621.62 2445.94 2621.62C2451.89 2621.62 2460.54 2623.78 2464.86 2626.49C2471.35 2629.73 2468.65 2632.43 2454.59 2638.38C2444.32 2642.7 2431.35 2651.89 2425.94 2659.46C2420 2667.03 2411.89 2686.49 2407.02 2702.7C2400.54 2725.41 2392.43 2738.38 2372.43 2758.38C2357.84 2772.43 2343.78 2782.7 2340.54 2781.08C2337.29 2779.46 2333.51 2770.27 2331.89 2761.08C2330.27 2751.35 2331.35 2732.97 2334.59 2720.54C2337.84 2707.57 2348.65 2687.03 2358.38 2674.59Z" fill="#16297C"/>
<path d="M2967.56 2652.43C2990.27 2655.68 2993.51 2654.05 3012.97 2636.22C3030.27 2620 3034.05 2617.84 3035.67 2625.95C3036.75 2630.81 3044.86 2643.78 3053.51 2654.05C3068.1 2671.89 3070.81 2672.97 3129.73 2670.27L3125.94 2685.41C3123.24 2693.51 3121.62 2708.65 3121.62 2719.46C3121.62 2731.89 3125.94 2743.78 3143.24 2762.7L3118.91 2787.03C3105.4 2800.54 3080 2818.38 3062.16 2827.03C3034.05 2840.54 3023.24 2842.7 2983.78 2842.7C2952.43 2842.7 2934.59 2840.54 2927.02 2835.14C2916.21 2827.57 2916.21 2827.03 2929.73 2801.62C2941.62 2778.38 2942.7 2768.65 2943.24 2649.73L2967.56 2652.43Z" fill="#B6EA24"/>
<path d="M3075.68 2637.84C3067.03 2629.19 3064.87 2620 3064.87 2591.89C3064.87 2558.92 3065.41 2556.76 3076.76 2556.76C3083.79 2556.76 3100 2563.24 3113.52 2571.89C3127.03 2580 3142.16 2592.97 3147.57 2600C3152.43 2607.57 3156.76 2615.14 3156.76 2617.3C3156.76 2620 3143.79 2627.57 3128.65 2635.14C3112.97 2642.7 3096.76 2648.65 3093.52 2648.65C3089.73 2648.65 3081.62 2643.78 3075.68 2637.84Z" fill="#FEFEFE"/>
<path d="M2948.11 2585.95C2960 2577.3 2982.16 2565.95 2996.76 2561.08C3011.89 2555.68 3025.95 2551.89 3028.11 2551.35C3030.81 2551.35 3032.43 2554.59 3032.43 2558.38C3032.97 2561.62 3024.87 2576.76 3015.14 2591.35C3005.41 2605.95 2993.52 2620.54 2989.19 2623.24C2984.87 2625.95 2975.14 2627.03 2967.57 2625.41C2960 2623.78 2948.11 2617.84 2927.03 2601.62L2948.11 2585.95Z" fill="#FEFEFE"/>
<path d="M2762.16 2585.41C2744.87 2581.08 2743.25 2578.38 2741.62 2557.84C2740 2537.3 2741.08 2535.14 2752.43 2535.14C2759.46 2535.14 2777.3 2539.46 2791.89 2544.32C2808.11 2550.27 2830.27 2564.32 2848.11 2581.08C2863.79 2595.68 2883.25 2620.54 2890.27 2635.14C2897.84 2650.27 2905.41 2674.59 2907.57 2690.27C2910.81 2716.76 2910.27 2718.38 2897.3 2721.62C2889.73 2723.78 2878.92 2724.32 2872.97 2723.24C2864.33 2721.62 2861.08 2715.68 2858.38 2694.59C2855.68 2679.46 2848.11 2657.3 2840.54 2644.86C2832.97 2631.89 2816.76 2614.59 2804.33 2605.95C2791.35 2597.3 2772.43 2588.11 2762.16 2585.41Z" fill="#FEFEFE"/>
<path d="M2235.14 2969.19C2228.11 2954.59 2227.03 2915.14 2227.57 2737.3C2228.11 2580.54 2229.73 2523.78 2234.6 2525.41C2237.84 2526.49 2256.22 2559.46 2275.68 2598.38C2295.14 2637.3 2315.68 2674.05 2321.62 2680.54C2327.57 2687.03 2334.6 2692.43 2337.84 2692.43C2341.08 2692.43 2340.54 2701.08 2336.22 2715.13C2331.89 2728.11 2330.27 2746.49 2331.89 2758.38C2333.51 2769.19 2337.3 2779.46 2340.54 2781.08C2343.24 2782.7 2357.84 2772.43 2400 2732.43L2410.81 2744.86C2421.08 2756.22 2421.08 2757.3 2411.89 2769.73C2407.03 2776.76 2394.6 2788.11 2385.41 2795.14C2375.68 2802.16 2367.57 2809.19 2367.57 2810.81C2367.57 2812.43 2374.6 2815.13 2383.79 2817.84C2393.51 2820 2408.65 2818.92 2421.08 2815.13C2438.92 2809.19 2442.7 2809.19 2447.03 2816.22C2449.73 2820.54 2465.41 2831.89 2481.62 2841.08C2497.84 2850.27 2521.62 2861.62 2535.14 2866.49C2548.65 2871.35 2578.92 2878.38 2602.7 2881.62C2626.49 2884.86 2656.76 2885.95 2670.27 2883.78C2683.79 2881.62 2697.84 2877.3 2702.16 2874.05C2708.65 2868.65 2709.19 2874.59 2707.57 2914.59C2705.95 2950.81 2702.7 2964.86 2694.06 2976.76C2688.11 2984.86 2674.6 2996.22 2664.33 3001.08C2648.11 3009.73 2627.03 3010.81 2464.87 3010.81L2464.27 3010.81C2287.56 3010.27 2283.22 3010.26 2263.24 2998.38C2251.89 2991.89 2239.46 2978.38 2235.14 2969.19Z" fill="#D9E0E9"/>
<path d="M2913.51 2522.7C2922.7 2495.68 2929.73 2468.65 2929.73 2463.78V2463.24C2929.73 2458.38 2931.89 2454.05 2935.13 2454.05C2937.84 2454.05 2943.78 2469.19 2947.03 2487.03C2950.81 2505.41 2955.68 2521.08 2957.84 2522.16C2960.54 2523.24 2962.16 2527.57 2962.16 2530.81C2962.16 2534.59 2955.68 2541.62 2947.57 2547.03C2938.92 2551.89 2926.49 2561.08 2918.92 2567.03C2911.35 2573.51 2903.78 2578.38 2901.62 2578.38C2898.92 2578.38 2897.3 2577.3 2897.3 2575.68C2897.3 2574.05 2904.86 2550.27 2913.51 2522.7Z" fill="#C8C848"/>
<path d="M3335.13 2500C3331.89 2512.97 3330.81 2509.19 3330.27 2482.7V2482.16C3330.27 2463.24 3331.89 2448.65 3335.13 2448.65C3337.84 2448.65 3340 2456.76 3340 2465.95C3339.46 2475.68 3337.29 2491.35 3335.13 2500Z" fill="#61B5E3"/>
<path d="M2251.89 2458.38C2257.84 2452.97 2269.73 2446.49 2278.38 2443.78C2287.03 2441.08 2372.43 2438.38 2467.57 2438.38C2629.19 2437.84 2642.16 2438.92 2663.78 2448.65C2680.54 2456.76 2689.19 2465.41 2697.3 2482.16C2707.03 2503.78 2708.11 2517.84 2708.11 2686.49C2708.65 2828.11 2707.03 2869.19 2701.62 2874.05C2697.84 2877.3 2683.78 2881.62 2670.27 2883.78C2656.76 2885.95 2626.49 2884.87 2602.7 2881.62C2578.92 2878.38 2548.65 2871.35 2535.14 2866.49C2521.62 2861.62 2498.92 2850.81 2483.78 2842.7C2469.19 2834.59 2452.97 2824.32 2448.65 2819.46C2441.62 2811.35 2443.24 2808.65 2465.41 2787.57C2479.46 2775.14 2495.14 2756.22 2500.54 2745.95C2505.95 2735.68 2510.27 2714.59 2510.27 2699.46C2510.81 2684.32 2507.57 2668.11 2504.32 2663.24C2497.84 2654.59 2495.68 2655.14 2474.59 2667.03C2461.62 2674.59 2448.65 2685.95 2445.41 2692.97C2441.62 2700 2436.22 2715.68 2432.97 2728.11C2429.73 2741.08 2425.41 2751.35 2423.24 2751.35C2420.54 2751.89 2414.59 2747.57 2409.19 2742.16C2400 2732.97 2400 2730.27 2407.57 2702.7C2411.89 2686.49 2419.46 2667.57 2424.32 2660.54C2428.65 2654.05 2441.62 2643.78 2472.97 2628.11L2456.76 2624.32C2445.95 2621.62 2431.89 2623.78 2416.22 2629.73C2402.7 2635.14 2380.54 2650.81 2366.49 2665.41C2350.81 2681.62 2337.3 2690.81 2332.43 2689.19C2328.11 2687.57 2317.84 2676.22 2309.73 2663.24C2302.16 2650.81 2283.78 2615.68 2269.19 2584.87C2255.14 2554.59 2239.46 2528.65 2235.14 2527.03C2230.81 2525.41 2227.03 2518.38 2227.03 2510.81C2227.03 2503.24 2230.27 2490.81 2234.59 2482.16C2238.92 2474.05 2246.49 2463.24 2251.89 2458.38Z" fill="#FEFEFE"/>
<path d="M2043.78 2443.24C2037.3 2417.84 2032.43 2392.97 2032.43 2388.11V2387.57C2032.43 2382.7 2035.67 2378.38 2038.92 2378.38C2042.7 2378.38 2055.67 2388.11 2067.57 2400.54C2079.46 2412.43 2104.86 2432.97 2124.32 2445.95C2143.78 2458.92 2167.57 2471.89 2177.3 2474.05C2191.89 2477.3 2194.59 2480.54 2192.43 2489.19C2190.81 2495.14 2189.19 2511.89 2189.19 2554.05L2148.65 2551.35C2122.7 2549.73 2108.65 2550.81 2109.73 2554.05C2110.81 2557.3 2129.19 2563.24 2189.19 2575.68L2189.73 2727.03L2177.84 2716.22C2171.89 2710.27 2154.05 2685.95 2138.38 2662.16C2122.7 2638.38 2103.78 2605.41 2095.67 2589.19C2088.11 2572.97 2075.67 2543.78 2068.11 2524.32C2061.08 2504.86 2049.73 2468.65 2043.78 2443.24Z" fill="#C8C848"/>
<path d="M2887.02 2351.35C2893.51 2331.89 2901.08 2312.97 2903.78 2309.73V2309.19C2907.02 2305.95 2914.05 2302.7 2919.45 2302.7C2925.4 2302.7 2929.73 2306.49 2929.73 2311.89C2929.73 2317.3 2923.78 2349.73 2916.21 2383.78C2909.18 2417.84 2898.37 2461.62 2892.43 2481.08C2887.02 2500.54 2879.45 2522.7 2876.21 2530.81C2872.43 2540.54 2867.56 2544.86 2862.16 2543.24C2857.83 2541.62 2854.05 2538.92 2854.05 2536.22C2854.59 2534.05 2847.02 2528.65 2837.83 2524.32C2828.64 2520 2821.08 2514.59 2821.62 2511.89C2821.62 2509.73 2823.78 2503.78 2826.48 2498.38C2829.18 2493.51 2835.13 2480.54 2839.45 2470.27C2843.78 2460 2851.35 2441.62 2856.75 2429.73C2861.62 2417.84 2868.1 2403.24 2870.27 2397.3C2872.97 2391.35 2880.54 2370.81 2887.02 2351.35Z" fill="#95C52E"/>
<path d="M3192.44 2443.24C3207.03 2421.08 3233.52 2372.97 3250.82 2336.76V2336.22C3281.63 2273.51 3283.79 2270.27 3299.47 2270.27C3316.22 2270.27 3316.22 2270.27 3323.25 2311.89C3326.49 2335.14 3329.74 2396.22 3329.74 2447.03C3329.74 2523.78 3327.57 2549.19 3318.38 2587.57C3311.9 2614.05 3306.49 2635.68 3305.95 2636.76C3305.95 2637.3 3297.84 2625.41 3288.65 2609.73C3279.47 2594.05 3258.92 2569.73 3242.71 2556.22C3226.49 2542.7 3201.63 2523.24 3187.57 2512.97C3173.52 2502.7 3162.71 2492.43 3163.79 2489.19C3164.87 2485.95 3177.84 2465.41 3192.44 2443.24Z" fill="#17A9F2"/>
<path d="M3328.1 2380C3325.94 2341.62 3322.7 2300 3321.62 2287.57C3318.91 2267.03 3320 2264.32 3328.1 2265.95C3335.67 2267.03 3338.37 2275.14 3341.08 2300C3343.24 2317.84 3344.86 2349.19 3345.4 2370.27C3345.4 2391.35 3343.78 2417.3 3341.62 2428.65C3339.46 2439.46 3336.75 2448.65 3335.13 2448.65C3333.51 2448.65 3330.81 2417.84 3328.1 2380Z" fill="#91DEFB"/>
<path d="M1920 2250.27C1923.78 2245.41 1941.62 2229.73 1959.46 2215.68C1977.29 2201.08 1993.51 2189.73 1995.67 2189.19C1997.84 2189.19 1998.38 2195.68 1996.75 2204.32C1995.13 2212.43 1992.43 2249.19 1990.81 2286.49C1989.19 2330.27 1990.27 2367.03 1994.59 2391.89C1998.38 2412.97 2004.86 2443.24 2009.19 2459.46C2013.51 2475.68 2018.92 2496.76 2021.62 2505.41C2023.78 2514.05 2030.81 2535.14 2037.84 2551.35C2044.32 2567.57 2061.08 2602.7 2100 2676.76L2081.08 2711.35C2070.81 2730.81 2061.08 2745.95 2059.46 2745.95C2057.84 2745.95 2051.35 2727.03 2044.32 2704.32C2037.84 2681.08 2027.02 2645.41 2021.08 2624.32C2015.13 2603.24 2005.94 2570.81 2000 2551.35C1994.05 2531.89 1984.32 2497.84 1977.84 2475.68C1971.89 2453.51 1964.32 2429.19 1962.16 2421.62C1960 2414.05 1955.13 2397.3 1951.35 2383.78C1947.57 2370.27 1942.7 2353.51 1940.54 2345.95C1938.38 2338.38 1933.51 2321.62 1929.73 2308.11C1925.94 2294.59 1921.08 2278.38 1918.38 2271.89C1915.13 2263.24 1915.67 2256.76 1920 2250.27Z" fill="#95C52E"/>
<path d="M2760 2206.49C2768.11 2201.62 2788.11 2191.89 2804.86 2185.41C2822.16 2178.92 2848.65 2174.05 2866.49 2173.51C2883.78 2172.97 2897.3 2175.14 2897.3 2178.38C2897.3 2181.08 2902.16 2183.78 2908.11 2183.78C2914.05 2183.78 2921.62 2188.65 2924.32 2194.59C2927.03 2200.54 2929.73 2227.03 2929.73 2254.05C2929.73 2296.76 2928.65 2302.7 2920.54 2302.7C2915.13 2302.16 2908.11 2305.41 2904.86 2309.19C2901.62 2312.97 2893.51 2331.89 2887.03 2351.35C2880.54 2370.81 2872.97 2391.35 2870.27 2397.3C2868.11 2403.24 2861.62 2417.84 2856.76 2429.73C2851.89 2441.62 2843.78 2458.92 2840 2467.57C2835.68 2476.22 2832.43 2485.95 2831.89 2489.19C2831.89 2491.89 2829.19 2498.92 2825.41 2503.78C2819.46 2512.43 2817.3 2512.97 2794.59 2505.41C2781.08 2500.54 2764.86 2497.3 2758.38 2497.3C2749.19 2497.3 2743.24 2491.35 2735.13 2474.05C2729.73 2461.62 2717.3 2443.24 2708.11 2433.51C2697.84 2422.7 2681.62 2412.97 2663.78 2408.11C2648.11 2403.78 2621.08 2400 2604.32 2400C2587.03 2400 2572.97 2398.92 2572.97 2397.3C2572.97 2395.68 2580.54 2383.78 2589.19 2370.27C2598.38 2356.76 2607.03 2345.95 2609.73 2345.95C2611.89 2345.95 2617.3 2339.46 2622.16 2331.35C2627.03 2322.7 2642.7 2303.78 2657.3 2289.19C2671.89 2274.05 2692.43 2256.22 2702.7 2248.65C2712.97 2241.62 2725.41 2231.35 2729.73 2225.95C2734.05 2221.08 2739.46 2216.76 2742.16 2216.22C2744.32 2216.22 2752.43 2211.89 2760 2206.49Z" fill="#B6EA24"/>
<path d="M2750.27 2168.11C2762.7 2162.16 2785.95 2152.97 2801.62 2148.65C2817.3 2144.32 2839.46 2142.16 2851.35 2143.78C2863.24 2145.41 2881.08 2150.81 2891.35 2155.68C2901.08 2160.54 2911.89 2169.19 2914.05 2174.05C2917.84 2181.62 2916.76 2183.78 2908.11 2183.78C2902.16 2183.78 2897.3 2181.62 2897.3 2178.38C2897.3 2175.13 2884.32 2172.97 2869.19 2172.97C2853.51 2172.97 2825.95 2178.38 2808.11 2184.32C2790.27 2190.81 2769.19 2200.54 2761.08 2205.95C2752.43 2211.89 2744.32 2216.22 2742.16 2216.22C2739.46 2216.76 2734.05 2221.08 2729.73 2225.95C2725.41 2231.35 2712.97 2241.62 2702.7 2248.65C2692.43 2256.22 2671.89 2274.05 2657.3 2289.19C2642.7 2303.78 2627.03 2322.7 2622.16 2331.35C2617.3 2339.46 2611.89 2345.95 2609.73 2345.95C2607.03 2345.95 2597.3 2357.3 2588.11 2370.81C2572.97 2391.89 2571.35 2396.76 2578.38 2400.54C2583.78 2403.78 2573.51 2405.41 2550.27 2405.41C2529.73 2405.41 2513.51 2403.78 2513.51 2401.62C2514.05 2398.92 2525.41 2381.62 2539.46 2362.16C2552.97 2342.7 2586.49 2304.32 2613.51 2276.22C2640 2248.65 2676.76 2215.13 2694.59 2202.7C2712.43 2190.27 2737.3 2174.59 2750.27 2168.11Z" fill="#DFF7A9"/>
<path d="M2924.86 2128.65C2909.73 2114.05 2897.3 2101.62 2897.3 2100C2897.3 2098.38 2904.86 2097.3 2913.51 2097.3C2925.4 2097.3 2936.22 2103.78 2954.05 2121.62C2967.57 2135.14 2984.32 2157.3 2991.35 2171.35C2998.38 2185.95 3005.95 2205.95 3007.57 2216.22C3009.73 2226.49 3014.59 2277.84 3018.92 2329.73C3023.24 2381.62 3031.35 2444.32 3036.22 2468.65C3041.62 2492.97 3044.86 2514.05 3043.24 2515.68C3041.62 2517.3 3029.73 2519.46 2992.43 2521.62L2981.62 2494.59C2971.89 2470.81 2970.81 2458.38 2972.43 2389.19C2973.51 2345.95 2974.59 2285.41 2975.13 2254.05C2975.13 2205.95 2973.51 2194.05 2964.32 2175.68C2957.84 2163.78 2940.54 2142.7 2924.86 2128.65Z" fill="#61B5E3"/>
<path d="M1782.7 2128.11C1782.16 2118.38 1784.86 2107.57 1789.19 2103.78C1793.51 2100 1798.92 2097.3 1801.08 2097.3C1803.24 2097.3 1810.27 2102.7 1816.22 2109.73C1822.16 2116.22 1831.89 2130.27 1837.3 2140.54C1842.7 2150.81 1875.68 2257.84 1910.81 2378.38C1945.4 2498.92 1988.65 2647.03 2006.49 2708.11C2024.86 2769.19 2039.46 2829.73 2039.46 2843.24C2040 2856.76 2036.22 2873.51 2031.35 2881.08C2026.49 2888.65 2014.05 2898.92 2003.24 2904.32C1984.86 2912.97 1945.95 2913.51 1428.65 2913.51C1014.59 2913.51 868.108 2911.89 854.054 2907.03C843.783 2903.78 825.945 2895.14 815.135 2888.11C797.837 2877.3 795.135 2874.05 799.999 2864.86C805.398 2854.07 811.335 2854.05 1900.95 2851.36L1905.4 2851.35L1925.95 2835.14C1938.92 2824.86 1948.65 2811.89 1951.89 2800C1954.59 2789.73 1956.76 2772.43 1956.76 2762.16C1956.76 2751.89 1949.19 2717.84 1940 2686.49C1930.81 2655.14 1921.08 2620 1918.92 2608.11C1916.22 2596.22 1911.35 2578.92 1908.11 2570.27C1904.32 2561.62 1891.35 2517.84 1878.38 2472.97C1865.4 2428.65 1848.11 2367.57 1838.92 2337.84C1829.73 2308.11 1814.05 2252.97 1803.24 2215.14C1792.43 2176.76 1783.24 2137.84 1782.7 2128.11Z" fill="#97A1BA"/>
<path d="M1887.56 2164.86C1881.08 2143.24 1868.1 2116.22 1857.29 2101.62V2101.08C1846.48 2087.03 1838.92 2075.68 1840.54 2075.68C1842.16 2075.68 1862.16 2085.41 1884.86 2096.76C1908.1 2108.65 1942.16 2122.16 1960.54 2128.11C1979.46 2133.51 1994.05 2139.46 1992.97 2141.08C1992.43 2143.24 1972.43 2159.46 1948.65 2177.3C1924.86 2195.14 1903.78 2208.11 1902.16 2206.49C1900 2204.32 1893.51 2185.95 1887.56 2164.86Z" fill="#FFDCB6"/>
<path d="M1721.62 2103.24C1754.05 2100.54 1760 2098.38 1764.32 2088.11V2087.57C1767.57 2081.08 1770.81 2075.68 1772.43 2075.68C1774.05 2075.14 1781.62 2079.46 1788.65 2084.87C1800 2094.05 1800.54 2095.14 1792.43 2102.7C1787.03 2107.03 1783.24 2118.92 1783.78 2128.11C1783.78 2137.84 1792.43 2176.76 1803.24 2214.59C1814.05 2252.97 1829.73 2308.11 1838.92 2337.84C1848.11 2367.57 1865.41 2428.11 1878.38 2472.97C1891.35 2517.3 1904.32 2561.62 1908.11 2570.27C1911.35 2578.92 1916.22 2596.22 1918.92 2608.11C1921.08 2620 1930.81 2655.14 1940 2686.49C1949.19 2717.84 1956.76 2751.89 1956.76 2762.16C1956.76 2772.43 1954.59 2789.73 1951.89 2800C1948.65 2811.89 1938.92 2824.87 1905.41 2851.35L1356.76 2852.97C842.162 2854.05 807.567 2854.59 801.081 2863.78C795.135 2872.43 793.513 2871.89 779.459 2858.38C765.405 2844.32 765.405 2843.24 774.054 2834.05C779.459 2828.65 783.783 2820 783.783 2814.59C783.783 2809.73 759.459 2719.46 729.189 2614.59C699.459 2510.27 661.621 2380 645.405 2325.41C621.621 2244.87 616.216 2220 616.216 2187.57C616.756 2149.73 617.297 2148.11 658.378 2108.11L1170.81 2107.57C1452.97 2107.03 1701.08 2105.41 1721.62 2103.24Z" fill="#B8C2CC"/>
<path d="M1210.27 2467.57L1232.43 2447.57V2447.03C1252.43 2428.65 1257.3 2427.03 1285.41 2427.03C1311.35 2426.49 1320.54 2429.19 1342.7 2444.32C1357.3 2454.05 1374.06 2470.81 1379.46 2481.08C1384.87 2491.35 1389.19 2510.27 1389.19 2522.7C1389.19 2535.68 1385.41 2554.59 1381.08 2564.86C1376.76 2575.13 1364.87 2588.65 1355.14 2594.59C1344.87 2601.08 1328.65 2605.41 1313.52 2605.41C1298.92 2605.41 1279.46 2600.54 1265.41 2592.97C1251.89 2586.49 1235.14 2572.97 1227.57 2562.7C1216.22 2547.57 1212.98 2536.76 1210.27 2467.57Z" fill="#FEFEFE"/>
<path d="M558.914 2113.51C560.536 2101.08 568.644 2088.11 580.536 2077.3L599.995 2059.46H1170.27C1615.67 2059.46 1743.78 2061.08 1754.05 2065.95C1761.62 2069.73 1768.1 2076.76 1768.1 2081.08C1768.1 2085.41 1763.78 2092.97 1758.91 2097.3C1750.81 2104.32 1678.37 2105.95 652.968 2110.81L634.59 2130.81C617.293 2150.27 616.211 2153.51 616.211 2189.19C616.211 2219.46 622.157 2247.57 645.401 2325.41C661.617 2380 699.455 2510.27 729.184 2614.59C759.455 2719.46 783.779 2809.73 783.779 2814.59C783.779 2820 781.076 2827.57 777.293 2830.81C773.509 2834.59 769.725 2837.84 767.563 2837.84C765.941 2837.84 761.617 2831.35 757.833 2823.24C753.509 2815.14 730.806 2741.08 707.563 2659.46C683.779 2577.84 639.995 2425.41 610.266 2321.62C569.184 2179.46 556.211 2127.57 558.914 2113.51Z" fill="#D9E0E9"/>
<path d="M2624.32 2083.78C2645.4 2070.81 2668.11 2054.05 2675.13 2046.49C2682.16 2038.92 2690.81 2032.43 2694.05 2032.43C2697.3 2031.89 2705.94 2036.76 2713.51 2042.16C2721.08 2048.11 2749.19 2064.32 2775.67 2078.38C2802.7 2091.89 2824.86 2105.41 2825.94 2107.03C2826.49 2109.19 2815.67 2112.97 2801.62 2115.68C2787.03 2117.84 2765.94 2124.32 2754.05 2129.73C2742.16 2134.59 2714.05 2150.81 2692.43 2165.41C2670.27 2180 2634.05 2208.65 2611.89 2229.73C2589.73 2250.81 2556.76 2285.95 2538.92 2308.11C2521.08 2330.27 2498.92 2360 2472.97 2400L2316.22 2400.54L2308.65 2385.41C2304.86 2377.3 2303.24 2365.95 2304.86 2360.54C2307.03 2354.59 2316.22 2350.27 2331.35 2348.11C2343.78 2345.95 2367.57 2340 2383.78 2334.05C2400 2328.11 2419.46 2320.54 2427.03 2317.3C2434.59 2314.05 2457.3 2300 2477.84 2286.49C2498.38 2272.97 2515.67 2260.54 2516.76 2257.84C2517.84 2255.68 2518.38 2252.97 2517.84 2251.35C2516.76 2249.73 2495.67 2258.38 2470.27 2269.73C2444.86 2281.62 2402.7 2297.3 2375.67 2304.87C2349.19 2312.43 2318.38 2320 2289.19 2325.41L2275.67 2287.03C2268.11 2265.95 2260.54 2248.65 2258.38 2248.65C2255.67 2248.65 2254.05 2252.43 2254.05 2256.76C2254.05 2261.08 2256.76 2277.84 2260 2292.97C2264.86 2316.22 2264.32 2322.7 2258.38 2325.95C2254.59 2328.11 2222.16 2329.73 2186.49 2329.19H2116.22C2112.61 2329.55 2112.61 2331.53 2116.22 2335.14C2119.46 2337.84 2136.22 2344.32 2154.05 2348.65C2171.89 2352.97 2205.4 2356.22 2228.65 2356.76C2264.86 2356.76 2270.81 2358.38 2275.67 2367.57C2278.92 2373.51 2281.08 2384.32 2281.08 2391.89C2281.08 2402.16 2277.3 2406.49 2266.49 2408.65C2257.84 2410.81 2244.32 2417.3 2235.67 2423.78C2227.03 2430.27 2214.05 2444.32 2207.03 2455.14C2195.67 2473.51 2192.97 2475.14 2177.3 2472.43C2167.57 2470.81 2143.78 2458.92 2124.32 2445.95C2104.86 2432.97 2079.46 2412.43 2067.57 2400.54C2055.67 2388.11 2042.7 2378.38 2039.46 2378.38C2035.67 2378.38 2031.35 2372.97 2029.73 2365.95C2028.11 2359.46 2027.57 2330.81 2027.57 2302.7C2027.57 2274.59 2029.73 2240.54 2035.13 2202.7L2154.05 2204.32C2246.49 2205.95 2284.32 2204.32 2324.32 2197.3C2352.43 2192.43 2400 2181.62 2429.73 2172.43C2459.46 2163.78 2507.03 2145.41 2535.13 2131.89C2563.24 2118.38 2603.78 2096.76 2624.32 2083.78Z" fill="#FED74D"/>
<path d="M2590.27 2025.95C2613.51 2008.65 2633.51 1992.43 2635.13 1989.19C2637.29 1985.95 2641.08 1983.78 2644.86 1983.78C2648.64 1984.32 2660.54 1994.05 2691.89 2027.03L2677.29 2043.78C2668.64 2052.97 2645.4 2070.81 2624.32 2083.78C2603.24 2096.76 2563.24 2118.38 2535.13 2131.89C2507.02 2145.41 2459.46 2163.78 2429.73 2172.43C2400 2181.62 2351.35 2192.97 2321.62 2197.84C2279.46 2204.86 2242.7 2206.49 2155.67 2204.86C2094.59 2203.78 2042.7 2201.62 2040.54 2200C2038.91 2198.38 2040 2186.49 2049.73 2148.65L2069.19 2152.43C2080.54 2155.14 2108.64 2158.38 2132.43 2160C2157.29 2162.16 2202.7 2160.54 2237.83 2156.76C2271.89 2152.97 2322.16 2144.32 2348.64 2137.3C2375.13 2130.27 2411.89 2119.46 2429.73 2112.97C2447.56 2107.03 2481.62 2091.35 2505.4 2079.46C2529.18 2067.03 2567.56 2042.7 2590.27 2025.95Z" fill="#C8C848"/>
<path d="M2907.03 1971.35C2895.68 1966.49 2886.49 1961.08 2886.49 1959.46C2886.49 1957.84 2908.11 1956.76 2935.13 1956.76C2962.16 1956.76 2996.76 1960 3012.43 1964.32C3027.57 1968.11 3049.19 1975.14 3059.46 1980C3069.73 1984.86 3089.19 1998.92 3102.7 2011.89C3116.22 2024.86 3144.86 2054.59 3167.03 2078.38C3196.76 2110.27 3212.97 2133.51 3228.65 2167.57C3240.54 2192.97 3251.35 2223.24 3252.97 2235.14C3255.13 2254.05 3250.81 2266.49 3216.22 2332.43C3194.59 2374.05 3168.11 2421.08 3157.3 2436.76C3146.49 2452.43 3135.13 2465.41 3132.43 2465.41C3129.73 2465.41 3121.08 2458.92 3100 2436.76L3101.62 2320C3103.24 2225.41 3101.62 2196.22 3094.59 2170.27C3089.73 2152.43 3077.84 2123.24 3067.57 2105.41C3057.84 2087.57 3036.76 2060.54 3020.54 2045.41C3004.86 2030.81 2977.3 2009.73 2959.46 1999.46C2941.62 1989.19 2917.84 1976.22 2907.03 1971.35Z" fill="#17A9F2"/>
<path fill-rule="evenodd" clip-rule="evenodd" d="M2782.7 1930.27C2783.24 1929.73 2795.13 1938.92 2809.73 1949.73C2823.78 1961.08 2865.4 1985.95 2902.7 2005.41C2950.81 2030.27 2978.91 2049.19 3000.54 2070.27C3019.45 2089.19 3036.75 2112.97 3047.02 2135.14C3056.21 2154.59 3066.48 2188.65 3070.27 2210.81C3075.67 2242.7 3075.13 2267.03 3070.27 2324.32C3066.48 2364.32 3064.86 2408.11 3066.48 2421.62C3068.64 2437.3 3076.75 2455.14 3089.18 2471.35C3100 2486.49 3130.27 2512.97 3161.08 2534.59C3189.73 2555.14 3221.62 2580 3231.89 2589.73C3241.62 2600 3256.75 2621.62 3264.86 2637.84C3272.97 2654.05 3283.24 2681.62 3287.02 2698.92C3293.51 2725.95 3293.51 2730.81 3286.48 2737.3C3280 2743.24 3272.97 2743.78 3224.32 2733.51L3217.29 2689.73C3214.05 2665.95 3204.86 2633.51 3197.83 2618.92C3190.81 2603.78 3171.89 2579.46 3155.67 2564.86C3136.21 2546.49 3116.75 2534.59 3097.29 2528.11C3081.08 2523.24 3062.7 2518.92 3056.75 2518.92C3047.56 2518.92 3044.86 2512.43 3036.75 2471.35C3031.35 2445.41 3023.24 2381.62 3018.91 2329.73C3014.59 2277.84 3009.73 2226.49 3007.56 2216.22C3005.94 2205.95 2998.37 2185.95 2991.35 2171.35C2984.32 2157.3 2967.02 2134.59 2952.97 2121.08C2930.81 2100 2924.32 2096.22 2909.18 2097.84C2894.59 2099.46 2873.51 2091.35 2811.89 2059.46C2768.64 2037.3 2732.43 2015.68 2731.35 2011.89C2730.27 2008.65 2738.37 1996.22 2748.64 1984.86C2761.08 1971.35 2767.02 1960 2766.48 1950.27C2765.94 1942.16 2768.64 1935.14 2773.51 1933.51C2777.29 1931.89 2781.62 1930.27 2782.7 1930.27V1930.27ZM3075.67 1935.14L3109.18 1976.76C3127.56 2000 3154.05 2037.3 3168.64 2059.46C3182.7 2081.62 3194.59 2102.16 3194.59 2105.41C3194.59 2108.11 3179.45 2094.05 3161.08 2072.97C3142.7 2051.89 3116.21 2024.86 3102.7 2011.89C3089.18 1998.92 3069.73 1984.86 3059.45 1980C3049.18 1975.14 3027.56 1968.11 3012.43 1964.32C2996.75 1960 2960.54 1956.76 2932.43 1956.76C2897.83 1956.76 2875.67 1954.05 2864.86 1948.65C2856.21 1944.32 2848.64 1939.46 2848.64 1937.84C2848.64 1936.22 2900 1935.14 3075.67 1935.14V1935.14Z" fill="#91DEFB"/>
<path d="M2675.67 1959.46C2675.67 1956.22 2687.02 1940 2701.08 1923.24V1922.7C2714.59 1905.95 2727.56 1891.89 2729.19 1891.89C2730.81 1891.89 2740.54 1901.62 2750.27 1913.51C2760.54 1926.49 2767.56 1941.08 2767.56 1949.73C2767.02 1959.46 2759.46 1972.97 2724.32 2010.81L2700 1987.57C2686.48 1975.14 2675.13 1962.16 2675.67 1959.46Z" fill="#61B5E3"/>
<path d="M3101.62 1902.16C3101.08 1894.59 3102.7 1886.49 3105.41 1884.87C3108.11 1882.7 3111.35 1881.08 3112.97 1881.08C3114.6 1880.54 3131.35 1896.22 3149.73 1914.59C3168.65 1933.51 3194.6 1964.32 3207.57 1983.78C3220.54 2003.24 3238.92 2032.97 3248.11 2050.27C3257.3 2067.03 3264.87 2083.24 3264.87 2086.49C3264.87 2089.73 3269.73 2102.16 3275.68 2115.14C3281.62 2127.57 3286.49 2142.16 3286.49 2147.57C3286.49 2152.43 3289.19 2157.84 3291.89 2159.46C3294.6 2161.08 3298.38 2170.27 3300 2180C3301.08 2189.19 3304.33 2206.49 3306.49 2218.38C3310.27 2237.3 3309.73 2238.92 3300.54 2237.3C3293.51 2235.68 3286.49 2224.87 3278.38 2202.7C3272.43 2184.87 3256.76 2149.73 3243.79 2124.32C3230.81 2098.92 3205.95 2056.76 3187.57 2029.73C3169.73 2003.24 3143.24 1966.49 3128.65 1948.65C3114.6 1930.81 3102.16 1909.73 3101.62 1902.16Z" fill="#17A9F2"/>
<path d="M2748.64 1910.81C2733.51 1891.89 2730.81 1884.86 2735.67 1878.38C2738.91 1874.05 2743.24 1870.27 2744.32 1870.27C2745.94 1870.27 2755.67 1883.78 2765.4 1900C2775.67 1916.22 2782.16 1930.81 2780 1932.43C2778.37 1934.05 2774.59 1935.14 2771.89 1935.14C2769.73 1935.14 2758.91 1924.32 2748.64 1910.81Z" fill="#BAC4D4"/>
<path d="M3107.03 1863.24C3106.49 1852.97 3108.65 1843.24 3111.35 1841.08C3114.06 1838.92 3136.76 1858.38 3162.17 1884.86C3187.57 1910.81 3217.3 1945.95 3228.11 1962.16C3238.92 1978.38 3257.3 2011.35 3269.73 2035.13C3281.63 2058.92 3298.38 2100 3307.57 2127.03C3316.22 2153.51 3325.41 2188.65 3328.11 2204.32C3332.44 2231.35 3331.9 2232.43 3320 2232.43C3310.81 2232.43 3307.57 2228.65 3305.41 2214.59C3303.79 2205.4 3301.08 2189.19 3300 2179.46C3298.38 2170.27 3294.6 2161.08 3291.9 2159.46C3289.19 2157.84 3286.49 2152.43 3286.49 2147.03C3286.49 2142.16 3281.63 2127.57 3275.68 2114.59C3269.73 2102.16 3264.87 2089.19 3264.87 2086.49C3264.87 2083.24 3257.3 2067.03 3248.11 2049.73C3238.92 2032.97 3220.54 2003.24 3207.57 1983.78C3194.6 1964.32 3168.65 1933.51 3149.73 1914.59C3131.35 1896.22 3114.6 1880.54 3111.9 1881.08C3109.73 1881.08 3107.57 1872.97 3107.03 1863.24Z" fill="#91DEFB"/>
<path d="M2770.27 1842.16C2768.64 1836.76 2776.75 1812.97 2788.1 1789.19C2799.99 1763.78 2811.35 1745.95 2816.21 1745.95C2820.54 1745.95 2838.91 1749.73 2856.75 1754.59C2874.59 1759.46 2895.13 1765.41 2902.7 1768.65C2910.27 1771.89 2920.54 1776.22 2925.94 1778.92C2930.81 1781.62 2938.37 1783.78 2942.16 1783.78C2945.4 1783.78 2972.97 1796.22 3002.7 1811.35C3032.43 1826.49 3061.62 1842.16 3067.56 1846.49C3076.75 1852.97 3077.83 1857.84 3070.27 1902.7H2805.4L2789.18 1876.76C2779.99 1862.7 2771.35 1847.03 2770.27 1842.16Z" fill="#17A9F2"/>
<path d="M2811.89 1743.78C2810.81 1743.24 2811.89 1737.3 2814.05 1730.27C2818.38 1718.38 2820 1717.84 2848.11 1721.08C2864.86 1723.24 2905.4 1733.51 2937.83 1744.86C2970.27 1755.68 3016.21 1775.68 3039.46 1789.19C3075.67 1810.27 3081.08 1815.68 3081.08 1828.11C3081.08 1836.76 3078.38 1844.32 3075.67 1845.95C3072.97 1847.57 3058.92 1841.62 3044.32 1833.51C3030.27 1825.41 3002.7 1810.81 2982.16 1801.08C2962.16 1791.35 2943.24 1783.78 2940.54 1783.78C2937.83 1783.78 2930.81 1781.62 2925.4 1778.92C2920.54 1776.22 2910.27 1771.89 2902.7 1768.65C2895.13 1765.41 2872.43 1758.92 2851.35 1753.51C2830.27 1748.11 2812.97 1743.78 2811.89 1743.78Z" fill="#91DEFB"/>
<path d="M2792.44 1410.81C2794.06 1373.51 2796.76 1340 2798.92 1335.68C2800.54 1331.35 2802.71 1329.19 2803.79 1330.27C2804.33 1331.35 2809.19 1363.78 2814.06 1402.7C2821.62 1462.7 2821.62 1482.16 2816.22 1537.84C2812.44 1573.51 2804.33 1624.87 2797.3 1651.35C2790.81 1677.84 2781.08 1709.73 2775.68 1721.62C2770.81 1733.51 2758.92 1758.92 2749.73 1778.38C2740.54 1797.84 2723.25 1828.11 2711.35 1845.95C2699.46 1863.78 2682.17 1887.03 2672.98 1897.3C2664.33 1907.57 2647.03 1925.95 2635.14 1937.84C2623.25 1949.73 2605.95 1965.41 2597.3 1972.97C2588.11 1980.54 2566.49 1996.76 2548.65 2009.19C2530.81 2021.08 2496.22 2041.08 2471.89 2053.51C2447.03 2065.95 2424.87 2075.68 2421.62 2075.68C2418.92 2075.68 2411.89 2077.84 2407.03 2081.08C2401.62 2083.78 2383.79 2090.27 2367.57 2095.14C2351.35 2100 2325.95 2105.95 2310.81 2108.65C2296.22 2111.35 2262.17 2116.22 2235.14 2118.92C2208.65 2121.62 2162.17 2122.7 2132.44 2121.08C2102.71 2119.46 2066.49 2115.68 2051.35 2112.97C2036.76 2110.27 2014.6 2104.87 2002.71 2101.62C1990.81 2098.92 1976.22 2094.05 1970.27 2091.89C1964.33 2089.19 1949.73 2083.78 1937.84 2080C1925.95 2076.22 1909.19 2069.19 1900 2064.32L1900 2064.32C1891.35 2059.46 1874.06 2049.73 1862.17 2043.24C1850.27 2036.22 1829.73 2021.62 1816.22 2011.35C1802.71 2000.54 1780 1980 1765.41 1964.87C1741.62 1941.08 1740 1937.84 1750.27 1936.76C1756.76 1935.68 1768.65 1939.46 1777.3 1944.87C1785.41 1949.73 1796.76 1957.3 1802.71 1961.08C1808.65 1964.87 1832.98 1977.3 1856.76 1988.65C1880.54 2000.54 1912.44 2014.05 1927.03 2018.92C1942.17 2023.78 1972.44 2030.81 1994.6 2035.14C2020.54 2040.54 2068.65 2043.24 2127.03 2043.24C2184.33 2043.24 2234.06 2040.54 2259.46 2035.68C2281.62 2031.35 2320.54 2021.08 2345.95 2013.51C2371.35 2005.41 2406.49 1992.43 2424.33 1984.32C2442.17 1976.22 2482.17 1952.97 2512.98 1931.89C2549.19 1907.57 2584.33 1878.38 2612.98 1848.11C2637.3 1822.7 2668.11 1784.87 2682.17 1764.32C2695.68 1743.78 2715.68 1708.65 2725.95 1686.49C2736.76 1664.32 2749.73 1632.43 2755.68 1616.22C2761.62 1600 2771.35 1562.16 2777.84 1532.43C2783.79 1502.7 2790.27 1448.11 2792.44 1410.81Z" fill="#95C52E"/>
<path d="M2120 918.919C2129.73 918.919 2141.62 916.216 2145.95 913.514C2150.27 910.811 2162.7 908.108 2172.97 908.108C2185.95 908.108 2194.05 911.351 2198.92 918.919C2202.16 924.865 2210.27 929.73 2216.22 929.73C2222.16 929.73 2228.11 931.892 2229.73 935.135C2231.35 938.378 2257.84 940.541 2291.89 940.541C2325.95 940.541 2352.43 938.378 2354.05 935.135C2355.68 931.892 2371.35 929.73 2389.19 929.73C2407.03 929.73 2422.7 931.892 2424.32 935.135C2425.95 938.378 2431.35 940.541 2436.76 940.541C2441.62 940.541 2466.49 950.811 2491.89 963.243C2517.3 976.216 2541.08 989.189 2544.86 992.973C2548.11 996.757 2552.97 1000 2555.68 1000C2557.84 1000 2565.41 1004.86 2572.97 1011.35C2580.54 1017.84 2595.14 1029.19 2605.41 1037.3C2615.68 1044.86 2631.35 1058.92 2640.54 1067.57C2649.19 1076.76 2663.24 1092.43 2670.81 1102.7C2678.92 1112.97 2691.89 1128.65 2699.46 1137.84C2707.03 1147.03 2713.51 1155.68 2713.51 1158.38C2713.51 1160.54 2718.38 1167.57 2724.32 1174.59C2730.27 1181.08 2735.14 1189.73 2735.14 1193.51C2735.14 1196.76 2737.3 1200 2740.54 1200C2743.78 1200 2745.95 1204.86 2745.95 1210.81C2745.95 1216.76 2748.11 1221.62 2751.35 1221.62C2754.59 1221.62 2756.76 1226.49 2756.76 1232.43C2756.76 1238.38 2758.92 1243.24 2762.16 1243.24C2764.86 1243.24 2767.57 1248.11 2767.57 1254.05C2767.57 1260 2770.27 1264.86 2772.97 1264.86C2775.68 1264.86 2780 1264.86 2782.7 1264.32C2784.86 1264.32 2789.19 1274.59 2792.97 1287.57C2797.84 1304.86 2797.84 1331.89 2794.05 1394.59C2791.35 1440.54 2783.78 1502.7 2777.3 1532.43C2771.35 1562.16 2761.62 1600 2755.68 1616.22C2749.73 1632.43 2736.76 1664.32 2725.95 1686.49C2715.68 1708.65 2695.68 1743.78 2682.16 1764.32C2668.11 1784.86 2637.3 1822.7 2612.97 1848.11C2584.32 1878.38 2549.19 1907.57 2512.97 1931.89C2482.16 1952.97 2442.16 1976.22 2424.32 1984.32C2406.49 1992.43 2371.35 2005.41 2345.95 2013.51C2320.54 2021.08 2281.62 2031.35 2259.46 2035.68C2234.05 2040.54 2184.32 2043.24 2127.03 2043.24C2068.65 2043.24 2020.54 2040.54 1994.59 2035.14C1972.43 2030.81 1942.16 2023.78 1927.03 2018.92C1912.43 2014.05 1880.54 2000.54 1856.76 1988.65C1832.97 1977.3 1808.65 1964.86 1802.7 1961.08C1796.76 1957.3 1785.41 1949.73 1777.3 1944.86C1768.65 1939.46 1756.76 1935.14 1750.27 1935.14C1743.24 1935.14 1734.05 1929.73 1729.73 1923.24C1725.41 1916.22 1714.59 1898.92 1705.41 1883.78C1696.22 1869.19 1683.78 1843.24 1677.3 1827.03C1670.81 1810.81 1663.24 1787.57 1660 1775.68C1657.3 1763.78 1652.43 1741.08 1649.19 1725.41C1645.95 1710.27 1643.24 1652.97 1643.24 1598.92C1643.24 1544.32 1647.03 1471.89 1650.81 1437.84C1655.14 1403.78 1661.08 1362.16 1664.32 1345.95C1667.57 1329.73 1674.05 1314.05 1678.38 1310.81C1682.7 1307.57 1685.95 1301.08 1686.49 1296.22C1686.49 1290.81 1688.65 1286.49 1691.89 1286.49C1695.14 1286.49 1698.38 1282.16 1699.46 1277.3C1701.08 1271.89 1706.49 1260.54 1711.89 1251.35C1717.3 1242.7 1725.95 1230.81 1731.35 1224.32C1736.22 1218.38 1740.54 1210.27 1740.54 1207.03C1740.54 1203.24 1742.16 1200 1744.86 1200C1747.03 1200 1752.43 1193.51 1757.84 1185.41C1762.7 1176.76 1777.3 1158.38 1790.27 1143.24C1802.7 1128.65 1829.73 1100.54 1849.19 1081.08C1868.65 1061.62 1891.35 1040 1900.54 1032.43C1909.19 1024.86 1927.03 1011.35 1940.54 1002.16C1954.05 992.432 1973.51 980.541 1983.78 974.595C1994.05 968.649 2007.57 961.622 2013.51 958.378C2019.18 955.287 2030.74 950.231 2039.3 946.487L2040.54 945.946C2049.19 942.162 2061.62 937.297 2067.03 934.595C2072.97 931.892 2081.62 929.73 2086.49 929.73C2091.35 929.73 2097.3 927.568 2098.92 924.324C2101.08 921.081 2110.81 918.919 2120 918.919Z" fill="#B6EA24"/>
<path d="M2129.73 1784.32C2145.95 1781.08 2172.98 1770.27 2189.19 1760C2205.41 1749.73 2223.25 1741.62 2228.65 1741.08C2233.52 1740.54 2240.54 1745.95 2244.33 1752.43C2248.11 1759.46 2250.81 1787.03 2250.81 1816.22C2251.35 1854.59 2248.65 1871.89 2241.62 1884.87C2236.76 1894.59 2226.49 1908.65 2218.92 1916.22C2211.35 1923.78 2196.22 1933.51 2185.41 1937.84C2173.52 1942.7 2148.65 1945.95 2128.65 1945.95C2108.11 1945.95 2085.41 1942.7 2077.3 1938.38C2068.65 1934.05 2055.68 1923.78 2047.57 1915.14C2039.46 1907.03 2028.65 1889.19 2022.71 1875.68C2017.3 1862.16 2010.81 1840 2009.19 1825.41C2007.03 1811.35 2007.03 1796.22 2009.19 1791.35C2012.98 1783.78 2020 1783.24 2056.76 1786.49C2083.25 1788.65 2111.35 1788.11 2129.73 1784.32Z" fill="#16297C"/>
<path d="M2183.78 1905.41V1882.7V1882.16C2183.78 1863.24 2185.4 1859.46 2194.59 1859.46C2200.54 1859.46 2207.03 1863.24 2209.73 1868.11C2212.43 1873.51 2208.65 1881.08 2183.78 1905.41Z" fill="#FC3E8F"/>
<path d="M2101.08 1881.62C2109.73 1876.22 2123.78 1869.19 2132.43 1865.95C2141.08 1862.7 2156.76 1860 2165.95 1860C2183.24 1859.46 2183.78 1860.54 2183.78 1880C2183.78 1894.05 2180.54 1902.16 2172.97 1907.03C2167.03 1910.27 2148.11 1914.05 2131.35 1914.59C2114.05 1915.14 2096.76 1913.51 2093.51 1911.89C2089.73 1909.73 2086.49 1904.32 2086.49 1900C2086.49 1895.68 2092.97 1887.57 2101.08 1881.62Z" fill="#FC3E8F"/>
<path d="M1811.35 1554.05C1818.92 1538.38 1831.89 1522.16 1842.7 1515.14C1852.97 1508.11 1865.94 1502.7 1871.35 1502.7C1876.75 1502.7 1887.57 1505.95 1896.21 1509.19C1904.32 1512.97 1917.84 1523.24 1926.48 1532.43C1934.59 1541.08 1945.4 1557.3 1949.73 1567.57C1954.59 1578.38 1958.38 1603.78 1958.38 1627.03C1958.92 1660.54 1956.75 1671.89 1945.4 1691.89C1937.3 1707.03 1925.4 1720 1913.51 1725.95C1899.46 1732.97 1889.19 1734.59 1873.51 1731.35C1860.54 1728.65 1845.4 1720 1835.67 1710.27C1826.48 1701.08 1814.05 1680.54 1808.11 1664.32C1802.7 1648.11 1797.84 1622.7 1797.84 1608.11C1797.84 1590.81 1802.7 1571.35 1811.35 1554.05Z" fill="#16297C"/>
<path d="M1872.43 1597.3C1869.73 1585.95 1871.35 1576.76 1877.83 1566.49V1565.95C1882.7 1557.84 1889.73 1551.35 1893.51 1551.35C1896.75 1550.81 1904.32 1555.14 1909.19 1560.54C1914.05 1565.95 1919.46 1576.22 1921.62 1583.78C1923.24 1591.35 1922.16 1603.78 1919.46 1611.89C1915.49 1621.98 1909.55 1627.03 1901.62 1627.03C1894.59 1627.57 1886.48 1624.32 1882.7 1620.54C1878.92 1616.76 1874.59 1605.95 1872.43 1597.3Z" fill="#FEFEFE"/>
<path d="M2287.03 1513.51C2291.89 1503.24 2303.24 1489.19 2311.35 1482.7C2321.8 1474.77 2334.6 1470.63 2349.73 1470.27C2369.19 1470.27 2376.76 1473.51 2395.14 1490.27C2407.57 1501.62 2421.08 1519.46 2425.41 1529.73C2430.27 1541.08 2434.05 1565.95 2434.05 1591.89C2434.6 1618.38 2431.89 1640.54 2427.57 1648.65C2423.78 1656.22 2412.97 1670.27 2403.24 1680C2389.73 1694.05 2382.16 1697.3 2364.87 1697.3C2351.89 1697.3 2335.68 1691.89 2324.87 1684.86C2314.6 1678.38 2300 1662.16 2292.43 1648.65C2280.54 1627.57 2278.38 1617.84 2278.38 1578.38C2278.38 1547.03 2281.08 1526.49 2287.03 1513.51Z" fill="#16297C"/>
<path d="M2348.65 1551.35C2348.65 1540.54 2351.89 1527.57 2356.22 1522.7C2360 1517.3 2366.49 1513.51 2370.81 1513.51C2375.13 1513.51 2383.24 1520 2389.19 1528.65C2395.68 1536.76 2400.54 1549.19 2400 1556.76C2400 1564.32 2396.22 1575.68 2391.89 1582.7C2387.57 1589.19 2380.54 1594.59 2377.3 1594.59C2373.51 1595.14 2365.41 1589.73 2359.46 1583.24C2352.43 1576.22 2348.65 1564.32 2348.65 1551.35Z" fill="#FEFEFE"/>
<path d="M2162.17 881.081C2184.33 878.378 2211.36 874.594 2221.63 873.513C2231.9 872.432 2260 872.432 2283.79 874.054C2307.57 875.135 2346.49 880 2370.27 883.783C2394.06 888.108 2428.11 896.756 2445.95 902.702C2463.79 909.189 2495.14 922.702 2516.22 932.973C2537.3 943.783 2571.9 965.946 2594.06 982.702C2616.22 1000 2646.49 1027.03 2661.63 1043.24C2676.76 1060 2697.84 1086.49 2708.65 1102.7C2720 1118.92 2737.84 1150.81 2748.65 1172.97C2760 1195.13 2772.44 1223.24 2776.76 1235.13C2780.54 1247.03 2783.79 1260 2783.79 1263.78C2783.79 1267.03 2780 1269.19 2775.68 1267.57C2771.36 1265.95 2767.57 1260 2767.57 1254.05C2767.57 1248.11 2764.87 1243.24 2762.17 1243.24C2758.92 1243.24 2756.76 1238.38 2756.76 1232.43C2756.76 1226.49 2754.6 1221.62 2751.36 1221.62C2748.11 1221.62 2745.95 1216.76 2745.95 1210.81C2745.95 1204.86 2743.79 1200 2740.54 1200C2737.3 1200 2735.14 1196.76 2735.14 1193.51C2735.14 1189.73 2730.27 1181.08 2724.33 1174.59C2718.38 1167.57 2713.52 1160.54 2713.52 1158.38C2713.52 1155.68 2707.03 1147.03 2699.46 1137.84C2691.9 1128.65 2678.92 1112.97 2670.81 1102.7C2663.25 1092.43 2649.19 1076.76 2640.54 1067.57C2631.36 1058.92 2615.68 1044.86 2605.41 1037.3C2595.14 1029.19 2580.54 1017.84 2572.98 1011.35C2565.41 1004.86 2557.84 1000 2555.68 1000C2552.98 1000 2548.11 996.756 2544.87 992.973C2541.08 989.189 2517.3 976.216 2491.9 963.243C2466.49 950.811 2441.63 940.54 2436.76 940.54C2431.36 940.54 2425.95 938.378 2424.33 935.135C2422.71 931.892 2407.03 929.729 2389.19 929.729C2371.36 929.729 2355.68 931.892 2354.06 935.135C2352.44 938.378 2325.95 940.54 2291.9 940.54C2257.84 940.54 2231.36 938.378 2229.73 935.135C2228.11 931.892 2222.17 929.729 2216.22 929.729C2210.27 929.729 2202.17 924.865 2198.92 918.378C2192.98 909.189 2188.11 908.108 2167.57 910.811C2154.06 912.432 2134.06 915.135 2123.25 916.216C2111.9 917.838 2101.63 921.081 2100 924.324C2098.38 927.567 2092.44 929.729 2086.49 929.729C2080.54 929.729 2071.36 931.892 2066.49 934.594C2061.08 937.297 2049.19 942.162 2040.54 945.946C2031.9 949.729 2019.46 955.135 2013.52 958.378C2007.57 961.621 1994.06 968.648 1983.79 974.594C1973.52 980.54 1954.06 992.432 1940.54 1002.16C1927.03 1011.35 1909.19 1024.86 1900.54 1032.43C1891.36 1040 1868.65 1061.62 1849.19 1081.08C1829.73 1100.54 1802.71 1128.65 1790.27 1143.24C1777.3 1158.38 1762.71 1176.76 1757.84 1185.41C1752.44 1193.51 1747.03 1200 1744.87 1200C1742.17 1200 1740.54 1203.24 1740.54 1207.03C1740.54 1210.27 1736.22 1218.38 1731.36 1224.32C1725.95 1230.81 1717.3 1242.7 1711.9 1251.35C1706.49 1260.54 1701.08 1271.89 1699.46 1277.3C1698.38 1282.16 1695.14 1286.49 1691.9 1286.49C1688.65 1286.49 1686.49 1291.35 1686.49 1297.3C1686.49 1303.24 1684.33 1308.11 1681.08 1308.11C1677.84 1308.11 1676.76 1301.62 1678.92 1293.51C1680.54 1284.86 1692.44 1256.22 1704.87 1229.73C1717.84 1203.24 1740.54 1163.24 1756.22 1142.16C1771.36 1120.54 1800 1085.41 1820 1064.32C1840.54 1043.24 1877.3 1010.27 1902.71 991.351C1928.11 972.432 1968.11 947.567 1991.9 935.675C2015.68 923.783 2054.6 908.108 2078.38 900.54C2102.17 892.973 2140 884.324 2162.17 881.081Z" fill="#DFF7A9"/>
</g>
<defs>
<clipPath id="clip0_16_582">
<rect width="4000" height="4000" fill="white"/>
</clipPath>
</defs>
</svg>
