<svg width="400" height="400" viewBox="0 0 400 400" fill="none" xmlns="http://www.w3.org/2000/svg">
<g clip-path="url(#clip0_1_3)">
<g clip-path="url(#clip1_1_3)">
<path d="M322.24 54.595H482.56C497.316 54.595 509.28 42.6446 509.28 27.905V-132.235C509.28 -146.975 497.316 -158.925 482.56 -158.925H322.24C307.484 -158.925 295.52 -146.975 295.52 -132.235V27.905C295.52 42.6446 307.484 54.595 322.24 54.595Z" fill="white"/>
<path d="M68.4 54.595H228.72C243.476 54.595 255.44 42.6446 255.44 27.905V-132.235C255.44 -146.975 243.476 -158.925 228.72 -158.925H68.4C53.6439 -158.925 41.68 -146.975 41.68 -132.235V27.905C41.68 42.6446 53.6439 54.595 68.4 54.595Z" fill="white"/>
<path d="M-312.36 301.478H41.68C56.4361 301.478 68.4 289.527 68.4 274.788V114.648C68.4 99.908 56.4361 87.9575 41.68 87.9575H-312.36C-327.116 87.9575 -339.08 99.908 -339.08 114.648V274.788C-339.08 289.527 -327.116 301.478 -312.36 301.478Z" fill="white"/>
<path d="M382.36 301.478H542.68C557.436 301.478 569.4 289.527 569.4 274.788V114.648C569.4 99.908 557.436 87.9575 542.68 87.9575H382.36C367.604 87.9575 355.64 99.908 355.64 114.648V274.788C355.64 289.527 367.604 301.478 382.36 301.478Z" fill="white"/>
<path d="M128.52 301.478H288.84C303.596 301.478 315.56 289.527 315.56 274.788V114.648C315.56 99.908 303.596 87.9575 288.84 87.9575H128.52C113.764 87.9575 101.8 99.908 101.8 114.648V274.788C101.8 289.527 113.764 301.478 128.52 301.478Z" fill="white"/>
<path d="M262.12 548.36H422.44C437.196 548.36 449.16 536.41 449.16 521.67V361.53C449.16 346.79 437.196 334.84 422.44 334.84H262.12C247.364 334.84 235.4 346.79 235.4 361.53V521.67C235.4 536.41 247.364 548.36 262.12 548.36Z" fill="white"/>
<path d="M-312.36 548.36H168.6C183.356 548.36 195.32 536.41 195.32 521.67V361.53C195.32 346.79 183.356 334.84 168.6 334.84H-312.36C-327.116 334.84 -339.08 346.79 -339.08 361.53V521.67C-339.08 536.41 -327.116 548.36 -312.36 548.36Z" fill="white"/>
<path d="M-312.36 54.595H-18.44C-3.6839 54.595 8.27997 42.6446 8.27997 27.905V-132.235C8.27997 -146.975 -3.6839 -158.925 -18.44 -158.925H-312.36C-327.116 -158.925 -339.08 -146.975 -339.08 -132.235V27.905C-339.08 42.6446 -327.116 54.595 -312.36 54.595Z" fill="white"/>
<path d="M-18.44 -132.235V27.905C-18.44 42.6446 -30.4039 54.595 -45.16 54.595H-18.44C-3.68391 54.595 8.27996 42.6446 8.27996 27.905V-132.235C8.27996 -146.975 -3.68391 -158.925 -18.44 -158.925H-45.16C-30.4039 -158.925 -18.44 -146.975 -18.44 -132.235Z" fill="black" fill-opacity="0.36"/>
<path d="M228.72 -158.925H202C216.756 -158.925 228.72 -146.975 228.72 -132.235V27.905C228.72 42.6446 216.756 54.595 202 54.595H228.72C243.476 54.595 255.44 42.6446 255.44 27.905V-132.235C255.44 -146.975 243.476 -158.925 228.72 -158.925Z" fill="black" fill-opacity="0.36"/>
<path d="M14.96 301.478H41.68C56.4361 301.478 68.4 289.527 68.4 274.788V114.648C68.4 99.908 56.4361 87.9575 41.68 87.9575H14.96C29.7161 87.9575 41.68 99.908 41.68 114.648V274.788C41.68 289.527 29.7161 301.478 14.96 301.478Z" fill="black" fill-opacity="0.36"/>
<path d="M395.72 548.36H422.44C437.196 548.36 449.16 536.41 449.16 521.67V361.53C449.16 346.79 437.196 334.84 422.44 334.84H395.72C410.476 334.84 422.44 346.79 422.44 361.53V521.67C422.44 536.41 410.476 548.36 395.72 548.36Z" fill="black" fill-opacity="0.36"/>
<path d="M141.88 548.36H168.6C183.356 548.36 195.32 536.41 195.32 521.67V361.53C195.32 346.79 183.356 334.84 168.6 334.84H141.88C156.636 334.84 168.6 346.79 168.6 361.53V521.67C168.6 536.41 156.636 548.36 141.88 548.36Z" fill="black" fill-opacity="0.36"/>
<path d="M262.12 301.478H288.84C303.596 301.478 315.56 289.527 315.56 274.788V114.648C315.56 99.908 303.596 87.9575 288.84 87.9575H262.12C276.876 87.9575 288.84 99.908 288.84 114.648V274.788C288.84 289.527 276.876 301.478 262.12 301.478Z" fill="black" fill-opacity="0.36"/>
<path d="M3221.36 835.277H-265.6C-328.319 835.277 -379.16 784.493 -379.16 721.845V-579.292C-379.16 -641.941 -328.319 -692.725 -265.6 -692.725H3221.36C3284.08 -692.725 3334.92 -641.941 3334.92 -579.292V721.845C3334.92 784.493 3284.08 835.277 3221.36 835.277Z" stroke="#383838" stroke-width="2" stroke-miterlimit="10"/>
<path d="M322.24 54.595H482.56C497.316 54.595 509.28 42.6446 509.28 27.905V-132.235C509.28 -146.975 497.316 -158.925 482.56 -158.925H322.24C307.484 -158.925 295.52 -146.975 295.52 -132.235V27.905C295.52 42.6446 307.484 54.595 322.24 54.595Z" stroke="#383838" stroke-width="2" stroke-miterlimit="10"/>
<path d="M68.4 54.595H228.72C243.476 54.595 255.44 42.6446 255.44 27.905V-132.235C255.44 -146.975 243.476 -158.925 228.72 -158.925H68.4C53.6439 -158.925 41.68 -146.975 41.68 -132.235V27.905C41.68 42.6446 53.6439 54.595 68.4 54.595Z" stroke="#383838" stroke-width="2" stroke-miterlimit="10"/>
<path d="M-312.36 301.478H41.68C56.4361 301.478 68.4 289.527 68.4 274.788V114.648C68.4 99.908 56.4361 87.9575 41.68 87.9575H-312.36C-327.116 87.9575 -339.08 99.908 -339.08 114.648V274.788C-339.08 289.527 -327.116 301.478 -312.36 301.478Z" stroke="#383838" stroke-width="2" stroke-miterlimit="10"/>
<path d="M382.36 301.478H542.68C557.436 301.478 569.4 289.527 569.4 274.788V114.648C569.4 99.908 557.436 87.9575 542.68 87.9575H382.36C367.604 87.9575 355.64 99.908 355.64 114.648V274.788C355.64 289.527 367.604 301.478 382.36 301.478Z" stroke="#383838" stroke-width="2" stroke-miterlimit="10"/>
<path d="M128.52 301.478H288.84C303.596 301.478 315.56 289.527 315.56 274.788V114.648C315.56 99.908 303.596 87.9575 288.84 87.9575H128.52C113.764 87.9575 101.8 99.908 101.8 114.648V274.788C101.8 289.527 113.764 301.478 128.52 301.478Z" stroke="#383838" stroke-width="2" stroke-miterlimit="10"/>
<path d="M262.12 548.36H422.44C437.196 548.36 449.16 536.41 449.16 521.67V361.53C449.16 346.791 437.196 334.84 422.44 334.84H262.12C247.364 334.84 235.4 346.791 235.4 361.53V521.67C235.4 536.41 247.364 548.36 262.12 548.36Z" stroke="#383838" stroke-width="2" stroke-miterlimit="10"/>
<path d="M-312.36 548.36H168.6C183.356 548.36 195.32 536.41 195.32 521.67V361.53C195.32 346.791 183.356 334.84 168.6 334.84H-312.36C-327.116 334.84 -339.08 346.791 -339.08 361.53V521.67C-339.08 536.41 -327.116 548.36 -312.36 548.36Z" stroke="#383838" stroke-width="2" stroke-miterlimit="10"/>
<path d="M-312.36 54.595H-18.44C-3.6839 54.595 8.27997 42.6446 8.27997 27.905V-132.235C8.27997 -146.975 -3.6839 -158.925 -18.44 -158.925H-312.36C-327.116 -158.925 -339.08 -146.975 -339.08 -132.235V27.905C-339.08 42.6446 -327.116 54.595 -312.36 54.595Z" stroke="#383838" stroke-width="2" stroke-miterlimit="10"/>
<path d="M194.324 226.758H176.538L199.64 158.307H221.673L244.775 226.758H226.989L210.907 175.553H210.372L194.324 226.758ZM191.951 199.819H229.128V212.386H191.951V199.819Z" fill="#383838"/>
<path d="M315.53 470.903V464.887L352.441 409.805H315.129V402.451H362.337V408.468L325.427 463.55H362.738V470.903H315.53Z" fill="#383838"/>
<path d="M575.577 402.451L593.229 430.928H593.764L611.417 402.451H621.18L599.649 436.677L621.18 470.903H611.417L593.764 442.961H593.229L575.577 470.903H565.814L587.88 436.677L565.814 402.451H575.577Z" fill="#383838"/>
<path d="M472.657 178.829C472.434 176.378 471.442 174.473 469.681 173.113C467.942 171.732 465.457 171.041 462.225 171.041C460.086 171.041 458.303 171.32 456.876 171.877C455.45 172.434 454.38 173.202 453.667 174.183C452.953 175.141 452.586 176.244 452.563 177.492C452.519 178.517 452.719 179.419 453.165 180.199C453.633 180.979 454.302 181.67 455.171 182.271C456.063 182.851 457.132 183.363 458.381 183.809C459.629 184.255 461.033 184.644 462.593 184.979L468.477 186.316C471.865 187.051 474.852 188.031 477.437 189.257C480.045 190.482 482.23 191.942 483.99 193.635C485.773 195.329 487.122 197.279 488.036 199.485C488.95 201.691 489.418 204.164 489.44 206.905C489.418 211.227 488.326 214.937 486.164 218.035C484.002 221.132 480.892 223.505 476.836 225.154C472.801 226.803 467.931 227.627 462.225 227.627C456.497 227.627 451.505 226.769 447.247 225.054C442.99 223.338 439.68 220.731 437.318 217.233C434.955 213.734 433.74 209.311 433.674 203.963H449.521C449.655 206.169 450.245 208.008 451.293 209.478C452.34 210.949 453.778 212.063 455.606 212.821C457.456 213.578 459.595 213.957 462.025 213.957C464.254 213.957 466.148 213.656 467.708 213.055C469.291 212.453 470.506 211.617 471.353 210.548C472.2 209.478 472.634 208.253 472.657 206.871C472.634 205.579 472.233 204.476 471.453 203.562C470.673 202.626 469.469 201.824 467.842 201.156C466.237 200.465 464.187 199.83 461.69 199.251L454.536 197.579C448.607 196.22 443.937 194.025 440.527 190.995C437.117 187.942 435.423 183.82 435.445 178.628C435.423 174.395 436.56 170.685 438.856 167.498C441.151 164.312 444.328 161.827 448.384 160.045C452.441 158.262 457.066 157.371 462.259 157.371C467.564 157.371 472.166 158.273 476.067 160.078C479.99 161.861 483.032 164.367 485.194 167.598C487.356 170.829 488.459 174.573 488.504 178.829H472.657Z" fill="#383838"/>
<path d="M375.301 -19.7568L356.579 -88.2084H365.004L379.313 -32.4578H379.982L394.559 -88.2084H403.92L418.497 -32.4578H419.166L433.475 -88.2084H441.9L423.178 -19.7568H414.619L399.507 -74.3042H398.972L383.86 -19.7568H375.301Z" fill="#383838"/>
<path d="M633.226 -19.7568V-88.2084H674.55V-80.8552H641.518V-57.7261H672.41V-50.3729H641.518V-27.11H675.085V-19.7568H633.226Z" fill="#383838"/>
<path d="M136.349 -41.148H145.443L153.066 -31.1209L155.072 -28.447L166.439 -13.3395H157.345L149.856 -23.3666L147.984 -25.9068L136.349 -41.148ZM169.247 -53.9826C169.247 -46.7631 167.943 -40.5241 165.336 -35.2654C162.728 -30.0068 159.15 -25.9514 154.604 -23.0992C150.057 -20.2471 144.863 -18.821 139.024 -18.821C133.184 -18.821 127.991 -20.2471 123.444 -23.0992C118.897 -25.9514 115.32 -30.0068 112.712 -35.2654C110.104 -40.5241 108.8 -46.7631 108.8 -53.9826C108.8 -61.2021 110.104 -67.4412 112.712 -72.6999C115.32 -77.9585 118.897 -82.0139 123.444 -84.8661C127.991 -87.7182 133.184 -89.1443 139.024 -89.1443C144.863 -89.1443 150.057 -87.7182 154.604 -84.8661C159.15 -82.0139 162.728 -77.9585 165.336 -72.6999C167.943 -67.4412 169.247 -61.2021 169.247 -53.9826ZM161.223 -53.9826C161.223 -59.9098 160.231 -64.9122 158.248 -68.9898C156.286 -73.0675 153.623 -76.1536 150.257 -78.2482C146.914 -80.3427 143.169 -81.39 139.024 -81.39C134.878 -81.39 131.122 -80.3427 127.757 -78.2482C124.413 -76.1536 121.75 -73.0675 119.766 -68.9898C117.805 -64.9122 116.824 -59.9098 116.824 -53.9826C116.824 -48.0555 117.805 -43.0531 119.766 -38.9754C121.75 -34.8977 124.413 -31.8116 127.757 -29.7171C131.122 -27.6225 134.878 -26.5753 139.024 -26.5753C143.169 -26.5753 146.914 -27.6225 150.257 -29.7171C153.623 -31.8116 156.286 -34.8977 158.248 -38.9754C160.231 -43.0531 161.223 -48.0555 161.223 -53.9826Z" fill="#383838"/>
<path d="M713.646 226.758H692.516V158.307H714.582C721.224 158.307 726.908 159.677 731.633 162.418C736.358 165.136 739.98 169.047 742.499 174.149C745.017 179.23 746.277 185.313 746.277 192.399C746.277 199.529 745.006 205.668 742.465 210.815C739.924 215.94 736.224 219.884 731.366 222.647C726.507 225.388 720.6 226.758 713.646 226.758ZM700.808 219.405H713.111C718.772 219.405 723.464 218.313 727.186 216.13C730.909 213.946 733.684 210.837 735.511 206.804C737.339 202.771 738.253 197.969 738.253 192.399C738.253 186.873 737.35 182.115 735.545 178.127C733.739 174.116 731.042 171.041 727.454 168.902C723.865 166.741 719.397 165.66 714.047 165.66H700.808V219.405Z" fill="#383838"/>
</g>
</g>
<defs>
<clipPath id="clip0_1_3">
<rect width="400" height="400" fill="white"/>
</clipPath>
<clipPath id="clip1_1_3">
<rect width="4008" height="2669" fill="white" transform="translate(-466 -626)"/>
</clipPath>
</defs>
</svg>
