<svg width="4000" height="4000" viewBox="0 0 4000 4000" fill="none" xmlns="http://www.w3.org/2000/svg">
<g clip-path="url(#clip0_7_192)">
<path d="M2176.35 466.543C2178.59 437.324 2133.35 410.032 2075.31 405.585C2017.26 401.137 1968.4 421.218 1966.16 450.437C1963.92 479.656 2009.16 506.947 2067.2 511.395C2125.24 515.842 2174.11 495.761 2176.35 466.543Z" fill="#009966"/>
<path d="M2083.14 525.788C2077.52 525.788 2071.82 525.568 2066.09 525.129C1998.36 519.948 1949.48 487.4 1952.39 449.421C1955.3 411.442 2008.56 386.716 2076.29 391.911C2106.46 394.22 2134.58 402.428 2155.47 415.031C2179.23 429.362 2191.49 448.039 2189.99 467.619C2188.49 487.199 2173.53 503.791 2147.86 514.338C2129.59 521.848 2107.07 525.788 2083.14 525.788ZM2059.35 418.752C2014.38 418.752 1981.08 434.807 1979.8 451.52C1978.38 470.021 2015.88 493.712 2068.19 497.716C2093.74 499.664 2119.01 496.471 2137.41 488.902C2152.52 482.696 2161.93 473.951 2162.58 465.518C2163.22 457.085 2155.26 447.012 2141.27 438.575C2124.24 428.302 2099.79 421.285 2074.19 419.322C2069.13 418.938 2064.17 418.752 2059.35 418.752Z" fill="#3B0372"/>
<path d="M1435.81 3020.57C1724.34 3020.57 1958.24 2731.28 1958.24 2374.41C1958.24 2017.54 1724.34 1728.25 1435.81 1728.25C1147.28 1728.25 913.376 2017.54 913.376 2374.41C913.376 2731.28 1147.28 3020.57 1435.81 3020.57Z" fill="#39A1FF"/>
<path d="M1435.81 3039.02C1137.57 3039.02 894.934 2740.88 894.934 2374.41C894.934 2007.95 1137.57 1709.8 1435.81 1709.8C1734.05 1709.8 1976.68 2007.95 1976.68 2374.41C1976.68 2740.88 1734.05 3039.02 1435.81 3039.02ZM1435.81 1746.69C1157.91 1746.69 931.819 2028.28 931.819 2374.41C931.819 2720.54 1157.91 3002.13 1435.81 3002.13C1713.71 3002.13 1939.8 2720.54 1939.8 2374.41C1939.8 2028.28 1713.71 1746.69 1435.81 1746.69Z" fill="#3B0372"/>
<path d="M1330.42 2115.49C1329.25 2115.49 1328.05 2115.36 1326.86 2115.09C1234.64 2094.21 1156.65 2080.44 1095.06 2074.16C1088.67 2073.51 1083.29 2069.11 1081.38 2062.98C1065.54 2012.31 1056.98 1961.19 1055.93 1911.05C1055.75 1902.2 1062.78 1894.87 1071.64 1894.68C1080.57 1894.3 1087.82 1901.53 1088 1910.39C1088.92 1954.2 1095.96 1998.9 1108.96 2043.38C1170.06 2050.23 1245.67 2063.81 1333.94 2083.8C1342.59 2085.76 1348 2094.35 1346.05 2102.98C1344.36 2110.44 1337.75 2115.49 1330.42 2115.49Z" fill="#3B0372"/>
<path d="M1015.72 2774.63C1014.63 2774.63 1013.52 2774.51 1012.41 2774.28C1003.74 2772.46 998.185 2763.96 1000 2755.29L1030.03 2612.03C1007.29 2426.95 1024.08 2244.25 1081.33 2053.59C1083.87 2045.1 1092.81 2040.28 1101.3 2042.84C1109.78 2045.39 1114.6 2054.33 1112.05 2062.81C1055.84 2250.03 1039.53 2429.25 1062.19 2610.72C1062.41 2612.48 1062.34 2614.27 1061.97 2616L1031.4 2761.87C1029.81 2769.43 1023.15 2774.63 1015.72 2774.63Z" fill="#3B0372"/>
<path d="M1293.76 2674.58C1293.45 2674.58 1293.15 2674.57 1292.84 2674.56C1194.08 2668.98 1109.25 2653.23 1040.69 2627.75C1032.39 2624.66 1028.16 2615.43 1031.24 2607.13C1034.33 2598.82 1043.58 2594.6 1051.86 2597.68C1117.42 2622.04 1199.1 2637.13 1294.65 2642.53C1303.49 2643.03 1310.26 2650.6 1309.76 2659.45C1309.28 2667.99 1302.2 2674.58 1293.76 2674.58Z" fill="#3B0372"/>
<path d="M2686.89 2374.41C2687.64 2520.65 2688.79 2748.03 2531.08 2947.25C2313.64 3221.91 1967.04 3224.74 1937.62 3224.51C1885.91 3224.09 1590.66 3216.35 1380.81 2974.75C1179.06 2742.46 1202.65 2464.73 1208.96 2390.45C1239.02 2036.58 1507.1 1568.2 1937.62 1556.39C2254.61 1547.7 2529.85 1790.09 2631.9 2035.29C2685.82 2164.85 2686.43 2283.27 2686.89 2374.41Z" fill="#39A1FF"/>
<path d="M1940.07 3242.96C1939.09 3242.96 1938.22 3242.95 1937.46 3242.95C1855.22 3242.29 1571.02 3221.87 1366.89 2986.84C1229.63 2828.8 1170.31 2627.62 1190.59 2388.89C1206.76 2198.55 1288.21 1991.09 1408.47 1833.94C1508.85 1702.77 1682.04 1544.95 1937.11 1537.96C2088.85 1533.78 2240.74 1584.93 2376.37 1685.84C2496.1 1774.91 2595.44 1899.7 2648.92 2028.2C2704.25 2161.13 2704.88 2284.35 2705.33 2374.32L2686.89 2374.41L2705.33 2374.34C2706.1 2525.69 2707.26 2754.42 2545.53 2958.7C2328.72 3232.58 1989.84 3242.96 1940.07 3242.96ZM1953.9 1574.61C1948.65 1574.61 1943.39 1574.69 1938.12 1574.83C1499.57 1586.85 1254.73 2069.56 1227.34 2392.01C1207.94 2620.43 1264.26 2812.43 1394.74 2962.66C1588.74 3186.02 1859.42 3205.43 1937.76 3206.06C1974.96 3206.41 2306.39 3201.36 2516.62 2935.81C2670.31 2741.67 2669.19 2520.73 2668.45 2374.53L2686.89 2374.41L2668.45 2374.51C2667.98 2282.77 2667.4 2168.59 2614.87 2042.38C2519.55 1813.35 2256.91 1574.61 1953.9 1574.61Z" fill="#3B0372"/>
<path d="M3182.28 2191.74L3157.4 2324.78L3117.67 2537.55L3097.78 2643.87C3092.23 2673.52 3068.04 2696.21 3038.02 2699.65C2949.48 2709.64 2860.48 2687.27 2798.52 2631.82C2780.56 2615.74 2772.77 2591.13 2777.54 2567.43L2798.16 2464.96L2841.7 2248.52L2866.67 2124.28C2872.72 2094.22 2891.92 2068.42 2918.96 2054.03L2943.66 2040.88C2952.6 2036.11 2959.29 2028 2962.27 2018.29L2978.76 1964.12L3140.3 2005.82L3131.78 2040.42C3129.26 2050.73 3131.14 2061.59 3136.96 2070.44L3167.3 2116.77C3181.78 2138.86 3187.14 2165.76 3182.28 2191.74Z" fill="#39D4FF"/>
<path d="M3182.28 2191.74L3157.4 2324.78L3117.67 2537.55L3103.46 2613.58L3097.78 2643.87C3092.23 2673.52 3068.04 2696.21 3038.02 2699.65C2949.48 2709.64 2860.48 2687.27 2798.52 2631.82C2780.56 2615.74 2772.77 2591.13 2777.54 2567.44L2798.16 2464.97L2841.7 2248.52L2866.67 2124.29C2872.72 2094.22 2891.92 2068.42 2918.96 2054.03L2943.66 2040.88C2952.6 2036.11 2959.29 2028 2962.27 2018.29L2963.69 2013.66L2978.76 1964.12L3140.3 2005.82L3131.78 2040.42C3129.26 2050.73 3131.14 2061.59 3136.96 2070.44L3167.3 2116.77C3181.78 2138.86 3187.14 2165.76 3182.28 2191.74Z" fill="#39D4FF"/>
<path d="M3103.46 2613.58L3097.78 2643.88C3092.23 2673.52 3068.04 2696.21 3038.02 2699.65C2949.48 2709.64 2860.48 2687.27 2798.53 2631.82C2780.56 2615.74 2772.77 2591.13 2777.54 2567.44L2798.16 2464.97C2818.32 2473.99 2840.32 2482.93 2864.24 2491.23C2860.81 2514 2860.81 2536.82 2870.02 2557.58C2877.67 2574.86 2891.14 2589.02 2906.04 2600.66C2943.2 2629.81 2991.69 2645.43 3038.48 2639.06C3061.71 2635.9 3084.26 2626.97 3103.46 2613.58Z" fill="#22B4D6"/>
<path d="M3157.4 2324.78L3117.67 2537.56C3069.69 2536.32 3012.36 2530.73 2949.16 2515.93C2918.73 2508.78 2890.36 2500.35 2864.24 2491.23C2866.3 2477.66 2869.56 2464.14 2872.81 2451.03C2887.29 2392.42 2900.95 2333.62 2913.74 2274.69C2938.39 2282.71 2964.56 2290.27 2992.24 2297.1C3052.5 2311.9 3108.23 2320.29 3157.4 2324.78Z" fill="#F9D702"/>
<g opacity="0.6">
<path d="M3140.31 2005.82L3106.06 1996.98C3105.07 2006.22 3106.93 2015.59 3111.51 2023.55L3132 2059.34C3130.36 2053.22 3130.24 2046.72 3131.78 2040.42L3140.31 2005.82Z" fill="white"/>
<path d="M3167.3 2116.77L3144.5 2081.96C3155.35 2104.65 3158.7 2130.84 3153.74 2156.07L3125.48 2299.66L3080.35 2529.32L3064.22 2611.38L3057.77 2644.07C3052 2673.41 3030.69 2695.98 3004 2701.87C3015.31 2701.66 3026.67 2700.93 3038.02 2699.65C3068.04 2696.21 3092.23 2673.52 3097.78 2643.88L3103.46 2613.58L3117.67 2537.55L3157.4 2324.78L3182.28 2191.74C3187.14 2165.76 3181.78 2138.86 3167.3 2116.77Z" fill="white"/>
</g>
<path d="M2913.74 2274.69C2887.98 2266.35 2863.97 2257.51 2841.7 2248.52L2866.67 2124.29C2872.72 2094.22 2891.92 2068.42 2918.96 2054.03L2943.66 2040.88C2952.6 2036.11 2959.29 2028 2962.27 2018.29L2963.69 2013.66L2964.97 2012.83C2949.76 2100.45 2932.66 2187.8 2913.74 2274.69Z" fill="#22B4D6"/>
<path d="M2913.74 2274.69C2900.95 2333.62 2887.29 2392.42 2872.81 2451.03C2869.56 2464.14 2866.3 2477.66 2864.24 2491.23C2840.32 2482.93 2818.32 2473.99 2798.16 2464.97L2841.7 2248.52C2863.97 2257.5 2887.98 2266.35 2913.74 2274.69Z" fill="#FEBD1C"/>
<path d="M2996.7 2718.02C2916.04 2718.02 2841.59 2691.9 2787.84 2643.78C2765.87 2624.11 2755.9 2593.66 2761.81 2564.29L2850.96 2121.1C2857.98 2086.21 2880.02 2056.6 2911.43 2039.87L2936.12 2026.72C2941.35 2023.93 2945.18 2019.28 2946.91 2013.61L2963.43 1959.45C2965.93 1951.23 2974.46 1946.45 2982.78 1948.59L3144.3 1990.28C3152.8 1992.47 3157.96 2001.1 3155.87 2009.63L3147.38 2044.24C3145.92 2050.19 3147.01 2056.55 3150.37 2061.67L3180.7 2107.97C3197.55 2133.67 3203.72 2164.48 3198.07 2194.69L3113.56 2646.82C3106.66 2683.72 3077.03 2711.35 3039.84 2715.57C3025.32 2717.21 3010.91 2718.02 2996.7 2718.02ZM2989.63 1983.49L2977.59 2022.97C2973.36 2036.84 2963.98 2048.23 2951.19 2055.03L2926.51 2068.18C2903.6 2080.38 2887.53 2101.98 2882.4 2127.43L2793.25 2570.62C2789.58 2588.88 2795.71 2607.76 2809.24 2619.88C2865.65 2670.38 2948.38 2693.62 3036.22 2683.69C3059.33 2681.07 3077.74 2663.88 3082.03 2640.92L3166.54 2188.8C3170.66 2166.76 3166.16 2144.3 3153.87 2125.55L3123.53 2079.25C3115.31 2066.71 3112.65 2051.15 3116.23 2036.59L3120.94 2017.38L2989.63 1983.49Z" fill="#3B0372"/>
<path d="M3147.77 2035.09L2952.88 1985.72C2950.27 1985.06 2948.69 1982.4 2949.35 1979.79L2977.34 1869.31C2978 1866.69 2980.65 1865.11 2983.27 1865.77L3178.15 1915.14C3180.77 1915.81 3182.35 1918.46 3181.69 1921.07L3153.7 2031.56C3153.03 2034.17 3150.38 2035.75 3147.77 2035.09Z" fill="#0096F0"/>
<path d="M3134.83 2047.09C3131.55 2047.09 3128.22 2046.69 3124.9 2045.84L2967.87 2006.06C2946.25 2000.58 2933.12 1978.54 2938.6 1956.92L2956.99 1884.29C2959.64 1873.82 2966.22 1865.01 2975.5 1859.48C2984.78 1853.95 2995.67 1852.37 3006.14 1855.02L3163.17 1894.8C3184.78 1900.28 3197.92 1922.32 3192.44 1943.94L3174.04 2016.57C3169.41 2034.86 3152.9 2047.09 3134.83 2047.09ZM2996.2 1885.86C2992.46 1885.86 2989.05 1888.39 2988.09 1892.17L2969.69 1964.8C2968.56 1969.27 2971.28 1973.83 2975.75 1974.97L3132.78 2014.75C3134.95 2015.29 3137.2 2014.97 3139.12 2013.82C3141.04 2012.68 3142.4 2010.86 3142.95 2008.69L3161.35 1936.06C3161.89 1933.9 3161.57 1931.65 3160.42 1929.73C3159.28 1927.8 3157.46 1926.45 3155.29 1925.89L2998.26 1886.11C2997.57 1885.94 2996.88 1885.86 2996.2 1885.86Z" fill="#3B0372"/>
<path d="M2519.62 2083.41C2599.36 2089.65 2683.69 2124.92 2769.96 2155.83C2780.08 2159.46 2790.99 2160.32 2801.57 2158.43L2887.44 2143.1C2903.84 2140.17 2919.48 2151.08 2922.58 2167.45C2932.27 2218.73 2902.29 2248.92 2840.41 2262.14L2780.84 2546.26C2683.78 2546.86 2593.75 2518.96 2510.46 2463.77L2519.62 2083.41Z" fill="#B5EA24"/>
<path d="M2533.37 2317.13L2540.62 2085.76C2533.59 2084.79 2526.58 2083.95 2519.62 2083.41L2510.46 2463.77C2593.75 2518.96 2683.78 2546.86 2780.84 2546.26L2812.2 2396.68C2713.45 2388.24 2620.57 2361.54 2533.37 2317.13Z" fill="#8DB528"/>
<path d="M2777.82 2562.31C2679.82 2562.31 2586.91 2533.67 2501.6 2477.14C2497 2474.09 2494.29 2468.9 2494.42 2463.39L2503.59 2083.02C2503.69 2078.62 2505.6 2074.45 2508.87 2071.5C2512.15 2068.55 2516.53 2067.07 2520.87 2067.41C2590.31 2072.85 2660.62 2098.69 2735.06 2126.05C2748.45 2130.96 2761.88 2135.9 2775.37 2140.74C2782.78 2143.38 2790.85 2144.05 2798.75 2142.64L2884.62 2127.31C2909.51 2122.87 2933.63 2139.53 2938.34 2164.48C2945.76 2203.75 2936.67 2254.1 2854.02 2275.41L2796.54 2549.55C2794.99 2556.95 2788.49 2562.25 2780.94 2562.3C2779.9 2562.31 2778.86 2562.31 2777.82 2562.31ZM2526.71 2455.21C2601.69 2503.13 2682.71 2528.3 2767.83 2530.12L2824.71 2258.85C2826.02 2252.63 2830.86 2247.78 2837.06 2246.45C2908.73 2231.14 2911.98 2197.79 2906.81 2170.43C2905.36 2162.7 2897.94 2157.5 2890.26 2158.89L2804.39 2174.22C2791 2176.61 2777.21 2175.47 2764.55 2170.93C2750.98 2166.07 2737.46 2161.1 2724 2156.15C2657.92 2131.87 2595.19 2108.82 2535.24 2101.14L2526.71 2455.21Z" fill="#3B0372"/>
<path d="M2560.87 3533.7C2552.34 3537.55 2542.86 3540.99 2532.64 3543.97C2528.79 3545.16 2524.8 3546.26 2520.72 3547.27C2486.4 3555.98 2444.83 3560.74 2400.7 3561.84C2395.98 3561.98 2391.21 3562.07 2386.4 3562.07C2349.88 3562.39 2311.98 3560.28 2275.27 3555.88C2225.59 3550.02 2178.07 3540.07 2139.12 3526.51C2109.19 3516.06 2089.12 3487.97 2088.71 3456.25C2086.42 3282.25 2062.86 3134.55 1988.02 3050.36L2395.89 2844.14C2414.77 2859.08 2432.32 2876.26 2448.31 2895.97C2523.19 2988.22 2564.53 3136.38 2552.94 3376.15C2552.66 3381.6 2552.84 3387.06 2553.49 3392.51C2554.54 3401.95 2556.92 3411.21 2560.59 3420.01L2583.55 3475.04C2584.74 3477.93 2585.66 3480.91 2586.21 3483.89C2590.15 3504.01 2580.2 3525 2560.87 3533.7Z" fill="#B5EA24"/>
<path d="M2448.31 2895.97C2426.91 2947.21 2385.9 2991.57 2345.2 3031.12C2289.52 3085.24 2228.66 3141.06 2208.77 3216.12C2202.95 3238.21 2200.94 3261.12 2198.97 3283.85C2195.16 3327.85 2191.36 3371.89 2191.86 3416.02C2192.14 3437.1 2193.83 3459.6 2206.53 3476.51C2214.5 3487.19 2226.19 3494.52 2238.1 3500.52C2251.53 3507.31 2265.46 3512.67 2279.76 3516.84C2277.01 3529.67 2275.5 3542.78 2275.27 3555.88C2225.59 3550.02 2178.07 3540.07 2139.12 3526.51C2109.19 3516.06 2089.12 3487.97 2088.71 3456.26C2086.42 3282.25 2062.86 3134.55 1988.02 3050.36L2395.89 2844.14C2414.77 2859.08 2432.32 2876.26 2448.31 2895.97Z" fill="#8DB528"/>
<path d="M2402.95 3530.36C2401.48 3540.76 2400.75 3551.3 2400.7 3561.84C2395.98 3561.98 2391.21 3562.07 2386.4 3562.07C2386.08 3551.44 2385.44 3540.85 2383.93 3530.36C2390.25 3530.49 2396.62 3530.45 2402.95 3530.36Z" fill="#8DB528"/>
<path d="M2532.64 3543.97C2528.79 3545.16 2524.8 3546.26 2520.72 3547.27C2519.57 3538.01 2517.6 3528.89 2514.85 3519.96C2518.7 3519.04 2522.51 3517.98 2526.27 3516.79C2528.01 3525.91 2530.21 3534.94 2532.64 3543.97Z" fill="#8DB528"/>
<path d="M2386.4 3562.07C2349.88 3562.39 2311.98 3560.28 2275.27 3555.88C2275.5 3542.78 2277.01 3529.67 2279.76 3516.84C2313.12 3526.6 2348.46 3529.94 2383.93 3530.36C2385.44 3540.85 2386.08 3551.44 2386.4 3562.07Z" fill="#D9F1FF"/>
<path d="M2383.93 3530.36C2348.46 3529.95 2313.12 3526.6 2279.76 3516.84C2283.02 3501.08 2288.1 3485.68 2295.02 3471.06C2301.3 3457.68 2311.75 3443.33 2326.55 3443.42C2335.35 3443.47 2343.19 3448.79 2349.56 3454.84C2365.92 3470.46 2375.86 3491.91 2381 3513.95C2382.23 3519.36 2383.19 3524.86 2383.93 3530.36Z" fill="white"/>
<path d="M2520.72 3547.27C2486.4 3555.98 2444.83 3560.74 2400.7 3561.84C2400.75 3551.3 2401.48 3540.76 2402.95 3530.36C2414.17 3530.22 2425.35 3529.81 2436.49 3529.3C2462.8 3528.07 2489.38 3526.19 2514.86 3519.96C2517.61 3528.89 2519.58 3538.01 2520.72 3547.27Z" fill="#D9F1FF"/>
<path d="M2514.86 3519.95C2489.38 3526.19 2462.8 3528.07 2436.49 3529.3C2425.36 3529.81 2414.17 3530.22 2402.95 3530.36C2405.93 3508.96 2411.97 3488.01 2420.96 3468.31C2424.3 3460.93 2428.2 3453.55 2434.2 3448.05C2440.16 3442.55 2448.59 3439.16 2456.52 3441.04C2462.15 3442.37 2466.87 3446.17 2471.14 3450.11C2491.67 3468.9 2506.7 3493.37 2514.86 3519.95Z" fill="white"/>
<path d="M2560.87 3533.7C2552.34 3537.55 2542.86 3540.99 2532.64 3543.97C2530.21 3534.94 2528.01 3525.91 2526.27 3516.79C2529.98 3515.69 2533.65 3514.5 2537.31 3513.13C2555.14 3506.53 2572.23 3496.67 2586.21 3483.89C2590.15 3504.01 2580.2 3525 2560.87 3533.7Z" fill="#D9F1FF"/>
<path d="M2586.21 3483.89C2572.23 3496.67 2555.14 3506.53 2537.31 3513.13C2533.65 3514.5 2529.98 3515.69 2526.27 3516.79C2523.34 3501.58 2521.64 3486.23 2522.24 3470.74C2523.29 3442.05 2533.42 3412.4 2553.49 3392.51C2554.54 3401.95 2556.93 3411.21 2560.59 3420.01L2583.55 3475.04C2584.74 3477.93 2585.66 3480.91 2586.21 3483.89Z" fill="white"/>
<path d="M2378.85 3578.14C2343.95 3578.14 2308.46 3576.01 2273.36 3571.81C2220.99 3565.62 2172.74 3555.2 2133.84 3541.65C2097.75 3529.05 2073.17 3494.82 2072.67 3456.46C2070.06 3257.9 2039.35 3132.24 1976.04 3061.02C1972.73 3057.3 1971.33 3052.26 1972.27 3047.37C1973.2 3042.48 1976.34 3038.29 1980.79 3036.05L2388.65 2829.83C2394.22 2826.99 2400.94 2827.68 2405.84 2831.57C2528.65 2928.81 2582 3107.2 2568.96 3376.93C2568.73 3381.48 2568.88 3386.09 2569.42 3390.64C2570.32 3398.69 2572.33 3406.47 2575.4 3413.84L2598.36 3468.87C2611.03 3499.32 2597.17 3534.95 2567.46 3548.32C2558.33 3552.45 2548.12 3556.16 2537.12 3559.37C2533.24 3560.57 2528.93 3561.76 2524.56 3562.84C2490.41 3571.51 2447.68 3576.71 2401.1 3577.88C2396.29 3578.02 2391.37 3578.11 2386.4 3578.11C2383.89 3578.13 2381.37 3578.14 2378.85 3578.14ZM2013.1 3055.66C2072.99 3134.72 2102.2 3262.89 2104.75 3456.05C2105.07 3480.97 2121.01 3503.19 2144.4 3511.36C2181.12 3524.15 2227.03 3534.03 2277.15 3539.95C2312.96 3544.24 2350.62 3546.31 2386.26 3546.03C2391.06 3546.03 2395.67 3545.94 2400.24 3545.81C2444.52 3544.7 2484.8 3539.83 2516.77 3531.72C2520.65 3530.76 2524.35 3529.74 2527.9 3528.64C2537.71 3525.78 2546.5 3522.59 2554.27 3519.08C2554.27 3519.08 2554.28 3519.08 2554.29 3519.07C2568.33 3512.76 2574.81 3495.78 2568.74 3481.21L2545.79 3426.18C2541.55 3416 2538.78 3405.27 2537.55 3394.29C2536.82 3388.06 2536.6 3381.66 2536.92 3375.35C2549.13 3122.76 2502.31 2955.03 2393.81 2863.16L2013.1 3055.66Z" fill="#3B0372"/>
<path d="M2473.6 3134.22C2473.48 3143.06 2481.82 3146.73 2487.64 3151.81C2494.87 3158.12 2498.54 3167.86 2499.63 3177.22C2501.67 3194.81 2494.44 3213.45 2478.37 3222.03C2463.81 3229.8 2444.49 3227.68 2434.92 3213.29C2424.99 3198.35 2430.06 3180.27 2445.4 3171.31C2449.39 3168.98 2454.18 3167.47 2458.47 3169.85C2461.74 3171.67 2464.26 3175.27 2464.49 3179.05C2465.07 3188.95 2454.15 3189.1 2447.55 3191.21C2444.07 3192.32 2442.93 3196.52 2445.44 3199.2C2453.68 3208.04 2468.18 3200.3 2473.86 3192.17C2480.73 3182.33 2477.98 3168.84 2469.13 3161.2C2447.68 3142.69 2418.54 3170.52 2416.75 3192.85C2414.88 3216.14 2433.81 3236.84 2456.65 3238.61C2480.65 3240.47 2502.53 3223.28 2508.55 3200.46C2512.11 3187.01 2510.8 3172.45 2505.13 3159.77C2499.49 3147.19 2488.13 3141.15 2478.37 3132.25C2476.59 3130.63 2473.64 3131.73 2473.6 3134.22Z" fill="#8DB528"/>
<path d="M1870.25 3075.11C1868.69 3196.18 1834.83 3301.82 1735.29 3375.87C1723.46 3384.67 1713.57 3395.72 1706.1 3408.23C1702.06 3414.92 1698.72 3422.07 1696.15 3429.49L1683.92 3464.69C1683.18 3466.84 1682.27 3468.95 1681.21 3470.92C1672.19 3488.7 1653.17 3499.51 1632.86 3498C1621.64 3497.18 1610.41 3495.94 1599.27 3494.38C1584.1 3492.27 1569.03 3489.48 1554.18 3486.09C1515.96 3477.38 1479.11 3464.59 1445.06 3448.23C1347.82 3401.49 1273.44 3325.78 1254.79 3233.67L1479.34 2743.32L1868.88 3018.28C1870.02 3037.53 1870.52 3056.5 1870.25 3075.11Z" fill="#B5EA24"/>
<path d="M1563.16 3453.69C1577.09 3458.55 1591.25 3462.53 1605.6 3465.47C1603.03 3475 1600.92 3484.67 1599.27 3494.38C1584.1 3492.28 1569.03 3489.48 1554.18 3486.09C1557.71 3475.41 1560.73 3464.64 1563.16 3453.69Z" fill="#8DB528"/>
<path d="M1870.25 3075.11C1817.18 3086.98 1760.95 3084.32 1709.26 3067.46C1659.26 3051.14 1610.82 3021.45 1558.49 3026.49C1498.32 3032.26 1452.21 3082.53 1421.65 3134.69C1390.71 3187.39 1368.99 3251.54 1389.11 3309.24C1402.63 3347.87 1433.15 3378.17 1466.15 3402.36C1467.47 3403.32 1468.76 3404.29 1470.09 3405.2C1459.64 3418.17 1451.16 3432.75 1445.06 3448.24C1347.82 3401.49 1273.44 3325.79 1254.79 3233.67L1479.34 2743.32L1868.88 3018.28C1870.02 3037.53 1870.52 3056.5 1870.25 3075.11Z" fill="#8DB528"/>
<path d="M1563.16 3453.69C1560.73 3464.64 1557.71 3475.41 1554.18 3486.09C1515.96 3477.38 1479.11 3464.6 1445.06 3448.24C1451.16 3432.75 1459.64 3418.17 1470.08 3405.2C1498.45 3425.46 1530.07 3442.14 1563.16 3453.69Z" fill="#D9F1FF"/>
<path d="M1564.95 3445.3C1564.4 3448.1 1563.8 3450.89 1563.16 3453.69C1530.07 3442.14 1498.45 3425.46 1470.09 3405.2C1484.02 3387.7 1501.39 3372.99 1521.14 3362.35C1526.82 3359.28 1533.05 3356.53 1539.47 3357.36C1546.57 3358.32 1552.35 3363.64 1556.47 3369.5C1571.55 3390.86 1570.03 3419.64 1564.95 3445.3Z" fill="white"/>
<path d="M1681.21 3470.92C1681.26 3470.96 1681.21 3470.96 1681.17 3471.01C1680.75 3471.79 1680.34 3472.57 1679.88 3473.35C1679.75 3473.67 1679.56 3474.04 1679.29 3474.36C1678.78 3475.23 1678.23 3476.05 1677.64 3476.88C1677 3477.79 1676.31 3478.71 1675.62 3479.58C1675.58 3479.67 1675.53 3479.72 1675.44 3479.76C1674.8 3480.59 1674.11 3481.37 1673.42 3482.1C1673.38 3482.19 1673.33 3482.24 1673.19 3482.33C1672.46 3483.16 1671.68 3483.89 1670.9 3484.62C1670.08 3485.4 1669.25 3486.13 1668.34 3486.87C1666.59 3488.29 1664.76 3489.62 1662.84 3490.76C1661.88 3491.36 1660.87 3491.95 1659.86 3492.46C1658.9 3492.96 1657.93 3493.42 1656.93 3493.88C1656.83 3493.93 1656.79 3493.97 1656.7 3493.97C1656.01 3494.29 1655.28 3494.57 1654.54 3494.84C1653.95 3495.07 1653.35 3495.3 1652.76 3495.48C1652.02 3495.76 1651.24 3495.99 1650.46 3496.17C1650.42 3496.22 1650.33 3496.26 1650.28 3496.22C1649.18 3496.58 1648.13 3496.81 1647.03 3497.04C1645.88 3497.32 1644.78 3497.5 1643.64 3497.64C1642.44 3497.82 1641.3 3497.96 1640.15 3498C1637.77 3498.19 1635.29 3498.19 1632.87 3498C1621.64 3497.18 1610.41 3495.94 1599.27 3494.38C1600.92 3484.67 1603.03 3475 1605.6 3465.47C1630.62 3470.55 1656.05 3472.61 1681.21 3470.92Z" fill="#D9F1FF"/>
<path d="M1662.84 3490.76C1664.76 3489.62 1666.59 3488.29 1668.33 3486.87C1666.59 3488.33 1664.76 3489.62 1662.84 3490.76Z" fill="white"/>
<path d="M1706.1 3408.23C1702.06 3414.92 1698.72 3422.07 1696.15 3429.49L1683.92 3464.69C1683.18 3466.84 1682.27 3468.95 1681.21 3470.92C1656.05 3472.61 1630.62 3470.55 1605.6 3465.47C1608.76 3453.51 1612.61 3441.73 1617.19 3430.23C1625.17 3410.06 1637.72 3388.61 1658.8 3383.57C1667.56 3381.51 1676.77 3382.61 1685.52 3384.63C1689.87 3385.63 1694.36 3386.96 1697.71 3389.94C1701.19 3392.97 1703.07 3397.37 1704.45 3401.77C1705.09 3403.88 1705.68 3406.03 1706.1 3408.23Z" fill="white"/>
<path d="M1636.66 3514.18C1635 3514.18 1633.33 3514.12 1631.65 3513.99C1433.69 3499.06 1268.59 3382.51 1239.07 3236.86C1238.4 3233.53 1238.79 3230.08 1240.2 3226.99L1464.76 2736.64C1466.75 2732.31 1470.56 2729.08 1475.17 2727.83C1479.78 2726.59 1484.69 2727.47 1488.59 2730.22L1878.12 3005.18C1882.11 3007.99 1884.59 3012.46 1884.89 3017.32C1895.35 3191.87 1850.86 3309.9 1744.85 3388.77C1729.37 3400.28 1717.77 3416.18 1711.32 3434.74L1699.06 3469.97C1689.81 3496.56 1664.6 3514.18 1636.66 3514.18ZM1271.59 3235.51C1286.06 3299.17 1329.26 3356.73 1396.82 3402.26C1463.47 3447.17 1547.73 3475.49 1634.06 3482C1649.47 3483.19 1663.73 3473.88 1668.76 3459.44L1681.01 3424.21C1689.59 3399.55 1705.04 3378.39 1725.7 3363.02C1820.69 3292.36 1861.33 3185.42 1853.29 3026.92L1485.88 2767.57L1271.59 3235.51Z" fill="#3B0372"/>
<path d="M1780.1 3207.36C1781.92 3210.68 1784.76 3213.22 1786.44 3216.61C1788.48 3220.73 1788.9 3225.6 1787.95 3230.06C1785.68 3240.67 1777.26 3249.78 1770.29 3257.68C1763.57 3265.29 1755.94 3272.18 1745.49 3273.55C1736.73 3274.7 1727.32 3272.55 1719.92 3267.78C1704.56 3257.87 1700.11 3236.38 1706.53 3220C1709.5 3212.44 1715.6 3204.49 1724.09 3203.08C1732.25 3201.73 1740.54 3206.93 1744.86 3213.6C1750.2 3221.83 1751.34 3234.94 1741.91 3240.74C1738.36 3242.93 1733.76 3243.48 1730.43 3240.61C1727.11 3237.76 1726.21 3233.21 1725.2 3229.19C1724.3 3225.6 1719.5 3224.37 1716.94 3227.01C1706.45 3237.8 1718.78 3254.17 1730.8 3256.79C1745.53 3260.01 1759.86 3248.68 1762.94 3234.53C1769.13 3206.03 1736.95 3175.82 1709.93 3192.91C1686.09 3207.99 1683.17 3244.21 1698.69 3266.16C1714.87 3289.01 1747.97 3294.28 1769.31 3275.45C1775.67 3269.83 1780.67 3262.57 1785.65 3255.75C1790.42 3249.21 1794.92 3242.08 1796.74 3234.09C1798.29 3227.33 1797.68 3220.18 1794.65 3213.92C1792.04 3208.52 1787.5 3203.36 1781.07 3204.99C1780.03 3205.25 1779.61 3206.46 1780.1 3207.36Z" fill="#8DB528"/>
<path d="M2538.56 2513.68C2649.67 2350.95 2602.11 2078.82 2456.51 1959.57L2299.65 2019.25L2414.22 2362.96L2538.56 2513.68Z" fill="#39A1FF"/>
<path d="M2538.57 2529.72C2533.79 2529.72 2529.25 2527.59 2526.19 2523.89L2401.85 2373.16C2400.59 2371.64 2399.63 2369.9 2399.01 2368.03L2284.44 2024.32C2281.72 2016.16 2285.91 2007.32 2293.95 2004.26L2450.81 1944.58C2456.17 1942.54 2462.23 1943.52 2466.67 1947.17C2539.97 2007.19 2592.08 2105.85 2609.65 2217.84C2627.5 2331.62 2606.42 2442.75 2551.81 2522.73C2548.97 2526.89 2544.33 2529.48 2539.29 2529.71C2539.05 2529.72 2538.81 2529.72 2538.57 2529.72ZM2428.49 2355.05L2536.81 2486.35C2624 2335.38 2585.41 2093.25 2453.37 1977.93L2319.73 2028.77L2428.49 2355.05Z" fill="#3B0372"/>
<path d="M2453.77 2828.05C2370.91 2976.26 2226.69 3078.5 2015.52 3073.28C1395.2 3053.94 1245.62 2564.59 1575.58 1945.93L2395.89 2005.5C2406.02 2018.97 2415.64 2032.95 2424.71 2047.43C2563.89 2268.87 2580.25 2601.99 2453.77 2828.05Z" fill="#FEF26B"/>
<path d="M2453.77 2828.05C2370.91 2976.26 2226.69 3078.5 2015.52 3073.28C1395.2 3053.94 1245.62 2564.59 1575.58 1945.93L2395.89 2005.5C2406.02 2018.97 2415.64 2032.95 2424.71 2047.43C2373.16 2075.34 2316.97 2094.77 2259.14 2104.58C2172.43 2119.38 2083.53 2112.65 1995.82 2119.75C1908.15 2126.81 1816.68 2150.5 1755.27 2213.51C1696.38 2273.96 1674.38 2360.53 1658.57 2443.38C1636.71 2558.04 1623.47 2682.37 1675.85 2786.72C1714.9 2864.53 1787.67 2922.37 1868.83 2953.8C1950.04 2985.24 2039.17 2991.89 2125.92 2984.78C2250.57 2974.56 2382.6 2928.51 2453.77 2828.05Z" fill="#EFC754"/>
<path d="M2030.54 3089.5C2025.42 3089.5 2020.29 3089.44 2015.12 3089.31C1750.22 3081.05 1558.57 2987.42 1460.8 2818.55C1399.51 2712.7 1377.21 2582.19 1394.51 2430.67C1411.81 2279.24 1467.97 2113.61 1561.43 1938.38C1564.41 1932.78 1570.49 1929.46 1576.74 1929.93L2397.05 1989.5C2401.67 1989.84 2405.91 1992.15 2408.7 1995.85C2488.55 2101.86 2539.61 2244.18 2552.46 2396.57C2565.34 2549.19 2538.75 2698.72 2477.6 2817.63C2387.21 2993.39 2228.84 3089.5 2030.54 3089.5ZM1584.85 1962.68C1405.82 2302.5 1371.58 2600.44 1488.56 2802.47C1580.49 2961.25 1762.88 3049.35 2016.02 3057.25C2262.78 3063.25 2387.68 2922.34 2449.07 2802.96C2567.96 2571.79 2540.61 2229.98 2387.4 2020.96L1584.85 1962.68Z" fill="#3B0372"/>
<path d="M2075.1 2133.82C2122.82 2351.03 2141.07 2642.88 2076.84 2857.13C2067.28 2890.61 2053.91 2922.96 2038.44 2954.13C2067.5 2854.42 2081.02 2752.51 2088.17 2649.63C2100.22 2477.71 2090.97 2305.41 2075.1 2133.82Z" fill="#3B0372"/>
<path d="M1923.87 2317.13C1984.11 2324.8 2043.15 2331.28 2103.4 2328.93C2163.67 2327.17 2222.05 2316.55 2281.32 2303.38C2174.83 2366.6 2035.13 2370.6 1923.87 2317.13Z" fill="#3B0372"/>
<path d="M1841.38 2560.01C1988.19 2591.8 2138.44 2596.24 2287.75 2585.13C2297.79 2584.46 2307.79 2583.39 2317.98 2582.93C2308.46 2586.4 2298.83 2589.68 2289.1 2592.6C2148.19 2631.69 1974.97 2619.76 1841.38 2560.01Z" fill="#3B0372"/>
<path d="M1841.38 2816.64C1927.94 2843.4 2018.36 2852.57 2108.53 2849.69C2138.46 2848.96 2168.05 2847.35 2198.83 2844.14C2105.2 2894.85 1931.05 2868.87 1841.38 2816.64Z" fill="#3B0372"/>
<path d="M1551.6 2052C1590.89 2216.58 1566.29 2388.31 1406.02 2427.11L1658.07 2450.03C1726.81 2298.8 1753.16 2074.21 1667.23 1959.67L1571 1945.93L1558.28 1974.75C1547.56 1999.05 1545.44 2026.17 1551.6 2052Z" fill="#39A1FF"/>
<path d="M1658.07 2466.07C1657.59 2466.07 1657.11 2466.04 1656.62 2466L1404.57 2443.08C1396.75 2442.38 1390.6 2436.12 1390.02 2428.29C1389.45 2420.46 1394.62 2413.37 1402.24 2411.52C1453.42 2399.13 1492.15 2371.53 1517.37 2329.49C1557.1 2263.25 1562.82 2159.16 1533.06 2043.91C1527.63 2022.87 1529.36 2000.59 1537.92 1981.17L1556.33 1939.45C1559.22 1932.87 1566.1 1929.04 1573.27 1930.05L1669.5 1943.8C1673.71 1944.4 1677.51 1946.65 1680.07 1950.05C1770.21 2070.21 1743.54 2300.75 1672.67 2456.66C1670.05 2462.42 1664.31 2466.07 1658.07 2466.07ZM1473.83 2417.17L1648.06 2433.01C1711.37 2286.36 1731.64 2080.16 1658.22 1974.59L1580.76 1963.52L1567.27 1994.12C1561.6 2006.97 1560.48 2021.8 1564.13 2035.89C1596.48 2161.22 1589.64 2271.35 1544.87 2345.99C1526.84 2376.07 1503.06 2399.86 1473.83 2417.17Z" fill="#3B0372"/>
<path d="M1680.16 2257.75C1682.47 2257.4 1684.73 2256.85 1686.97 2256.28C1684.87 2256.54 1682.77 2256.81 1680.66 2257.07C1686.76 2257.06 1691.44 2254.92 1696.18 2251.92C1697.13 2251.17 1698.07 2250.43 1699.02 2249.68C1698.56 2250.06 1698.11 2250.44 1697.65 2250.82C1697.74 2250.88 1699.64 2249.35 1699.79 2249.24C1702.97 2246.78 1705.46 2244.48 1707.2 2241.21C1710.84 2234.34 1712.79 2227.05 1714.96 2219.91C1715.93 2216.72 1716.76 2213.53 1717.69 2210.34C1717.87 2209.71 1718.09 2209.09 1718.27 2208.46C1719.21 2205.14 1716.6 2211.69 1717.79 2209.59C1718.77 2207.87 1719.56 2206.1 1720.57 2204.38C1722.64 2200.89 1718.33 2206.78 1720.18 2204.77C1720.91 2203.99 1721.56 2203.18 1722.31 2202.41C1722.98 2201.72 1726.39 2197.88 1727.16 2197.98C1727.24 2197.99 1722.89 2201.04 1726.22 2198.76C1727.17 2198.12 1728.09 2197.44 1729.05 2196.8C1731.16 2195.37 1733.33 2194 1735.55 2192.69C1739.53 2190.32 1743.67 2188.14 1747.85 2186C1750.05 2184.88 1752.28 2183.79 1754.51 2182.69C1759.55 2180.2 1750.24 2184.57 1755.42 2182.27C1756.95 2181.6 1758.45 2180.9 1759.98 2180.23C1770.14 2175.77 1780.65 2171.82 1791.49 2168.65C1794.19 2167.86 1796.92 2167.17 1799.64 2166.43C1800.78 2166.12 1803.75 2165.13 1798.74 2166.61C1800.06 2166.22 1801.51 2166 1802.88 2165.72C1808.69 2164.53 1814.58 2163.58 1820.49 2162.94C1822.93 2162.68 1825.36 2162.46 1827.8 2162.31C1829.13 2162.22 1832.68 2162.63 1833.68 2162.03C1832.66 2162.05 1831.64 2162.08 1830.62 2162.1C1831.6 2162.09 1832.58 2162.08 1833.56 2162.09C1834.54 2162.1 1835.51 2162.12 1836.49 2162.14C1839.41 2162.21 1842.33 2162.37 1845.23 2162.61C1849.58 2162.97 1853.82 2163.59 1858.09 2164.25C1863.08 2165.01 1853.33 2163.09 1858.14 2164.26C1859.05 2164.48 1859.98 2164.67 1860.89 2164.89C1863.61 2165.55 1866.3 2166.3 1868.94 2167.13C1870.91 2167.76 1872.85 2168.44 1874.76 2169.16C1875.14 2169.31 1877.93 2170.21 1877.9 2170.42C1877.91 2170.32 1873.95 2168.53 1876.74 2169.91C1881.13 2172.08 1885.35 2174.37 1889.23 2177.07C1889.86 2177.5 1890.66 2178.3 1891.35 2178.6C1887.73 2177.03 1889.58 2177.17 1891.03 2178.45C1892.5 2179.74 1893.89 2181.1 1895.14 2182.53C1895.42 2182.85 1895.69 2183.17 1895.96 2183.5C1896.96 2184.78 1896.99 2184.81 1896.06 2183.57C1895.35 2180.98 1896.32 2184.24 1896.6 2184.77C1896.59 2184.76 1897.78 2186.89 1897.63 2187.06C1896.98 2184.59 1896.89 2184.32 1897.38 2186.25C1897.52 2186.87 1897.63 2187.49 1897.71 2188.12C1897.86 2189.17 1897.89 2190.22 1897.98 2191.28C1898.28 2194.83 1898.11 2190.49 1898.06 2190.41C1898.87 2191.47 1897.22 2195.51 1896.85 2196.87C1896.57 2197.96 1896.14 2199.03 1895.86 2200.11C1895.18 2202.77 1897.7 2196.06 1895.85 2200.19C1894.81 2202.54 1893.71 2204.86 1892.49 2207.15C1891.53 2208.95 1890.52 2210.74 1889.46 2212.51C1888.51 2214.09 1886.67 2216.02 1886.11 2217.7C1887.14 2214.63 1887.89 2215.55 1886.42 2217.22C1885.73 2218.01 1884.91 2218.74 1884.22 2219.53C1881.77 2222.33 1885.03 2218.5 1885.4 2218.79C1884.68 2219.32 1883.94 2219.83 1883.17 2220.3C1881.49 2221.22 1881.48 2221.27 1883.14 2220.47C1883.55 2220.28 1883.97 2220.09 1884.38 2219.9C1883.48 2220.29 1882.57 2220.64 1881.63 2220.96C1880.77 2221.25 1879.56 2221.44 1878.78 2221.8C1882.74 2219.97 1881.93 2221.1 1879.43 2221.45C1878.16 2221.62 1876.89 2221.7 1875.62 2221.84C1871.08 2222.36 1877.09 2221.78 1876.98 2221.87C1876.6 2222.2 1872.9 2221.76 1872.34 2221.72C1869.78 2221.56 1867.25 2221.28 1864.75 2220.92C1863.22 2220.7 1861.39 2220.56 1859.95 2220.12C1860.52 2220.3 1864.6 2221.16 1860.75 2220.25C1858.16 2219.63 1855.56 2219.04 1853.01 2218.35C1847.88 2216.96 1842.86 2215.36 1837.92 2213.66C1828.02 2210.25 1818.42 2206.39 1808.6 2202.87C1785.38 2194.52 1759.48 2188.04 1732.82 2191.18C1706.67 2194.25 1683.07 2206.13 1670.24 2224.87C1681.73 2222.24 1693.23 2219.61 1704.73 2216.98C1704.49 2216.82 1704.26 2216.67 1704.03 2216.51C1698.95 2213.16 1689.61 2212.19 1683.33 2214.89C1683.06 2215.01 1682.8 2215.12 1682.53 2215.24C1675.34 2218.34 1669.93 2222.79 1668.51 2229.28C1667.29 2234.88 1669.55 2240.09 1674.39 2243.88C1685.64 2252.69 1703.3 2248.53 1710.84 2237.52C1713.14 2234.16 1707.71 2240.95 1710.54 2237.85C1711.06 2237.29 1711.56 2236.71 1712.1 2236.16C1712.91 2235.33 1713.8 2234.56 1714.64 2233.75C1717.56 2230.96 1711.41 2235.98 1713.75 2234.43C1715.46 2233.3 1717.1 2232.15 1718.91 2231.12C1719.7 2230.68 1721.08 2230.21 1721.68 2229.65C1718.49 2231.12 1717.94 2231.39 1720.06 2230.45C1720.45 2230.28 1720.85 2230.11 1721.24 2229.95C1723.45 2229.04 1725.71 2228.25 1728.02 2227.55C1729.07 2227.23 1730.14 2226.95 1731.2 2226.65C1735.68 2225.37 1726.8 2227.49 1729.91 2226.96C1732.11 2226.59 1734.28 2226.17 1736.51 2225.89C1737.61 2225.75 1738.71 2225.63 1739.82 2225.54C1740.72 2225.46 1746.28 2225.47 1742.12 2225.31C1737.75 2225.14 1743.08 2225.35 1743.67 2225.36C1745.01 2225.39 1746.34 2225.44 1747.67 2225.52C1750.33 2225.67 1752.96 2225.92 1755.58 2226.25C1756.89 2226.42 1758.19 2226.6 1759.48 2226.81C1760.74 2227.01 1765.82 2227.31 1760.14 2226.86C1762.94 2227.08 1765.89 2228.13 1768.52 2228.82C1779.16 2231.6 1789.29 2235.3 1799.34 2239.08C1820.5 2247.03 1843.34 2256.2 1867.8 2256.74C1882.62 2257.06 1898.49 2254.77 1910.51 2246.66C1920.96 2239.6 1927.5 2230.16 1932.76 2220.44C1944.27 2199.13 1947.59 2175.42 1928.69 2157.47C1913.13 2142.69 1891.02 2133.93 1867.13 2129.62C1818.4 2120.82 1767.87 2135.98 1725.33 2157.06C1713.43 2162.96 1702.38 2169.32 1692.79 2177.53C1683.45 2185.54 1677.68 2195.32 1674.79 2205.65C1673.39 2210.68 1673.25 2215.67 1673.21 2220.74C1673.19 2222.65 1673.21 2224.55 1673.19 2226.46C1673.18 2227.24 1673.15 2228.03 1673.15 2228.81C1673.12 2232.72 1673.44 2225.78 1673.16 2228.93C1672.75 2233.44 1671.61 2237.85 1672.2 2242.34C1672.29 2243.04 1672.51 2244.75 1672.21 2241.37C1672.09 2245.11 1672.04 2245.65 1672.07 2242.99C1671.95 2243.51 1671.81 2244.02 1671.65 2244.53C1672.01 2243.48 1671.95 2240.95 1670.85 2245.99C1670.56 2249.58 1670.69 2249.58 1671.24 2246C1671.01 2246.52 1670.75 2247.04 1670.47 2247.55C1667.7 2252.79 1672.69 2258.86 1680.16 2257.75Z" fill="#16B768"/>
<path d="M1678.48 2266.16C1672.77 2266.16 1667.56 2263.64 1664.43 2259.24C1661.41 2255 1660.87 2249.59 1662.94 2244.89C1662.97 2244.75 1662.99 2244.62 1663.02 2244.48C1663.09 2244.15 1663.17 2243.81 1663.25 2243.46C1660.43 2238.71 1659.47 2233.24 1660.66 2227.78C1661.42 2224.25 1662.94 2221.05 1665.19 2218.19C1665.29 2213.43 1665.63 2208.68 1667.01 2203.68C1670.52 2191.04 1677.41 2180.23 1687.49 2171.57C1696.34 2163.96 1706.88 2157.29 1721.67 2149.94C1775.27 2123.27 1824.67 2113.72 1868.46 2121.56C1896.45 2126.57 1918.57 2136.61 1934.19 2151.4C1953.35 2169.54 1955.38 2195.35 1939.91 2224.07C1935.05 2233.11 1927.83 2244.58 1915.12 2253.19C1903.23 2261.24 1887.37 2265.19 1867.72 2264.72C1843.34 2264.22 1820.53 2255.66 1800.4 2248.1L1796.57 2246.66C1787.04 2243.09 1776.88 2239.39 1766.53 2236.7C1765.78 2236.51 1765.02 2236.29 1764.25 2236.07C1763.16 2235.75 1762.04 2235.44 1761.05 2235.22C1760.08 2235.15 1759.14 2235 1758.28 2234.87C1757.05 2234.68 1755.83 2234.5 1754.6 2234.35C1752.18 2234.04 1749.72 2233.82 1747.25 2233.68C1746.1 2233.62 1744.94 2233.57 1743.77 2233.54C1743.2 2233.61 1742.6 2233.64 1741.95 2233.66C1741.36 2233.67 1740.77 2233.68 1740.45 2233.7C1739.57 2233.78 1738.57 2233.89 1737.58 2234.01C1736.07 2234.2 1734.62 2234.46 1733.16 2234.72L1732.16 2234.9C1731.58 2235.06 1731 2235.22 1730.42 2235.4C1728.53 2235.97 1726.72 2236.61 1725.02 2237.29C1724.4 2237.63 1723.82 2237.9 1723.32 2238.12C1721.76 2238.97 1720.64 2239.73 1719.52 2240.48L1719.25 2240.71C1718.81 2241.1 1718.38 2241.5 1717.98 2241.91L1717.21 2242.75C1715.99 2244.46 1714.57 2246.05 1713 2247.5C1710.64 2251.01 1707.71 2253.55 1704.83 2255.78C1704.15 2256.33 1703.3 2257 1702.33 2257.6L1701.25 2258.45C1701.04 2258.61 1700.83 2258.76 1700.61 2258.89C1697.61 2260.81 1694.15 2262.75 1689.98 2264C1689.7 2264.1 1689.4 2264.2 1689.09 2264.28C1686.86 2264.86 1684.25 2265.51 1681.45 2265.93C1680.46 2266.08 1679.46 2266.16 1678.48 2266.16ZM1766.14 2219.81C1767.03 2220.04 1767.89 2220.29 1768.71 2220.52L1770.6 2221.05C1781.7 2223.93 1792.31 2227.8 1802.24 2231.51L1806.09 2232.95C1825.93 2240.4 1846.44 2248.11 1868.05 2248.55C1884 2248.89 1897.11 2245.85 1906.05 2239.8C1915.79 2233.2 1921.43 2224.27 1925.67 2216.41C1937.69 2194.08 1936.82 2176.17 1923.07 2163.15C1909.96 2150.74 1890.1 2141.86 1865.6 2137.48C1825.32 2130.26 1779.3 2139.33 1728.87 2164.42C1715.33 2171.15 1705.82 2177.14 1698.03 2183.83C1692.94 2188.21 1688.93 2193.31 1686.04 2199.05C1698.85 2190.81 1714.54 2185.31 1731.85 2183.25C1733.51 2183.05 1735.16 2182.89 1736.81 2182.76C1739.49 2181.29 1742.02 2179.98 1744.15 2178.89C1746.06 2177.91 1747.99 2176.95 1749.92 2176C1750.41 2175.69 1750.96 2175.4 1751.56 2175.11C1752.16 2174.83 1752.73 2174.61 1753.28 2174.43L1756.7 2172.89C1767.72 2168.03 1778.65 2164 1789.17 2160.91C1791.17 2160.32 1793.19 2159.78 1795.22 2159.24L1795.67 2159.11C1795.9 2159.02 1796.14 2158.94 1796.38 2158.87C1796.41 2158.86 1796.43 2158.85 1796.45 2158.84C1798.08 2158.36 1799.66 2157.9 1801.22 2157.79C1807.4 2156.52 1813.57 2155.53 1819.56 2154.87C1822.12 2154.6 1824.67 2154.37 1827.22 2154.19C1827.61 2154.17 1828.12 2154.15 1828.73 2154.17C1829.27 2154.05 1829.84 2153.97 1830.41 2153.96L1833.43 2153.9C1833.9 2153.9 1834.3 2153.92 1834.72 2153.97C1835.35 2153.97 1836 2153.99 1836.64 2154C1839.7 2154.08 1842.78 2154.24 1845.83 2154.48C1849.54 2154.78 1853.16 2155.26 1856.81 2155.8C1857.72 2155.7 1858.67 2155.88 1859.75 2156.09C1860.74 2156.28 1861.6 2156.54 1862.35 2156.85L1862.69 2156.93C1865.64 2157.63 1868.51 2158.43 1871.32 2159.32C1873.29 2159.94 1875.21 2160.6 1877.1 2161.31C1877.31 2161.35 1877.52 2161.39 1877.73 2161.45C1879.6 2161.92 1881.2 2162.68 1882.47 2163.64C1885.92 2165.4 1889.96 2167.62 1893.81 2170.29C1894.18 2170.55 1894.58 2170.86 1894.99 2171.2C1895.12 2171.28 1895.24 2171.37 1895.36 2171.45C1896.26 2171.97 1897.03 2172.65 1897.66 2173.43C1898.32 2174.05 1898.96 2174.68 1899.58 2175.31C1901.12 2176.11 1902.6 2177.58 1903.57 2180.2C1903.78 2180.58 1903.96 2180.95 1904.12 2181.31C1904.39 2181.85 1904.66 2182.45 1904.9 2183.12L1904.95 2183.11L1905.06 2183.54C1905.51 2184.78 1905.71 2185.91 1905.72 2186.92C1905.72 2186.92 1905.72 2186.92 1905.72 2186.92C1905.76 2187.23 1905.8 2187.55 1905.83 2187.89C1907.07 2191.48 1905.8 2195.34 1904.91 2198.07L1904.67 2198.83C1904.62 2199 1904.57 2199.18 1904.52 2199.35C1904.48 2200.17 1904.33 2200.99 1904.06 2201.77C1903.62 2203.04 1903.1 2204.09 1902.52 2204.95C1901.63 2206.91 1900.68 2208.87 1899.65 2210.81C1898.63 2212.73 1897.55 2214.64 1896.43 2216.53C1895.96 2217.31 1895.33 2218.19 1894.67 2219.08C1894.33 2219.88 1893.86 2220.73 1893.2 2221.6C1892.9 2222.19 1892.54 2222.72 1892.12 2223.2C1891.77 2223.73 1891.34 2224.22 1890.86 2224.66C1890.15 2225.6 1889.22 2226.4 1888.11 2226.97C1887.2 2227.63 1886.17 2228.08 1885.1 2228.32C1884.33 2228.6 1883.6 2228.79 1882.92 2228.89C1882.78 2228.93 1882.64 2228.96 1882.49 2229L1881.94 2229.15C1880.78 2229.63 1879.58 2229.84 1878.4 2229.76C1877.45 2229.95 1876.45 2230 1875.41 2229.96C1874.1 2230.03 1873 2229.93 1872.04 2229.71C1869.22 2229.52 1866.57 2229.25 1863.65 2228.83L1862.57 2228.69C1862.47 2228.68 1862.37 2228.67 1862.27 2228.66C1860.45 2228.64 1858.78 2228.12 1857.61 2227.76C1857.47 2227.72 1857.33 2227.67 1857.2 2227.63C1855.1 2227.13 1853.01 2226.64 1850.94 2226.08C1846.05 2224.76 1840.95 2223.19 1835.32 2221.25C1829.51 2219.26 1823.81 2217.12 1818.11 2214.98C1814.05 2213.46 1809.98 2211.94 1805.89 2210.47C1789.77 2204.71 1766.24 2197.52 1741.49 2198.67C1740.88 2199.02 1740.28 2199.38 1739.68 2199.73C1737.6 2200.97 1735.56 2202.26 1733.58 2203.61L1730.8 2205.54C1730.61 2205.68 1730.42 2205.8 1730.23 2205.92C1729.83 2206.33 1729.33 2206.85 1728.75 2207.48L1728.12 2208.16C1727.85 2208.44 1727.56 2208.78 1727.26 2209.12C1726.9 2209.77 1726.57 2210.42 1726.24 2211.07C1726.03 2211.49 1725.82 2211.9 1725.6 2212.31L1724.46 2216.34C1724.05 2217.8 1723.65 2219.26 1723.22 2220.72C1724.04 2220.44 1724.87 2220.18 1725.7 2219.92C1725.95 2219.85 1726.2 2219.77 1726.46 2219.7C1727.41 2219.28 1728.53 2218.92 1729.84 2218.62C1731.06 2218.34 1732.15 2218.24 1733.12 2218.32C1733.92 2218.18 1734.73 2218.06 1735.54 2217.97C1736.38 2217.86 1737.23 2217.76 1738.08 2217.67C1738.89 2217.44 1739.8 2217.3 1740.84 2217.28V2217.26L1741.31 2217.28C1741.43 2217.28 1741.55 2217.28 1741.67 2217.28L1743.85 2217.35C1745.31 2217.39 1746.74 2217.44 1748.16 2217.52C1751.01 2217.69 1753.83 2217.94 1756.62 2218.3C1757.92 2218.46 1759.2 2218.63 1760.47 2218.83C1760.58 2218.84 1760.7 2218.84 1760.81 2218.85C1762.64 2219 1764.49 2219.15 1766.14 2219.81ZM1680.25 2238.28C1683.39 2240.38 1687.41 2241.17 1691.75 2240.5C1694.97 2240 1697.99 2238.74 1700.44 2236.95C1702.3 2233.29 1703.67 2229.43 1704.93 2225.38L1681.28 2230.83C1681.21 2231.35 1681.11 2231.84 1680.99 2232.3C1680.9 2232.97 1680.81 2233.61 1680.72 2234.25C1680.52 2235.7 1680.34 2237.04 1680.25 2238.28ZM1863.65 2212.54C1863.95 2212.58 1864.25 2212.6 1864.55 2212.64L1865.94 2212.82C1868.21 2213.15 1870.52 2213.41 1872.85 2213.55L1873.74 2213.62C1873.99 2213.65 1874.31 2213.68 1874.66 2213.71C1874.68 2213.71 1874.71 2213.7 1874.73 2213.7L1876.42 2213.53C1876.81 2213.49 1877.19 2213.46 1877.57 2213.42C1878.12 2213.21 1878.7 2213.02 1879.3 2212.87C1879.32 2212.85 1879.34 2212.83 1879.37 2212.81C1879.9 2211.74 1880.51 2210.82 1881.21 2210.07C1881.37 2209.85 1881.53 2209.64 1881.68 2209.43C1881.99 2209.02 1882.31 2208.63 1882.53 2208.25C1883.53 2206.58 1884.47 2204.91 1885.36 2203.23C1886.38 2201.31 1887.3 2199.37 1888.18 2197.41C1888.34 2196.87 1888.51 2196.33 1888.69 2195.78C1888.81 2195.41 1888.94 2195.03 1889.04 2194.66C1889.14 2194.26 1889.32 2193.68 1889.54 2193.02C1889.66 2192.67 1889.79 2192.29 1889.92 2191.89C1889.92 2191.87 1889.92 2191.85 1889.92 2191.83L1889.83 2190.7C1889.8 2190.18 1889.77 2189.66 1889.7 2189.13C1889.68 2189.02 1889.66 2188.91 1889.65 2188.81C1889.61 2188.75 1889.58 2188.69 1889.56 2188.66C1889.5 2188.54 1889.43 2188.42 1889.37 2188.3C1889.32 2188.21 1889.26 2188.08 1889.19 2187.91C1888.31 2186.91 1887.44 2186.02 1886.51 2185.16C1885.36 2184.57 1884.06 2183.75 1883.02 2182.56C1879.54 2180.3 1876 2178.48 1873.17 2177.08C1872.96 2177 1872.76 2176.94 1872.6 2176.88L1871.84 2176.61C1870.08 2175.95 1868.28 2175.32 1866.45 2174.74C1864 2173.97 1861.5 2173.28 1858.95 2172.67L1856.49 2172.11C1852.27 2171.47 1848.45 2170.92 1844.53 2170.61C1841.78 2170.38 1839.02 2170.24 1836.24 2170.18C1835.65 2170.16 1835.07 2170.15 1834.48 2170.14C1832.7 2170.48 1830.9 2170.42 1829.24 2170.37C1828.84 2170.35 1828.51 2170.32 1828.19 2170.35C1825.95 2170.49 1823.63 2170.7 1821.32 2170.96C1815.84 2171.56 1810.16 2172.46 1804.47 2173.64L1803.16 2173.9C1802.95 2173.94 1802.73 2173.98 1802.51 2174.02C1802.23 2174.1 1801.97 2174.17 1801.72 2174.24L1799.39 2174.87C1797.5 2175.37 1795.61 2175.87 1793.74 2176.43C1786.34 2178.6 1778.72 2181.27 1770.99 2184.41C1786.57 2186.93 1800.51 2191.38 1811.33 2195.24C1815.52 2196.74 1819.65 2198.29 1823.79 2199.85C1829.35 2201.93 1834.9 2204.02 1840.56 2205.96C1845.85 2207.77 1850.62 2209.25 1855.14 2210.47C1857.19 2211.02 1859.28 2211.51 1861.36 2212L1862.64 2212.29C1862.95 2212.37 1863.29 2212.44 1863.65 2212.54ZM1704.07 2207.63C1705.67 2208.26 1707.16 2209.03 1708.51 2209.91C1708.78 2210.1 1709.04 2210.29 1709.3 2210.5L1709.48 2209.86C1709.54 2208.56 1709.87 2207.07 1710.58 2205.36C1710.67 2205.17 1710.75 2204.98 1710.83 2204.8C1708.51 2205.66 1706.25 2206.61 1704.07 2207.63Z" fill="#3B0372"/>
<path d="M1140.53 3507.22C1136.21 3507.29 1131.8 3506.41 1127.61 3504.48C1112.66 3497.6 1106.13 3479.91 1113.01 3464.97L1493.69 2638.34C1500.57 2623.4 1518.26 2616.85 1533.2 2623.74C1548.15 2630.62 1554.68 2648.31 1547.8 2663.25L1167.12 3489.88C1162.17 3500.63 1151.62 3507.04 1140.53 3507.22Z" fill="#9DA9B9"/>
<path d="M1140.04 3520.97C1133.73 3520.97 1127.61 3519.63 1121.84 3516.96C1111.29 3512.1 1103.26 3503.42 1099.23 3492.51C1095.2 3481.6 1095.66 3469.78 1100.52 3459.22L1481.2 2632.58C1486.07 2622.02 1494.75 2613.99 1505.66 2609.96C1516.58 2605.92 1528.4 2606.39 1538.96 2611.26C1549.52 2616.11 1557.55 2624.8 1561.58 2635.71C1565.61 2646.62 1565.15 2658.44 1560.29 2669.01L1179.6 3495.64C1172.65 3510.75 1157.4 3520.7 1140.76 3520.96H1140.75C1140.51 3520.97 1140.28 3520.97 1140.04 3520.97ZM1520.75 2634.75C1518.88 2634.75 1517 2635.08 1515.19 2635.75C1511.17 2637.23 1507.97 2640.2 1506.18 2644.09L1125.5 3470.72C1123.71 3474.61 1123.54 3478.97 1125.02 3482.99C1126.51 3487 1129.46 3490.2 1133.36 3491.99C1135.57 3493.01 1137.82 3493.51 1140.31 3493.47C1146.45 3493.37 1152.06 3489.71 1154.63 3484.14L1535.31 2657.5C1537.1 2653.61 1537.27 2649.25 1535.79 2645.24C1534.3 2641.22 1531.35 2638.02 1527.45 2636.23C1525.31 2635.24 1523.03 2634.75 1520.75 2634.75Z" fill="#3B0372"/>
<path d="M1743.95 2260.85C1721.59 2341.74 1688.64 2426.47 1648.13 2514C1623.42 2567.39 1595.88 2621.79 1566.23 2677.01C1556.66 2694.88 1536.17 2704.28 1516.51 2699.33C1508.58 2697.31 1501.02 2694.38 1493.83 2690.62C1476.18 2681.36 1467.43 2660.88 1472.01 2641.45C1488.05 2573.26 1508.67 2507.31 1531.77 2446.22C1566.19 2355.12 1606.15 2274.74 1644.83 2213.6C1653.44 2200.04 1669.85 2193.3 1685.25 2197.7C1701.74 2202.42 1717.14 2210.85 1731.62 2222.49C1743.03 2231.66 1747.85 2246.78 1743.95 2260.85Z" fill="#F9734D"/>
<path d="M1648.13 2514C1623.42 2567.39 1595.88 2621.79 1566.23 2677.01C1556.65 2694.88 1536.17 2704.27 1516.51 2699.33C1508.58 2697.31 1501.02 2694.38 1493.82 2690.62C1476.18 2681.36 1467.43 2660.88 1472.01 2641.45C1488.05 2573.25 1508.67 2507.31 1531.77 2446.22L1648.13 2514Z" fill="#D8583A"/>
<path d="M1527.19 2716.68C1522.34 2716.68 1517.44 2716.09 1512.59 2714.86C1503.58 2712.59 1494.77 2709.21 1486.39 2704.82C1462.4 2692.25 1450.07 2664.68 1456.4 2637.77C1493.1 2481.77 1558.48 2319.99 1631.29 2205.03C1643.74 2185.36 1667.75 2176.01 1689.67 2182.29C1707.78 2187.48 1725.28 2196.8 1741.68 2210.01C1758.08 2223.21 1765.04 2244.85 1759.42 2265.14C1726.25 2384.92 1667.68 2522.14 1580.38 2684.61C1569.58 2704.7 1548.96 2716.68 1527.19 2716.68ZM1675.72 2212.41C1668.96 2212.41 1662.29 2216.03 1658.39 2222.19V2222.19C1587.39 2334.3 1523.56 2492.4 1487.63 2645.11C1484.65 2657.76 1490.27 2670.63 1501.28 2676.4C1507.43 2679.63 1513.87 2682.1 1520.44 2683.76C1532.84 2686.9 1545.9 2681 1552.12 2669.43C1638.28 2509.08 1695.98 2374.03 1728.5 2256.58C1730.71 2248.63 1727.98 2240.16 1721.57 2235C1708.51 2224.49 1694.81 2217.13 1680.84 2213.13C1679.16 2212.64 1677.43 2212.41 1675.72 2212.41Z" fill="#3B0372"/>
<path d="M1566.42 1955.09C1460.77 1975.76 1350.86 2014.43 1272.51 2080.95C1144.55 2189.59 1145.24 2387.96 1271.97 2498.04C1364.06 2578.02 1486.48 2633.99 1579.98 2627.25C1596.23 2626.08 1612 2621.29 1625.77 2612.57C1698.89 2566.22 1759.03 2440.47 1717.65 2335.46C1671.82 2344.62 1607.66 2321.71 1607.66 2266.72L1625.99 2239.22C1582.62 2218.36 1543.7 2223.24 1511.42 2266.72C1491.45 2260.45 1472.8 2247.02 1455.33 2227.3C1488.19 2131.17 1525.02 2040.17 1566.42 1955.09Z" fill="#B5EA24"/>
<path d="M1662.43 2552.99C1648.66 2561.72 1632.9 2566.51 1616.64 2567.68C1523.14 2574.42 1400.72 2518.44 1308.63 2438.46C1213.68 2355.98 1189.49 2223.94 1237.16 2117.21C1146.11 2229.54 1158.29 2399.3 1271.97 2498.04C1364.06 2578.02 1486.48 2633.99 1579.98 2627.25C1596.23 2626.08 1612 2621.29 1625.77 2612.57C1658.52 2591.81 1688.63 2555.1 1708.21 2511.49C1694.23 2528.5 1678.66 2542.71 1662.43 2552.99Z" fill="#8DB528"/>
<path d="M1564.67 2643.83C1473.37 2643.83 1356.47 2592.68 1261.45 2510.14C1196.94 2454.11 1160.22 2372.87 1160.7 2287.24C1161.17 2202.7 1198.14 2123.05 1262.13 2068.73C1351.24 1993.07 1475.11 1956.61 1563.33 1939.35C1569.35 1938.19 1575.42 1940.49 1579.13 1945.31C1582.83 1950.13 1583.5 1956.64 1580.84 1962.11C1542.16 2041.59 1506.12 2129.45 1473.63 2223.41C1484.3 2234.24 1495.24 2242.31 1506.3 2247.52C1540.07 2208.94 1583.63 2201.03 1632.94 2224.77C1637.13 2226.78 1640.23 2230.51 1641.46 2234.99C1642.68 2239.46 1641.91 2244.25 1639.33 2248.12L1623.9 2271.28C1625.02 2283.97 1630.92 2294.77 1641.47 2303.42C1659.33 2318.05 1689.36 2324.76 1714.5 2319.73C1722.09 2318.21 1729.72 2322.35 1732.57 2329.58C1776.11 2440.04 1715.75 2574.52 1634.36 2626.12C1618.88 2635.93 1600.47 2641.86 1581.14 2643.25C1575.75 2643.64 1570.25 2643.83 1564.67 2643.83ZM1537.94 1977.55C1457.29 1996.14 1356.73 2030.49 1282.89 2093.18C1226.04 2141.45 1193.2 2212.24 1192.78 2287.42C1192.35 2363.68 1225.05 2436.04 1282.49 2485.92C1375.76 2566.95 1494.94 2617.29 1578.83 2611.26C1592.9 2610.24 1606.16 2606.01 1617.18 2599.03C1684.9 2556.1 1735.11 2444.36 1706.86 2353.12C1675.77 2355.61 1643.33 2346.42 1621.14 2328.23C1601.82 2312.4 1591.62 2291.13 1591.62 2266.72C1591.62 2263.55 1592.56 2260.45 1594.31 2257.82L1601.67 2246.78C1570.55 2237.32 1546.19 2246.8 1524.31 2276.28C1520.24 2281.76 1513.14 2284.06 1506.62 2282.02C1484.34 2275.03 1463.04 2260.2 1443.32 2237.94C1439.49 2233.62 1438.28 2227.58 1440.15 2222.11C1469.94 2134.99 1502.78 2052.88 1537.94 1977.55Z" fill="#3B0372"/>
<path d="M1463.19 2257.33C1433.13 2231.02 1409.74 2192.4 1410.6 2152.15C1419.42 2169.08 1429.65 2183.89 1442.94 2196.61C1455.44 2209.18 1470.39 2216.7 1480.56 2232.13L1484.9 2238.76C1493.98 2252.94 1475.64 2268.42 1463.19 2257.33Z" fill="#3B0372"/>
<path d="M2274.45 2049.04C2815.21 2007.79 2824.37 1654.93 2718.97 1448.7C2801.46 962.931 2576.91 587.148 1994.9 555.068C1281.19 564.769 1191.72 1099.65 1238.75 1434.95C1105.85 1709.91 1270.83 2021.54 2063.64 2049.04C2091.14 2049.04 2274.45 2049.04 2274.45 2049.04Z" fill="#B5EA24"/>
<path d="M2274.45 2049.04C2815.21 2007.79 2824.37 1654.93 2718.97 1448.7C2801.46 962.931 2576.91 587.148 1994.9 555.068C1281.19 564.769 1191.72 1099.65 1238.75 1434.95C1105.85 1709.91 1270.83 2021.54 2063.64 2049.04C2091.14 2049.04 2274.45 2049.04 2274.45 2049.04Z" fill="#B5EA24"/>
<g opacity="0.6">
<path d="M2718.97 1448.7C2801.46 962.931 2576.91 587.148 1994.9 555.068C1281.19 564.769 1191.72 1099.65 1238.75 1434.95C1200.64 1513.79 1187.09 1595.64 1205.74 1672.95C1194.9 1603.45 1208.99 1530.93 1242.6 1460.82C1196.53 1129.63 1284.17 601.312 1983.29 591.73C2553.39 623.416 2773.35 994.588 2692.55 1474.4C2761.07 1609.58 2780.09 1808.53 2630.35 1939C2810.23 1808.01 2792.54 1592.65 2718.97 1448.7Z" fill="white"/>
</g>
<path d="M2418.9 1967.99C2360.54 1979.65 2301.09 1984.88 2241.58 1984.88H2081.97C1386.96 1960.78 1174.46 1718.32 1222.14 1473.62C1122.6 1738.36 1307.8 2022.82 2063.64 2049.04C2091.14 2049.04 2274.45 2049.04 2274.45 2049.04C2605.96 2023.75 2737.65 1881.34 2765.67 1727.41C2723 1834.52 2619.43 1927.9 2418.9 1967.99Z" fill="#8DB528"/>
<path d="M2324.14 1038.01C2325.32 1046.18 2353.98 1035.4 2398.48 1052.51C2439.1 1068.14 2478.91 1092.91 2483.42 1074.32C2486.78 1060.46 2467.14 1011.82 2403.03 1011.89C2356.67 1011.94 2323 1030.15 2324.14 1038.01Z" fill="#3B0372"/>
<path d="M1741.35 996.771C1740.17 1004.93 1711.51 994.153 1667.01 1011.27C1626.39 1026.9 1586.58 1051.66 1582.07 1033.07C1578.7 1019.22 1598.35 970.58 1662.46 970.65C1708.82 970.694 1742.49 988.907 1741.35 996.771Z" fill="#3B0372"/>
<path d="M2063.64 2049.04C1803.2 2062.51 1341.51 2000.91 1214.44 1740.8C1164.7 1642.1 1178.78 1525.53 1227.71 1429.62C1227.71 1429.61 1226.61 1436.67 1226.6 1436.65C1202.97 1268.41 1214.25 1091.59 1283.12 934.514C1387.97 695.408 1609.97 576.477 1860.99 547.842C1901.66 543.032 1947.62 540.378 1988.78 539.281C1995.92 538.651 2003.05 539.759 2010.19 540.147C2022.84 540.975 2040.56 542.418 2052.97 543.511C2323.17 569.214 2577.8 685.815 2689.59 947.531C2757.61 1105.16 2760.07 1284.34 2731.06 1450.75L2729.89 1443.12C2748.38 1477.93 2762.72 1514.96 2772.45 1553.29C2827.38 1774.36 2717.27 1948 2504.15 2016.66C2430.43 2041.03 2351.87 2050.43 2274.45 2049.04C2312.07 2041.53 2349.98 2035.18 2387.16 2025.9C2459.94 2008.5 2533.76 1985.09 2597.07 1944.73C2713.83 1872.31 2769.98 1750.86 2754.31 1614.93C2748.94 1558.97 2731.96 1504.66 2707.87 1453.9C2738.56 1234.8 2725.68 996.532 2577.3 819.983C2435.6 647.303 2204.51 580.041 1988.37 571.328C1704.31 575.442 1433.63 671.906 1309.83 946.466C1242.55 1098.12 1229.7 1269.83 1250.9 1433.25C1251.27 1435.75 1250.81 1438.15 1249.79 1440.29C1207.68 1530.14 1195.31 1637.27 1241.82 1727.34C1246.76 1738.28 1253.92 1749.16 1260.07 1759.38C1263.97 1764.96 1272.42 1776.63 1276.37 1781.86C1282.18 1788.88 1288.55 1796.23 1294.44 1803.08C1302.42 1810.81 1312.69 1822.21 1321.17 1829.11C1344.2 1849.84 1370.53 1868.45 1396.87 1884.66C1506.56 1949.94 1632.16 1984.02 1757.12 2006.59C1858.31 2025.33 1961.59 2036.04 2063.64 2049.04Z" fill="#3B0372"/>
<path d="M1669.31 1527.77C1745.25 1520.89 1800.38 1444.31 1792.45 1356.71C1784.52 1269.12 1716.52 1203.68 1640.58 1210.56C1564.65 1217.44 1509.52 1294.02 1517.45 1381.62C1525.38 1469.21 1593.38 1534.65 1669.31 1527.77Z" fill="#3B0372"/>
<path d="M1698.45 1399.04C1723.21 1396.78 1740.97 1369.57 1738.11 1338.26C1735.25 1306.95 1712.86 1283.4 1688.1 1285.66C1663.34 1287.92 1645.59 1315.14 1648.45 1346.44C1651.3 1377.75 1673.69 1401.3 1698.45 1399.04Z" fill="white"/>
<g opacity="0.2">
<path d="M1619.55 1467.59C1633.26 1466.33 1642.8 1448.14 1640.85 1426.95C1638.91 1405.77 1626.22 1389.61 1612.51 1390.87C1598.8 1392.13 1589.26 1410.32 1591.2 1431.51C1593.15 1452.69 1605.84 1468.85 1619.55 1467.59Z" fill="white"/>
</g>
<path d="M2488.98 1401.55C2495.69 1313.18 2439.02 1236.83 2362.41 1231.02C2285.8 1225.2 2218.26 1292.12 2211.55 1380.49C2204.84 1468.86 2261.51 1545.21 2338.12 1551.03C2414.73 1556.84 2482.27 1489.92 2488.98 1401.55Z" fill="#3B0372"/>
<path d="M2356.75 1367.9C2359.17 1336.32 2340.88 1309.16 2315.9 1307.25C2290.92 1305.33 2268.71 1329.39 2266.29 1360.97C2263.87 1392.56 2282.16 1419.71 2307.14 1421.62C2332.12 1423.54 2354.33 1399.49 2356.75 1367.9Z" fill="white"/>
<g opacity="0.2">
<path d="M2415.34 1452.92C2416.98 1431.54 2407.1 1413.35 2393.27 1412.29C2379.44 1411.22 2366.89 1427.69 2365.24 1449.06C2363.6 1470.43 2373.48 1488.62 2387.31 1489.69C2401.14 1490.75 2413.69 1474.29 2415.34 1452.92Z" fill="white"/>
</g>
<path d="M2136.49 1595.62C2001.45 1639.94 1916.95 1535.46 1882.46 1586.06C1863.58 1613.77 1870.21 1777.57 1996.64 1791.41C2072.86 1799.75 2127.45 1747.79 2136.49 1595.62Z" fill="#3B0372"/>
<path d="M2096.86 1640.09C2088.41 1696.53 2072.38 1725.98 2055.76 1741.21C2037.31 1758.21 2018.21 1757.57 2008.41 1757.21C2008.32 1757.2 2008.23 1757.2 2008.23 1757.2C2005.69 1757.1 2003.07 1756.92 2000.45 1756.64C1969.62 1753.21 1946.77 1738.16 1930.63 1710.57C1922.72 1697.05 1917.57 1682.49 1914.32 1668.7C1907.98 1641.57 1909.09 1617 1911.49 1607.02C1919.88 1607.68 1933.9 1612.5 1948.8 1617.62C1977.8 1627.64 2013.81 1640.03 2057.77 1641.69C2070.82 1642.18 2083.82 1641.62 2096.86 1640.09Z" fill="#3B0372"/>
<path d="M2055.76 1741.21C2037.31 1758.21 2018.22 1757.57 2008.41 1757.21C2008.32 1757.2 2008.23 1757.2 2008.23 1757.2C2005.69 1757.1 2003.07 1756.92 2000.45 1756.64C1969.62 1753.21 1946.77 1738.16 1930.63 1710.57C1922.72 1697.05 1917.57 1682.49 1914.32 1668.7C1927.41 1663.67 1949.2 1668.63 1958.85 1674.29C2004.58 1658.67 2046.65 1693.1 2055.76 1741.21Z" fill="#FC9595"/>
<path d="M1937.64 1645.75L1933.58 1666.96C1933.58 1666.96 1958.44 1668.43 1972.36 1703.63C1972.36 1703.63 1979.06 1652.05 1937.64 1645.75Z" fill="#3B0372"/>
<path d="M1644.88 1827.36C1702.15 1770.09 1702.15 1677.24 1644.88 1619.97C1587.61 1562.7 1494.76 1562.7 1437.49 1619.97C1380.23 1677.24 1380.23 1770.09 1437.49 1827.36C1494.76 1884.63 1587.61 1884.63 1644.88 1827.36Z" fill="#FF67A0"/>
<path d="M2584.33 1836.53C2641.6 1779.26 2641.6 1686.41 2584.33 1629.14C2527.07 1571.87 2434.21 1571.87 2376.95 1629.14C2319.68 1686.41 2319.68 1779.26 2376.95 1836.53C2434.21 1893.8 2527.07 1893.8 2584.33 1836.53Z" fill="#FF67A0"/>
<path d="M1692.33 809.908C1726.11 781.26 1740.22 742.387 1723.85 723.083C1707.48 703.78 1666.83 711.355 1633.05 740.003C1599.27 768.651 1585.15 807.524 1601.52 826.828C1617.89 846.131 1658.55 838.556 1692.33 809.908Z" fill="#8DB528"/>
<path d="M1528.5 893.995C1556.17 857.289 1555.57 810.165 1527.15 788.741C1498.73 767.317 1453.26 779.705 1425.59 816.41C1397.92 853.116 1398.52 900.24 1426.94 921.664C1455.35 943.089 1500.82 930.701 1528.5 893.995Z" fill="#8DB528"/>
<path d="M1502.31 1010.81C1518.1 992.676 1521.61 969.894 1510.16 959.921C1498.71 949.949 1476.63 956.563 1460.84 974.695C1445.05 992.827 1441.53 1015.61 1452.98 1025.58C1464.43 1035.55 1486.52 1028.94 1502.31 1010.81Z" fill="#8DB528"/>
<path d="M1216.75 2626.88C1217.61 2625.1 1218.84 2623.59 1219.92 2621.95C1224.53 2614.88 1212.87 2608 1208.57 2615.32C1198.93 2631.72 1209.93 2654.66 1219.54 2668.65C1230.2 2684.16 1245.65 2696.29 1262.5 2704.52C1296.28 2721.03 1335.39 2724.76 1370.97 2711.42C1389.05 2704.64 1406 2694.5 1417.58 2678.73C1423.25 2671.01 1428.74 2657.07 1417.9 2650.78C1406.49 2644.16 1400.09 2658.63 1394.6 2665.45C1374.12 2690.87 1333.17 2697.2 1302.8 2692.21C1283.62 2689.05 1265.66 2682.2 1250.41 2669.89C1242.38 2663.42 1234.62 2655.65 1229.59 2646.59C1224.29 2637.04 1223.97 2626.91 1220.58 2616.89C1216.58 2618.57 1212.57 2620.26 1208.57 2621.95C1209.63 2623.61 1210.81 2625.08 1211.65 2626.88C1212.56 2628.83 1215.82 2628.79 1216.75 2626.88Z" fill="#3B0372"/>
<path d="M2505.2 2677.2C2505.12 2677.78 2505.05 2678.36 2504.97 2678.95C2505.63 2677.35 2506.29 2675.76 2506.95 2674.16C2500.04 2680.27 2506.29 2692.78 2510.05 2698.91C2514.5 2706.19 2519.83 2713.06 2525.24 2719.64C2535.98 2732.69 2549.29 2744.6 2564.58 2752.04C2579.2 2759.17 2595.97 2763 2612.28 2761.54C2620.05 2760.84 2627.58 2759.35 2634.82 2756.41C2642.55 2753.26 2653.42 2748.34 2656.98 2740.33C2649.85 2740.33 2642.72 2740.33 2635.6 2740.33C2635.84 2740.7 2636.08 2741.07 2636.32 2741.44C2638.82 2745.25 2643.86 2747.98 2648.49 2746.39C2648.85 2746.27 2649.21 2746.14 2649.58 2746.02C2664.51 2740.91 2658.42 2717.55 2643 2722.14C2636.74 2724 2632.16 2729.02 2626.15 2731.57C2620.66 2733.91 2614.6 2735.07 2608.66 2735.29C2596.6 2735.75 2584.47 2732.87 2573.83 2727.18C2561.36 2720.5 2550.97 2710.89 2541.77 2700.24C2537.08 2694.82 2532.99 2688.98 2528.6 2683.33C2526 2679.99 2523.82 2677.44 2520.28 2675.09C2518.66 2674.02 2517.05 2672.74 2515.14 2672.22C2514.36 2672.11 2513.58 2672.01 2512.81 2671.91C2509.92 2672.33 2509.69 2672.33 2512.14 2671.91C2508.41 2670.55 2505.61 2673.99 2505.2 2677.2Z" fill="#3B0372"/>
<path d="M2710.81 1054.63C2522.05 996.614 2314.64 962.151 2100.35 946.249C2079.09 944.645 2057.77 943.27 2036.42 942.033C2009.93 940.521 1983.35 939.283 1956.73 938.321C1807.51 932.868 1656.28 935.663 1506.84 945.103C1468.12 947.532 1429.48 950.419 1391.03 953.764C1356.02 956.743 1321.19 960.134 1286.55 963.8C1346.86 729.577 1522.65 578.438 1731.07 509.698C2141.36 374.234 2678.23 557.772 2710.81 1054.63Z" fill="#39A1FF"/>
<path d="M1731.07 509.699L1722.37 516.94C1676.58 546.682 1635.06 585.085 1610.36 633.754C1585.66 682.468 1579.66 742.365 1602.94 791.721C1620.08 828.153 1649.64 854.138 1684.97 873.11C1683.64 891.899 1683.04 911.284 1683.23 931.173C1643.04 931.127 1602.85 931.127 1562.66 931.081C1543.96 931.081 1522.1 932.96 1508.35 943.821C1469.35 946.571 1430.26 949.87 1391.03 953.766C1356.02 956.745 1321.19 960.136 1286.55 963.802C1346.86 729.578 1522.65 578.44 1731.07 509.699Z" fill="#3B78FF"/>
<path d="M1907.32 931.31H1902.24C1847.57 931.264 1792.89 931.218 1738.22 931.218C1783.86 928.193 1829.05 926.452 1873.78 925.994H1873.82C1884.96 927.827 1896.14 929.615 1907.32 931.31Z" fill="#3B78FF"/>
<path d="M1873.78 925.994C1829.05 926.452 1783.87 928.194 1738.22 931.218H1737.9C1719.66 931.172 1701.47 931.172 1683.23 931.172C1683.05 911.283 1683.64 891.898 1684.97 873.109C1727.13 895.794 1777.59 908.534 1824.93 917.378C1841.2 920.403 1857.46 923.29 1873.78 925.994Z" fill="#D9F1FF"/>
<path d="M1683.23 931.173C1701.47 931.173 1719.66 931.173 1737.9 931.219C1721.08 932.365 1704.22 933.648 1687.26 935.115H1686.99C1685.75 935.207 1684.51 935.344 1683.28 935.436V935.207C1683.27 933.877 1683.23 932.502 1683.23 931.173Z" fill="white"/>
<path d="M2500.1 1005.18C2301.48 951.475 2093.2 923.703 1873.82 925.995H1873.78C1857.46 923.291 1841.19 920.404 1824.93 917.379C1777.59 908.534 1727.13 895.794 1684.97 873.11C1697.25 701.67 1773.83 575.37 1932.11 506.492C2007.09 473.863 2091.5 471.297 2169.13 496.96C2379.76 566.571 2511.92 714.272 2500.1 1005.18Z" fill="white"/>
<path d="M2710.8 1070.65C2709.23 1070.65 2707.63 1070.42 2706.09 1069.94C2224.85 921.985 1669.43 939.231 1288.23 979.758C1283 980.3 1277.83 978.269 1274.4 974.289C1270.96 970.31 1269.69 964.899 1271.01 959.807C1315.68 786.369 1424.85 646.594 1586.7 555.603C1732.41 473.679 1910.57 437.722 2088.42 454.377C2253.61 469.836 2406.06 530.94 2517.7 626.433C2643.22 733.806 2715.53 881.506 2726.81 1053.56C2727.16 1058.83 2724.89 1063.92 2720.75 1067.19C2717.88 1069.46 2714.37 1070.65 2710.8 1070.65ZM1805.94 919.319C2091.7 919.319 2404.43 947.195 2692.89 1032.46C2656.76 668.499 2345.49 510.652 2085.43 486.316C1781.67 457.874 1413.25 590.056 1308.26 945.417C1454.59 930.52 1624.85 919.319 1805.94 919.319Z" fill="#3B0372"/>
<path d="M2031.29 1184.05C2029.5 1184.32 2027.67 1184.6 2025.88 1184.87C1769.93 1152.24 1493.41 1081.3 1286.87 965.223C1321.65 960.961 1356.39 957.157 1391.03 953.766C1430.26 949.87 1469.35 946.571 1508.35 943.821C1507.8 944.234 1507.3 944.646 1506.84 945.104C1503.22 948.266 1500.24 952.116 1498.13 956.836C1488.1 979.383 1506.38 1004.45 1526.22 1019.16C1566.32 1048.9 1616.05 1061.83 1664.26 1074.7C1787.62 1107.56 1910.03 1144.04 2031.29 1184.05Z" fill="#009966"/>
<path d="M2025.88 1184.87C2027.67 1184.6 2029.5 1184.32 2031.29 1184.05C1910.03 1144.04 1787.62 1107.56 1664.26 1074.7C1616.05 1061.83 1566.32 1048.9 1526.22 1019.16C1506.38 1004.45 1488.09 979.383 1498.13 956.836C1500.24 952.116 1503.22 948.266 1506.84 945.104C1507.3 944.646 1507.8 944.233 1508.35 943.821C1566.87 939.697 1625.21 936.81 1683.27 935.206C1684.51 935.206 1685.75 935.16 1686.99 935.114C1774.65 932.823 1861.77 933.464 1948.34 937.222C1977.76 938.413 2007.13 940.063 2036.42 942.034C2059.7 943.592 2082.93 945.379 2106.12 947.442C2311.52 965.36 2513.62 1001.29 2712.1 1056.88C2830.01 1186.29 2457.07 1239.91 2025.88 1184.87Z" fill="#16B768"/>
<path d="M2344.24 1222.11C2278.59 1222.11 2210.52 1219.07 2144.57 1213.56C1809.68 1185.55 1494.19 1100.13 1279.01 979.207C1272.97 975.809 1269.79 968.914 1271.13 962.112C1272.48 955.31 1278.04 950.144 1284.92 949.299C1794.31 887.033 2275.93 918.025 2716.42 1041.43C2719.32 1042.24 2721.93 1043.85 2723.95 1046.08C2764.5 1090.58 2749.09 1124.22 2736.3 1140.31C2689.81 1198.75 2526.42 1222.11 2344.24 1222.11ZM1339.68 975.227C1548.85 1081.27 1839.48 1155.85 2147.24 1181.59C2464.39 1208.1 2671.01 1170.86 2711.19 1120.33C2715.73 1114.62 2727.53 1099.79 2703.2 1071.05C2282.73 953.938 1824.29 921.755 1339.68 975.227Z" fill="#3B0372"/>
<path d="M1935.32 797.953L2031.56 614.644L2150.71 747.543L2205.71 678.802L2279.03 820.867L1935.32 797.953Z" fill="#16B768"/>
</g>
<defs>
<clipPath id="clip0_7_192">
<rect width="4000" height="4000" fill="white"/>
</clipPath>
</defs>
</svg>
