<svg width="4000" height="4000" viewBox="0 0 4000 4000" fill="none" xmlns="http://www.w3.org/2000/svg">
<g clip-path="url(#clip0_7_612)">
<g opacity="0.2">
<path d="M2000 3429.16C2613.96 3429.16 3111.68 3323.03 3111.68 3192.11C3111.68 3061.2 2613.96 2955.07 2000 2955.07C1386.04 2955.07 888.319 3061.2 888.319 3192.11C888.319 3323.03 1386.04 3429.16 2000 3429.16Z" fill="#132378"/>
</g>
<path d="M2692.6 1878.99C2692.6 1878.99 3016.32 2039.59 3023.85 2513.88C3031.38 2988.16 2667.51 3121.16 2577.17 3166.33C2577.17 3166.33 2539.53 3249.14 2446.68 3251.65C2446.68 3251.65 2298.62 3382.14 2117.94 3314.39C2117.94 3314.39 1791.72 3384.65 1578.41 3176.37C1578.41 3176.37 1503.13 3181.39 1425.34 3216.52C1347.55 3251.65 1207.02 3281.77 1084.06 3166.33C961.094 3050.9 996.226 2887.79 1106.64 2784.9C1217.06 2682.01 1362.6 2699.58 1362.6 2699.58C1362.6 2699.58 1360.09 2549.01 1397.74 2390.92C1435.38 2232.82 1525.72 2014.5 1969.89 1926.67C2414.06 1838.84 2692.6 1878.99 2692.6 1878.99Z" fill="#B7E925"/>
<path d="M2129.41 2788C2129.41 2788 2156.46 2833.2 2210.29 2836.97C2264.12 2840.73 2287.75 2784.21 2289.59 2780.05C2291.43 2775.9 2292.98 2752.93 2292.98 2752.93L2260.35 2748.4C2260.35 2748.4 2228.99 2745.43 2178.8 2752.93C2128.61 2760.43 2129.41 2788 2129.41 2788Z" fill="white"/>
<path d="M2334.8 2788.66C2334.8 2788.66 2324.34 2849.48 2370.77 2878.36C2417.19 2907.23 2460.28 2867.09 2462.52 2865.58C2464.76 2864.08 2461.74 2841.09 2458.6 2837.15C2455.46 2833.2 2431.51 2805.37 2389.29 2785.53C2347.07 2765.68 2339.6 2774.86 2334.8 2788.66Z" fill="white"/>
<path d="M1994.22 2956.13C1994.22 2956.13 2039.5 2955.27 2070.47 2922.78C2101.44 2890.29 2073.84 2800.58 2073.84 2800.58L2048.74 2804.97C2048.74 2804.97 2001.95 2855.87 1979.86 2892.52C1957.78 2929.17 1970.95 2949.89 1970.95 2949.89L1994.22 2956.13Z" fill="white"/>
<path d="M1033.03 3031.4C1033.03 3031.4 1085.5 3017.48 1084.78 2992.78C1084.05 2968.09 1033.03 2917.9 1033.03 2917.9L1040.14 2908.07C1040.14 2908.07 1120.34 2932.18 1136.91 2902.66C1153.48 2873.15 1119.62 2790.63 1119.62 2790.63L1134.24 2773.04C1134.24 2773.04 1150.55 2861.16 1209.1 2860.25C1267.66 2859.35 1279.44 2790.81 1259.1 2758.76C1238.76 2726.71 1199.44 2727.54 1199.44 2727.54L1179.55 2734.56C1179.55 2734.56 1118.14 2759.07 1061.99 2835.35C1005.84 2911.62 1007.46 2974.74 1007.46 2974.74C1007.46 2974.74 1010.19 3039.85 1033.03 3031.4Z" fill="white"/>
<path d="M1362.6 2660.68C1362.6 2660.68 1349.52 2423.45 1435.11 2276.07C1520.7 2128.68 1642.32 2044.85 1640.82 2045.76C1639.32 2046.67 1640.83 2077.24 1640.83 2077.24C1640.83 2077.24 1564.61 2226.55 1528.23 2318.14C1491.84 2409.74 1470.61 2631.87 1470.61 2631.87L1471.5 2699.58L1447.55 2713.86L1373.89 2706.06L1362.6 2660.68Z" fill="#80DEFF"/>
<path d="M1961.34 3227.81C1961.34 3227.81 1839.22 3206.49 1801.97 3192.7C1764.72 3178.92 1724.89 3160.68 1724.89 3160.68L1690.71 3148.98L1600.37 3176.37L1598.24 3194.66C1598.24 3194.66 1677.22 3273.63 1816.65 3305.62C1956.09 3337.6 2071.3 3321.35 2075.85 3320.81C2080.41 3320.26 2092.3 3303.72 2092.3 3303.72C2092.3 3303.72 2030.09 3258.46 2026.11 3254.07C2022.13 3249.69 1992.47 3225.48 1992.47 3225.48L1961.34 3227.81Z" fill="#80DEFF"/>
<path d="M1934.75 2203.63C1934.75 2203.63 2144.11 2200.74 2260.96 2141.34C2377.8 2081.94 2428.35 2040 2428.35 2040L2441.55 2028.93L2469.18 2040.27C2469.18 2040.27 2596.41 2152.94 2603.1 2283.22C2609.79 2413.5 2484.32 2538.93 2455.88 2600.85C2427.44 2662.77 2456.1 2752.93 2456.1 2752.93L2484.48 2833.64H2465.92C2465.92 2833.64 2382.93 2723.62 2210.29 2748.4C2037.64 2773.18 1961.86 2879.42 1949.14 2986.49C1936.43 3093.56 1996.07 3214.58 1996.07 3214.58L1982.35 3225.04C1982.35 3225.04 1749.05 3243.51 1575.06 3039.72C1401.08 2835.92 1494.08 2455.99 1494.08 2455.99C1494.08 2455.99 1516.51 2308.1 1580.92 2182.63L1631.28 2107.56L1658.15 2087.88C1658.15 2087.88 1698.87 2189.49 1934.75 2203.63Z" fill="#FED650"/>
<path d="M2478.59 1906.46C2478.59 1906.46 2596.72 2017.83 2671.85 2174.26C2746.97 2330.69 2681.73 2488.2 2598.08 2616.05C2514.43 2743.91 2655.61 2824.21 2606.77 3061.77C2578.42 3237.85 2491.78 3243.56 2487.1 3244.93C2482.42 3246.29 2472.12 3232.83 2472.12 3232.83C2472.12 3232.83 2554.74 3123.17 2517.65 2950.9C2480.56 2778.62 2415.76 2709.61 2446.9 2621.78C2478.05 2533.95 2622.57 2395.94 2606.77 2271.72C2590.97 2147.5 2452.76 2008.5 2396.4 1969.47C2340.03 1930.43 2309.78 1897.5 2309.78 1897.5C2309.78 1897.5 2325.32 1884.32 2328.74 1880.59C2332.15 1876.86 2422.75 1871.68 2422.75 1871.68C2422.75 1871.68 2447.76 1873.71 2478.59 1906.46Z" fill="#80DEFF"/>
<path d="M2735.69 1905.99C2735.69 1905.99 2918.08 2022.93 2997.31 2304.79C3076.55 2586.65 2965.08 2908.71 2830 3007.87C2694.91 3107.03 2671.99 3125.1 2634.93 3138.82C2597.87 3152.53 2597.87 3152.53 2597.87 3152.53L2591.1 3132.66C2591.1 3132.66 2644.29 3023.19 2616.17 2883.97C2588.05 2744.75 2550.98 2729.59 2594.61 2643.59C2638.23 2557.6 2720.87 2477.91 2703.81 2310.61C2686.75 2143.32 2572.68 2017.37 2572.68 2017.37L2462.52 1890.63L2472.12 1871.01H2641.86C2641.85 1871.01 2699.31 1864.41 2735.69 1905.99Z" fill="#19B5FF"/>
<g opacity="0.45">
<path d="M1259.1 2758.75C1259.1 2758.75 1331.13 2742.24 1471.5 2765.66L1472.59 2738.02L1451.27 2713.86C1451.27 2713.86 1384.35 2694.56 1303.21 2699.58C1222.07 2704.6 1222.91 2727.54 1222.91 2727.54C1222.91 2727.54 1255.15 2736.79 1259.1 2758.75Z" fill="white"/>
</g>
<g opacity="0.45">
<path d="M1501.36 2455.99C1501.36 2455.99 1595.14 2228.64 1647.84 2169.25C1647.84 2169.25 1743.2 2252.06 1955.67 2248.72C2168.13 2245.37 2372.87 2085.25 2372.87 2085.25C2372.87 2085.25 2135.51 2228.8 1934.75 2203.63C1734 2178.45 1669.27 2105.67 1666.5 2102.12C1663.74 2098.57 1640.87 2093.49 1640.87 2093.49C1640.87 2093.49 1509.63 2311.95 1501.36 2455.99Z" fill="white"/>
</g>
<g opacity="0.45">
<path d="M2611.47 1880.59C2611.47 1880.59 2799 1975.91 2868.34 2093.49L2842.27 2167.56L2822.71 2237.38L2823.93 2321.49L2892.52 2166.74C2892.52 2166.74 2995.22 2334.31 3023.75 2558.35C3023.75 2558.35 3032.68 2454.55 2997.31 2304.79C2961.95 2155.03 2910.09 2083.09 2827.28 1988.57C2744.47 1894.05 2675.04 1875.65 2675.04 1875.65L2611.47 1880.59Z" fill="white"/>
</g>
<g opacity="0.45">
<path d="M2703.81 2248.72L2779.18 2311.45C2779.18 2311.45 2816.4 2468.71 2816.4 2466.2C2816.4 2463.69 2811.39 2293.89 2811.39 2293.89L2805.94 2270.62L2700.27 2210.79C2700.27 2210.79 2686.97 2214.56 2688.95 2217C2690.93 2219.44 2703.81 2248.72 2703.81 2248.72Z" fill="white"/>
</g>
<g opacity="0.45">
<path d="M2603.36 2616.76C2607.69 2615.72 2759.52 2589.16 2772.07 2593.34C2784.62 2597.53 2852.95 2711.34 2852.95 2711.34C2852.95 2711.34 2823.93 2560.88 2816.4 2555.36C2808.88 2549.85 2795.06 2541.76 2795.06 2541.76L2646.6 2566.54L2623.06 2586.14L2603.36 2616.76Z" fill="white"/>
</g>
<g opacity="0.3">
<path d="M1053.6 3023.11C1053.6 3023.11 1141.77 3142.07 1278.12 3119.49C1414.47 3096.9 1375.99 2947.18 1375.99 2947.18L1357.58 2908.07C1357.58 2908.07 1422.09 2953.13 1519.07 2950.57C1519.07 2950.57 1432.34 2767 1494.09 2455.99C1494.09 2455.99 1507.31 2646.34 1711.41 2747.82C1711.41 2747.82 1698.26 2433.16 1819.43 2283.22C1819.43 2283.22 1735.84 2486.69 1757.92 2770.05C1757.92 2770.05 2054.21 2893.12 2299.38 2601.86C2446.9 2439.43 2334.8 2196.85 2334.8 2196.85L2493.13 2066.59L2357.85 1936.04L2322.92 1907.69L2328.74 1880.59L2367.21 1875.65C2367.21 1875.65 2586.37 2039.6 2646.6 2233.66C2706.82 2427.72 2520.3 2514.72 2507.33 2643.53C2494.36 2772.35 2596.41 2906.19 2579.68 3051.74C2562.95 3197.28 2511.95 3237.2 2511.95 3237.2L2472.12 3232.83C2472.12 3232.83 2623.32 3015.48 2446.9 2824.78C2270.48 2634.08 1920.53 2795.77 1945.63 3043.37C1961.34 3176.37 2036.31 3264.43 2036.31 3264.43C2036.31 3264.43 1817.94 3314.39 1624.15 3166.33C1624.15 3166.33 1529.93 3180.26 1491.56 3192.68C1453.19 3205.1 1296.33 3277.98 1172.31 3225.29C1048.29 3172.61 1010.86 3054.02 1013.26 3050.26C1015.67 3046.51 1027.75 3029.32 1027.75 3029.32L1053.6 3023.11Z" fill="#132378"/>
</g>
<g opacity="0.3">
<path d="M1412.58 2706.06C1412.58 2706.06 1384.12 2366.08 1591.79 2079.19L1629.2 2053.07L1633.81 2091.13C1633.81 2091.13 1527.19 2292.03 1501.36 2422.4C1475.53 2552.78 1471.5 2699.58 1471.5 2699.58L1454.5 2709.72L1412.58 2706.06Z" fill="#132378"/>
</g>
<g opacity="0.3">
<path d="M1951.84 2999.1C1951.84 2999.1 2037.48 3198 2267.26 3192.68C2497.03 3187.36 2517.65 2950.9 2517.65 2950.9C2517.65 2950.9 2584.64 3297.33 2249.66 3332.84C1914.68 3368.34 1951.84 2999.1 1951.84 2999.1Z" fill="#132378"/>
</g>
<g opacity="0.3">
<path d="M2520.71 1944.24C2520.71 1944.24 2682.4 2111.11 2819.87 2087.27L2780.44 2242.74L2697.62 2203.63L2663.75 2174.26C2663.75 2174.26 2599.87 2017.46 2520.71 1944.24Z" fill="#132378"/>
</g>
<g opacity="0.3">
<path d="M2696.37 2349.03C2696.37 2349.03 2717.7 2418.52 2779.18 2439.85V2536.97C2779.18 2536.97 2663.27 2563.15 2658.54 2566.12C2653.81 2569.09 2646.6 2555.36 2646.6 2555.36L2687.67 2441.65L2696.37 2349.03Z" fill="#132378"/>
</g>
<g opacity="0.3">
<path d="M2584.7 2653.15C2584.7 2656.92 2659.06 2723.42 2724.77 2728.43C2790.47 2733.45 2808.04 2699.58 2808.04 2699.58L2836.9 2784.9C2836.9 2784.9 2782.84 2863.54 2774.16 2858.72C2765.48 2853.91 2635.04 2927.88 2635.04 2927.88L2617.46 2950.89L2616.17 2989.42C2616.17 2989.42 2805.95 2913.08 2864.08 2831.42L2927.52 2890.12C2927.52 2890.12 2862.03 2983.19 2790.49 3042.14C2718.95 3101.09 2621.28 3143.64 2616.17 3143.07C2611.05 3142.49 2594.65 3143.07 2594.65 3143.07C2594.65 3143.07 2643.39 3017.38 2602.12 2852.83C2560.86 2688.28 2584.7 2653.15 2584.7 2653.15Z" fill="#132378"/>
</g>
<g opacity="0.3">
<path d="M2819.87 2336.07C2819.87 2336.07 2855.72 2526.43 2977.43 2580.38C2977.43 2580.38 2979.86 2717.46 2919.04 2829.6L2864.08 2781.13L2861.82 2758.1L2819.87 2549.01C2819.87 2549.01 2816.42 2497.52 2816.41 2498.17C2816.4 2498.82 2819.87 2336.07 2819.87 2336.07Z" fill="#132378"/>
</g>
<g opacity="0.3">
<path d="M1663.73 2098.57C1663.73 2098.57 1746.16 2216.76 1993.53 2201.58C2240.91 2186.4 2360.21 2086.56 2373.31 2078.15C2386.41 2069.74 2428.35 2040 2428.35 2040V2004.07C2428.35 2004.07 2311.72 1898.68 2299.38 1889.63C2287.04 1880.59 2237.14 1880.59 2237.14 1880.59C2237.14 1880.59 1947.74 1921.65 1835.85 1950.51C1723.96 1979.37 1638.64 2047.12 1663.73 2098.57Z" fill="#132378"/>
</g>
<path d="M2225.3 3351.57C2191.19 3351.57 2154.65 3346.11 2116.53 3332.46C2096.74 3336.19 2022.27 3348.35 1926.8 3340.88C1784.23 3329.72 1661.79 3279.16 1572.11 3194.5C1551.7 3196.78 1492.51 3205.33 1432.52 3232.42C1370.89 3260.25 1212.41 3310.76 1072.11 3179.05C1017.65 3127.93 988.936 3064.36 989.063 2995.22C989.209 2915.89 1027.73 2834.58 1094.74 2772.13C1186.72 2686.43 1300.2 2679.85 1345.19 2681.02C1345.78 2635.45 1350.39 2514.42 1380.76 2386.88C1422.81 2210.25 1527.39 1996.38 1966.5 1909.55C2408.48 1822.16 2692.28 1861.32 2695.09 1861.72C2696.92 1861.99 2698.7 1862.54 2700.36 1863.36C2703.8 1865.07 2785.59 1906.33 2868.87 2007.49C2945.34 2100.36 3037.33 2263.56 3041.3 2513.6C3048.46 2964.88 2728.62 3114.53 2608.21 3170.86C2601.43 3174.04 2595.34 3176.88 2590.06 3179.44C2579.09 3199.56 2537.72 3263.58 2453.35 3268.82C2431.76 3286.29 2343.19 3351.56 2225.3 3351.57ZM2117.94 3296.94C2120.03 3296.94 2122.1 3297.31 2124.07 3298.05C2292.99 3361.4 2433.74 3239.8 2435.15 3238.56C2438.21 3235.86 2442.13 3234.32 2446.21 3234.21C2526.6 3232.04 2559.93 3162.04 2561.31 3159.06C2562.98 3155.47 2565.83 3152.49 2569.37 3150.73C2576.11 3147.36 2584.13 3143.6 2593.42 3139.25C2708.23 3085.54 3013.21 2942.85 3006.4 2514.15C3002.6 2274.2 2914.86 2118.24 2841.93 2029.67C2771.11 1943.65 2700.99 1903.31 2687.26 1895.89C2656.71 1892.09 2385.26 1862.32 1973.27 1943.79C1553.65 2026.76 1454.34 2228.49 1414.71 2394.96C1378.05 2548.93 1380.03 2697.8 1380.05 2699.29C1380.13 2704.33 1378.03 2709.16 1374.28 2712.54C1370.54 2715.91 1365.52 2717.51 1360.51 2716.9C1359.16 2716.74 1221.41 2701.8 1118.53 2797.66C1058.56 2853.55 1024.09 2925.58 1023.96 2995.28C1023.85 3054.52 1048.76 3109.27 1096 3153.61C1220.95 3270.91 1362.92 3225.56 1418.16 3200.62C1497.91 3164.6 1574.05 3159.17 1577.26 3158.96C1582.19 3158.67 1587.06 3160.42 1590.61 3163.89C1794.51 3362.99 2111.11 3298.01 2114.28 3297.33C2115.49 3297.07 2116.71 3296.94 2117.94 3296.94Z" fill="#132378"/>
<path d="M2577.16 3183.78C2574.74 3183.78 2572.27 3183.27 2569.92 3182.2C2561.16 3178.2 2557.3 3167.85 2561.3 3159.08C2624.54 3020.55 2598.3 2911 2577.22 2822.97C2563.6 2766.14 2551.85 2717.06 2565.49 2671.94C2575.94 2637.38 2593.6 2604.27 2612.31 2569.22C2653.21 2492.57 2699.56 2405.7 2682.83 2275.19C2658.87 2088.31 2432.28 1886.11 2429.99 1884.09C2422.77 1877.71 2422.09 1866.68 2428.47 1859.46C2434.85 1852.24 2445.87 1851.56 2453.1 1857.94C2462.83 1866.53 2691.8 2070.8 2717.44 2270.75C2735.59 2412.3 2686.45 2504.39 2643.09 2585.64C2625.22 2619.14 2608.34 2650.77 2598.89 2682.04C2587.98 2718.12 2598.72 2762.94 2611.15 2814.84C2633.49 2908.08 2661.28 3024.1 2593.04 3173.58C2590.11 3179.99 2583.78 3183.78 2577.16 3183.78Z" fill="#132378"/>
<path d="M2945.92 2876.17C2941.22 2876.17 2936.54 2874.28 2933.1 2870.56L2851.26 2781.88C2849.05 2779.48 2847.55 2776.51 2846.94 2773.3L2799.26 2521.92C2799.06 2520.85 2798.95 2519.76 2798.95 2518.67V2283.22C2798.95 2215.31 2864.45 2055.18 2867.24 2048.4C2870.9 2039.49 2881.1 2035.23 2890.01 2038.9C2898.92 2042.56 2903.18 2052.75 2899.51 2061.67C2881.25 2106.11 2833.85 2232.55 2833.85 2283.22V2517.03L2880.29 2761.89L2958.74 2846.89C2965.28 2853.97 2964.83 2865.01 2957.75 2871.54C2954.4 2874.64 2950.16 2876.17 2945.92 2876.17Z" fill="#132378"/>
<path d="M2816.42 2300.67C2816.01 2300.67 2815.6 2300.65 2815.18 2300.62C2807.69 2300.1 2801.64 2294.92 2799.65 2288.12C2788.42 2276.02 2727.49 2242.87 2675.28 2218.02C2666.58 2213.88 2662.88 2203.47 2667.02 2194.76C2671.16 2186.06 2681.57 2182.36 2690.27 2186.51C2835.82 2255.77 2834.56 2273.71 2833.81 2284.44C2833.16 2293.64 2825.5 2300.67 2816.42 2300.67ZM2799 2282C2799 2282.01 2799 2282.01 2799 2282.02C2799 2282.01 2799 2282.01 2799 2282Z" fill="#132378"/>
<path d="M2629.64 2591.21C2621.45 2591.21 2614.14 2585.41 2612.53 2577.07C2610.7 2567.61 2616.89 2558.46 2626.35 2556.63L2816.56 2519.84C2826.03 2518.02 2835.17 2524.19 2837 2533.65C2838.83 2543.11 2832.65 2552.27 2823.19 2554.1L2632.97 2590.89C2631.85 2591.1 2630.74 2591.21 2629.64 2591.21Z" fill="#132378"/>
<path d="M2616.17 2953.07C2609.18 2953.07 2602.59 2948.84 2599.9 2941.94C2596.41 2932.96 2600.86 2922.85 2609.84 2919.36C2752.65 2863.83 2850.29 2759.27 2851.26 2758.22C2857.79 2751.15 2868.83 2750.7 2875.91 2757.23C2882.99 2763.76 2883.44 2774.79 2876.91 2781.88C2872.75 2786.4 2773.1 2893.32 2622.49 2951.88C2620.41 2952.69 2618.27 2953.07 2616.17 2953.07Z" fill="#132378"/>
<path d="M2446.68 3269.1C2442.49 3269.1 2438.29 3267.6 2434.95 3264.57C2427.82 3258.08 2427.29 3247.05 2433.77 3239.92C2557.67 3103.54 2503.54 2944 2460.04 2815.8C2440.91 2759.44 2424.4 2710.76 2424.1 2669.8C2423.67 2611.36 2461.85 2552.69 2502.27 2490.57C2557.72 2405.35 2615.06 2317.22 2576.93 2224.62C2509.43 2060.7 2279.27 1896.47 2276.96 1894.83C2269.09 1889.26 2267.23 1878.38 2272.79 1870.51C2278.36 1862.65 2289.24 1860.78 2297.11 1866.34C2306.91 1873.27 2537.83 2038 2609.2 2211.33C2654.31 2320.89 2589.07 2421.14 2531.52 2509.6C2494.04 2567.19 2458.64 2621.6 2458.99 2669.54C2459.25 2704.88 2474.93 2751.09 2493.09 2804.59C2537.08 2934.23 2597.33 3111.79 2459.59 3263.38C2456.15 3267.17 2451.42 3269.1 2446.68 3269.1Z" fill="#132378"/>
<path d="M2117.94 3331.84C2116.06 3331.84 2114.15 3331.53 2112.27 3330.89C1979.92 3285.35 1926.42 3144.41 1932.11 3024.93C1937.46 2912.71 1997.46 2779.73 2149.83 2743.05C2297.17 2707.58 2392.3 2757.4 2446.17 2805.44C2504.34 2857.31 2527.33 2917.17 2528.28 2919.69C2531.67 2928.71 2527.11 2938.77 2518.1 2942.16C2509.07 2945.56 2499.02 2941 2495.62 2931.99C2492.09 2922.72 2409.97 2716.3 2157.99 2776.97C2024.38 2809.14 1971.71 2927.01 1966.97 3026.59C1962.06 3129.61 2008.99 3258.45 2123.62 3297.89C2132.73 3301.03 2137.58 3310.95 2134.44 3320.06C2131.95 3327.3 2125.19 3331.84 2117.94 3331.84Z" fill="#132378"/>
<path d="M1987.51 2970.31C1967.5 2970.31 1956.52 2964.39 1954.46 2963.16C1948.1 2959.37 1946.01 2951.13 1949.81 2944.76C1953.56 2938.48 1961.64 2936.37 1967.96 2939.97C1969.01 2940.49 1996.65 2953.66 2052.2 2923.8C2105.22 2895.29 2058.65 2803.22 2058.17 2802.29C2054.78 2795.7 2057.38 2787.61 2063.96 2784.21C2070.56 2780.83 2078.65 2783.42 2082.04 2790.01C2084.48 2794.75 2140.89 2906.59 2064.91 2947.44C2031.54 2965.38 2005.76 2970.31 1987.51 2970.31Z" fill="#132378"/>
<path d="M2213.19 2853.79C2212.07 2853.79 2210.94 2853.77 2209.79 2853.73C2133.45 2850.9 2109.38 2777.22 2108.4 2774.08C2106.17 2767.01 2110.1 2759.47 2117.17 2757.25C2124.23 2755.02 2131.75 2758.94 2133.99 2765.99C2134.83 2768.58 2153.69 2824.79 2210.79 2826.9C2266.68 2829.04 2286.14 2750.6 2286.33 2749.81C2288.06 2742.61 2295.31 2738.16 2302.5 2739.89C2309.7 2741.61 2314.15 2748.83 2312.44 2756.03C2311.48 2760.07 2288.35 2853.79 2213.19 2853.79Z" fill="#132378"/>
<path d="M2396.47 2902.66C2381.1 2902.66 2365.44 2898.42 2351.24 2886.9C2298.77 2844.38 2330.91 2767.97 2332.31 2764.74C2335.24 2757.93 2343.14 2754.79 2349.94 2757.73C2356.74 2760.66 2359.88 2768.54 2356.96 2775.34C2356.62 2776.15 2331.57 2836.42 2368.14 2866.05C2404.28 2895.35 2463.11 2848.74 2463.7 2848.27C2469.47 2843.63 2477.92 2844.54 2482.56 2850.31C2487.21 2856.07 2486.32 2864.51 2480.56 2869.16C2478.3 2870.99 2438.45 2902.66 2396.47 2902.66Z" fill="#132378"/>
<path d="M1995.55 3242.76C1965.27 3242.76 1856.7 3238.96 1743.63 3188.9C1622.28 3135.16 1473.98 3016.15 1456.46 2754.36C1438.66 2571.91 1489.33 2204.53 1701.15 1994.43C1708 1987.65 1719.05 1987.69 1725.83 1994.53C1732.61 2001.37 1732.57 2012.42 1725.73 2019.2C1522.38 2220.9 1473.96 2575.25 1491.22 2751.23C1491.24 2751.41 1491.25 2751.59 1491.26 2751.77C1504.33 2948.14 1593.99 3084.47 1757.76 3156.99C1880.88 3211.51 2001.22 3207.81 2002.43 3207.77C2012.02 3207.45 2020.15 3214.94 2020.5 3224.57C2020.85 3234.2 2013.33 3242.29 2003.7 3242.64C2003 3242.67 2000.2 3242.76 1995.55 3242.76Z" fill="#132378"/>
<path d="M1471.51 2737.3C1469.8 2737.3 1468.07 2737.05 1466.35 2736.52C1435.66 2727.03 1361.04 2716.97 1360.29 2716.87C1350.74 2715.59 1344.03 2706.81 1345.31 2697.26C1346.59 2687.71 1355.36 2681 1364.92 2682.28C1368.1 2682.71 1443.19 2692.83 1476.66 2703.19C1485.87 2706.03 1491.02 2715.81 1488.17 2725.01C1485.86 2732.5 1478.96 2737.3 1471.51 2737.3Z" fill="#132378"/>
<path d="M1229.77 3260.15C1229.22 3260.15 1228.68 3260.15 1228.13 3260.15C1218.5 3260.09 1210.73 3252.24 1210.79 3242.6C1210.84 3233 1218.64 3225.25 1228.23 3225.25C1228.73 3225.25 1229.25 3225.26 1229.75 3225.26C1291.49 3225.26 1340.98 3202.16 1369.21 3160.12C1402.54 3110.48 1403.71 3038.81 1372.42 2963.5C1294.59 2776.16 1128.41 2790.17 1121.37 2790.87C1111.79 2791.8 1103.25 2784.82 1102.28 2775.25C1101.32 2765.68 1108.26 2757.14 1117.83 2756.15C1119.87 2755.94 1168.71 2751.23 1228.49 2772.87C1283.53 2792.79 1358.78 2839.71 1404.65 2950.11C1440.51 3036.42 1438.15 3120.05 1398.18 3179.57C1363.26 3231.57 1303.49 3260.15 1229.77 3260.15Z" fill="#132378"/>
<path d="M1009.32 3044.66C1002.13 3044.66 996.183 3038.96 995.922 3031.72C995.656 3024.32 1001.44 3018.1 1008.84 3017.82C1028.46 3017.08 1071.47 3009.27 1071.47 2990.88C1071.47 2967.87 1038.05 2929.07 1016.98 2910.02C1012.36 2905.85 1011.22 2899.06 1014.21 2893.61C1017.2 2888.15 1023.55 2885.47 1029.54 2887.13C1062.47 2896.21 1117.38 2903.55 1130.7 2890.48C1139.72 2881.63 1122.88 2834.78 1095.37 2792.18C1091.35 2785.96 1093.13 2777.65 1099.35 2773.63C1105.58 2769.6 1113.88 2771.38 1117.91 2777.61C1133.04 2801.01 1180.04 2879.68 1149.5 2909.64C1131.9 2926.91 1095.08 2926.17 1065.14 2921.89C1081.52 2941.81 1098.31 2967.85 1098.31 2990.88C1098.31 3040.05 1018.88 3044.32 1009.82 3044.65C1009.65 3044.66 1009.49 3044.66 1009.32 3044.66Z" fill="#132378"/>
<path d="M1211.78 2873.84C1206.94 2873.84 1201.87 2873.15 1196.57 2871.61C1151.69 2858.52 1121.05 2791.17 1117.7 2783.54C1114.73 2776.75 1117.82 2768.84 1124.6 2765.86C1131.37 2762.89 1139.3 2765.97 1142.28 2772.75C1150.01 2790.32 1176.18 2837.7 1204.08 2845.84C1230.17 2853.45 1250.38 2816.34 1253.5 2810.22C1254.66 2805.64 1259.56 2782.84 1247.48 2765.52C1237.76 2751.6 1218.89 2743.68 1191.4 2742C1184.01 2741.55 1178.37 2735.18 1178.83 2727.78C1179.28 2720.39 1185.57 2714.76 1193.04 2715.21C1229.28 2717.43 1255.06 2729.27 1269.67 2750.41C1290.48 2780.54 1279.4 2817.43 1278.92 2818.98C1278.74 2819.55 1278.53 2820.1 1278.28 2820.64C1277.17 2823.05 1253.15 2873.84 1211.78 2873.84Z" fill="#132378"/>
<path d="M1831.47 2264.89C1733.13 2549.64 1750.15 2866.47 1854.12 3147.39C1854.92 3149.55 1853.81 3151.95 1851.65 3152.75C1849.6 3153.5 1847.32 3152.51 1846.42 3150.56C1807.11 3064.17 1778.09 2972.44 1760.63 2878.89C1729.76 2710.02 1734.94 2533.53 1783.28 2368.41C1794.34 2331.86 1806.77 2295.84 1823.9 2261.4C1824.92 2259.34 1827.43 2258.5 1829.49 2259.52C1831.48 2260.52 1832.32 2262.88 1831.47 2264.89Z" fill="#132378"/>
<path d="M1606.51 2357.45C1731.51 2413.2 1867.98 2444.98 2004.98 2445.62C2043.67 2446.29 2082.19 2442.74 2120.76 2439.7C2125.67 2439.33 2127.05 2446.81 2121.93 2447.92C2111.01 2450.27 2100.05 2452.6 2089.05 2454.76C1967.49 2478.14 1839.39 2465.81 1722.99 2424.42C1680.68 2408.98 1639.57 2390.19 1602.18 2364.57C1598.26 2361.73 1601.53 2355.03 1606.51 2357.45Z" fill="#132378"/>
<path d="M1566.36 2792.59C1666.6 2836.03 1773.68 2866.94 1883.02 2873.16C1919.55 2876.13 1956.11 2874.04 1993.11 2872.35C1997.94 2872.1 1999.25 2879.49 1994.2 2880.59C1874.92 2908.38 1746.94 2891.02 1635.62 2841.38C1609.97 2829.42 1585.04 2816.47 1562.03 2799.71C1558.09 2796.81 1561.78 2790.31 1566.36 2792.59Z" fill="#132378"/>
<path d="M1578.4 3193.82C1570.38 3193.82 1563.16 3188.26 1561.37 3180.11C1559.31 3170.7 1565.26 3161.39 1574.67 3159.33L1699.49 3131.94C1708.9 3129.87 1718.21 3135.82 1720.27 3145.24C1722.33 3154.65 1716.38 3163.95 1706.97 3166.02L1582.15 3193.41C1580.9 3193.69 1579.64 3193.82 1578.4 3193.82Z" fill="#132378"/>
<path d="M1939.4 2221.06C1925.01 2221.06 1911.02 2220.6 1897.51 2219.67C1702.92 2206.18 1628.68 2077.95 1625.61 2072.49C1620.89 2064.1 1623.87 2053.46 1632.27 2048.73C1640.66 2044.02 1651.27 2046.98 1656 2055.35C1658.73 2060.13 1724.89 2172.72 1899.92 2184.86C2076.94 2197.09 2353.97 2120.71 2432.57 2007.42C2438.06 1999.51 2448.93 1997.54 2456.85 2003.03C2464.77 2008.53 2466.73 2019.4 2461.24 2027.32C2381.1 2142.82 2127.26 2221.06 1939.4 2221.06Z" fill="#132378"/>
<path d="M1888.22 2104.84C1888.22 2104.84 1309.89 2084.76 1293.18 1679.91C1293.18 1465.77 1336.63 1522.65 1373.41 1208.13C1410.18 893.619 1644.2 659.113 2122.23 679.48C2534.51 697.046 2820.59 1084.34 2788.8 1477.48C2753.44 1914.83 2629.87 2134.95 1888.22 2104.84Z" fill="#B7E925"/>
<g opacity="0.45">
<path d="M1939.83 684.985C1425.34 752.254 1350.06 1113.19 1362.6 1350.54C1363.84 1373.94 1386.96 1114.74 1562.45 936.085C1588.39 954.156 1651.97 942.408 1715.39 905.791C1780.82 868.015 1823.32 816.895 1817.6 785.59C2107.82 684.085 2404.55 720.272 2641.86 963.465C2641.86 963.465 2454.32 617.716 1939.83 684.985Z" fill="white"/>
</g>
<g opacity="0.3">
<path d="M1929.12 2069.94C2105.71 2084.81 2606.67 2087.29 2706.24 1734.97C2825.7 1313.93 2717.03 1077.15 2661.2 990.989C2661.07 990.86 2661 990.785 2661 990.785C2784.99 1430.07 2670.02 1961.8 2052.7 1984.39C1435.38 2006.97 1293.18 1679.91 1293.18 1679.91C1303.13 1760.49 1327.79 1825.28 1362.27 1877.59C1514.13 2056.16 1795.76 2058.71 1929.12 2069.94Z" fill="#132378"/>
</g>
<path d="M1793.64 1715.42C1793.64 1715.42 1821.84 1685.47 1828.74 1608.29C1835.65 1531.1 1955.35 1517.28 1999.09 1626.72C2042.82 1736.16 1988.15 1815.64 1896.36 1816.8C1804.57 1817.95 1755.08 1770.72 1793.64 1715.42Z" fill="#132378"/>
<path d="M1992.25 1733.44L1995.65 1766.95C1995.65 1766.95 1956.09 1824.91 1860.73 1816.82C1765.37 1808.73 1784.38 1732.58 1784.38 1732.58L1810.96 1705.5C1810.96 1705.5 1899.17 1645.61 1992.25 1733.44Z" fill="#FF3E7B"/>
<path d="M2272.79 1591.66C2341.05 1591.66 2396.4 1517.13 2396.4 1425.2C2396.4 1333.27 2341.05 1258.74 2272.79 1258.74C2204.52 1258.74 2149.18 1333.27 2149.18 1425.2C2149.18 1517.13 2204.52 1591.66 2272.79 1591.66Z" fill="#132378"/>
<path d="M2260.96 1433.59C2286.06 1433.59 2306.42 1406.18 2306.42 1372.36C2306.42 1338.55 2286.06 1311.14 2260.96 1311.14C2235.85 1311.14 2215.49 1338.55 2215.49 1372.36C2215.49 1406.18 2235.85 1433.59 2260.96 1433.59Z" fill="white"/>
<path d="M2317.15 1541C2330.69 1530.89 2336.84 1516.23 2330.88 1508.24C2324.93 1500.26 2309.12 1501.98 2295.58 1512.09C2282.04 1522.19 2275.89 1536.86 2281.85 1544.84C2287.8 1552.82 2303.61 1551.1 2317.15 1541Z" fill="#8C8F9B"/>
<path d="M1668.29 1525.37C1734.75 1525.37 1788.63 1452.81 1788.63 1363.31C1788.63 1273.8 1734.75 1201.24 1668.29 1201.24C1601.82 1201.24 1547.94 1273.8 1547.94 1363.31C1547.94 1452.81 1601.82 1525.37 1668.29 1525.37Z" fill="#132378"/>
<path d="M1679.81 1371.47C1704.26 1371.47 1724.07 1344.78 1724.07 1311.86C1724.07 1278.94 1704.26 1252.25 1679.81 1252.25C1655.36 1252.25 1635.54 1278.94 1635.54 1311.86C1635.54 1344.78 1655.36 1371.47 1679.81 1371.47Z" fill="white"/>
<path d="M1659.39 1479.96C1665.19 1472.19 1659.21 1457.91 1646.02 1448.07C1632.84 1438.23 1617.45 1436.55 1611.65 1444.33C1605.85 1452.1 1611.83 1466.38 1625.02 1476.22C1638.2 1486.06 1653.59 1487.73 1659.39 1479.96Z" fill="#8C8F9B"/>
<g opacity="0.45">
<path d="M1784.38 1751.58C1784.38 1751.58 1823.79 1720.9 1898.72 1727.17C1973.65 1733.44 1993.36 1744.39 1993.36 1744.39C1993.36 1744.39 1973.76 1695.17 1908.46 1687.96C1843.16 1680.74 1780 1724.67 1784.38 1751.58Z" fill="white"/>
</g>
<path d="M2018.14 2125.07C1976.75 2125.07 1933.27 2124.13 1887.56 2122.28C1880.81 2122.04 1738.05 2116.36 1590.78 2060.51C1391.83 1985.06 1282.89 1853.69 1275.74 1680.63C1275.73 1680.39 1275.73 1680.15 1275.73 1679.91C1275.73 1567.28 1287.63 1527.43 1304.1 1472.27C1319.37 1421.11 1338.39 1357.43 1356.08 1206.11C1375.79 1037.54 1450.33 898.644 1571.64 804.444C1706.03 700.096 1891.54 652.195 2122.97 662.046C2310.52 670.037 2484.47 754.395 2612.78 899.583C2752.66 1057.87 2823.16 1269.01 2806.19 1478.88C2788.39 1699.13 2748.97 1868.62 2614.49 1979.9C2494.67 2079.05 2308 2125.07 2018.14 2125.07ZM1310.62 1679.54C1317.36 1839.4 1415.52 1956.5 1602.39 2027.59C1744.73 2081.74 1887.41 2087.35 1888.83 2087.4C1888.86 2087.4 1888.9 2087.41 1888.93 2087.41C2240.7 2101.69 2464.19 2058.99 2592.25 1953.02C2717.31 1849.53 2754.32 1687.51 2771.41 1476.07C2787.62 1275.61 2720.27 1073.91 2586.63 922.692C2464.66 784.677 2299.47 704.494 2121.49 696.911C1697.32 678.864 1430.99 865.913 1390.74 1210.16C1372.69 1364.51 1353.2 1429.79 1337.53 1482.25C1321.35 1536.46 1310.65 1572.31 1310.62 1679.54Z" fill="#132378"/>
<path d="M1596.5 1080.34C1626.54 1028.74 1694.09 989.134 1753.8 1012.37C1773.49 1020.2 1789.28 1035.72 1799.04 1053.79C1800.63 1056.65 1799.61 1060.26 1796.75 1061.85C1794.59 1063.05 1792.04 1062.76 1790.2 1061.35C1762.04 1040.3 1731.55 1032.4 1698.84 1042.6C1665.95 1052.22 1635.94 1071.63 1604.96 1088.33C1599.87 1091.58 1593.53 1085.58 1596.5 1080.34Z" fill="#132378"/>
<path d="M2222.29 1096.48C2243.01 1071.64 2274.07 1056.46 2306.66 1055.72C2364.29 1053.95 2406.83 1106.34 2415.1 1159.07C2416.25 1165.07 2408.17 1168.63 2404.55 1163.77C2401.49 1159.83 2398.65 1155.84 2395.94 1151.87C2378.87 1128.49 2356.86 1102.53 2329.24 1094.12C2296.83 1083.84 2261.97 1094.41 2229.43 1105.65C2223.87 1108.2 2218.42 1101.21 2222.29 1096.48Z" fill="#132378"/>
<path d="M1893.11 1834.26C1833.56 1834.26 1787.83 1814.8 1770.39 1781.87C1758.04 1758.56 1761.21 1731.42 1779.33 1705.44C1779.78 1704.8 1780.27 1704.18 1780.8 1703.6C1781.49 1702.81 1805.26 1674.98 1811.37 1606.73C1814.94 1566.76 1843.59 1537.07 1884.35 1531.1C1929.18 1524.53 1987.04 1549.55 2015.29 1620.24C2039.29 1680.29 2037.29 1736.14 2009.67 1777.48C1985.97 1812.95 1944.75 1833.64 1896.58 1834.24C1895.42 1834.26 1894.26 1834.26 1893.11 1834.26ZM1807.39 1726.21C1797.32 1741.02 1795.24 1754.25 1801.22 1765.53C1812.41 1786.66 1849.68 1799.88 1896.14 1799.35C1933.17 1798.89 1963.18 1784.23 1980.65 1758.09C2001.69 1726.6 2002.49 1682.24 1982.89 1633.19C1960.24 1576.53 1918.35 1561.39 1889.41 1565.63C1870.14 1568.45 1848.65 1581.55 1846.12 1609.84C1839.39 1685.09 1813.6 1719.03 1807.39 1726.21Z" fill="#132378"/>
<path d="M2003.82 1769.45C1997.62 1769.45 1991.62 1766.14 1988.46 1760.3C1971.54 1729.06 1948.97 1709.76 1921.38 1702.96C1865.12 1689.09 1803.99 1729.49 1803.38 1729.89C1795.39 1735.25 1784.55 1733.14 1779.18 1725.16C1773.8 1717.17 1775.89 1706.35 1783.87 1700.97C1786.87 1698.94 1858.12 1651.55 1929.52 1669.02C1967.16 1678.24 1997.31 1703.36 2019.15 1743.69C2023.73 1752.16 2020.58 1762.75 2012.11 1767.34C2009.47 1768.77 2006.62 1769.45 2003.82 1769.45Z" fill="#132378"/>
<path d="M2532.84 2477.91C2532.84 2477.91 2434.32 2541.48 2272.79 2441.1C2111.25 2340.73 2041.66 2208.2 2085.17 2093.49C2128.67 1978.78 2244.77 1934.54 2357.86 1936.04C2470.94 1937.54 2513.4 2058.94 2523.12 2102.8C2523.12 2102.8 2705.15 2267.12 2532.84 2477.91Z" fill="#B7E925"/>
<g opacity="0.3">
<path d="M2119.25 2202.93C2119.25 2202.93 2277.63 2353.27 2398.54 2368.33C2519.45 2383.39 2523.12 2141.81 2523.12 2141.81L2561.25 2149.12C2561.25 2149.12 2646.04 2306.65 2561.25 2435.55L2520.71 2483.96C2520.71 2483.96 2431.4 2542.74 2272.79 2441.1C2114.18 2339.47 2085.17 2234.37 2085.17 2234.37C2085.17 2234.37 2083.89 2197.93 2090.88 2200.86C2097.87 2203.8 2119.25 2202.93 2119.25 2202.93Z" fill="#132378"/>
</g>
<g opacity="0.45">
<path d="M2401.6 1991.67C2401.6 1991.67 2481.81 2055.37 2520.71 2149.12C2520.71 2149.12 2523.53 2070 2495.14 2028.93C2466.76 1987.86 2428.35 1955.58 2428.35 1955.58L2410.97 1966.6L2401.6 1991.67Z" fill="white"/>
</g>
<path d="M2097.87 2203.8C2097.87 2203.8 2164.37 2210.86 2164.37 2186.4C2164.37 2161.93 2102.06 2093.49 2102.06 2093.49L2085.32 2110.5C2085.32 2110.5 2075.57 2157.54 2076.68 2173.85C2077.79 2190.16 2089.7 2203.18 2097.87 2203.8Z" fill="white"/>
<path d="M2145.52 2036.41C2145.52 2036.41 2215.19 2090.57 2236.52 2079.83C2257.85 2069.08 2240.34 1969.82 2240.34 1969.82H2220.83C2220.83 1969.82 2179.81 1981 2164.37 1991.67C2148.93 2002.34 2136.9 2029.99 2145.52 2036.41Z" fill="white"/>
<path d="M2297.38 1966.6C2297.38 1966.6 2321.72 2043.92 2355.66 2041.76C2389.59 2039.59 2410.97 1966.6 2410.97 1966.6C2410.97 1966.6 2404.42 1944.21 2401.23 1943.18C2398.05 1942.15 2355.74 1932.32 2326.86 1936C2297.97 1939.68 2288.6 1952.59 2297.38 1966.6Z" fill="white"/>
<path d="M2446.71 2515.35C2400.15 2515.35 2338.06 2502.2 2263.58 2455.92C2096.59 2352.16 2021.97 2210.91 2068.85 2087.3C2109.63 1979.8 2217.87 1916.84 2358.09 1918.59C2487.63 1920.32 2530.58 2060.67 2538.9 2093.78C2551.2 2106.03 2587.87 2145.94 2609.03 2205.46C2632.41 2271.21 2640.5 2373.77 2546.35 2488.95C2545.19 2490.36 2543.83 2491.58 2542.3 2492.57C2539.84 2494.16 2505.79 2515.35 2446.71 2515.35ZM2352.09 1953.45C2229.76 1953.45 2136.31 2007.85 2101.48 2099.67C2060.88 2206.72 2130.05 2331.87 2282 2426.29C2420.09 2512.09 2506.42 2472.56 2521.3 2464.44C2587.03 2382.86 2605.49 2299.66 2576.16 2217.15C2553.92 2154.6 2511.85 2116.13 2511.43 2115.75C2508.74 2113.32 2506.87 2110.12 2506.08 2106.58C2502.65 2091.06 2469.28 1954.97 2357.63 1953.49C2355.78 1953.46 2353.93 1953.45 2352.09 1953.45Z" fill="#132378"/>
<path d="M2540.34 2099.99C2546.53 2133.88 2549.58 2167.76 2550.98 2202.07C2551.08 2236.72 2555.56 2271.78 2540.98 2304.85C2540.44 2306.08 2538.51 2306.03 2538.08 2304.73C2531.53 2287.65 2528.87 2271.25 2527.04 2254.61C2523.57 2225.81 2517.23 2184.31 2512.91 2155.19C2510.4 2138.61 2507.98 2121.84 2505.87 2105.43C2503.63 2083.11 2535.56 2078.07 2540.34 2099.99Z" fill="#132378"/>
<path d="M2076.67 2221.24C2067.22 2221.24 2059.46 2213.69 2059.24 2204.2C2059.02 2194.56 2066.65 2186.58 2076.28 2186.35C2102.02 2185.75 2129.02 2182.55 2141.72 2178.91C2132.71 2161.32 2103.75 2122.37 2077.51 2091.03C2071.32 2083.64 2072.29 2072.64 2079.68 2066.45C2087.07 2060.26 2098.07 2061.24 2104.26 2068.62C2187.94 2168.55 2181.18 2184.79 2177.55 2193.52C2174.63 2200.54 2166.86 2219.18 2077.08 2221.24C2076.95 2221.24 2076.81 2221.24 2076.67 2221.24Z" fill="#132378"/>
<path d="M2230.15 2102.7C2186.97 2102.7 2128.31 2045.01 2116.94 2033.4C2110.2 2026.51 2110.32 2015.47 2117.2 2008.73C2124.08 2001.99 2135.14 2002.11 2141.87 2008.98C2165.34 2032.92 2207.08 2066.26 2228.62 2067.75C2235.24 2056.08 2231.33 2005.23 2219.91 1957.88C2217.65 1948.51 2223.41 1939.09 2232.77 1936.83C2242.15 1934.56 2251.56 1940.33 2253.83 1949.69C2259.99 1975.21 2278.33 2060.78 2255.39 2090.3C2249.28 2098.17 2240.53 2102.57 2230.77 2102.7C2230.57 2102.7 2230.35 2102.7 2230.15 2102.7Z" fill="#132378"/>
<path d="M2357.91 2059.41C2315.91 2059.41 2283.11 1981.79 2270.63 1947.32C2267.35 1938.27 2272.03 1928.27 2281.09 1924.98C2290.15 1921.69 2300.15 1926.38 2303.44 1935.43C2321.41 1984.94 2347.76 2024.52 2357.74 2024.52C2357.78 2024.52 2357.81 2024.52 2357.85 2024.52C2371.61 2022.36 2390.52 1980.91 2398.86 1945.06C2401.04 1935.68 2410.41 1929.84 2419.8 1932.01C2429.18 1934.19 2435.02 1943.56 2432.85 1952.94C2429.03 1969.43 2407.74 2052.02 2363.23 2058.99C2361.44 2059.27 2359.67 2059.41 2357.91 2059.41Z" fill="#132378"/>
<path d="M1501.36 2417.36C1501.36 2417.36 1276.03 2377.11 1253.44 2191.42C1230.86 2005.72 1342.53 1842.6 1469.25 1804.96C1595.98 1767.32 1776.66 1936.87 1730.23 2079.83C1683.81 2222.79 1550.39 2270.62 1550.39 2270.62C1550.39 2270.62 1522.17 2333.4 1501.36 2417.36Z" fill="#B7E925"/>
<g opacity="0.45">
<path d="M1266.08 2028.93C1266.08 2028.93 1347.09 1894.08 1457.96 1860.59L1448.76 1842.44L1417.05 1822.56C1417.05 1822.56 1285.82 1889.45 1266.08 2028.93Z" fill="white"/>
</g>
<g opacity="0.3">
<path d="M1656.69 2097.58C1656.69 2097.58 1580.92 2199.25 1426.59 2204.74C1272.26 2210.24 1272.44 2050.19 1278 1998.47C1278 1998.47 1234.28 2082.69 1255.15 2202.93C1276.03 2323.16 1417.05 2389.73 1417.05 2389.73L1501.36 2417.36L1529.6 2321.34C1529.6 2321.34 1535.53 2281.08 1567.47 2263.14C1599.42 2245.21 1654.92 2212.49 1697.31 2149.12C1705.77 2126.8 1698.28 2113.11 1698.28 2113.11L1656.69 2097.58Z" fill="#132378"/>
</g>
<path d="M1581.91 1816.82C1581.91 1816.82 1490.58 1891.54 1464.23 1880.59C1437.89 1869.63 1447.75 1812.63 1447.75 1812.63C1447.75 1812.63 1491.31 1770.95 1581.91 1816.82Z" fill="white"/>
<path d="M1626.57 1842.44C1626.57 1842.44 1552.06 1911.61 1568.38 1944.24C1584.69 1976.86 1710.54 1935.18 1710.54 1935.18" fill="white"/>
<path d="M1715.16 2117.38C1715.16 2117.38 1618.57 2097.31 1623.58 2058.86C1628.59 2020.41 1732.03 1988.49 1732.03 1988.49C1732.03 1988.49 1754.78 2056.07 1715.16 2117.38Z" fill="white"/>
<path d="M1501.38 2434.81C1500.36 2434.81 1499.33 2434.72 1498.29 2434.54C1495.88 2434.11 1438.35 2423.56 1377.32 2389.23C1294.88 2342.86 1246.06 2275.19 1236.12 2193.52C1211.65 1992.32 1335.5 1826.49 1464.29 1788.24C1530.46 1768.58 1614.81 1798.51 1679.14 1864.49C1743.63 1930.63 1769.57 2015.21 1746.83 2085.21C1704.11 2216.76 1593.36 2271.53 1563.57 2284.15C1556.07 2301.97 1534.72 2355.31 1518.3 2421.56C1516.34 2429.46 1509.25 2434.81 1501.38 2434.81ZM1507.3 1817.07C1495.79 1817.07 1484.7 1818.58 1474.22 1821.69C1359.03 1855.9 1248.49 2006.18 1270.76 2189.31C1288.14 2332.21 1439.08 2383.44 1488.71 2396.51C1508.99 2320.54 1533.38 2265.91 1534.48 2263.47C1536.42 2259.14 1540.04 2255.8 1544.51 2254.2C1545.73 2253.75 1670.55 2207.12 1713.64 2074.44C1736.02 2005.54 1697.58 1933.39 1654.15 1888.85C1609.52 1843.07 1554.99 1817.07 1507.3 1817.07Z" fill="#132378"/>
<path d="M1559.37 2285.59C1544.17 2295.09 1527.48 2300.42 1510.32 2304.76C1492.48 2307.98 1476.77 2314.72 1458.34 2306.19C1457.31 2305.7 1456.94 2304.4 1457.55 2303.44C1463.01 2295.07 1469.85 2290.29 1478.12 2286.36C1488.88 2281.06 1510.56 2270.47 1521.36 2265.29C1526.83 2262.62 1536.94 2257.74 1542.44 2255.18C1562.15 2246.26 1577.25 2273.64 1559.37 2285.59Z" fill="#132378"/>
<path d="M1469.46 1898.85C1465.09 1898.85 1461.09 1898.17 1457.54 1896.7C1420.21 1881.18 1428.51 1821.46 1430.56 1809.65C1432.2 1800.16 1441.23 1793.81 1450.72 1795.43C1460.21 1797.08 1466.58 1806.09 1464.95 1815.58C1461.68 1834.81 1463.46 1860.34 1470.49 1864.26C1483.17 1865.24 1529.64 1837.02 1570.87 1803.31C1578.32 1797.22 1589.32 1798.31 1595.42 1805.77C1601.52 1813.23 1600.42 1824.22 1592.96 1830.32C1560.04 1857.26 1503.65 1898.85 1469.46 1898.85Z" fill="#132378"/>
<path d="M1603.3 1974.2C1581.28 1974.2 1561.29 1969.08 1552.77 1952.04C1532.21 1910.92 1594.98 1847.97 1614.7 1829.65C1621.76 1823.1 1632.8 1823.51 1639.35 1830.57C1645.91 1837.62 1645.5 1848.66 1638.45 1855.22C1605.4 1885.96 1579.11 1924.98 1583.84 1936.13C1593.52 1944.56 1652.1 1936.13 1705.06 1918.62C1714.21 1915.6 1724.07 1920.56 1727.1 1929.7C1730.13 1938.85 1725.17 1948.72 1716.02 1951.74C1714.69 1952.19 1683.06 1962.6 1648.82 1969.09C1634.77 1971.75 1618.55 1974.2 1603.3 1974.2Z" fill="#132378"/>
<path d="M1715.17 2134.83C1713.99 2134.83 1712.8 2134.71 1711.6 2134.46C1692.83 2130.56 1599.51 2108.48 1606.27 2056.6C1612.27 2010.61 1700.11 1980.08 1726.88 1971.82C1736.09 1968.98 1745.85 1974.14 1748.7 1983.34C1751.54 1992.55 1746.38 2002.31 1737.18 2005.16C1693.31 2018.73 1642.97 2045.05 1640.88 2061.12C1639.41 2072.38 1677.96 2091.78 1718.71 2100.3C1728.14 2102.27 1734.19 2111.51 1732.23 2120.93C1730.52 2129.17 1723.26 2134.83 1715.17 2134.83Z" fill="#132378"/>
<path d="M2372.75 1770.54C2374.43 1744.27 2336.03 1720.42 2286.97 1717.28C2237.92 1714.14 2196.79 1732.89 2195.1 1759.16C2193.42 1785.43 2231.83 1809.27 2280.88 1812.41C2329.94 1815.56 2371.07 1796.81 2372.75 1770.54Z" fill="#FF7895"/>
<path d="M1639.28 1665.44C1640.96 1639.17 1602.56 1615.32 1553.5 1612.18C1504.45 1609.04 1463.31 1627.79 1461.63 1654.06C1459.95 1680.33 1498.35 1704.18 1547.41 1707.32C1596.46 1710.46 1637.6 1691.71 1639.28 1665.44Z" fill="#FF7895"/>
</g>
<defs>
<clipPath id="clip0_7_612">
<rect width="4000" height="4000" fill="white"/>
</clipPath>
</defs>
</svg>
