<svg width="4000" height="4000" viewBox="0 0 4000 4000" fill="none" xmlns="http://www.w3.org/2000/svg">
<g clip-path="url(#clip0_7_428)">
<path d="M2641.93 1927.75C2641.93 1927.75 2869.24 2059.48 2959.16 2171.56C3049.09 2283.65 3194.89 2596.17 2992.1 2963.22C2789.31 3330.27 2256.82 3227.42 2256.82 3227.42C2256.82 3227.42 2129.86 3340.26 1855.09 3252.84C1580.32 3165.41 1530.36 2732.48 1720.2 2234.54C1910.04 1736.61 2514.54 1866.6 2641.93 1927.75Z" fill="#19B5FF"/>
<g opacity="0.4">
<path d="M2442.19 1927.75C2442.19 1927.75 2568.66 1943.1 2617.78 1968.91C2666.91 1994.72 2930.85 2155.42 2930.85 2155.42C2930.85 2155.42 2875.38 2085.73 2734.87 1986.03C2594.36 1886.32 2422.15 1872.9 2422.15 1872.9L2407.13 1887.31L2442.19 1927.75Z" fill="white"/>
</g>
<g opacity="0.4">
<path d="M2720.2 2288.8L2829.71 2323.62L2880.9 2512.3C2880.9 2512.3 2882.42 2312.77 2880.9 2307.8C2879.37 2302.82 2865.08 2279.49 2865.08 2279.49L2714.9 2238.91L2705.21 2248.68L2720.2 2288.8Z" fill="white"/>
</g>
<g opacity="0.4">
<path d="M2905.04 2283.65C2909.15 2287.49 2970.5 2260.25 2970.5 2260.25C2970.5 2260.25 3088.16 2492.01 3089.02 2673.42C3089.02 2673.42 3095.97 2553.83 3077.53 2430.81C3059.08 2307.8 2981.92 2202.7 2981.92 2202.7L2959.13 2199.53C2959.13 2199.53 2892.55 2271.99 2905.04 2283.65Z" fill="white"/>
</g>
<g opacity="0.4">
<path d="M2778.48 2922.09L2903.48 2868.99L2996.89 2933.1C2996.89 2933.1 3001.56 2913.12 2995.76 2901.05C2989.97 2888.98 2915.22 2811.88 2915.22 2811.88L2901.67 2809.01C2901.67 2809.01 2769.32 2906.09 2778.48 2922.09Z" fill="white"/>
</g>
<path d="M2546.61 2022.9C2546.61 2022.9 2763.38 2219.62 2761.35 2592.6C2759.33 2965.58 2572.86 3135.83 2516.25 3187.93C2459.63 3240.04 2363.47 3239.05 2363.47 3239.05L2256.82 3227.42C2256.82 3227.42 2193.55 3297.87 2006.21 3284.09C1818.87 3270.32 1721.75 3211.56 1661.65 3073.58C1601.55 2935.6 1590.76 2794.81 1633.62 2529.86C1676.49 2264.91 1763.93 2072.58 1921.29 1971.41C2078.65 1870.25 2333.44 1865.84 2333.44 1865.84L2372.99 1879.43C2372.99 1879.43 2496.26 1963.24 2546.61 2022.9Z" fill="#86DAFE"/>
<g opacity="0.3">
<path d="M2573.22 2050.99C2573.22 2050.99 2674.4 2146.63 2784.31 2186.41C2894.22 2226.2 2946.36 2167.4 2946.36 2167.4C2946.36 2167.4 2965.45 2192.24 2963.5 2194.49C2961.55 2196.74 2878.83 2291.56 2870.04 2288.74C2861.26 2285.92 2711.85 2237.93 2711.85 2237.93L2683.44 2219.19C2683.44 2219.19 2646.79 2152.75 2639.97 2142.29C2633.14 2131.84 2573.22 2050.99 2573.22 2050.99Z" fill="#132378"/>
</g>
<g opacity="0.3">
<path d="M2756.01 2684.23C2756.01 2684.23 2821.7 2660.83 2841.72 2628.36C2861.75 2595.89 2886.41 2489.91 2886.41 2489.91V2308.63C2886.41 2308.63 2885.96 2283.93 2887.85 2281.74C2889.75 2279.55 2906.48 2260.25 2906.48 2260.25C2906.48 2260.25 2947.51 2556.75 2974.98 2628.36C3002.46 2699.97 3056.24 2714.4 3092.63 2636.82C3092.63 2636.82 3098.53 2692.33 3072.98 2759.85C3047.42 2827.36 3023.08 2901.82 3023.08 2901.82C3023.08 2901.82 3005.59 2912.72 3001.75 2908.15C2997.91 2903.59 2928.01 2812.48 2921.11 2812.43C2914.2 2812.37 2901.67 2809.01 2901.67 2809.01L2775.15 2909.27C2775.15 2909.27 2761.83 3038.02 2796.8 3034.69C2831.77 3031.36 3001.4 2945.96 3001.4 2945.96C3001.4 2945.96 2970.98 3073.95 2825.61 3139.56C2680.24 3205.17 2552.87 3241.56 2511.2 3240.61C2469.54 3239.65 2484.68 3208.44 2484.68 3208.44C2484.68 3208.44 2570.67 3163.36 2659.17 3010.76C2747.67 2858.17 2756.01 2684.23 2756.01 2684.23Z" fill="#132378"/>
</g>
<g opacity="0.3">
<path d="M2267.97 1870.1C2267.97 1870.1 2573.22 2006.38 2676.55 2387.5C2783.96 2783.68 2569.6 3165.41 2363.47 3220.36L2256.82 3227.42C2256.82 3227.42 2052.91 3277.82 1887.81 3207.87C1722.7 3137.93 1562.19 2981.48 1623.71 2621.32C1685.23 2261.17 1752.16 2076.32 1942.26 1971.41C2132.36 1866.5 2267.97 1870.1 2267.97 1870.1Z" fill="#132378"/>
</g>
<path d="M2051.8 3303.73C1995.87 3303.73 1928.7 3294.62 1849.78 3269.51C1761.08 3241.29 1693.26 3179.58 1648.19 3086.11C1553.3 2889.29 1574.11 2568.62 1703.85 2228.31C1764.42 2069.44 1871.39 1958.46 2021.77 1898.48C2156.94 1844.57 2300.01 1843.76 2396.23 1852.57C2506.8 1862.7 2603.1 1889.7 2649.5 1911.97C2649.91 1912.17 2650.31 1912.38 2650.7 1912.61C2660.1 1918.06 2881.88 2047.28 2972.81 2160.61C3078.98 2292.95 3205.75 2612.7 3007.42 2971.68C2921.69 3126.85 2763.73 3223.2 2550.62 3250.33C2411.37 3268.05 2292.95 3251.27 2261.49 3246.02C2240.41 3261.57 2172.14 3303.73 2051.8 3303.73ZM2304.35 1883.38C2216.77 1883.38 2122.7 1895.91 2034.74 1930.99C1893.82 1987.2 1793.5 2091.43 1736.56 2240.78C1610.18 2572.26 1588.92 2882.59 1679.72 3070.91C1720.44 3155.37 1781.23 3210.97 1860.4 3236.16C2122.62 3319.6 2243.99 3215.4 2245.19 3214.34C2249.26 3210.73 2254.77 3209.2 2260.13 3210.24C2261.44 3210.49 2393.12 3235.25 2547.13 3215.49C2751.1 3189.31 2895.66 3101.59 2976.78 2954.76C3166.16 2611.98 3046.24 2308.06 2945.52 2182.51C2860.86 2077 2646.51 1950.7 2633.74 1943.23C2584.91 1920.02 2454.12 1883.38 2304.35 1883.38Z" fill="#132378"/>
<path d="M2410 3258.11C2402.44 3258.11 2395.46 3253.17 2393.22 3245.54C2390.5 3236.27 2395.81 3226.54 2405.08 3223.82C2500.77 3195.7 2583.36 3121.34 2643.9 3008.78C2746.42 2818.2 2773.66 2540.62 2710.13 2333.75C2616.11 2027.61 2344.29 1882.79 2341.55 1881.36C2332.99 1876.89 2329.66 1866.32 2334.12 1857.76C2338.58 1849.19 2349.14 1845.85 2357.71 1850.31C2369.4 1856.4 2645.15 2002.92 2743.59 2323.47C2809.64 2538.57 2781.32 2827.2 2674.73 3025.36C2609.65 3146.34 2519.82 3226.58 2414.95 3257.39C2413.3 3257.88 2411.64 3258.11 2410 3258.11Z" fill="#132378"/>
<path d="M2879.23 2309.19C2877.45 2309.19 2875.64 2308.91 2873.88 2308.35L2683.56 2247.23C2674.36 2244.27 2669.3 2234.42 2672.25 2225.22C2675.2 2216.01 2685.05 2210.95 2694.27 2213.91L2873.58 2271.49L2957.28 2174.95C2963.62 2167.65 2974.66 2166.85 2981.97 2173.19C2989.27 2179.52 2990.06 2190.57 2983.73 2197.87L2892.46 2303.15C2889.08 2307.05 2884.22 2309.19 2879.23 2309.19Z" fill="#132378"/>
<path d="M3013.5 2939.59C3008.52 2939.59 3003.57 2937.48 3000.11 2933.37L2898.32 2812.54C2896.08 2809.88 2894.68 2806.62 2894.3 2803.16C2863.63 2520.57 2861.75 2294.07 2861.73 2291.81C2861.67 2282.14 2869.45 2274.26 2879.11 2274.19C2879.15 2274.19 2879.19 2274.19 2879.24 2274.19C2888.84 2274.19 2896.66 2281.95 2896.73 2291.57C2896.75 2293.79 2898.6 2515.83 2928.53 2794.08L3026.88 2910.82C3033.1 2918.21 3032.16 2929.25 3024.77 2935.48C3021.49 2938.24 3017.48 2939.59 3013.5 2939.59Z" fill="#132378"/>
<path d="M2676.56 3000.28C2671.32 3000.28 2666.14 2997.94 2662.7 2993.48C2656.79 2985.82 2658.2 2974.84 2665.85 2968.93L2901.01 2787.42C2908.66 2781.5 2919.65 2782.93 2925.56 2790.57C2931.46 2798.23 2930.05 2809.22 2922.4 2815.12L2687.24 2996.63C2684.06 2999.09 2680.29 3000.28 2676.56 3000.28Z" fill="#132378"/>
<path d="M2441.21 2122.78L2522.86 2236.19C2522.86 2236.19 2780.98 2389.39 2940.85 2537.6C3100.71 2685.81 3012.45 2859 2909.21 2885.65C2805.96 2912.29 2704.38 2840.68 2592.8 2717.45C2592.8 2717.45 2572.82 2827.36 2526.19 2943.93C2526.19 2943.93 2617.78 3435.18 2609.46 3476.82C2601.13 3518.45 2514.54 3546.76 2379.65 3548.42C2244.76 3550.09 2148.18 3530.11 2136.52 3486.81C2124.86 3443.51 2118.2 3192.05 2118.2 3192.05C2118.2 3192.05 1993.31 3203.71 1901.72 3183.73C1901.72 3183.73 1878.4 3276.98 1868.41 3365.24C1858.42 3453.5 1863.42 3510.12 1761.83 3523.45C1660.25 3536.77 1473.74 3530.11 1442.1 3486.81C1410.46 3443.51 1464.17 3111.29 1539.1 2943.1C1539.1 2943.1 1390.42 2836.68 1430.36 2503.21C1430.36 2503.21 1252.26 2482.65 1087.4 2347.76C1087.4 2347.76 920.873 2297.81 967.501 2086.32C1007.47 1938.11 1134.03 1946.43 1174 1971.41C1174 1971.41 1218.96 1898.14 1272.25 1941.44C1325.54 1984.73 1357.64 2094.1 1540.82 2147.39C1540.82 2147.39 1576.99 2077.99 1728.53 2024.7C1880.07 1971.41 2329.58 1972.73 2441.21 2122.78Z" fill="#B7E925"/>
<path d="M1647.11 2144.75C1647.11 2144.75 1519.46 2383.6 1509.65 2717.45C1499.83 3051.3 1731.69 3185.37 1990.72 3192.87C2249.76 3200.38 2447.06 3081.57 2490.79 3002.01C2534.52 2922.46 2588.59 2738.14 2588.59 2738.14L2584.24 2708.62C2584.24 2708.62 2458.69 2594.8 2444.77 2462.95C2430.86 2331.11 2502.75 2255.8 2502.75 2255.8L2516.25 2227L2427.66 2107.01L2396.11 2094.51C2396.11 2094.51 2344.27 2220.28 2090.31 2265.08C1836.36 2309.88 1710.98 2157.4 1710.98 2157.4L1681.94 2117.61C1681.94 2117.61 1651.46 2129.49 1647.11 2144.75Z" fill="#FED650"/>
<g opacity="0.4">
<path d="M1121.57 1990.6L1166.29 2002.01L1175.27 2018.87C1175.27 2018.87 1208.76 1977.03 1228.74 1971.41C1248.72 1965.79 1289.31 2072.1 1289.31 2072.1L1293.68 2053.84C1293.68 2053.84 1344.32 2112.54 1460.44 2160.63C1576.57 2208.71 1635.42 2200.59 1636.28 2197.47C1637.14 2194.35 1616.7 2163.3 1616.7 2163.3C1616.7 2163.3 1499.76 2137.34 1412.96 2085.6C1326.16 2033.86 1288.89 1953.94 1267.24 1937.69C1245.6 1921.45 1223.8 1923.61 1206.79 1937.69C1189.78 1951.78 1183.15 1964.54 1183.15 1964.54H1168.79L1135.99 1958.71C1135.99 1958.71 1119.93 1956.72 1121.57 1990.6Z" fill="white"/>
</g>
<g opacity="0.4">
<path d="M1526.2 2827.57C1526.2 2827.57 1559.33 2432.51 1677.74 2230.57C1685.88 2216.8 1794.4 2323.62 1994.79 2316.12C2252.96 2306.47 2372.99 2144.75 2372.99 2144.75C2372.99 2144.75 2184.81 2291.11 1974.16 2271.14C1763.5 2251.18 1699.59 2140.64 1699.59 2140.64L1677.74 2115.67L1659.3 2120.53C1659.3 2120.53 1601.57 2217.97 1550.36 2409.42C1499.14 2600.88 1507.05 2789.48 1526.2 2827.57Z" fill="white"/>
</g>
<g opacity="0.4">
<path d="M2501.22 2271.03C2501.22 2271.03 2681.06 2388.56 2814.29 2481.82C2947.51 2575.07 2991.64 2620.87 2991.64 2620.87C2991.64 2620.87 2997.3 2596.29 2969.07 2566.95C2940.85 2537.6 2760.19 2392.7 2760.19 2392.7C2760.19 2392.7 2559.85 2258.8 2556.1 2256.47C2552.35 2254.15 2517.62 2240.75 2517.62 2240.75L2501.22 2271.03Z" fill="white"/>
</g>
<path d="M2867.11 2885.65C2867.11 2885.65 2832.19 2811.54 2844.26 2797.8C2856.33 2784.06 2962.91 2845.68 2959.58 2834.44C2956.25 2823.2 2907.96 2749.09 2920.45 2735.77C2932.94 2722.45 3000.43 2743.21 3002.88 2733.69C3005.32 2724.17 2944.37 2670.93 2953.64 2645.9C2962.91 2620.87 2999.37 2621.32 2999.37 2621.32C2999.37 2621.32 3054.16 2699.98 3010.41 2795.52C2966.66 2891.06 2867.11 2885.65 2867.11 2885.65Z" fill="white"/>
<path d="M2202.37 3512.23C2202.37 3512.23 2242.26 3432.69 2273.07 3433.52C2303.88 3434.35 2314.94 3536.41 2314.94 3536.41H2339.68H2356.34C2356.34 3536.41 2384.56 3432.69 2409.16 3433.52C2433.77 3434.35 2484.29 3526.3 2484.29 3526.3V3514.28C2484.29 3514.28 2495.39 3413.54 2526.2 3411.87C2557 3410.21 2596.21 3490.78 2596.21 3490.78L2579.5 3511.61C2579.5 3511.61 2543.06 3544.37 2408.07 3547.65C2273.07 3550.92 2196.61 3534.32 2202.37 3512.23Z" fill="white"/>
<path d="M1441.56 3468.91C1441.56 3468.91 1465.42 3401.88 1490.4 3411.87C1515.37 3421.86 1514.1 3493.18 1521.81 3494.57C1529.53 3495.96 1537.49 3494.57 1537.49 3494.57C1537.49 3494.57 1579.49 3398.68 1611.96 3410.69C1644.43 3422.69 1641.28 3500.38 1654.82 3503.76C1668.36 3507.14 1668.18 3507.54 1669.67 3503.76C1671.15 3499.98 1702.72 3405.51 1732.69 3408.27C1762.67 3411.04 1789.21 3499.66 1789.21 3499.66L1775.53 3521.24C1775.53 3521.24 1696.83 3543.29 1592.76 3527.62C1488.68 3511.96 1446.01 3495.98 1441.56 3468.91Z" fill="white"/>
<path d="M1022.37 2281.33C1022.37 2281.33 1071.55 2256.91 1060.53 2225.63C1049.51 2194.35 981.644 2177.4 973.329 2177.74C965.014 2178.07 961.701 2198.1 961.701 2198.1C961.701 2198.1 977.12 2298.99 1022.37 2281.33Z" fill="white"/>
<path d="M989.565 2121.29C989.565 2121.29 1040.15 2124.41 1046.39 2101.3C1052.64 2078.2 1009 2036.99 1006.06 2033.96C1003.12 2030.94 984.553 2041.04 984.553 2041.04L965.878 2094.07C965.878 2094.07 978.947 2121.23 989.565 2121.29Z" fill="white"/>
<path d="M1037.16 1997.79C1037.16 1997.79 1072.7 2030.77 1100.14 2023.57C1127.57 2016.37 1122.91 1968.94 1122.69 1966.42C1122.48 1963.89 1111.96 1955.17 1110.09 1954.55C1108.22 1953.93 1029.17 1964.83 1037.16 1997.79Z" fill="white"/>
<path d="M1616.7 2163.3L1550.39 2149.4C1550.39 2149.4 1550.32 2133.87 1550.39 2133.79C1550.46 2133.7 1583.18 2096.88 1636.29 2065.78C1689.4 2034.69 1697.07 2053.31 1697.07 2053.31L1653.43 2132.03L1636.29 2157.4L1616.7 2163.3Z" fill="#7FDBFE"/>
<path d="M1426.54 2541.09C1426.54 2541.09 1407.96 2627.82 1437.52 2751.32C1467.08 2874.82 1517.87 2913.12 1517.87 2913.12L1526.2 2901.47C1526.2 2901.47 1508.86 2776.57 1509.62 2677.49C1510.38 2578.4 1525.36 2534.27 1525.36 2534.27C1525.36 2534.27 1502.05 2514.23 1498.72 2514.26C1495.39 2514.29 1444.6 2508.74 1444.6 2508.74L1428.47 2520.17L1426.54 2541.09Z" fill="#7FDBFE"/>
<g opacity="0.3">
<path d="M968.372 2222.83C968.372 2222.83 991.23 2235.98 1019.96 2235.77C1048.68 2235.56 1061.06 2223.7 1061.06 2223.7L1044.1 2198.3C1044.1 2198.3 1103.22 2224.53 1188.15 2198.3C1273.08 2172.08 1299.12 2077.42 1299.12 2077.42C1299.12 2077.42 1307.09 2182.08 1237.51 2253.59C1237.51 2253.59 1253.93 2325.28 1344.68 2381.9C1435.44 2438.52 1557.84 2422.7 1557.84 2422.7C1557.84 2422.7 1541.19 2476.82 1537.86 2481.82C1534.53 2486.81 1509.35 2505.96 1509.35 2505.96C1509.35 2505.96 1354.68 2502.63 1233.94 2446.01C1113.21 2389.39 1093.3 2351.92 1038.73 2321.95C984.154 2291.97 968.372 2222.83 968.372 2222.83Z" fill="#132378"/>
</g>
<g opacity="0.3">
<path d="M1473.49 2508.73C1473.49 2508.73 1439 2719.82 1482.18 2872.26L1517.87 2913.12L1534.53 2894.8C1534.53 2894.8 1512.58 2810.51 1509.82 2704.03C1507.05 2597.55 1526.2 2528.8 1526.2 2528.8L1503.81 2517.04L1473.49 2508.73Z" fill="#132378"/>
</g>
<g opacity="0.3">
<path d="M1446.68 3468.91C1446.68 3468.91 1469.79 3476.3 1483.53 3470.73C1497.27 3465.16 1500.39 3429.56 1500.39 3429.56C1500.39 3429.56 1515.96 3457.13 1519.43 3479.8C1522.9 3502.46 1514.34 3513 1511.99 3512.4C1509.64 3511.8 1480.99 3500.96 1461.55 3493.88C1442.1 3486.81 1446.68 3481.33 1446.68 3468.91Z" fill="#132378"/>
</g>
<g opacity="0.3">
<path d="M1544.1 3495.13C1544.1 3495.13 1594.06 3493.26 1610.29 3478.9C1626.53 3464.53 1622.16 3425.19 1622.16 3425.19C1622.16 3425.19 1637.57 3456.24 1644.4 3478.46C1651.24 3500.68 1649.01 3518.24 1649.01 3518.24C1649.01 3518.24 1634.65 3525.11 1632.15 3525.11C1629.65 3525.11 1606.39 3530.79 1569.48 3523.94C1532.58 3517.09 1540.35 3507 1544.1 3495.13Z" fill="#132378"/>
</g>
<g opacity="0.3">
<path d="M1680.24 3507C1680.24 3507 1723.33 3500.75 1738.94 3482.02C1754.55 3463.29 1751.33 3419.59 1751.33 3419.59C1751.33 3419.59 1774.32 3452.41 1783.35 3481.59C1792.38 3510.77 1785.64 3519.08 1783.35 3519.61C1781.06 3520.13 1730.19 3526.98 1703.97 3523.23C1677.74 3519.49 1680.24 3507 1680.24 3507Z" fill="#132378"/>
</g>
<g opacity="0.3">
<path d="M1480.4 3408.25C1480.4 3408.25 1608.29 3407.08 1680.17 3354.63C1752.05 3302.17 1756.42 3216.62 1756.42 3216.62C1756.42 3216.62 1683.98 3188.52 1618.41 3105.46C1552.84 3022.4 1556.4 2963.22 1556.4 2963.22C1556.4 2963.22 1589.4 3049.37 1679.78 3104.58C1770.16 3159.79 1844.8 3176.49 1844.8 3176.49C1844.8 3176.49 1830.91 3339.66 1822.62 3425.19C1814.32 3510.72 1789.22 3519.04 1775.53 3521.24C1761.84 3523.44 1791.37 3505.46 1787.93 3495.46C1784.48 3485.46 1773.29 3429.09 1747.06 3411.84C1720.83 3394.59 1699.99 3439.17 1699.99 3439.17C1699.99 3439.17 1685.52 3507.97 1669.67 3503.76C1653.81 3499.55 1651.13 3502.17 1649.36 3496.92C1647.59 3491.66 1631.74 3416.79 1611.96 3410.69C1592.19 3404.58 1551.74 3471.74 1546.36 3476.26C1540.98 3480.77 1532.24 3485.14 1532.24 3485.14L1519.43 3479.8C1519.43 3479.8 1508.72 3436.43 1505.18 3429.56C1501.64 3422.69 1480.4 3408.25 1480.4 3408.25Z" fill="#132378"/>
</g>
<g opacity="0.3">
<path d="M2577.61 3497.63C2577.61 3497.63 2542.22 3502.63 2526.19 3484.52C2510.17 3466.41 2521.41 3418.32 2521.41 3418.32C2521.41 3418.32 2512.65 3428.32 2495.17 3458.29C2477.69 3488.26 2485.17 3531.35 2495.17 3532.6C2505.17 3533.85 2549.35 3525.17 2549.35 3525.17C2549.35 3525.17 2572.61 3507 2577.61 3497.63Z" fill="#132378"/>
</g>
<g opacity="0.3">
<path d="M2457.71 3523.23C2457.71 3523.23 2428.98 3521.36 2410.25 3500.75C2391.51 3480.15 2410.25 3441.43 2410.25 3441.43C2410.25 3441.43 2390.33 3445.74 2377.58 3482.33C2364.84 3518.92 2355.32 3534.31 2369.03 3541.34C2382.74 3548.38 2418.99 3549.15 2423.99 3548.06C2428.98 3546.96 2448.34 3545.72 2452.71 3541.34C2457.08 3536.97 2457.71 3523.23 2457.71 3523.23Z" fill="#132378"/>
</g>
<g opacity="0.3">
<path d="M2309.71 3521.43C2308.51 3518.87 2279.11 3523.24 2265.37 3498.26C2251.63 3473.28 2270.37 3444.55 2270.37 3444.55C2270.37 3444.55 2263.42 3440.1 2244.1 3447.63C2224.78 3455.17 2197.88 3521.43 2197.88 3521.43L2210.42 3532.73C2210.42 3532.73 2278.08 3548.38 2293.9 3544.86C2309.71 3541.35 2314.7 3532.11 2309.71 3521.43Z" fill="#132378"/>
</g>
<g opacity="0.3">
<path d="M2539.52 3408.23C2539.52 3408.23 2411.5 3424.57 2325.32 3371.49C2239.14 3318.41 2251.63 3222.24 2264.75 3201.01C2277.86 3179.77 2393.45 3092.2 2393.45 3092.2C2393.45 3092.2 2352.07 3139.46 2261.57 3153.37C2171.08 3167.28 2164.41 3184.63 2164.41 3184.63C2164.41 3184.63 2166.08 3491.19 2173.57 3512.42C2181.07 3533.66 2194.13 3517.62 2194.13 3517.62C2194.13 3517.62 2242.06 3421.86 2273.07 3433.52C2304.09 3445.18 2316.37 3524.35 2316.37 3524.35C2316.37 3524.35 2327.82 3541.35 2330.94 3541.35C2334.06 3541.35 2350.92 3541.35 2350.92 3541.35L2363.79 3521.43C2363.79 3521.43 2384.35 3437.47 2409.16 3433.52C2433.98 3429.56 2477.65 3508.25 2477.65 3508.25L2488.93 3508.87C2488.93 3508.87 2485.19 3407.5 2539.52 3408.23Z" fill="#132378"/>
</g>
<g opacity="0.3">
<path d="M1520.24 2843.18C1520.24 2843.18 1703.55 3060.5 2017.91 2978.9C2389.97 2882.32 2362.32 2356.91 2362.32 2356.91L2439.69 2213.52C2439.69 2213.52 2408.62 2232.54 2379.77 2318.67C2350.92 2404.8 2355.89 2501.63 2417.1 2612.45C2417.1 2612.45 2373.44 2378.41 2451.48 2291.69L2468.35 2303.96C2468.35 2303.96 2519.53 2538.85 2709.37 2686.65C2776.82 2738.13 2928.22 2733.31 2963.79 2677.32L3007.75 2726.51C3007.75 2726.51 3012.37 2740.24 3009.39 2739.57C3006.41 2738.9 2964.23 2730.39 2953.49 2729.33C2942.75 2728.27 2938.62 2727.84 2934.54 2727.94C2930.46 2728.03 2926.1 2724.41 2926.62 2728.38C2927.14 2732.34 2960.41 2773.86 2977.27 2778.86C2994.14 2783.85 3013.49 2779.48 3013.49 2779.48C3013.49 2779.48 2997.56 2801.63 2995.38 2813.21C2993.21 2824.78 2982.89 2835.06 2980.4 2837.56C2977.9 2840.06 2954.17 2831.94 2952.3 2830.69C2950.42 2829.44 2879.92 2807.1 2866.93 2799.03C2853.94 2790.97 2844.26 2790.72 2844.26 2790.72C2844.26 2790.72 2871.74 2838.18 2891.72 2848.18C2911.7 2858.17 2962.5 2855.8 2956.84 2859.38C2951.18 2862.96 2943.45 2888.72 2879.81 2890.62C2816.16 2892.51 2741.01 2850.78 2725.77 2839.75C2710.53 2828.72 2606.18 2732.03 2604.69 2730.42C2603.2 2728.82 2563.25 2687.69 2563.25 2687.69C2563.25 2687.69 2534.52 2851.92 2475.2 2969.32C2415.87 3086.72 2281.69 3153.45 2201.31 3170.83C2120.92 3188.21 1960.33 3219.49 1778.85 3154C1597.36 3088.51 1542.85 2931.65 1542.85 2931.65C1542.85 2931.65 1512.63 2865.04 1520.24 2843.18Z" fill="#132378"/>
</g>
<path d="M2364.08 3566.02C2258.16 3566.02 2136.05 3552.37 2119.62 3491.36C2109.24 3452.8 2103.07 3272.55 2101.23 3210.88C2065.37 3213.15 1984.5 3216.23 1914.86 3204.12C1907.88 3234.42 1893.12 3302.58 1885.8 3367.21C1884.85 3375.63 1884.03 3383.76 1883.25 3391.58C1875.66 3467.21 1869.67 3526.95 1764.11 3540.79C1682.42 3551.5 1469.65 3554.16 1427.97 3497.13C1388.4 3442.98 1450.57 3108.87 1517.91 2948.04C1483.31 2915.78 1382.28 2796.06 1411.11 2517.95C1361.91 2509.23 1216.93 2475.38 1078.7 2363.25C1053.17 2353.79 904.838 2289.25 950.409 2082.55C950.468 2082.29 950.531 2082.02 950.604 2081.76C972.977 1998.79 1020.23 1964.66 1055.93 1950.63C1095.89 1934.93 1139.4 1937.76 1168.48 1949.23C1179.64 1935.55 1199.93 1915.73 1226.56 1911.19C1246.15 1907.85 1265.75 1913.61 1283.28 1927.86C1299.3 1940.87 1312.69 1958.13 1328.21 1978.11C1366.79 2027.8 1414.5 2089.24 1533.56 2126.91C1551.62 2103.21 1602.8 2050.37 1722.72 2008.19C1804.23 1979.53 1959.92 1967.96 2101.33 1980.05C2203.24 1988.77 2384.73 2017.54 2455.25 2112.33C2455.31 2112.41 2455.36 2112.48 2455.42 2112.55L2534.96 2223.04C2565.11 2241.18 2802.92 2385.87 2952.74 2524.77C3056.92 2621.35 3051.95 2717.01 3039.71 2765.43C3022.8 2832.36 2972.11 2887.48 2913.58 2902.59C2797.33 2932.58 2688.57 2844.47 2602.98 2754.21C2593.7 2795.13 2574.88 2868.28 2544.33 2945.69C2561.62 3038.65 2635.01 3438.27 2626.62 3480.25C2616.09 3532.89 2526.15 3564.11 2379.86 3565.92C2374.66 3565.98 2369.38 3566.02 2364.08 3566.02ZM2118.2 3174.55C2122.47 3174.55 2126.6 3176.11 2129.81 3178.97C2133.44 3182.18 2135.57 3186.75 2135.7 3191.59C2137.53 3260.96 2144.3 3448.39 2153.42 3482.26C2160.29 3507.79 2232.67 3532.68 2379.43 3530.93C2527.54 3529.1 2587.87 3495.51 2592.3 3473.39C2597.5 3443.43 2543.96 3134.7 2508.99 2947.14C2508.38 2943.88 2508.72 2940.51 2509.95 2937.43C2555.33 2823.98 2575.39 2715.41 2575.59 2714.32C2576.78 2707.77 2581.6 2702.45 2588 2700.63C2594.39 2698.79 2601.3 2700.77 2605.78 2705.71C2727.67 2840.34 2819.91 2890.62 2904.83 2868.71C2951.34 2856.7 2991.9 2811.75 3005.78 2756.86C3016.11 2715.95 3019.88 2634.74 2928.95 2550.44C2772.32 2405.23 2516.49 2252.76 2513.93 2251.24C2511.86 2250.01 2510.06 2248.37 2508.66 2246.42L2427.09 2133.12C2324.71 1995.78 1888.89 1986.85 1734.34 2041.21C1592.85 2090.97 1556.61 2154.99 1556.26 2155.63C1552.33 2162.85 1543.81 2166.49 1535.93 2164.2C1397.01 2123.78 1341.26 2051.99 1300.57 1999.58C1286.37 1981.29 1274.12 1965.5 1261.21 1955.02C1251.49 1947.12 1242.12 1944.08 1232.54 1945.67C1212.44 1949.05 1194.21 1972.03 1188.89 1980.61C1186.43 1984.55 1182.5 1987.39 1177.96 1988.44C1173.44 1989.48 1168.67 1988.72 1164.72 1986.25C1149.24 1976.58 1109.48 1967.19 1068.74 1983.2C1028.37 1999.07 999.245 2036.16 984.504 2090.49C942.37 2282.53 1086.34 2329.13 1092.49 2331.02C1094.66 2331.69 1096.73 2332.78 1098.49 2334.22C1257.11 2464.01 1430.65 2485.62 1432.38 2485.83C1437 2486.37 1441.22 2488.73 1444.1 2492.38C1446.98 2496.03 1448.29 2500.68 1447.74 2505.29C1409.72 2822.71 1547.97 2927.9 1549.37 2928.92C1556.02 2933.79 1558.45 2942.69 1555.09 2950.22C1475.79 3128.2 1433.68 3445.62 1456.24 3476.49C1479.63 3508.5 1649.68 3520.5 1759.56 3506.1C1837.61 3495.86 1841 3462.09 1848.43 3388.09C1849.23 3380.13 1850.06 3371.85 1851.03 3363.28C1861.03 3274.88 1883.78 3183.34 1884.74 3179.49C1887.03 3170.31 1896.22 3164.62 1905.45 3166.63C1993.24 3185.79 2115.36 3174.75 2116.58 3174.63C2117.12 3174.58 2117.66 3174.55 2118.2 3174.55Z" fill="#132378"/>
<path d="M2029.15 3211.33C1988.59 3211.33 1945.21 3208.2 1899.03 3201.02C1712.24 3171.96 1592.82 3091.88 1533.93 2956.18C1488.65 2851.83 1480.42 2716.94 1508.06 2531.69C1553.11 2229.68 1691.19 2029.41 1697.05 2021.03C1702.58 2013.11 1713.48 2011.19 1721.41 2016.72C1729.33 2022.25 1731.27 2033.16 1725.74 2041.08C1724.35 2043.07 1586.45 2243.39 1542.67 2536.86C1516.05 2715.35 1523.47 2844.16 1566.03 2942.25C1619.76 3066.04 1730.44 3139.37 1904.41 3166.43C1947.34 3173.11 1988.31 3176.14 2027.19 3176.14C2309.02 3176.15 2481.76 3017.15 2509.7 2938.1C2512.91 2928.99 2522.9 2924.2 2532.02 2927.43C2541.14 2930.65 2545.92 2940.65 2542.69 2949.76C2524.74 3000.55 2458.46 3077.44 2350.82 3134.71C2280.2 3172.29 2172.34 3211.33 2029.15 3211.33Z" fill="#132378"/>
<path d="M1528.55 2531.76C1527.89 2531.76 1527.24 2531.73 1526.57 2531.65L1428.4 2520.6C1418.8 2519.51 1411.89 2510.85 1412.97 2501.25C1414.06 2491.65 1422.74 2484.73 1432.32 2485.82L1530.49 2496.87C1540.09 2497.95 1547 2506.62 1545.92 2516.22C1544.91 2525.16 1537.34 2531.76 1528.55 2531.76Z" fill="#132378"/>
<path d="M1636.31 2184.9C1635.12 2184.9 1633.91 2184.78 1632.7 2184.52L1537.23 2164.52C1527.77 2162.54 1521.7 2153.26 1523.69 2143.8C1525.67 2134.34 1534.93 2128.28 1544.4 2130.26L1639.88 2150.27C1649.34 2152.25 1655.4 2161.53 1653.42 2170.99C1651.69 2179.24 1644.41 2184.9 1636.31 2184.9Z" fill="#132378"/>
<path d="M2005.43 2288.5C1978.52 2288.5 1951.69 2286.61 1925.35 2282.67C1711.46 2250.66 1657.49 2109.14 1655.3 2103.14C1651.99 2094.06 1656.66 2084.01 1665.74 2080.7C1674.79 2077.4 1684.82 2082.04 1688.15 2091.08C1690.12 2096.32 1738.22 2219.28 1930.53 2248.06C2022.71 2261.85 2122.62 2250.19 2211.84 2215.22C2296.65 2181.97 2359.93 2131.56 2385.44 2076.92C2389.53 2068.16 2399.95 2064.39 2408.7 2068.47C2417.46 2072.56 2421.24 2082.97 2417.15 2091.73C2363.73 2206.14 2183.3 2288.5 2005.43 2288.5Z" fill="#132378"/>
<path d="M2592.8 2734.95C2588.26 2734.95 2583.72 2733.19 2580.29 2729.69C2508.04 2655.83 2439.09 2569.78 2423.89 2441.41C2407.93 2306.7 2507.73 2225.86 2511.99 2222.48C2519.56 2216.48 2530.57 2217.74 2536.57 2225.32C2542.57 2232.88 2541.31 2243.86 2533.77 2249.88C2530.14 2252.78 2445.04 2322.38 2458.64 2437.29C2472.62 2555.26 2537.39 2635.78 2605.31 2705.22C2612.07 2712.13 2611.95 2723.2 2605.04 2729.96C2601.63 2733.29 2597.22 2734.95 2592.8 2734.95Z" fill="#132378"/>
<path d="M2573.21 2818.77C2569.42 2818.77 2565.61 2817.54 2562.4 2815.02C2555.51 2809.6 2393.36 2680.18 2354.2 2494.59C2308.84 2279.64 2464.11 2168.05 2470.74 2163.4C2478.66 2157.86 2489.57 2159.78 2495.11 2167.7C2500.65 2175.61 2498.73 2186.53 2490.82 2192.07C2484.96 2196.17 2347.81 2294.78 2388.45 2487.36C2424.94 2660.31 2582.47 2786.27 2584.05 2787.52C2591.64 2793.51 2592.94 2804.51 2586.96 2812.1C2583.51 2816.48 2578.38 2818.77 2573.21 2818.77Z" fill="#132378"/>
<path d="M1916.66 2343.35C1894.87 2553.56 1885.66 2768.03 1923.89 2976.82C1925.65 2985.04 1933.15 3021.12 1934.94 3029.83C1935.76 3033.54 1929.89 3035.79 1928.48 3031.43L1916.36 2989.65C1910.41 2970.52 1905.89 2945.71 1901.49 2926.05C1896.46 2901.43 1890.83 2864.95 1887.99 2839.99C1875.2 2732.23 1875.36 2622.12 1884.68 2514.13C1890.14 2456.39 1897.49 2398.87 1910.09 2342.18C1910.5 2340.38 1912.28 2339.25 1914.08 2339.65C1915.78 2340.03 1916.89 2341.66 1916.66 2343.35Z" fill="#132378"/>
<path d="M1705.49 2419.99C1796.77 2467.54 1901.41 2483.9 2003.11 2491.88C2014.38 2492.33 2043.72 2493.52 2054.64 2493.99C2094.01 2494.45 2135.98 2493.19 2175.26 2491.35C2198.22 2489.55 2221.19 2487.62 2244.29 2486.2C2246.17 2486 2247.88 2487.42 2247.99 2489.32C2248.09 2491.03 2246.89 2492.51 2245.24 2492.8C2222.4 2496.81 2199.45 2500.55 2176.45 2503.97C2049.76 2518.88 1917.01 2515.75 1795.66 2473.03C1762.58 2460.76 1730.23 2446.74 1701.61 2425.41C1698.6 2422.94 1701.46 2417.63 1705.49 2419.99Z" fill="#132378"/>
<path d="M1673.48 2814.69C1709.23 2831.71 1748.98 2842.68 1787.61 2851.91C1932.06 2884.65 2081.55 2883.62 2228.57 2872.02C2255.38 2869.19 2282.23 2866.4 2309.19 2864.03C2311.05 2863.79 2312.79 2865.16 2312.94 2867.05C2313.09 2868.77 2311.89 2870.3 2310.23 2870.62C2271.88 2877.77 2228.69 2885.47 2189.56 2889.45C2151.99 2894.17 2105.42 2897.53 2067.5 2898.17C1965.62 2900.43 1861.65 2892.24 1764 2861.46C1731.38 2851.07 1699.32 2838.83 1669.99 2820.37C1666.79 2818.18 1669.2 2812.56 1673.48 2814.69Z" fill="#132378"/>
<path d="M1093.98 2365.56C1088.95 2365.56 1085.86 2365.21 1085.21 2365.12C1075.62 2363.92 1068.83 2355.16 1070.04 2345.57C1071.24 2336.02 1079.94 2329.26 1089.47 2330.38C1092.81 2330.75 1165.67 2337.34 1225.69 2239.52C1288.94 2136.45 1299.29 2038.69 1256.45 1948.98C1252.29 1940.25 1255.99 1929.81 1264.71 1925.64C1273.45 1921.47 1283.88 1925.18 1288.04 1933.89C1335.63 2033.58 1324.39 2145.59 1255.52 2257.83C1194.95 2356.54 1119.5 2365.56 1093.98 2365.56Z" fill="#132378"/>
<path d="M1005.56 2304.82C1000.63 2304.82 995.878 2302.1 993.515 2297.39C990.19 2290.74 992.87 2282.66 999.506 2279.32C1011.85 2273.11 1055.93 2245.56 1046.06 2224.4C1034.65 2199.94 978.339 2192.03 959.516 2191.18C952.089 2190.85 946.337 2184.57 946.664 2177.14C946.991 2169.72 953.217 2163.97 960.687 2164.28C969.779 2164.68 1050.1 2169.4 1070.45 2213.01C1088.63 2251.95 1042 2288.14 1011.58 2303.39C1009.65 2304.36 1007.59 2304.82 1005.56 2304.82Z" fill="#132378"/>
<path d="M991.899 2134.93C978.535 2134.93 966.748 2133.91 960.258 2133.21C952.87 2132.42 947.524 2125.78 948.315 2118.39C949.111 2111 955.708 2105.63 963.134 2106.45C995.727 2109.93 1030.15 2106.88 1036.99 2100.05C1037.2 2090.34 1013.21 2058.72 985.741 2032.67C980.35 2027.56 980.121 2019.04 985.233 2013.64C990.345 2008.25 998.866 2008.01 1004.26 2013.13C1033 2040.36 1078.33 2089.89 1059.04 2115.62C1047.21 2131.39 1016.81 2134.93 991.899 2134.93Z" fill="#132378"/>
<path d="M1096.68 2037.25C1066.48 2037.25 1025.44 2006.45 1016.7 1999.61C1010.84 1995.03 1009.81 1986.57 1014.39 1980.72C1018.96 1974.86 1027.43 1973.83 1033.29 1978.4C1056.35 1996.42 1088.35 2013.45 1099.22 2010.05C1107.34 2007.52 1110.95 1980.41 1108.63 1958.77C1107.84 1951.38 1113.19 1944.75 1120.59 1943.96C1127.96 1943.15 1134.61 1948.52 1135.4 1955.91C1136.63 1967.39 1141.04 2025.22 1107.23 2035.75C1103.93 2036.78 1100.38 2037.25 1096.68 2037.25Z" fill="#132378"/>
<path d="M1187.2 1968.78C1192.88 2000.77 1183.88 2034.12 1168.25 2061.99C1163.32 2071.14 1156.48 2079.39 1146.63 2084.93C1146.02 2085.27 1145.24 2085.06 1144.9 2084.45C1144.57 2071.25 1149.71 2059.78 1153.34 2047.65C1160.01 2023.75 1163.17 1998.7 1160.79 1974.04C1158.06 1956.52 1183.16 1951.58 1187.2 1968.78Z" fill="#132378"/>
<path d="M1660.27 3543.03C1659.94 3543.03 1659.61 3543.02 1659.28 3543C1653.13 3542.55 1648.08 3537.98 1647.01 3531.91C1638.81 3485.35 1621.05 3430.8 1606.46 3422.99C1594.32 3424.27 1561.44 3472.83 1537.04 3525.63C1534.47 3531.19 1528.49 3534.31 1522.46 3533.24C1516.44 3532.17 1511.89 3527.17 1511.4 3521.07C1507.65 3474.78 1495.06 3428.6 1485 3424.2C1478.13 3424.39 1461.4 3450.67 1450.78 3482.95C1448.47 3490.01 1440.85 3493.87 1433.79 3491.54C1426.73 3489.22 1422.89 3481.62 1425.2 3474.56C1428.62 3464.13 1447.01 3411.51 1473.08 3399.84C1480.64 3396.45 1488.5 3396.35 1495.79 3399.53C1515.77 3408.28 1526.67 3443.95 1532.48 3475.18C1549.7 3444.06 1574.64 3405.78 1596.78 3397.86C1606.08 3394.53 1613.35 3396.41 1617.83 3398.57C1639.32 3408.97 1654.4 3449.28 1663.51 3482.63C1677.69 3448.7 1699.11 3406.84 1721.44 3397.25C1729.2 3393.93 1737.08 3393.95 1744.26 3397.33C1781.51 3414.87 1803.09 3497.29 1807.04 3513.63C1808.78 3520.85 1804.34 3528.12 1797.11 3529.87C1789.86 3531.62 1782.61 3527.17 1780.86 3519.95C1772.28 3484.51 1751.69 3430.59 1732.78 3421.69C1721.06 3422.34 1691.93 3476.82 1673.04 3533.81C1671.21 3539.34 1666.03 3543.03 1660.27 3543.03Z" fill="#132378"/>
<path d="M2316.36 3561.98C2309.49 3561.98 2303.63 3556.75 2302.97 3549.78C2298.64 3503.8 2283.95 3450.12 2269.8 3446.58C2258.41 3443.67 2227.6 3486.69 2206.46 3534.97C2203.48 3541.78 2195.55 3544.88 2188.74 3541.9C2181.92 3538.93 2178.82 3530.99 2181.8 3524.18C2193.57 3497.25 2235.12 3410.15 2276.34 3420.46C2315.82 3430.33 2327.22 3520.01 2329.78 3547.26C2330.47 3554.66 2325.03 3561.22 2317.63 3561.92C2317.2 3561.96 2316.78 3561.98 2316.36 3561.98Z" fill="#132378"/>
<path d="M2356.35 3561.98C2355.24 3561.98 2354.13 3561.85 2353.01 3561.56C2345.81 3559.73 2341.46 3552.4 2343.29 3545.19C2358.25 3486.52 2382.61 3417.1 2414.03 3419.63C2435.07 3421.32 2457.63 3456.08 2475.25 3491.33C2483.12 3442.93 2498.01 3392.99 2527.02 3394.81C2563.71 3397.08 2600.66 3468.65 2611.12 3490.53C2614.32 3497.24 2611.48 3505.27 2604.77 3508.48C2598.06 3511.69 2590.03 3508.84 2586.83 3502.14C2568.83 3464.51 2540.32 3423.69 2525.96 3421.74C2515.31 3427.93 2501.19 3484.66 2496.15 3541.95C2495.61 3548.14 2490.9 3553.15 2484.75 3554.08C2478.63 3555.03 2472.64 3551.61 2470.28 3545.86C2450.4 3497.24 2423.92 3451.96 2412.51 3446.76C2402.03 3453.43 2382.23 3501.47 2369.38 3551.84C2367.83 3557.93 2362.35 3561.98 2356.35 3561.98Z" fill="#132378"/>
<path d="M2868.86 2902.72C2863.91 2902.72 2859.15 2899.98 2856.8 2895.24C2844.72 2870.92 2817.7 2811.94 2827.54 2789.42C2830.06 2783.64 2834.65 2779.52 2840.46 2777.81C2856.75 2773.02 2898.21 2791.14 2936.21 2810.83C2895.97 2741.5 2903.2 2730.12 2906.59 2724.79C2910.05 2719.36 2917.35 2707.88 2981.6 2719.79C2957.88 2694.99 2935.1 2665.05 2939.83 2645.23C2948.22 2609.96 2999.17 2607.57 3004.96 2607.41C3012.51 2607.3 3018.57 2613.07 3018.77 2620.5C3018.97 2627.94 3013.12 2634.12 3005.68 2634.33C2994.47 2634.67 2968.87 2639.47 2966.02 2651.46C2964.83 2661.9 2997.75 2701.01 3035.11 2733.41C3039.82 2737.49 3041.11 2744.28 3038.22 2749.81C3035.33 2755.34 3029.02 2758.17 3022.98 2756.63C2989 2748 2948.04 2740.71 2931.79 2741.29C2937.43 2759.02 2962.24 2803.41 2985.59 2839.76C2988.94 2844.98 2988.29 2851.82 2984.01 2856.32C2979.73 2860.81 2972.93 2861.8 2967.55 2858.7C2923.91 2833.61 2870.64 2807.64 2852.04 2804.12C2852.93 2817.51 2865.21 2851.62 2880.91 2883.27C2884.22 2889.93 2881.5 2898.01 2874.84 2901.31C2872.92 2902.26 2870.87 2902.72 2868.86 2902.72Z" fill="#132378"/>
<g opacity="0.3">
<path d="M1710.98 2157.4C1710.98 2157.4 1803.47 2259.17 1974.16 2270.16C2144.85 2281.15 2309.71 2184.33 2309.71 2184.33V2163.29C2309.71 2163.29 2238.1 2151.55 2189.81 2144.75C2141.52 2137.94 1725.2 2072.09 1725.2 2072.09L1679.88 2084.33L1710.98 2157.4Z" fill="#132378"/>
</g>
<path d="M2022.45 2163.75C2022.45 2163.75 1507.88 2131.28 1385.48 1906.47C1263.09 1681.65 1397.97 1524.29 1407.96 1384.4C1417.96 1244.52 1494 859.084 1880.07 784.57C2357.17 692.484 2641.93 864.84 2764.33 1187.07C2879.06 1489.13 2899.21 1881.49 2641.93 2033.86C2384.65 2186.23 2119.78 2174.37 2022.45 2163.75Z" fill="#B7E925"/>
<g opacity="0.4">
<path d="M1342.19 1638.36C1342.19 1638.36 1423.78 1520.12 1442.1 1453.51C1460.42 1386.9 1484.38 1072.16 1710.54 912.299C1936.69 752.433 2313.91 776.209 2593.24 925.02C2593.24 925.02 2469.57 774.026 2119.87 759.899C1770.16 745.772 1560.55 902.134 1483.84 1097.06C1407.13 1291.98 1418.79 1396.89 1400.47 1441.85C1382.15 1486.82 1342.19 1638.36 1342.19 1638.36Z" fill="white"/>
</g>
<g opacity="0.3">
<path d="M1361.97 1559.02C1361.97 1559.02 1257.26 1979.74 1938.35 2033.03C2619.45 2086.32 2853.61 1797.69 2707.39 1067.74C2707.39 1067.74 2827.92 1217.02 2845.25 1588.39C2862.58 1959.75 2617.72 2102.3 2234.74 2164.25C1999.97 2181.24 1619.65 2131 1444.28 1978.77C1268.92 1826.53 1354.38 1583.17 1361.97 1559.02Z" fill="#132378"/>
</g>
<path d="M1805.13 1617.96C1805.13 1617.96 1895.06 1731.61 2051.18 1665.42C2051.18 1665.42 2043.68 1849.01 1898.8 1826.53C1805.13 1807.8 1783.9 1727.87 1805.13 1617.96Z" fill="#132378"/>
<path d="M2128.77 2186.79C2084.13 2186.79 2047.25 2184.05 2020.94 2181.19C1994.3 2179.47 1494.99 2144.19 1370.11 1914.83C1280.72 1750.64 1324.16 1617.51 1359.07 1510.53C1373.78 1465.44 1387.68 1422.86 1390.51 1383.16C1396.82 1294.78 1449.93 849.77 1876.75 767.387C2110.18 722.326 2307.41 738.264 2462.93 814.748C2608.74 886.445 2715.64 1009.62 2780.68 1180.86C2844.04 1347.65 2872.24 1520.67 2860.08 1668.04C2845.49 1844.78 2773.14 1976.49 2650.85 2048.91C2458.09 2163.08 2259.97 2186.79 2128.77 2186.79ZM2120.42 777.426C2046.68 777.426 1967.59 785.5 1883.38 801.752C1481.65 879.291 1431.41 1301.75 1425.42 1385.65C1422.28 1429.63 1407.73 1474.2 1392.34 1521.39C1357.81 1627.21 1318.67 1747.15 1400.85 1898.1C1517.21 2111.82 2018.51 2145.96 2023.55 2146.28C2023.82 2146.3 2024.09 2146.33 2024.35 2146.35C2124.19 2157.26 2383.38 2166.64 2633.01 2018.8C2874.67 1875.68 2864.87 1501.06 2747.97 1193.28C2643.63 918.612 2428.78 777.426 2120.42 777.426Z" fill="#132378"/>
<path d="M1626.63 1110.07C1662.42 1061.3 1738.54 1047.28 1789.13 1080.84C1796.31 1085.45 1802.73 1091.05 1808.34 1097.26C1810.56 1099.74 1810.37 1103.55 1807.9 1105.78C1806.22 1107.29 1803.94 1107.68 1801.93 1107.01C1773.49 1098.14 1746.75 1093.8 1717.95 1097.61C1689.29 1101.24 1662.32 1110.72 1633.92 1119.18C1628.47 1121.4 1623.22 1114.87 1626.63 1110.07Z" fill="#132378"/>
<path d="M2224.61 1174.39C2273.4 1134.43 2348.38 1149.9 2391 1191.62C2400.93 1200.77 2409.2 1211.64 2416.3 1222.97C2418.06 1225.73 2417.24 1229.4 2414.47 1231.16C2412.39 1232.49 2409.91 1232.3 2407.94 1231.11C2400.2 1227.13 2393.35 1222.5 2386.33 1218.32C2381.05 1215.67 2375.54 1212.48 2370.44 1209.56C2360 1204.34 2349.28 1199.59 2338.42 1195.39C2311.33 1185.86 2282.87 1182.51 2254.05 1183.25C2245.9 1183.56 2237.24 1184.19 2228.97 1184.84C2223.4 1185.48 2220.28 1177.85 2224.61 1174.39Z" fill="#132378"/>
<path d="M1685.23 1544.27C1751.45 1544.27 1805.13 1478.1 1805.13 1396.48C1805.13 1314.85 1751.45 1248.68 1685.23 1248.68C1619.01 1248.68 1565.33 1314.85 1565.33 1396.48C1565.33 1478.1 1619.01 1544.27 1685.23 1544.27Z" fill="#132378"/>
<path d="M1710.54 1396.48C1732.24 1396.48 1749.83 1374.79 1749.83 1348.05C1749.83 1321.3 1732.24 1299.62 1710.54 1299.62C1688.84 1299.62 1671.25 1321.3 1671.25 1348.05C1671.25 1374.79 1688.84 1396.48 1710.54 1396.48Z" fill="white"/>
<path d="M1653.24 1471.54C1665.93 1481.96 1671.65 1495.95 1666.03 1502.79C1660.41 1509.64 1645.57 1506.75 1632.89 1496.33C1620.2 1485.91 1614.48 1471.92 1620.1 1465.07C1625.72 1458.23 1640.56 1461.12 1653.24 1471.54Z" fill="#777E89"/>
<path d="M2390.66 1490.65C2398 1407.15 2349.03 1334.64 2281.29 1328.69C2213.55 1322.74 2152.69 1385.6 2145.36 1469.1C2138.02 1552.6 2186.99 1625.11 2254.73 1631.06C2322.47 1637.01 2383.33 1574.15 2390.66 1490.65Z" fill="#132378"/>
<path d="M2286.67 1431.6C2289.08 1404.23 2273.03 1380.47 2250.83 1378.52C2228.63 1376.57 2208.69 1397.17 2206.29 1424.53C2203.88 1451.9 2219.93 1475.66 2242.13 1477.61C2264.33 1479.56 2284.27 1458.96 2286.67 1431.6Z" fill="white"/>
<path d="M2312.62 1586.8C2326.53 1577.28 2333.65 1563.48 2328.51 1555.97C2323.38 1548.47 2307.93 1550.09 2294.02 1559.61C2280.11 1569.12 2273 1582.92 2278.13 1590.43C2283.27 1597.94 2298.71 1596.31 2312.62 1586.8Z" fill="#777E89"/>
<path d="M1816.48 1772.04C1816.48 1772.04 1871.51 1690.84 2039.4 1728.09C2039.4 1728.09 2023.35 1815.96 1937.97 1827.49C1852.59 1839.02 1816.48 1772.04 1816.48 1772.04Z" fill="#FF3E7B"/>
<path d="M1922.67 1845.95C1914.12 1845.95 1905.26 1845.24 1896.12 1843.82C1895.87 1843.79 1895.62 1843.74 1895.37 1843.69C1828.75 1830.37 1756.04 1779.82 1787.95 1614.64C1789.25 1607.92 1794.34 1602.58 1800.99 1600.96C1807.63 1599.35 1814.57 1601.73 1818.82 1607.06C1822.19 1611.26 1902.96 1709.26 2044.34 1649.31C2049.86 1646.97 2056.21 1647.61 2061.13 1651.03C2066.06 1654.44 2068.9 1660.14 2068.66 1666.13C2068.49 1670.28 2063.82 1768.35 2003.36 1818.04C1980.77 1836.61 1953.71 1845.95 1922.67 1845.95ZM1901.85 1809.3C1934.18 1814.24 1960.07 1808.27 1981.04 1791.08C2012.27 1765.48 2025.11 1720.57 2030.29 1691.75C1927.59 1723.91 1853.78 1682.87 1817.29 1653.55C1801.75 1788.6 1875.73 1804.07 1901.85 1809.3Z" fill="#132378"/>
<path d="M1816.46 1789.43C1813.03 1789.43 1809.57 1788.43 1806.56 1786.34C1798.68 1780.88 1796.61 1770.16 1801.99 1762.22C1804.51 1758.5 1865.75 1671.64 2043.19 1711C2052.63 1713.09 2058.58 1722.44 2056.49 1731.87C2054.39 1741.31 2045.05 1747.28 2035.61 1745.17C1883 1711.32 1832.91 1779.1 1830.86 1782.01C1827.43 1786.83 1821.98 1789.43 1816.46 1789.43Z" fill="#132378"/>
<g opacity="0.3">
<path d="M1793.11 864.839C1793.11 864.839 2058.25 1065.5 2339.68 1128.78C2621.12 1192.06 2732.69 1079.48 2732.69 1079.48C2732.69 1079.48 2471.24 1007.22 2421.28 993.897C2371.32 980.575 2160.95 925.679 2077.13 905.667C1993.31 885.654 1881.73 850.847 1881.73 850.847L1793.11 864.839Z" fill="#132378"/>
</g>
<path d="M1735.19 829.036C1735.19 829.036 1776.81 827.371 2089.89 978.91C2402.96 1130.45 2723.77 1097.06 2723.77 1097.06L2754.26 1151.38C2754.26 1151.38 2895.88 1118.79 2864.24 1028.87C2832.6 938.943 2689.39 965.588 2689.39 965.588C2689.39 965.588 2667.74 839.027 2704.38 739.111C2741.01 639.195 2674.4 529.287 2419.62 479.329C2164.83 429.371 1948.35 392.735 1898.39 479.329C1848.43 565.923 1826.78 722.458 1826.78 722.458C1826.78 722.458 1645.26 655.847 1565.33 725.789C1485.4 795.73 1637.35 896.154 1637.35 896.154C1637.35 896.154 1705.21 849.019 1735.19 829.036Z" fill="#686C87"/>
<path d="M1956.69 674.708C1956.69 674.708 2092.91 665.164 2296.23 720.039C2499.55 774.914 2635.76 870.282 2635.76 870.282L2673.67 897.893L2683.65 922.29V951.016L2664.41 962.257C2664.41 962.257 2474.41 985.501 2334.5 934.148C2194.6 882.795 2068.52 816.187 1987.14 781.888C1905.76 747.589 1834.38 722.458 1834.38 722.458L1828.56 710.768L1839.79 677.516L1875.07 674.073L1956.69 674.708Z" fill="#B7B7B7"/>
<g opacity="0.4">
<path d="M1863.83 728.703C1863.83 728.703 2184.81 701.226 2542.01 814.881C2542.01 814.881 2379.1 719.094 2113.35 683.308C2004.96 666.256 1888.81 674.986 1888.81 674.986C1888.81 674.986 1911.29 507.639 1988.73 486.407C2066.16 465.175 2431.63 492.599 2617.34 548.204C2617.34 548.204 2604.19 506.952 2369.3 469.566C2134.4 432.18 1985.39 405.23 1923.36 453.312C1861.33 501.394 1834.38 693.557 1834.38 693.557C1834.38 693.557 1826.36 722.456 1863.83 728.703Z" fill="white"/>
</g>
<g opacity="0.4">
<path d="M1548.15 800.049C1548.15 800.049 1552.35 724.957 1671.25 728.704C1790.14 732.451 2057.61 872.334 2225.5 931.034C2393.39 989.734 2550.76 972.992 2550.76 972.992C2550.76 972.992 2327.39 938.612 2246.44 904.15C2165.48 869.688 1921.02 732.624 1753.17 702.562C1585.32 672.5 1530.96 731.511 1548.15 800.049Z" fill="white"/>
</g>
<g opacity="0.3">
<path d="M1589.06 847.032C1589.06 847.032 1560.34 752.433 1685.23 753.682C1810.13 754.931 2098.64 947.27 2373.41 1009.72C2648.18 1072.16 2760.58 998.476 2808.04 1028.45C2855.5 1058.43 2834.45 1114.63 2834.45 1114.63C2834.45 1114.63 2776.4 1153.52 2769.32 1151.38C2762.25 1149.24 2754.25 1151.38 2754.25 1151.38L2723.77 1097.06C2723.77 1097.06 2406.7 1123.41 2158.52 1009.24C1910.34 895.081 1766.98 824.896 1741.09 829.879C1715.21 834.862 1648.78 879.56 1643.06 887.856C1637.35 896.152 1605.01 854.818 1589.06 847.032Z" fill="#132378"/>
</g>
<g opacity="0.3">
<path d="M1888.81 728.703C1888.81 728.703 2196.05 804.889 2309.71 824.872C2423.36 844.855 2445.84 811.133 2445.84 811.133C2445.84 811.133 2586.98 869.001 2638.18 917.294V967.504C2638.18 967.504 2526.81 990.411 2365.18 942.612C2203.55 894.813 2072.88 820.788 2072.88 820.788L1888.81 728.703Z" fill="#132378"/>
</g>
<g opacity="0.3">
<path d="M2191.06 692.484C2191.06 692.484 2460.83 714.965 2552 571.336C2552 571.336 2670.66 637.531 2669.41 681.244C2668.16 724.957 2638.18 762.174 2638.18 864.84C2638.18 864.84 2448.34 736.197 2191.06 692.484Z" fill="#132378"/>
</g>
<path d="M2754.25 1168.88C2748.03 1168.88 2742.14 1165.55 2738.99 1159.95L2714.03 1115.46C2652.8 1120.03 2366.67 1132.33 2082.26 994.661C1831.52 873.291 1757.01 851.307 1739.28 847.361C1707.65 868.643 1647.97 910.083 1647.34 910.525C1641.44 914.612 1633.68 914.7 1627.7 910.752C1617.64 904.102 1529.26 843.86 1524.77 777.49C1523.13 753.11 1533.17 730.679 1553.81 712.619C1624.78 650.522 1761.16 683.705 1812.68 699.396C1820.47 653.241 1842.57 541.046 1883.23 470.583C1938.19 375.292 2141.61 406.984 2422.99 462.155C2571.77 491.327 2671.56 544.306 2711.58 615.363C2734.09 655.336 2737.28 700.212 2720.81 745.134C2693.85 818.65 2700.21 909.123 2704.4 945.913C2747.13 941.597 2851.56 940.11 2880.75 1023.06C2889.61 1048.25 2888.03 1072.05 2876.05 1093.81C2846.46 1147.58 2761.77 1167.61 2758.18 1168.44C2756.87 1168.74 2755.56 1168.88 2754.25 1168.88ZM2723.77 1079.56C2730.05 1079.56 2735.92 1082.94 2739.04 1088.49L2762.8 1130.85C2788.01 1122.9 2830.15 1104.7 2845.42 1076.89C2852.46 1064.06 2853.22 1050.26 2847.73 1034.68C2821.47 960.025 2693.85 982.564 2692.57 982.796C2687.96 983.648 2683.21 982.613 2679.37 979.932C2675.54 977.254 2672.93 973.15 2672.14 968.538C2671.23 963.184 2650.14 836.197 2687.95 733.086C2700.97 697.581 2698.66 663.753 2681.08 632.539C2656.79 589.407 2591.13 530.793 2416.25 496.504C2213.1 456.67 1960.26 407.095 1913.55 488.076C1865.85 570.749 1844.33 723.323 1844.12 724.856C1843.39 730.098 1840.33 734.729 1835.8 737.456C1831.26 740.181 1825.71 740.708 1820.76 738.889C1819.05 738.261 1648.02 676.697 1576.86 738.96C1564.41 749.851 1558.79 761.675 1559.69 775.105C1562.16 811.936 1610.16 854.668 1637.42 874.812C1657.52 860.894 1702.65 829.7 1725.48 814.475C1728.16 812.69 1731.28 811.68 1734.49 811.55C1742.28 811.24 1795.79 817.114 2097.51 963.159C2402.18 1110.63 2718.82 1079.98 2721.97 1079.65C2722.57 1079.59 2723.17 1079.56 2723.77 1079.56Z" fill="#132378"/>
<path d="M2596.77 988.527C2404.29 988.527 2237.75 919.977 2082.55 848.254C1926.54 776.159 1822.03 739.338 1820.99 738.974C1811.87 735.778 1807.07 725.793 1810.27 716.672C1813.46 707.551 1823.45 702.746 1832.57 705.942C1833.62 706.311 1939.56 743.618 2097.23 816.482C2280.06 900.974 2462.8 974.636 2687.34 948.208C2696.98 947.073 2705.64 953.948 2706.77 963.542C2707.9 973.142 2701.03 981.838 2691.43 982.968C2659.18 986.762 2627.64 988.527 2596.77 988.527Z" fill="#132378"/>
<path d="M2683.64 923.168C2679.83 923.168 2675.99 921.93 2672.77 919.376C2331.83 648.853 1841.05 694.896 1836.14 695.404C1826.52 696.359 1817.94 689.364 1816.97 679.75C1816 670.136 1823 661.552 1832.62 660.58C1837.79 660.062 1961.29 648.031 2129.88 670.204C2285.81 690.709 2510.36 745.829 2694.53 891.959C2702.1 897.967 2703.37 908.973 2697.36 916.544C2693.91 920.897 2688.8 923.168 2683.64 923.168Z" fill="#132378"/>
<path d="M2388.94 1786.21C2393.12 1759.26 2355.47 1731.07 2304.86 1723.23C2254.25 1715.4 2209.84 1730.89 2205.67 1757.83C2201.5 1784.77 2239.15 1812.96 2289.76 1820.8C2340.36 1828.64 2384.77 1813.15 2388.94 1786.21Z" fill="#FF7895"/>
<path d="M1647.15 1665.52C1652.05 1641.48 1619.41 1614.54 1574.25 1605.34C1529.1 1596.15 1488.52 1608.18 1483.63 1632.22C1478.73 1656.26 1511.37 1683.2 1556.53 1692.4C1601.69 1701.59 1642.26 1689.55 1647.15 1665.52Z" fill="#FF7895"/>
</g>
<defs>
<clipPath id="clip0_7_428">
<rect width="4000" height="4000" fill="white"/>
</clipPath>
</defs>
</svg>
